<?xml version="1.0" standalone="no"?>
<!DOCTYPE svg PUBLIC "-//W3C//DTD SVG 20010904//EN"
 "http://www.w3.org/TR/2001/REC-SVG-20010904/DTD/svg10.dtd">
<svg version="1.0" xmlns="http://www.w3.org/2000/svg"
 width="1024.000000pt" height="1024.000000pt" viewBox="0 0 1024.000000 1024.000000"
 preserveAspectRatio="xMidYMid meet">

<g transform="translate(0.000000,1024.000000) scale(0.100000,-0.100000)"
fill="#000000" stroke="none">
<path d="M4889 9670 c-209 -35 -445 -147 -694 -328 -236 -171 -556 -460 -652
-587 -56 -74 -104 -169 -131 -257 -12 -37 -51 -201 -87 -364 -64 -292 -119
-517 -210 -859 -78 -295 -105 -515 -86 -692 26 -232 79 -342 285 -598 115
-144 151 -249 144 -422 -5 -116 -31 -184 -99 -258 -61 -66 -122 -95 -203 -95
-80 0 -111 11 -157 57 l-37 35 -6 -28 c-9 -41 9 -125 39 -185 49 -96 151 -174
245 -186 22 -3 40 -7 40 -9 0 -2 -20 -34 -44 -71 -61 -95 -130 -235 -156 -318
-45 -145 -35 -331 25 -462 14 -30 25 -62 25 -71 0 -40 -367 -982 -392 -1008
-4 -3 -651 136 -908 196 -74 17 -236 53 -360 80 -124 26 -291 63 -372 80 -94
21 -157 30 -175 26 -39 -10 -100 -78 -113 -126 -9 -34 -8 -47 8 -83 16 -35
347 -514 500 -721 l43 -60 -32 -15 c-92 -45 -106 -184 -26 -268 17 -18 45 -37
62 -43 31 -10 32 -12 27 -60 -2 -27 -1 -65 2 -85 9 -48 68 -112 117 -127 30
-8 41 -18 45 -37 18 -82 28 -105 55 -136 22 -24 48 -40 85 -51 45 -13 57 -21
68 -48 14 -33 69 -86 89 -86 16 0 377 -174 377 -182 0 -7 -151 -58 -305 -103
-134 -39 -244 -96 -315 -162 -83 -76 -104 -119 -105 -210 0 -86 16 -114 91
-155 117 -65 379 -134 464 -122 68 10 204 43 243 59 44 18 83 64 91 108 6 34
11 37 116 81 149 63 375 126 409 115 6 -2 -23 -49 -64 -103 -41 -55 -75 -105
-75 -112 0 -14 59 -36 375 -139 486 -159 708 -213 1110 -269 253 -36 347 -44
620 -57 390 -18 832 4 1145 57 291 49 623 137 835 221 131 52 443 209 570 287
61 38 175 107 255 155 l144 86 281 280 c321 319 467 488 622 720 105 157 112
182 143 460 51 467 127 913 216 1270 51 204 103 364 216 664 175 465 197 546
205 781 12 346 -65 617 -382 1334 -174 395 -200 475 -311 974 -125 561 -173
731 -251 886 -107 212 -270 325 -584 405 -310 79 -655 112 -949 92 -91 -7
-172 -14 -182 -17 -12 -3 -33 21 -80 93 -276 421 -626 681 -987 733 -93 14
-248 9 -352 -11 -63 -11 -69 -11 -102 10 -20 12 -66 28 -104 36 -72 16 -265
18 -344 5z m5 -780 c144 -24 170 -32 260 -78 86 -45 168 -120 258 -235 92
-120 157 -228 284 -469 182 -346 374 -688 451 -805 l74 -112 6 -261 c3 -143 9
-257 13 -253 13 14 59 146 71 203 7 30 15 59 19 63 14 16 99 -215 114 -309 7
-40 5 -43 -35 -78 -49 -41 -98 -59 -149 -54 -29 2 -35 7 -32 25 5 38 -16 34
-23 -4 -11 -59 -82 -240 -126 -323 -57 -106 -135 -204 -246 -311 -200 -190
-415 -344 -636 -454 -191 -95 -310 -115 -439 -75 -132 41 -184 96 -595 640
-315 418 -370 576 -324 940 11 91 22 195 23 232 2 38 6 68 9 68 11 0 46 -46
59 -77 7 -18 30 -49 52 -69 41 -37 135 -84 166 -84 9 0 -15 14 -55 31 -99 42
-120 63 -128 134 -16 125 51 215 160 215 19 0 35 -2 35 -3 0 -2 -7 -19 -16
-36 -9 -18 -19 -61 -22 -96 -9 -119 59 -215 153 -215 57 0 87 19 113 70 17 33
22 56 18 85 l-5 40 26 -55 c34 -70 39 -55 13 35 -23 77 -28 97 -29 106 -3 21
-102 114 -145 137 -44 23 -63 27 -141 27 -101 0 -134 -12 -198 -74 l-38 -36
-18 22 c-13 16 -22 55 -31 135 -17 158 -16 159 50 180 68 21 187 23 260 3 30
-8 91 -33 136 -55 102 -51 114 -51 114 -3 0 29 -8 43 -41 75 -71 67 -201 117
-306 118 -53 0 -152 -31 -193 -60 l-33 -23 7 99 c16 218 57 396 126 542 121
254 279 389 544 464 148 43 223 46 390 18z m-580 -1586 c9 -8 16 -19 16 -24 0
-5 -7 -16 -16 -24 -35 -36 -86 -6 -66 39 13 29 43 33 66 9z m1690 -1390 c-10
-47 -18 -134 -20 -215 l-2 -135 -70 -145 c-111 -230 -174 -406 -203 -564 l-12
-64 -78 -35 c-205 -94 -484 -122 -659 -67 -63 19 -168 92 -193 132 -8 12 3 47
44 140 l54 124 12 -65 c7 -36 12 -75 13 -87 0 -13 4 -23 9 -23 12 0 43 142 50
232 l6 80 90 33 c50 17 127 51 172 73 227 115 604 420 748 605 28 35 51 63 53
62 2 -2 -4 -38 -14 -81z m-1234 -1190 c56 -58 159 -109 252 -124 101 -17 303
-8 403 19 62 16 191 71 255 108 3 2 5 -37 6 -86 1 -49 4 -100 7 -113 6 -22 1
-27 -43 -48 -60 -28 -60 -36 0 -15 35 12 45 13 52 3 15 -24 8 -55 -41 -179
-156 -394 -321 -926 -405 -1304 -92 -417 -126 -740 -126 -1202 l0 -231 -50
-11 c-57 -12 -134 -46 -151 -67 -24 -29 -30 -26 -254 150 -148 116 -233 159
-388 196 -74 17 -167 48 -228 76 -123 55 -157 62 -198 41 l-31 -15 -21 46
c-23 51 -30 82 -90 407 -22 121 -41 247 -40 280 1 151 79 396 221 691 l67 141
73 22 c40 12 69 25 65 29 -3 4 -25 12 -48 18 -23 6 -41 16 -40 21 1 6 54 96
116 200 63 103 167 287 232 408 64 121 142 264 173 319 l55 98 20 -28 c41 -59
130 -135 194 -165 161 -77 383 -89 563 -30 53 17 104 37 115 46 15 11 7 10
-36 -4 -96 -32 -199 -44 -331 -38 -198 9 -337 60 -451 166 l-66 62 45 56 c25
31 51 67 56 79 6 13 14 24 18 24 3 0 26 -21 50 -46z m-3797 -1461 c-7 -2 -19
-2 -25 0 -7 3 -2 5 12 5 14 0 19 -2 13 -5z m-57 -25 c-26 -36 -19 -45 44 -58
33 -7 58 -15 56 -17 -5 -6 -118 18 -128 26 -8 7 27 71 37 71 4 0 -1 -10 -9
-22z m101 16 c-3 -3 -12 -4 -19 -1 -8 3 -5 6 6 6 11 1 17 -2 13 -5z m73 -14
c20 -6 21 -8 5 -8 -11 0 -31 4 -45 8 -20 6 -21 8 -5 8 11 0 31 -4 45 -8z
m-103 -29 c0 -11 -5 -18 -9 -15 -4 3 -5 11 -1 19 7 21 12 19 10 -4z m66 12
c-7 -2 -21 -2 -30 0 -10 3 -4 5 12 5 17 0 24 -2 18 -5z m94 1 c-3 -3 -12 -4
-19 -1 -8 3 -5 6 6 6 11 1 17 -2 13 -5z m-50 -10 c-3 -3 -12 -4 -19 -1 -8 3
-5 6 6 6 11 1 17 -2 13 -5z m96 -1 c-7 -2 -19 -2 -25 0 -7 3 -2 5 12 5 14 0
19 -2 13 -5z m-50 -10 c-7 -2 -19 -2 -25 0 -7 3 -2 5 12 5 14 0 19 -2 13 -5z
m94 1 c-3 -3 -12 -4 -19 -1 -8 3 -5 6 6 6 11 1 17 -2 13 -5z m-50 -10 c-3 -3
-12 -4 -19 -1 -8 3 -5 6 6 6 11 1 17 -2 13 -5z m-160 -10 c-3 -3 -12 -4 -19
-1 -8 3 -5 6 6 6 11 1 17 -2 13 -5z m216 -1 c-7 -2 -21 -2 -30 0 -10 3 -4 5
12 5 17 0 24 -2 18 -5z m-176 -9 c-3 -3 -12 -4 -19 -1 -8 3 -5 6 6 6 11 1 17
-2 13 -5z m300 0 c-3 -3 -12 -4 -19 -1 -8 3 -5 6 6 6 11 1 17 -2 13 -5z m-227
-14 c20 -6 21 -8 5 -8 -11 0 -31 4 -45 8 -20 6 -21 8 -5 8 11 0 31 -4 45 -8z
m267 4 c-3 -3 -12 -4 -19 -1 -8 3 -5 6 6 6 11 1 17 -2 13 -5z m-317 -14 c20
-6 21 -8 5 -8 -11 0 -31 4 -45 8 -20 6 -21 8 -5 8 11 0 31 -4 45 -8z m390 0
c20 -6 21 -8 5 -8 -11 0 -29 3 -40 8 -25 11 1 11 35 0z m-245 -11 c11 0 2 -5
-19 -10 -21 -5 -41 -7 -44 -4 -3 3 3 5 14 6 18 0 18 1 -1 10 -17 8 -17 9 5 4
14 -2 34 -5 45 -6z m-88 -5 c-3 -3 -12 -4 -19 -1 -8 3 -5 6 6 6 11 1 17 -2 13
-5z m400 0 c-3 -3 -12 -4 -19 -1 -8 3 -5 6 6 6 11 1 17 -2 13 -5z m40 -10 c-3
-3 -12 -4 -19 -1 -8 3 -5 6 6 6 11 1 17 -2 13 -5z m-350 -10 c-3 -3 -12 -4
-19 -1 -8 3 -5 6 6 6 11 1 17 -2 13 -5z m440 -10 c-3 -3 -12 -4 -19 -1 -8 3
-5 6 6 6 11 1 17 -2 13 -5z m-350 -10 c-3 -3 -12 -4 -19 -1 -8 3 -5 6 6 6 11
1 17 -2 13 -5z m50 -10 c-3 -3 -12 -4 -19 -1 -8 3 -5 6 6 6 11 1 17 -2 13 -5z
m390 0 c-3 -3 -12 -4 -19 -1 -8 3 -5 6 6 6 11 1 17 -2 13 -5z m-350 -10 c-3
-3 -12 -4 -19 -1 -8 3 -5 6 6 6 11 1 17 -2 13 -5z m90 -20 c-3 -3 -12 -4 -19
-1 -8 3 -5 6 6 6 11 1 17 -2 13 -5z m430 -10 c-3 -3 -12 -4 -19 -1 -8 3 -5 6
6 6 11 1 17 -2 13 -5z m-340 -10 c-3 -3 -12 -4 -19 -1 -8 3 -5 6 6 6 11 1 17
-2 13 -5z m60 -10 c-3 -3 -12 -4 -19 -1 -8 3 -5 6 6 6 11 1 17 -2 13 -5z
m-112 -759 c176 -29 225 -45 260 -87 32 -38 32 -63 -1 -85 -23 -15 -43 -16
-212 -6 -205 11 -240 20 -267 73 -23 44 -20 96 7 114 29 20 29 20 213 -9z
m330 -286 c134 -12 221 -35 240 -63 20 -28 19 -62 -4 -85 -41 -41 -488 -35
-585 8 -30 13 -48 29 -59 54 -18 37 -22 88 -9 102 8 8 249 0 417 -16z m2160
-154 c80 -40 144 -64 235 -86 173 -43 199 -57 426 -235 166 -130 184 -141 269
-154 92 -15 120 -33 165 -108 56 -93 82 -200 88 -364 l5 -138 -91 0 c-50 0
-189 -14 -309 -31 -249 -35 -449 -47 -643 -38 -154 7 -233 25 -334 76 -62 31
-236 149 -236 159 0 3 21 -6 48 -19 99 -50 222 -82 222 -58 0 5 -15 15 -32 22
-62 25 -283 151 -373 211 -120 82 -307 224 -375 287 l-55 51 90 -58 c194 -126
502 -284 638 -327 144 -46 157 -27 27 40 -434 224 -760 410 -873 500 -48 38
-58 51 -55 72 6 48 28 49 103 2 249 -153 964 -432 943 -368 -7 21 -70 54 -208
108 -432 170 -768 340 -778 394 -2 10 2 25 9 34 19 22 156 13 234 -17 279
-105 394 -137 675 -190 129 -24 438 -39 480 -23 22 9 19 12 -40 31 -69 23
-178 41 -246 42 -50 0 -57 7 -128 130 -76 133 -55 142 119 55z m-1850 -95 c38
-14 30 -50 -15 -72 -93 -46 -391 -75 -462 -45 -39 16 -62 45 -73 89 l-7 28
218 3 c121 1 240 3 266 5 26 1 59 -3 73 -8z m-90 -186 c-41 -33 -146 -75 -197
-81 -47 -4 -56 -2 -76 19 l-23 25 83 6 c46 4 112 15 148 26 82 24 90 24 65 5z"/>
<path d="M5290 7893 c-232 -36 -390 -128 -390 -225 0 -23 4 -28 26 -28 14 0
23 -4 20 -9 -3 -5 34 13 82 40 135 75 248 102 437 103 140 1 155 -1 228 -27
43 -15 110 -45 149 -67 39 -22 73 -39 75 -36 2 2 -29 37 -69 78 -124 126 -255
179 -434 177 -55 -1 -110 -3 -124 -6z"/>
<path d="M5325 7559 c-63 -8 -116 -30 -166 -70 -45 -35 -46 -52 -2 -21 116 83
322 81 481 -3 74 -39 64 -19 -13 25 -102 58 -202 81 -300 69z"/>
<path d="M4492 7463 c12 -58 19 -134 20 -223 2 -193 -18 -279 -109 -472 -59
-127 -68 -180 -39 -236 33 -63 129 -124 231 -146 l30 -6 -35 27 c-61 48 -135
127 -153 165 l-17 37 50 120 c80 189 93 250 93 426 0 109 -4 169 -17 220 -15
63 -59 175 -69 175 -1 0 5 -39 15 -87z"/>
<path d="M4059 7526 c-40 -14 -112 -56 -106 -62 1 -2 23 7 48 19 35 18 61 22
129 22 87 0 100 -4 188 -56 l37 -21 -30 26 c-16 15 -57 40 -90 57 -66 32 -117
36 -176 15z"/>
<path d="M5277 7480 c-127 -40 -201 -115 -233 -232 -22 -82 -18 -97 12 -52 65
97 145 160 242 188 51 15 66 10 38 -14 -27 -21 -49 -108 -43 -167 11 -109 76
-163 194 -163 56 0 66 3 98 32 53 46 75 96 75 170 l1 63 25 -29 c25 -28 26
-35 22 -113 -2 -46 -1 -80 2 -76 11 13 30 74 30 98 0 16 9 26 30 35 35 15 90
74 90 97 0 11 -4 13 -12 6 -7 -6 -26 -13 -41 -17 -25 -6 -36 0 -78 39 -58 54
-53 59 8 9 24 -20 46 -34 49 -31 10 9 -120 110 -172 134 -101 46 -237 55 -337
23z m251 -152 c18 -18 15 -42 -7 -62 -34 -31 -83 13 -61 55 12 21 50 25 68 7z"/>
<path d="M4892 6563 c-2 -27 -29 -45 -104 -67 -32 -10 -60 -21 -63 -26 -2 -4
28 -5 68 -3 89 6 110 22 104 79 -2 21 -4 29 -5 17z"/>
<path d="M5345 6350 c11 -5 32 -9 48 -9 41 -1 33 -19 -15 -32 -141 -38 -209
-42 -647 -44 -418 -2 -435 -1 -453 17 -11 11 -22 17 -25 15 -9 -10 17 -45 62
-85 33 -29 53 -59 75 -112 61 -148 146 -257 230 -296 103 -48 259 -35 397 32
130 63 317 263 399 426 30 60 37 68 50 57 10 -9 14 -25 12 -47 -4 -30 -3 -32
9 -16 20 28 17 81 -6 94 -11 5 -50 10 -88 9 -47 0 -62 -3 -48 -9z m-115 -177
c-121 -110 -278 -193 -409 -214 -161 -27 -282 29 -375 174 -19 29 -19 29 0 23
104 -33 307 -43 459 -22 120 16 313 58 343 75 32 18 24 2 -18 -36z"/>
<path d="M4634 5762 c32 -37 98 -56 174 -49 67 6 178 34 169 43 -2 3 -24 0
-48 -5 -91 -21 -202 -12 -294 24 -20 8 -20 8 -1 -13z"/>
</g>
</svg>
