<?xml version="1.0" standalone="no"?>
<!DOCTYPE svg PUBLIC "-//W3C//DTD SVG 20010904//EN"
 "http://www.w3.org/TR/2001/REC-SVG-20010904/DTD/svg10.dtd">
<svg version="1.0" xmlns="http://www.w3.org/2000/svg"
 width="512.000000pt" height="514.000000pt" viewBox="0 0 512.000000 514.000000"
 preserveAspectRatio="xMidYMid meet">

<g transform="translate(0.000000,514.000000) scale(0.100000,-0.100000)"
fill="#000000" stroke="none">
<path d="M2310 4694 c-474 -41 -791 -117 -1160 -279 -212 -93 -480 -248 -609
-353 l-44 -36 6 -250 c7 -260 16 -394 43 -581 137 -971 585 -1765 1314 -2327
201 -155 505 -333 673 -394 37 -13 38 -13 143 47 749 425 1266 937 1609 1594
223 426 347 900 371 1420 6 125 -7 399 -22 474 -5 21 -30 40 -137 103 -535
311 -1078 501 -1612 563 -135 16 -482 27 -575 19z m560 -89 c407 -47 776 -153
1182 -340 174 -81 443 -226 491 -266 l32 -27 0 -298 c0 -165 -4 -312 -8 -328
l-8 -29 -67 7 c-37 3 -169 9 -293 13 l-226 6 23 -101 c34 -153 50 -377 35
-505 -27 -245 -117 -438 -269 -579 -123 -114 -235 -157 -424 -165 -190 -8
-319 16 -453 83 l-53 27 -31 -22 c-88 -63 -251 -111 -375 -111 -356 0 -593
242 -547 559 30 206 167 344 413 415 78 22 293 56 359 56 34 0 34 2 13 63 -10
31 -30 59 -57 82 -38 33 -45 35 -112 35 -89 0 -207 -29 -304 -75 -41 -20 -75
-34 -76 -33 -4 5 -56 120 -66 146 -5 13 -18 26 -29 29 -22 6 -26 19 -8 25 6 2
9 8 6 14 -6 9 -212 1 -279 -11 -27 -5 -40 -3 -53 11 -17 17 -19 17 -37 -7 -10
-13 -32 -58 -48 -99 -130 -324 -117 -762 31 -1053 98 -194 302 -381 499 -457
159 -61 270 -80 479 -80 299 0 459 48 653 194 l87 66 -2 -212 -3 -213 -95 -48
c-177 -88 -359 -135 -565 -146 -396 -19 -737 67 -1010 257 -101 70 -264 234
-332 333 -112 164 -185 344 -225 558 -29 156 -31 476 -4 621 20 106 48 220 65
264 7 16 9 31 6 34 -3 3 -5 0 -5 -6 0 -6 -10 -9 -22 -6 -13 3 -137 6 -276 6
-191 1 -256 -2 -261 -11 -16 -25 -51 383 -51 592 0 139 -10 123 152 230 415
274 942 458 1448 506 235 23 479 21 700 -4z m-1730 -1335 c0 -5 -4 -10 -10
-10 -5 0 -10 5 -10 10 0 6 5 10 10 10 6 0 10 -4 10 -10z"/>
<path d="M3420 3299 c-36 -4 -81 -5 -100 -3 -28 4 -32 3 -20 -6 13 -10 12 -11
-5 -7 -11 3 -29 8 -40 13 -18 7 -18 6 -6 -9 12 -15 10 -17 -20 -16 -19 0 -28
3 -21 6 17 7 15 23 -3 23 -25 0 -76 -30 -70 -40 4 -6 -1 -10 -9 -10 -9 0 -16
7 -16 16 0 9 -6 14 -12 12 -7 -3 -24 1 -38 9 -22 11 -26 10 -31 -5 -3 -9 -3
-24 2 -32 66 -130 80 -222 86 -567 l5 -301 67 -31 c150 -69 289 -23 362 120
43 87 59 167 65 329 7 168 -9 300 -52 429 -30 91 -19 86 -144 70z"/>
<path d="M2524 2705 c-99 -21 -150 -58 -189 -134 -25 -50 -18 -165 13 -209 56
-78 188 -102 287 -52 l50 25 3 193 2 192 -52 -1 c-29 0 -81 -7 -114 -14z"/>
</g>
</svg>
