<?xml version="1.0" encoding="UTF-8"?>
<svg version="1.1" xmlns="http://www.w3.org/2000/svg" width="337" height="337">
<path d="M0 0 C3.3574591 0.01709097 6.71420418 0.00690153 10.07163906 -0.01032162 C71.19788507 -0.27568885 125.14607378 13.63167504 171.52978516 54.39111328 C173.29966496 56.16099308 172.68695787 58.65789261 172.69384766 61.05517578 C172.63204539 68.37774753 171.87883989 75.51471303 170.90478516 82.76611328 C170.77373886 83.7564003 170.77373886 83.7564003 170.64004517 84.76669312 C163.1554587 140.92074609 146.68152996 196.2477237 114.52978516 243.39111328 C113.90354248 244.31682129 113.90354248 244.31682129 113.26464844 245.26123047 C106.96760689 254.51820626 99.98393534 263.04528346 92.52978516 271.39111328 C92.04832031 271.9304248 91.56685547 272.46973633 91.07080078 273.02539062 C81.84505149 283.3115347 72.34692363 292.76775672 61.52978516 301.39111328 C60.38252323 302.33860489 59.2367543 303.28790642 58.09228516 304.23876953 C45.66093375 314.49630532 32.29903969 322.88502358 18.40478516 331.01611328 C17.52806152 331.53753906 16.65133789 332.05896484 15.74804688 332.59619141 C7.06720061 337.58529866 7.06720061 337.58529866 1.52978516 337.39111328 C-1.72872131 336.22292606 -4.61773715 334.58125018 -7.59521484 332.82861328 C-8.45904785 332.33554687 -9.32288086 331.84248047 -10.21289062 331.33447266 C-25.41811853 322.51429002 -39.95147617 312.62783403 -53.47021484 301.39111328 C-54.32123779 300.69236084 -54.32123779 300.69236084 -55.18945312 299.97949219 C-67.2526999 290.04604169 -78.63907217 279.37917034 -88.33349609 267.08642578 C-90.61870697 264.20380145 -93.00927635 261.42999525 -95.40771484 258.64111328 C-101.00737317 251.92325694 -105.80342763 244.77924218 -110.47021484 237.39111328 C-110.84500977 236.79991699 -111.21980469 236.2087207 -111.60595703 235.59960938 C-143.00196029 185.67913287 -159.56207488 126.92522696 -164.47021484 68.39111328 C-164.64681641 67.20775391 -164.82341797 66.02439453 -165.00537109 64.80517578 C-165.52384948 59.69190617 -165.47357111 56.72224474 -162.31787109 52.53564453 C-159.29604449 49.48336996 -155.91098153 46.94713786 -152.47021484 44.39111328 C-151.28921408 43.46700793 -150.10953146 42.54121558 -148.93115234 41.61376953 C-106.20306555 8.59345781 -52.75342579 -0.27082159 0 0 Z " fill="#015063" transform="translate(164.47021484375,-0.39111328125)"/>
<path d="M0 0 C3.40939087 -0.00217236 6.81844989 -0.0203399 10.2277832 -0.03930664 C28.19049639 -0.08610531 46.05917463 0.74237493 63.76098633 3.99780273 C64.71086426 4.16957031 65.66074219 4.34133789 66.6394043 4.51831055 C102.5015889 11.2443502 135.10986972 26.28418613 161.01098633 52.18530273 C161.58510679 61.18283292 160.62364525 69.98411061 159.32348633 78.87280273 C159.14414551 80.12593262 158.96480469 81.3790625 158.7800293 82.67016602 C153.38366454 119.39966494 144.48415718 155.16375583 128.20141602 188.70092773 C126.89998305 191.41696175 125.66568194 194.15976125 124.42504883 196.90405273 C116.9932466 212.80283949 116.9932466 212.80283949 110.07348633 215.74780273 C108.06592274 216.27983329 106.04354868 216.7586198 104.01098633 217.18530273 C101.81807408 217.96185166 99.63036435 218.75327074 97.44848633 219.56030273 C92.40279919 221.31590702 92.40279919 221.31590702 89.01098633 220.18530273 C89.31166016 219.71036377 89.61233398 219.2354248 89.92211914 218.74609375 C106.04251836 193.08200391 117.37623702 166.184137 126.01098633 137.18530273 C126.30207275 136.21262451 126.59315918 135.23994629 126.89306641 134.23779297 C129.43590084 125.8518644 129.43590084 125.8518644 130.01098633 117.18530273 C128.52250537 114.52078946 128.52250537 114.52078946 125.94848633 112.68530273 C125.02165039 111.9440918 124.09481445 111.20288086 123.13989258 110.43920898 C106.89823039 98.73953472 89.91303458 90.67555587 71.01098633 84.18530273 C69.9152832 83.7947168 68.81958008 83.40413086 67.69067383 83.00170898 C57.42634327 79.55793228 46.68447586 77.85480766 36.01098633 76.18530273 C34.85163574 76.00362549 33.69228516 75.82194824 32.49780273 75.63476562 C23.67403673 74.34822954 15.04878541 73.8338997 6.13598633 73.87280273 C5.47378082 73.87429321 4.81157532 73.87578369 4.12930298 73.87731934 C-36.69150741 74.04059039 -77.52431699 84.22478 -110.98901367 108.18530273 C-112.98901367 107.18530273 -112.98901367 107.18530273 -113.77026367 105.03295898 C-118.85641947 85.32410528 -119.48972011 66.49173045 -118.98901367 46.18530273 C-118.96073486 44.54730713 -118.96073486 44.54730713 -118.93188477 42.8762207 C-118.50805365 28.1415781 -118.50805365 28.1415781 -114.6809082 23.65014648 C-111.24027518 20.83830769 -107.38188626 19.33835289 -103.20288086 17.93725586 C-100.97126157 17.17927313 -98.82358798 16.30570998 -96.65307617 15.38842773 C-77.08761427 7.34876276 -55.96201554 3.30691099 -34.98901367 1.18530273 C-34.11946045 1.09031494 -33.24990723 0.99532715 -32.35400391 0.89746094 C-21.59523241 -0.11598777 -10.79665045 -0.00076708 0 0 Z " fill="#45A9C1" transform="translate(163.989013671875,8.814697265625)"/>
<path d="M0 0 C6.93 0 13.86 0 21 0 C24 9 24 9 24 12 C25.27875 12.04125 26.5575 12.0825 27.875 12.125 C33.09144138 12.64335301 36.45508528 14.88823983 40.640625 17.91796875 C42.99633234 19.30300326 42.99633234 19.30300326 45.63671875 18.28515625 C48.08409057 17.00578252 48.08409057 17.00578252 50.5625 15.25 C53 14 53 14 54.76171875 14.5390625 C58.01123776 16.66004 60.55686067 19.34810275 63.25 22.125 C63.80429688 22.68832031 64.35859375 23.25164062 64.9296875 23.83203125 C66.29104485 25.21686028 67.64614859 26.60783204 69 28 C67.77207194 31.89733689 66.65575614 34.86137911 64 38 C64.96932462 39.96028594 65.94870175 41.90642077 67 43.82421875 C69.64836191 48.75886184 71.03154172 53.49507925 72 59 C72.71027344 59.13277344 73.42054688 59.26554687 74.15234375 59.40234375 C75.07144531 59.57894531 75.99054688 59.75554687 76.9375 59.9375 C77.85402344 60.11152344 78.77054688 60.28554687 79.71484375 60.46484375 C82 61 82 61 83 62 C83.08685603 63.56172745 83.10702219 65.12729344 83.09765625 66.69140625 C83.09443359 67.63564453 83.09121094 68.57988281 83.08789062 69.55273438 C83.07951172 70.54595703 83.07113281 71.53917969 83.0625 72.5625 C83.05798828 73.55958984 83.05347656 74.55667969 83.04882812 75.58398438 C83.03700007 78.05604849 83.02051849 80.52799518 83 83 C81.75336669 83.50833591 80.50250613 84.00631145 79.25 84.5 C78.20585937 84.91765625 78.20585937 84.91765625 77.140625 85.34375 C75 86 75 86 71 86 C71.07863281 86.83789062 71.15726563 87.67578125 71.23828125 88.5390625 C70.94427998 92.80931046 69.22126137 95.72324163 67.1875 99.375 C64.51787058 104.24746239 64.51787058 104.24746239 64.68359375 109.61328125 C66.05744553 111.70648211 66.05744553 111.70648211 67.7578125 113.38671875 C69 115 69 115 68.76953125 117.09765625 C67.86682952 119.32920824 66.87367901 120.50105679 65 122 C64.34 122 63.68 122 63 122 C62.79375 122.556875 62.5875 123.11375 62.375 123.6875 C60.39115431 127.02396774 58.24112336 128.88080395 55 131 C51.26303098 130.34053488 49.15380994 129.10253996 46 127 C42.61250463 127.19357116 40.17009009 128.40933462 37.25 130 C32.84057932 132.32251929 28.9451421 132.69092862 24 133 C23.34 136.96 22.68 140.92 22 145 C14.41 145 6.82 145 -1 145 C-1.66 141.04 -2.32 137.08 -3 133 C-4.32 132.9175 -5.64 132.835 -7 132.75 C-11.33345346 132.28667479 -14.42619908 130.97844941 -18.23046875 128.9375 C-20.61498395 127.67418069 -22.27734652 127 -25 127 C-26.19123799 127.64398713 -27.35653028 128.33707298 -28.5 129.0625 C-31.68430422 131.0587341 -31.68430422 131.0587341 -34.6875 130.5 C-37.17792004 128.8845924 -39.08514995 127.26945191 -41 125 C-41 124.34 -41 123.68 -41 123 C-41.598125 122.731875 -42.19625 122.46375 -42.8125 122.1875 C-45.07573361 120.95888747 -46.51540577 120.10968654 -48 118 C-47.89670824 114.28149674 -46.94189863 112.93173089 -44.5 110.0625 C-43.24401905 108.3046186 -43.24401905 108.3046186 -43 106 C-44.21913715 102.84933833 -45.5921784 100.04992982 -47.30664062 97.15063477 C-49.60183656 93.22236084 -50.41517152 90.54612816 -50 86 C-51.051875 85.855625 -52.10375 85.71125 -53.1875 85.5625 C-56.13886565 85.12705261 -59.0746181 84.58507638 -62 84 C-62 76.74 -62 69.48 -62 62 C-58.0672135 60.4268854 -55.10416164 59.57267372 -51 59 C-50.82984375 58.28714844 -50.6596875 57.57429688 -50.484375 56.83984375 C-48.26342405 48.06236208 -48.26342405 48.06236208 -45.75 44.1875 C-43.73717568 41.14928571 -43.73717568 41.14928571 -44.0625 37.875 C-44.88870169 34.92947485 -44.88870169 34.92947485 -46.6875 32.375 C-47.3371875 31.199375 -47.3371875 31.199375 -48 30 C-46.69083188 25.69981276 -43.01043973 22.7908673 -39.875 19.75 C-39.31167969 19.19570312 -38.74835938 18.64140625 -38.16796875 18.0703125 C-36.78313972 16.70895515 -35.39216796 15.35385141 -34 14 C-31.21603808 15.05790553 -28.9529635 16.03292555 -26.5 17.75 C-24.08946849 19.28928145 -24.08946849 19.28928145 -21.625 18.4375 C-19.62564746 17.34261646 -17.67466008 16.1589189 -15.75 14.9375 C-11.68531526 12.52381304 -7.6523282 12.21098994 -3 12 C-2.86722656 11.30132812 -2.73445313 10.60265625 -2.59765625 9.8828125 C-2.42105469 8.97273438 -2.24445313 8.06265625 -2.0625 7.125 C-1.88847656 6.22007813 -1.71445313 5.31515625 -1.53515625 4.3828125 C-1 2 -1 2 0 0 Z " fill="#FCFDFD" transform="translate(158,111)"/>
<path d="M0 0 C3.3574591 0.01709097 6.71420418 0.00690153 10.07163906 -0.01032162 C71.19788507 -0.27568885 125.14607378 13.63167504 171.52978516 54.39111328 C173.29966496 56.16099308 172.68695787 58.65789261 172.69384766 61.05517578 C172.63204539 68.37774753 171.87883989 75.51471303 170.90478516 82.76611328 C170.77373886 83.7564003 170.77373886 83.7564003 170.64004517 84.76669312 C163.1554587 140.92074609 146.68152996 196.2477237 114.52978516 243.39111328 C113.90354248 244.31682129 113.90354248 244.31682129 113.26464844 245.26123047 C106.96760689 254.51820626 99.98393534 263.04528346 92.52978516 271.39111328 C92.04832031 271.9304248 91.56685547 272.46973633 91.07080078 273.02539062 C81.84505149 283.3115347 72.34692363 292.76775672 61.52978516 301.39111328 C60.38252323 302.33860489 59.2367543 303.28790642 58.09228516 304.23876953 C45.66093375 314.49630532 32.29903969 322.88502358 18.40478516 331.01611328 C17.52806152 331.53753906 16.65133789 332.05896484 15.74804688 332.59619141 C7.06720061 337.58529866 7.06720061 337.58529866 1.52978516 337.39111328 C-1.72872131 336.22292606 -4.61773715 334.58125018 -7.59521484 332.82861328 C-8.45904785 332.33554687 -9.32288086 331.84248047 -10.21289062 331.33447266 C-25.41811853 322.51429002 -39.95147617 312.62783403 -53.47021484 301.39111328 C-54.32123779 300.69236084 -54.32123779 300.69236084 -55.18945312 299.97949219 C-67.2526999 290.04604169 -78.63907217 279.37917034 -88.33349609 267.08642578 C-90.61870697 264.20380145 -93.00927635 261.42999525 -95.40771484 258.64111328 C-101.00737317 251.92325694 -105.80342763 244.77924218 -110.47021484 237.39111328 C-110.84500977 236.79991699 -111.21980469 236.2087207 -111.60595703 235.59960938 C-143.00196029 185.67913287 -159.56207488 126.92522696 -164.47021484 68.39111328 C-164.64681641 67.20775391 -164.82341797 66.02439453 -165.00537109 64.80517578 C-165.52384948 59.69190617 -165.47357111 56.72224474 -162.31787109 52.53564453 C-159.29604449 49.48336996 -155.91098153 46.94713786 -152.47021484 44.39111328 C-151.28921408 43.46700793 -150.10953146 42.54121558 -148.93115234 41.61376953 C-106.20306555 8.59345781 -52.75342579 -0.27082159 0 0 Z M-67.35449219 15.84521484 C-69.60053225 16.42473776 -71.85522297 16.95271056 -74.11474609 17.47705078 C-104.10945517 24.63237079 -130.72240514 39.64330358 -152.47021484 61.39111328 C-156.62750299 105.76216941 -137.53049424 161.46245459 -118.47021484 200.39111328 C-118.06077637 201.23448242 -117.65133789 202.07785156 -117.22949219 202.94677734 C-105.1543819 227.57649829 -89.49312023 249.67813877 -70.47021484 269.39111328 C-69.90367188 269.97957031 -69.33712891 270.56802734 -68.75341797 271.17431641 C-61.39079143 278.78100791 -53.90342461 285.96036174 -45.47021484 292.39111328 C-44.93380371 292.80393555 -44.39739258 293.21675781 -43.84472656 293.64208984 C-34.20372564 301.0279658 -24.1791022 307.73093338 -13.75439453 313.95898438 C-11.57215216 315.32720089 -9.53664831 316.80236755 -7.47802734 318.34814453 C-3.68169339 321.00064297 -0.20295177 323.21956196 4.52978516 323.39111328 C12.69861634 321.31576301 19.66893251 316.08402942 26.52978516 311.39111328 C28.24004971 310.27609884 29.95222375 309.16400652 31.66650391 308.05517578 C46.35542884 298.40632538 59.89128022 287.58719681 72.52978516 275.39111328 C73.11824219 274.82457031 73.70669922 274.25802734 74.31298828 273.67431641 C81.92034281 266.31104812 89.09482031 258.82194958 95.52978516 250.39111328 C95.93729004 249.86533691 96.34479492 249.33956055 96.76464844 248.79785156 C114.82651957 225.4049137 128.34632052 199.6256023 138.57470703 171.95849609 C139.4055764 169.7250037 140.26486666 167.50627214 141.13916016 165.28955078 C152.10128351 136.82350852 157.96385128 104.65597433 160.52978516 74.39111328 C160.74248047 72.61220703 160.74248047 72.61220703 160.95947266 70.79736328 C161.30482696 66.23450038 161.47633748 62.88228993 158.97509766 58.94189453 C156.64281251 56.4942766 154.20253584 54.46165866 151.52978516 52.39111328 C150.55138672 51.58029297 149.57298828 50.76947266 148.56494141 49.93408203 C107.84331483 16.74426204 55.49638926 9.17177097 4.52978516 9.14111328 C3.37182434 9.1401062 2.21386353 9.13909912 1.02081299 9.13806152 C-22.08980162 9.15165671 -44.87631118 9.9526175 -67.35449219 15.84521484 Z " fill="#606060" transform="translate(164.47021484375,-0.39111328125)"/>
<path d="M0 0 C-0.14261094 2.18771244 -0.28924461 4.37516282 -0.4375 6.5625 C-0.51871094 7.78066406 -0.59992187 8.99882813 -0.68359375 10.25390625 C-0.88289399 12.61352271 -1.14915126 14.96934022 -1.50927734 17.30981445 C-2.31949331 23.40255792 -2.18448823 29.48702069 -2.1875 35.625 C-2.20586914 37.56052734 -2.20586914 37.56052734 -2.22460938 39.53515625 C-2.24110118 50.45272973 -0.82872496 60.80844246 1.5625 71.4375 C2.05123549 73.62288202 2.53097087 75.81030399 3 78 C3.28746094 79.04671875 3.57492188 80.0934375 3.87109375 81.171875 C3.91363281 82.10515625 3.95617188 83.0384375 4 84 C1.84532581 86.28271835 -0.50551839 87.81626481 -3.09375 89.58203125 C-5.24738799 92.31379747 -5.26294137 92.76971424 -4.96875 96.07421875 C-4.052661 101.48832685 -2.57297597 106.7449984 -1 112 C-0.68877197 113.04325439 -0.37754395 114.08650879 -0.05688477 115.16137695 C10.92038304 151.3400922 26.01787322 185.26859329 51 214 C51.48355957 214.55800293 51.96711914 215.11600586 52.46533203 215.69091797 C67.8115702 233.25295149 85.57955975 246.70796817 105.95019531 257.87255859 C107.70518918 258.83784702 109.44419852 259.83209964 111.1796875 260.83203125 C112.02789062 261.29996094 112.87609375 261.76789063 113.75 262.25 C114.76320312 262.81460938 114.76320312 262.81460938 115.796875 263.390625 C122.53466669 265.25426951 128.46418833 261.56605944 134.1875 258.4375 C135.02756592 257.9849585 135.86763184 257.53241699 136.7331543 257.06616211 C158.00489603 245.45614564 182.30481676 227.94088515 195.5 207.15234375 C200.7329865 199.03107171 204.61865287 194.54768884 214.25439453 192.27783203 C214.89747559 192.13974121 215.54055664 192.00165039 216.203125 191.859375 C219.06377812 191.21190207 221.18292658 190.56731322 223.796875 189.390625 C227 188 227 188 230 188 C228.46341428 192.39380457 226.14984987 196.10287388 223.5625 199.9375 C223.12147949 200.59282715 222.68045898 201.2481543 222.22607422 201.92333984 C214.12167006 213.81303457 204.98365645 224.65417947 195 235 C194.43345703 235.58845703 193.86691406 236.17691406 193.28320312 236.78320312 C185.92057659 244.38989463 178.43320976 251.56924846 170 258 C169.46358887 258.41282227 168.92717773 258.82564453 168.37451172 259.25097656 C158.73987686 266.63197554 148.71884617 273.34746079 138.30615234 279.58105469 C136.09691179 280.94037145 133.96884558 282.38195859 131.83203125 283.8515625 C123.15059201 289.48210507 123.15059201 289.48210507 118.04394531 288.70068359 C113.40506949 287.15477421 109.47520299 284.4965167 105.48583984 281.72167969 C102.72595308 279.81019654 99.91127567 278.00244543 97.08203125 276.1953125 C80.82607697 265.71187037 65.90938166 254.42247215 52 241 C51.41154297 240.43345703 50.82308594 239.86691406 50.21679688 239.28320312 C42.60981811 231.92029855 35.43262907 224.43211413 29 216 C28.58186035 215.45827148 28.1637207 214.91654297 27.73291016 214.35839844 C-2.24404923 175.35882268 -21.07833115 128.19408674 -30 80 C-30.18256348 79.03239746 -30.36512695 78.06479492 -30.55322266 77.06787109 C-32.85385593 64.7704146 -34.88659366 52.46503195 -36 40 C-36.14308594 38.80632812 -36.28617188 37.61265625 -36.43359375 36.3828125 C-36.77540471 31.82883884 -36.94148701 28.48319688 -34.4453125 24.55078125 C-32.11241943 22.10252534 -29.6745393 20.0698931 -27 18 C-25.99839844 17.17757812 -24.99679688 16.35515625 -23.96484375 15.5078125 C-4.77381528 0 -4.77381528 0 0 0 Z " fill="#0289AA" transform="translate(48,34)"/>
<path d="M0 0 C9.6253678 5.91696411 16.47459105 14.82895267 20.07421875 25.51171875 C22.31757339 38.03896644 20.47634668 49.65963733 13.7421875 60.4921875 C9.0464471 66.91742899 3.4874564 71.05290997 -3.53125 74.71484375 C-4.21445313 75.07578125 -4.89765625 75.43671875 -5.6015625 75.80859375 C-14.82300449 79.71414565 -27.82077869 79.24175126 -37.03125 75.71484375 C-48.68737579 69.94320747 -56.4494504 61.6036303 -61.46875 49.58984375 C-64.48096691 39.12239 -63.76376271 26.28463101 -58.53125 16.71484375 C-45.2665447 -4.10570634 -22.50108101 -11.42415996 0 0 Z " fill="#065467" transform="translate(189.53125,147.28515625)"/>
<path d="M0 0 C1.12809082 0.18191895 2.25618164 0.36383789 3.41845703 0.55126953 C36.39429863 6.1093305 66.77717322 19.3450682 92.47265625 40.73486328 C93.8492831 41.87515745 95.25137565 42.9845382 96.65625 44.08984375 C99.39919914 46.45129116 101.70703734 48.44163409 102.39526367 52.10253906 C102.23631271 61.74101308 100.8272135 71.22613226 99.4375 80.75 C99.30273254 81.67895081 99.16796509 82.60790161 99.02911377 83.56500244 C93.35409788 122.31730123 83.14713858 159.67556528 66 195 C65.61779297 195.78810059 65.23558594 196.57620117 64.84179688 197.38818359 C56.67427104 213.9717182 46.70999005 229.69800273 35 244 C34.56864746 244.52754883 34.13729492 245.05509766 33.69287109 245.59863281 C10.61062561 273.69509372 -15.92270425 295.25005345 -47.1875 313.8125 C-48.06051758 314.34689697 -48.93353516 314.88129395 -49.83300781 315.43188477 C-53.56074903 317.59341183 -56.14379799 318.96073346 -60.4921875 319.16015625 C-65.34923774 317.5537599 -69.54555341 315.2254471 -73.9375 312.625 C-75.32304077 311.81687866 -75.32304077 311.81687866 -76.73657227 310.99243164 C-93.16049105 301.29699863 -108.61709286 290.0984942 -122.6484375 277.1640625 C-124.21719481 275.72038883 -125.80606886 274.29827663 -127.4140625 272.8984375 C-138.98022883 262.80099071 -148.82327247 251.27090715 -158 239 C-158.47405273 238.37174316 -158.94810547 237.74348633 -159.43652344 237.09619141 C-196.52638933 187.58109656 -215.16710095 124.14992308 -220.78833008 63.1550293 C-220.95868456 61.420636 -221.19374211 59.69266196 -221.44921875 57.96875 C-221.8527707 53.7876872 -221.70316692 51.05228024 -219.33203125 47.50390625 C-216.7205819 44.76997686 -213.94580376 42.35750942 -211 40 C-210.42121094 39.5241748 -209.84242188 39.04834961 -209.24609375 38.55810547 C-199.22267701 30.38880801 -188.53494664 23.80991793 -177 18 C-176.28650391 17.63922363 -175.57300781 17.27844727 -174.83789062 16.90673828 C-155.40131371 7.26402663 -134.36372891 2.1879554 -113 -1 C-112.08766602 -1.14953125 -111.17533203 -1.2990625 -110.23535156 -1.453125 C-74.31838709 -7.22172019 -35.83588776 -5.83597958 0 0 Z M-130.88427734 6.45410156 C-133.13031741 7.03362448 -135.38500812 7.56159728 -137.64453125 8.0859375 C-167.63924032 15.24125751 -194.2521903 30.2521903 -216 52 C-220.15728814 96.37105612 -201.06027939 152.07134131 -182 191 C-181.59056152 191.84336914 -181.18112305 192.68673828 -180.75927734 193.55566406 C-168.68416705 218.18538501 -153.02290539 240.28702549 -134 260 C-133.43345703 260.58845703 -132.86691406 261.17691406 -132.28320312 261.78320312 C-124.92057659 269.38989463 -117.43320976 276.56924846 -109 283 C-108.46358887 283.41282227 -107.92717773 283.82564453 -107.37451172 284.25097656 C-97.73351079 291.63685252 -87.70888736 298.3398201 -77.28417969 304.56787109 C-75.10193732 305.93608761 -73.06643347 307.41125427 -71.0078125 308.95703125 C-67.21147855 311.60952969 -63.73273692 313.82844868 -59 314 C-50.83116882 311.92464973 -43.86085265 306.69291614 -37 302 C-35.28973545 300.88498556 -33.57756141 299.77289324 -31.86328125 298.6640625 C-17.17435631 289.01521209 -3.63850494 278.19608353 9 266 C9.58845703 265.43345703 10.17691406 264.86691406 10.78320312 264.28320312 C18.39055766 256.91993483 25.56503515 249.4308363 32 241 C32.40750488 240.47422363 32.81500977 239.94844727 33.23486328 239.40673828 C51.29673441 216.01380042 64.81653537 190.23448901 75.04492188 162.56738281 C75.87579124 160.33389042 76.73508151 158.11515885 77.609375 155.8984375 C88.57149836 127.43239524 94.43406613 95.26486105 97 65 C97.21269531 63.22109375 97.21269531 63.22109375 97.4296875 61.40625 C97.7750418 56.84338709 97.94655232 53.49117665 95.4453125 49.55078125 C93.11302735 47.10316332 90.67275068 45.07054538 88 43 C87.02160156 42.18917969 86.04320312 41.37835938 85.03515625 40.54296875 C44.31352968 7.35314876 -8.0333959 -0.21934231 -59 -0.25 C-60.15796082 -0.25100708 -61.31592163 -0.25201416 -62.50897217 -0.25305176 C-85.61958677 -0.23945657 -108.40609634 0.56150422 -130.88427734 6.45410156 Z " fill="#030708" transform="translate(228,9)"/>
<path d="M0 0 C0.83772949 0.29447021 1.67545898 0.58894043 2.53857422 0.89233398 C16.91673706 6.09634001 30.99966672 13.28153605 42.875 22.97265625 C44.3565105 24.17638353 45.88020789 25.32965806 47.4375 26.43359375 C48.18 26.99175781 48.9225 27.54992187 49.6875 28.125 C50.36039063 28.60710937 51.03328125 29.08921875 51.7265625 29.5859375 C53.96185408 33.20684842 52.89188455 36.79167303 52.0625 40.75 C51.03067099 44.98085845 49.82356909 49.14473264 48.5625 53.3125 C48.20575195 54.49634277 47.84900391 55.68018555 47.48144531 56.89990234 C37.50001043 89.44598223 23.93583015 121.34175964 2.0625 147.75 C1.58135742 148.33265625 1.10021484 148.9153125 0.60449219 149.515625 C-8.69665412 160.71288924 -18.41515204 170.78817381 -29.9375 179.75 C-30.48647949 180.18070801 -31.03545898 180.61141602 -31.60107422 181.05517578 C-40.82943103 188.246608 -50.47537067 194.26362847 -60.85888672 199.65576172 C-62.25748254 200.39202041 -63.63967288 201.1602229 -65.00439453 201.95751953 C-68.37394079 203.84929412 -70.43388143 204.74483174 -74.36328125 204.78515625 C-78.96520288 203.45235928 -82.93182961 201.47963148 -87.125 199.1875 C-88.38509888 198.50868774 -88.38509888 198.50868774 -89.6706543 197.81616211 C-143.22169289 168.58825743 -176.59268356 116.45233871 -194.04541016 59.10986328 C-200.38697649 37.32468363 -200.38697649 37.32468363 -199.9375 31.75 C-178.39707901 4.48717776 -133.26976768 -6.94495661 -100.8125 -11.125 C-66.6082575 -14.95788479 -32.51070676 -11.43793861 0 0 Z M-117.9375 -4.25 C-119.42122316 -3.95503533 -120.90557381 -3.663204 -122.390625 -3.375 C-145.54729995 1.33397009 -167.57887923 10.84365631 -185.9375 25.75 C-187.32582031 26.71873047 -187.32582031 26.71873047 -188.7421875 27.70703125 C-191.28043338 29.60107187 -193.09791301 31.17630291 -194.9375 33.75 C-195.04674088 36.22570475 -195.04674088 36.22570475 -194.33984375 38.80859375 C-194.12231445 39.78151367 -193.90478516 40.75443359 -193.68066406 41.75683594 C-193.43541992 42.74458008 -193.19017578 43.73232422 -192.9375 44.75 C-192.73092773 45.64750977 -192.52435547 46.54501953 -192.31152344 47.46972656 C-185.20871014 77.24980719 -172.89728553 107.84718101 -154.9375 132.75 C-154.25300781 133.70777344 -153.56851563 134.66554687 -152.86328125 135.65234375 C-133.89228472 161.57142518 -106.50565811 189.90999585 -74.9375 199.75 C-70.39335705 199.49096905 -66.49985023 197.2808493 -62.5 195.25 C-61.79697754 194.89397705 -61.09395508 194.5379541 -60.36962891 194.17114258 C-10.72389499 168.54411525 21.18850908 121.50841069 39.0625 69.75 C41.68475538 61.49883227 44.02192295 53.16361077 46.0625 44.75 C46.45429443 43.2662085 46.45429443 43.2662085 46.85400391 41.75244141 C48.30687911 36.07722079 48.30687911 36.07722079 46.34375 30.8046875 C45.4259375 30.08539063 44.508125 29.36609375 43.5625 28.625 C42.53511719 27.8103125 41.50773438 26.995625 40.44921875 26.15625 C39.325316 25.34717052 38.19634424 24.54508757 37.0625 23.75 C36.24773193 23.16605469 36.24773193 23.16605469 35.41650391 22.5703125 C16.64163007 9.30043428 -5.42734223 0.20383192 -27.9375 -4.25 C-29.27192139 -4.52287842 -29.27192139 -4.52287842 -30.63330078 -4.80126953 C-59.18996665 -10.42513098 -89.5188757 -10.63108645 -117.9375 -4.25 Z " fill="#010708" transform="translate(241.9375,94.25)"/>
<path d="M0 0 C-1.32 0.99 -2.64 1.98 -4 3 C-3.608125 3.886875 -3.21625 4.77375 -2.8125 5.6875 C-2 9 -2 9 -3.3125 11.5 C-3.869375 12.325 -4.42625 13.15 -5 14 C-5.71401232 17.19395026 -5.71401232 17.19395026 -6 20 C-8.58789062 18.4375 -8.58789062 18.4375 -11.17578125 16.875 C-13.11361926 15.78376001 -13.11361926 15.78376001 -16 16 C-15.39624751 19.38101396 -14.3035764 21.44961184 -12 24 C-11.2471875 24.43441406 -10.494375 24.86882812 -9.71875 25.31640625 C-6.66005367 27.21051274 -4.31161841 29.35172917 -1.75 31.875 C-0.87859375 32.71804687 -0.0071875 33.56109375 0.890625 34.4296875 C3.10305108 37.12556965 3.89727311 38.53582082 4 42 C0.3336868 47.28380432 -3.65920961 51.6288269 -10.125 53 C-12.88741477 53.59939188 -13.84691275 53.86126468 -16 55.8125 C-17.17207116 58.37640566 -17.23239769 60.21122775 -17 63 C-15.02 61.02 -13.04 59.04 -11 57 C-7.63408134 58.44253657 -5.48952921 60.33264727 -3 63 C-4.28519565 65.86697492 -5.57129254 67.97607712 -8 70 C-8.66 70 -9.32 70 -10 70 C-10 70.66 -10 71.32 -10 72 C-6.70617325 71.45102888 -3.89229784 70.69754486 -1 69 C0.94674155 65.82696456 2.03838084 62.58421687 3 59 C3.33 59 3.66 59 4 59 C4.495 64.94 4.495 64.94 5 71 C7.64 71.33 10.28 71.66 13 72 C13 66.72 13 61.44 13 56 C15.36996306 57.9665651 17.69351473 59.96044973 20 62 C20.82628906 62.72316406 21.65257812 63.44632812 22.50390625 64.19140625 C23.32761719 64.95324219 24.15132812 65.71507812 25 66.5 C25.78375 67.2115625 26.5675 67.923125 27.375 68.65625 C29 71 29 71 29.25 74.09375 C28 77 28 77 24.484375 78.84375 C20.07258507 80.17946556 15.84141429 80.5397525 11.25 80.5 C10.46431641 80.49355469 9.67863281 80.48710937 8.86914062 80.48046875 C-2.60600087 80.12333904 -11.99609888 75.1562245 -20 67 C-28.96729085 55.5455549 -31.47811443 44.31400432 -30 30 C-27.68761926 18.63079468 -20.18945695 9.76106434 -11 3 C-4.0206379 -1.34021263 -4.0206379 -1.34021263 0 0 Z " fill="#055467" transform="translate(157,145)"/>
<path d="M0 0 C1.18239258 0.00676758 1.18239258 0.00676758 2.38867188 0.01367188 C4.32164761 0.02538688 6.25458393 0.04332002 8.1875 0.0625 C8.1875 4.0225 8.1875 7.9825 8.1875 12.0625 C6.5375 12.0625 4.8875 12.0625 3.1875 12.0625 C3.1875 11.4025 3.1875 10.7425 3.1875 10.0625 C1.8675 10.3925 0.5475 10.7225 -0.8125 11.0625 C-0.8125 29.2125 -0.8125 47.3625 -0.8125 66.0625 C-3.4525 66.0625 -6.0925 66.0625 -8.8125 66.0625 C-10.55206658 64.32293342 -10.18440386 61.8688378 -10.375 59.5 C-10.45878906 58.48808594 -10.54257813 57.47617188 -10.62890625 56.43359375 C-10.68949219 55.65113281 -10.75007813 54.86867187 -10.8125 54.0625 C-11.05033203 54.98482422 -11.05033203 54.98482422 -11.29296875 55.92578125 C-13.19949378 62.5301525 -13.19949378 62.5301525 -16.1875 65.125 C-18.92603235 66.10304727 -20.92846451 66.30970304 -23.8125 66.0625 C-23.8125 65.4025 -23.8125 64.7425 -23.8125 64.0625 C-21.85322937 62.3481382 -19.85369788 60.67844832 -17.8125 59.0625 C-19.10549694 56.17812221 -20.47191363 54.19030579 -22.8125 52.0625 C-26.24845166 53.58958963 -28.93162454 55.66177045 -31.8125 58.0625 C-32.13920937 54.55037428 -32.05488301 52.51565084 -30.375 49.375 C-27.37064652 46.66375417 -24.94875651 46.04885108 -21.13671875 44.93359375 C-17.38216668 43.5264255 -14.26999057 41.23675865 -11.8125 38.0625 C-10.80480786 35.64912808 -10.80480786 35.64912808 -10.8125 33.0625 C-12.02441821 30.90703397 -12.02441821 30.90703397 -13.9375 29.0625 C-14.58589844 28.37929687 -15.23429687 27.69609375 -15.90234375 26.9921875 C-16.53269531 26.35539062 -17.16304687 25.71859375 -17.8125 25.0625 C-18.699375 24.11375 -19.58625 23.165 -20.5 22.1875 C-22.62280369 20.03237243 -22.62280369 20.03237243 -24.875 19.0625 C-27.71146182 17.59851971 -29.10287012 15.72192427 -30.8125 13.0625 C-30.5625 10.75 -30.5625 10.75 -29.8125 9.0625 C-25.99152761 9.59319061 -23.75078597 10.55951566 -20.8125 13.0625 C-20.64234375 12.44761719 -20.4721875 11.83273438 -20.296875 11.19921875 C-18.31898742 4.60275324 -18.31898742 4.60275324 -15.9375 2.0625 C-10.8276116 -0.34215336 -5.52175293 -0.06016998 0 0 Z " fill="#165E6F" transform="translate(170.8125,150.9375)"/>
<path d="M0 0 C-1.28519565 2.86697492 -2.57129254 4.97607712 -5 7 C-5.66 7 -6.32 7 -7 7 C-5.02 9.31 -3.04 11.62 -1 14 C2.8155338 12.35575624 2.8155338 12.35575624 4.625 10.375 C5.305625 9.694375 5.305625 9.694375 6 9 C6.66 9 7.32 9 8 9 C7.72001908 12.63975198 7.46510657 15.29303801 5.4375 18.375 C2.56625496 20.28916336 0.39647755 20.22666123 -2.97607422 20.4543457 C-5.65490009 21.17656233 -6.55067432 22.39080737 -8.2578125 24.54296875 C-8.77746582 25.18645264 -9.29711914 25.82993652 -9.83251953 26.49291992 C-10.41042236 27.23892456 -10.41042236 27.23892456 -11 28 C-10.49025635 28.47832275 -9.9805127 28.95664551 -9.45532227 29.44946289 C-7.14188085 31.63773923 -4.85233376 33.84954315 -2.5625 36.0625 C-1.35883789 37.19075195 -1.35883789 37.19075195 -0.13085938 38.34179688 C6.41977873 44.72659604 6.41977873 44.72659604 7.16015625 48.875 C7 52 7 52 5 54.9375 C1.17058128 57.57022537 -0.41435121 57.68761021 -5 57 C-7.84468929 55.0001398 -10.10071855 52.56180485 -12.4375 50 C-13.07365234 49.33226562 -13.70980469 48.66453125 -14.36523438 47.9765625 C-15.92718227 46.33240682 -17.47046313 44.67425288 -19 43 C-18.67 42.01 -18.34 41.02 -18 40 C-16.62714844 41.39025391 -16.62714844 41.39025391 -15.2265625 42.80859375 C-14.0261739 44.01836039 -12.82564583 45.22798865 -11.625 46.4375 C-11.02171875 47.04916016 -10.4184375 47.66082031 -9.796875 48.29101562 C-9.21679688 48.87431641 -8.63671875 49.45761719 -8.0390625 50.05859375 C-7.23782959 50.86768188 -7.23782959 50.86768188 -6.42041016 51.69311523 C-5.01347612 53.10846977 -5.01347612 53.10846977 -3 54 C-5.48216675 49.241767 -8.88420742 45.88365758 -12.6875 42.1875 C-13.29400391 41.59001953 -13.90050781 40.99253906 -14.52539062 40.37695312 C-16.01240312 38.91335815 -17.50558811 37.45603898 -19 36 C-16 36 -16 36 -14.40600586 37.26928711 C-13.84792236 37.8494458 -13.28983887 38.42960449 -12.71484375 39.02734375 C-11.79541992 39.96803711 -11.79541992 39.96803711 -10.85742188 40.92773438 C-10.22384766 41.59095703 -9.59027344 42.25417969 -8.9375 42.9375 C-7.67793483 44.2403667 -6.416311 45.54124726 -5.15234375 46.83984375 C-4.59538818 47.42113037 -4.03843262 48.00241699 -3.46459961 48.60131836 C-2.03237781 50.10644 -2.03237781 50.10644 0 51 C-5.34388455 44.66519646 -11.08833812 38.80460966 -17 33 C-17.99 33.495 -17.99 33.495 -19 34 C-19.92826612 20.4885709 -19.92826612 20.4885709 -17.69921875 16.9140625 C-16.15661738 15.58131382 -14.57921445 14.28915466 -13 13 C-12.63239269 10.67182036 -12.29758419 8.3381615 -12 6 C-8.10254133 1.40299746 -5.94316637 -0.15639912 0 0 Z " fill="#F3F7F8" transform="translate(190,159)"/>
<path d="M0 0 C3.63 0.66 7.26 1.32 11 2 C11.33 6.29 11.66 10.58 12 15 C13.98 11.37 15.96 7.74 18 4 C21.3 4.66 24.6 5.32 28 6 C27.39828638 12.32749371 26.37848091 18.37595652 24.9375 24.5625 C24.75123047 25.38041016 24.56496094 26.19832031 24.37304688 27.04101562 C23.91979313 29.02835896 23.46053788 31.01433201 23 33 C21.02 32.67 19.04 32.34 17 32 C15.50416312 26.27816243 16.82762565 21.72394537 18 16 C15.69 20.62 13.38 25.24 11 30 C9.02 29.67 7.04 29.34 5 29 C4.67 23.39 4.34 17.78 4 12 C3.01 16.95 2.02 21.9 1 27 C-2 28 -2 28 -5 27 C-5.33859902 20.82903281 -4.08339806 15.50666191 -2.5 9.5625 C-2.26152344 8.64017578 -2.02304688 7.71785156 -1.77734375 6.76757812 C-1.19241603 4.50975714 -0.59724357 2.25459446 0 0 Z " fill="#F7FBFB" transform="translate(220,39)"/>
<path d="M0 0 C14.35255958 -0.57495417 14.35255958 -0.57495417 19 3 C22.06658878 6.3893876 23.26341582 9.0040868 23.4375 13.5 C23.22962556 17.61591396 22.37760309 20.55657484 20 24 C15.7626983 27.34398996 11.87524009 27.36830595 6.6875 27.1875 C5.57665039 27.16719727 5.57665039 27.16719727 4.44335938 27.14648438 C2.62858925 27.11135979 0.81419712 27.05755972 -1 27 C-1.02721831 23.9999376 -1.04694378 21.00012744 -1.0625 18 C-1.07087891 17.16082031 -1.07925781 16.32164063 -1.08789062 15.45703125 C-1.10824033 10.20680661 -0.76368207 5.19544338 0 0 Z " fill="#F7FBFB" transform="translate(162,35)"/>
<path d="M0 0 C3.59589068 2.4646834 5.52197129 5.28773898 6.69140625 9.4765625 C7.45238237 14.77936453 7.2054828 18.51232408 4 23 C1.78218615 25.47873312 0.19297407 26.78389749 -3.11328125 27.3828125 C-7.14367127 27.58602544 -9.67328347 27.15125765 -13.375 25.4375 C-17.46453724 21.64007256 -18.75295426 17.97636592 -19.4375 12.5 C-18.90101073 8.20808584 -17.75502944 5.33006673 -15 2 C-10.25901603 -1.52817412 -5.50685541 -1.89789838 0 0 Z " fill="#F8FBFC" transform="translate(150,37)"/>
<path d="M0 0 C2.12415469 3.18623203 2.4866853 5.63384586 2.625 9.4375 C1.635 10.9225 1.635 10.9225 0.625 12.4375 C0.97582394 15.94573938 2.83021592 18.47220457 4.625 21.4375 C4.625 22.0975 4.625 22.7575 4.625 23.4375 C1.985 24.0975 -0.655 24.7575 -3.375 25.4375 C-3.86419922 24.58865234 -3.86419922 24.58865234 -4.36328125 23.72265625 C-4.80027344 22.98917969 -5.23726562 22.25570312 -5.6875 21.5 C-6.11675781 20.76910156 -6.54601562 20.03820312 -6.98828125 19.28515625 C-8.32610254 17.13772588 -8.32610254 17.13772588 -11.375 16.4375 C-10.715 19.7375 -10.055 23.0375 -9.375 26.4375 C-12.345 26.7675 -15.315 27.0975 -18.375 27.4375 C-19.04579695 23.66738923 -19.71092803 19.89630064 -20.375 16.125 C-20.66117187 14.5172168 -20.66117187 14.5172168 -20.953125 12.87695312 C-21.22382812 11.33491211 -21.22382812 11.33491211 -21.5 9.76171875 C-21.66757813 8.81385498 -21.83515625 7.86599121 -22.0078125 6.8894043 C-22.375 4.4375 -22.375 4.4375 -22.375 1.4375 C-15.86329164 -0.94483233 -6.22465111 -4.0951652 0 0 Z " fill="#F8FBFC" transform="translate(124.375,41.5625)"/>
<path d="M0 0 C2.64 0 5.28 0 8 0 C8 18.15 8 36.3 8 55 C5.36 55 2.72 55 0 55 C0 36.85 0 18.7 0 0 Z " fill="#F7F9FA" transform="translate(162,162)"/>
<path d="M0 0 C16.26666667 4.4 16.26666667 4.4 20 10 C19.86300711 13.76730436 19.48289599 16.24668225 17.4375 19.4375 C13.97782341 21.65524141 11.002898 21.47690777 7 21 C5.68 20.67 4.36 20.34 3 20 C2.01 22.64 1.02 25.28 0 28 C-2.64 27.34 -5.28 26.68 -8 26 C-5.74603165 17.185701 -2.9375631 8.60369272 0 0 Z " fill="#F8FBFC" transform="translate(255,48)"/>
<path d="M0 0 C1.41625977 1.51879883 1.41625977 1.51879883 2.69140625 3.45703125 C3.16126953 4.15763672 3.63113281 4.85824219 4.11523438 5.58007812 C4.59283203 6.31677734 5.07042969 7.05347656 5.5625 7.8125 C6.5215716 9.25688495 7.48119097 10.70090636 8.44140625 12.14453125 C8.88371582 12.82209473 9.32602539 13.4996582 9.78173828 14.19775391 C11.05069747 16.13415324 11.05069747 16.13415324 12.90234375 18.32421875 C13.26457031 18.87722656 13.62679687 19.43023437 14 20 C13.67 20.99 13.34 21.98 13 23 C10.69 23.33 8.38 23.66 6 24 C5.34 23.01 4.68 22.02 4 21 C1.69 21.33 -0.62 21.66 -3 22 C-3 23.98 -3 25.96 -3 28 C-5.31 28.66 -7.62 29.32 -10 30 C-10 20.43 -10 10.86 -10 1 C-2.90808824 -1.36397059 -2.90808824 -1.36397059 0 0 Z " fill="#F4F9FB" transform="translate(77,52)"/>
<path d="M0 0 C2.64 0 5.28 0 8 0 C8 6.93 8 13.86 8 21 C9.65 20.67 11.3 20.34 13 20 C13.66 14.06 14.32 8.12 15 2 C17.31 2 19.62 2 22 2 C21.30941948 20.07415914 21.30941948 20.07415914 18 26 C13.75093123 28.83271251 9.99002089 28.65087229 5 28 C1.88863563 26.68078151 -0.45172016 25.09655969 -2 22 C-2.36952811 14.48626179 -1.2800439 7.39453931 0 0 Z " fill="#F8FBFC" transform="translate(191,36)"/>
<path d="M0 0 C4.77613161 2.15027878 7.99491601 5.55113041 11.6875 9.1875 C12.37650391 9.83525391 13.06550781 10.48300781 13.77539062 11.15039062 C17.03722261 14.36090568 18.80782616 16.3242696 20.08203125 20.8046875 C20 24 20 24 18 26.9375 C14.17058128 29.57022537 12.58564879 29.68761021 8 29 C5.15531071 27.0001398 2.89928145 24.56180485 0.5625 22 C-0.07365234 21.33226562 -0.70980469 20.66453125 -1.36523438 19.9765625 C-2.92718227 18.33240682 -4.47046313 16.67425288 -6 15 C-5.67 14.01 -5.34 13.02 -5 12 C-4.08476562 12.92683594 -3.16953125 13.85367188 -2.2265625 14.80859375 C-1.0261739 16.01836039 0.17435417 17.22798865 1.375 18.4375 C1.97828125 19.04916016 2.5815625 19.66082031 3.203125 20.29101562 C3.78320312 20.87431641 4.36328125 21.45761719 4.9609375 22.05859375 C5.49509277 22.59798584 6.02924805 23.13737793 6.57958984 23.69311523 C7.98652388 25.10846977 7.98652388 25.10846977 10 26 C7.51783325 21.241767 4.11579258 17.88365758 0.3125 14.1875 C-0.29400391 13.59001953 -0.90050781 12.99253906 -1.52539062 12.37695312 C-3.01240312 10.91335815 -4.50558811 9.45603898 -6 8 C-3 8 -3 8 -1.40600586 9.26928711 C-0.56888062 10.13952515 -0.56888062 10.13952515 0.28515625 11.02734375 C1.20458008 11.96803711 1.20458008 11.96803711 2.14257812 12.92773438 C2.77615234 13.59095703 3.40972656 14.25417969 4.0625 14.9375 C5.32206517 16.2403667 6.583689 17.54124726 7.84765625 18.83984375 C8.40461182 19.42113037 8.96156738 20.00241699 9.53540039 20.60131836 C10.96762219 22.10644 10.96762219 22.10644 13 23 C8.48979324 17.67766598 3.77605 12.78862467 -1.375 8.078125 C-3 6 -3 6 -2.875 3.859375 C-2 2 -2 2 0 0 Z " fill="#EDF3F4" transform="translate(177,187)"/>
<path d="M0 0 C0.82736795 18.52384899 0.82736795 18.52384899 -4 26 C-6.7913051 28.43344547 -8.15120729 28.94341382 -11.8125 29.1875 C-12.534375 29.125625 -13.25625 29.06375 -14 29 C-14 28.34 -14 27.68 -14 27 C-12.04072937 25.2856382 -10.04119788 23.61594832 -8 22 C-9.29299694 19.11562221 -10.65941363 17.12780579 -13 15 C-16.43595166 16.52708963 -19.11912454 18.59927045 -22 21 C-22.32670937 17.48787428 -22.24238301 15.45315084 -20.5625 12.3125 C-17.56401143 9.6065469 -15.20193108 9.03605996 -11.390625 7.95703125 C-7.77684166 6.51033694 -5.31364012 4.09223845 -2.53125 1.42578125 C-1 0 -1 0 0 0 Z " fill="#F5F8F9" transform="translate(161,188)"/>
<path d="M0 0 C3.24811347 2.40077952 4.68969068 4.14208601 6.0625 7.9375 C5.97939888 12.00945507 4.53529331 13.88521107 2 17 C-1.10048928 18.55024464 -3.57894218 18.28992015 -7 18 C-9.75329021 16.20437595 -11.52627461 14.94745078 -13 12 C-13.43023798 8.12785818 -13.31669086 6.47503629 -11.125 3.1875 C-7.5841408 -0.45750212 -5.02152545 -0.5106636 0 0 Z " fill="#3C494B" transform="translate(312,58)"/>
<path d="M0 0 C2.75329021 1.79562405 4.52627461 3.05254922 6 6 C6.43023798 9.87214182 6.31669086 11.52496371 4.125 14.8125 C1.42055063 17.59649199 0.57733296 17.93464155 -3.3125 18.375 C-7 18 -7 18 -9.9375 16 C-12.23092162 12.66411401 -12.75815509 10.90015906 -12.48046875 6.9375 C-10.87278432 0.45447986 -5.98096831 -0.96122705 0 0 Z " fill="#364346" transform="translate(32,58)"/>
<path d="M0 0 C2.49237994 0.5799321 3.56516343 1.23632622 5.32421875 3.07421875 C7.19921875 6.51171875 7.19921875 6.51171875 7.38671875 10.07421875 C5.84944631 14.52421792 4.2370348 16.11893887 0.19921875 18.51171875 C-4.539969 18.76114968 -6.22463717 18.01584482 -9.80078125 14.88671875 C-11.80078125 11.51171875 -11.80078125 11.51171875 -11.86328125 7.88671875 C-9.78889825 1.29750215 -6.69072718 -0.32071254 0 0 Z " fill="#3A4649" transform="translate(170.80078125,301.48828125)"/>
<path d="M0 0 C1.18239258 0.00676758 1.18239258 0.00676758 2.38867188 0.01367188 C4.32164761 0.02538688 6.25458393 0.04332002 8.1875 0.0625 C8.1875 4.0225 8.1875 7.9825 8.1875 12.0625 C6.5375 12.0625 4.8875 12.0625 3.1875 12.0625 C3.1875 11.4025 3.1875 10.7425 3.1875 10.0625 C0.26940419 10.14956253 -2.64565711 10.25644734 -5.5625 10.375 C-6.8 10.40883789 -6.8 10.40883789 -8.0625 10.44335938 C-14.01935857 10.67798917 -14.01935857 10.67798917 -18.8125 14.0625 C-19.10603437 11.00974259 -19.23245977 8.10720835 -18.8125 5.0625 C-13.75197386 -0.72095844 -7.10317332 -0.07740256 0 0 Z " fill="#EBF1F3" transform="translate(170.8125,150.9375)"/>
<path d="M0 0 C2.34080409 2.34080409 2.65830864 3.76904949 3.5078125 6.9375 C3.77207031 7.91460937 4.03632812 8.89171875 4.30859375 9.8984375 C4.57800781 10.92195313 4.84742187 11.94546875 5.125 13 C5.40214844 14.02351563 5.67929688 15.04703125 5.96484375 16.1015625 C8 23.70081589 8 23.70081589 8 26 C5.09399739 27.25664978 3.20395416 28 0 28 C-2.71981556 19.42846005 -4.86602101 10.73089879 -7 2 C-4.69 1.34 -2.38 0.68 0 0 Z " fill="#F7FBFC" transform="translate(94,45)"/>
<path d="M0 0 C0.33 0 0.66 0 1 0 C1.33 4.29 1.66 8.58 2 13 C2.66 12.67 3.32 12.34 4 12 C4.60134766 12.70962891 4.60134766 12.70962891 5.21484375 13.43359375 C9.35070568 18.24469845 13.69635511 22.72739204 18.27734375 27.1171875 C20 29 20 29 20 31 C17.06769807 29.67879172 15.01335101 28.25361803 12.765625 25.9609375 C12.19199219 25.38085938 11.61835938 24.80078125 11.02734375 24.203125 C10.44082031 23.59984375 9.85429687 22.9965625 9.25 22.375 C8.64800781 21.76398438 8.04601562 21.15296875 7.42578125 20.5234375 C5.94594695 19.02011376 4.47235324 17.51065144 3 16 C6.59366868 20.68520356 10.68246972 24.6344871 14.953125 28.6953125 C17 31 17 31 17 34 C12.92623969 32.38989473 10.23492931 29.46177729 7.25 26.375 C6.74339844 25.859375 6.23679688 25.34375 5.71484375 24.8125 C4.47196098 23.54616661 3.23534724 22.2736856 2 21 C1.34 21.33 0.68 21.66 0 22 C0 14.74 0 7.48 0 0 Z " fill="#327282" transform="translate(170,179)"/>
<path d="M0 0 C3.82791577 0.53165497 6.15961769 1.34897651 9 4 C9.61875 5.0828125 9.61875 5.0828125 10.25 6.1875 C12.00004189 9.00006733 13.76522562 10.70679389 16.1875 12.9375 C19.93549364 16.54845548 19.93549364 16.54845548 20.5 20.5 C20.335 21.325 20.17 22.15 20 23 C16.45811985 20.04494023 13.01443211 17.07476838 9.8125 13.75 C7.30325454 11.01635813 7.30325454 11.01635813 4.875 9.9375 C2.05044613 8.52522307 0.68767718 6.62527561 -1 4 C-0.75 1.6875 -0.75 1.6875 0 0 Z " fill="#F7F9FA" transform="translate(141,160)"/>
<path d="M0 0 C2.5625 0.25 2.5625 0.25 5 1 C6.23887548 3.47775095 6.16741669 5.23653707 6.1875 8 C6.20167969 8.886875 6.21585938 9.77375 6.23046875 10.6875 C6 13 6 13 4 15 C2.68 15 1.36 15 0 15 C-1.72262035 12.00592177 -2.27306023 9.82250407 -2.25 6.375 C-2.25515625 5.59898438 -2.2603125 4.82296875 -2.265625 4.0234375 C-2 2 -2 2 0 0 Z " fill="#47A5BC" transform="translate(142,43)"/>
<path d="M0 0 C0 5.28 0 10.56 0 16 C-6 14 -6 14 -8 11 C-8.375 8.0625 -8.375 8.0625 -8 5 C-5.72451252 2.19356544 -3.76419524 0 0 0 Z " fill="#838383" transform="translate(29,59)"/>
<path d="M0 0 C-1.43561686 3.18706942 -3.20266329 5.62169105 -5.5 8.25 C-6.1084375 8.95640625 -6.716875 9.6628125 -7.34375 10.390625 C-9 12 -9 12 -11 12 C-11.65277261 8.97527145 -12.1118616 6.10016422 -12 3 C-8.45046712 -1.6587619 -5.41728875 -1.27465618 0 0 Z " fill="#7C7C7C" transform="translate(173,304)"/>
<path d="M0 0 C2.475 0.495 2.475 0.495 5 1 C7.19398856 4.29098284 7.21503664 4.84832581 6.75 8.5625 C6.66234375 9.34753906 6.5746875 10.13257813 6.484375 10.94140625 C6 13 6 13 4 15 C2.68 15 1.36 15 0 15 C0 10.05 0 5.1 0 0 Z " fill="#48A5BB" transform="translate(170,41)"/>
<path d="M0 0 C2.5 1.5 2.5 1.5 4 4 C4.02153204 6.82069716 3.55892884 9.20535581 3 12 C0.33333333 10 -2.33333333 8 -5 6 C-5.74765625 5.48050781 -6.4953125 4.96101563 -7.265625 4.42578125 C-8.12414062 3.72001953 -8.12414062 3.72001953 -9 3 C-9 2.34 -9 1.68 -9 1 C-5.90826248 -0.54586876 -3.40570448 -0.29359521 0 0 Z " fill="#7C7C7C" transform="translate(312,60)"/>
<path d="M0 0 C5 2 5 2 6 4 C6.29325631 7.37244761 6.340946 9.38305009 4.6875 12.375 C3 14 3 14 0 14 C0 9.38 0 4.76 0 0 Z " fill="#777777" transform="translate(30,60)"/>
<path d="M0 0 C0.66 0.33 1.32 0.66 2 1 C2.48275862 7.27586207 2.48275862 7.27586207 0.375 10.4375 C-2.602598 12.39644605 -4.50355037 12.31785906 -8 12 C-6.49087042 7.01987239 -3.44338151 3.75740058 0 0 Z " fill="#797979" transform="translate(174,306)"/>
<path d="M0 0 C2.93879484 1.35236577 5.29232911 2.89942659 7.75 5 C8.67039062 5.7734375 8.67039062 5.7734375 9.609375 6.5625 C11 8 11 8 11 10 C4.72413793 10.48275862 4.72413793 10.48275862 1.5625 8.375 C-0.39644605 5.397402 -0.31785906 3.49644963 0 0 Z " fill="#7A7A7A" transform="translate(301,64)"/>
<path d="M0 0 C0.66 0 1.32 0 2 0 C0.88740222 8.84842469 -0.63671789 17.39765312 -3 26 C-4.65 26 -6.3 26 -8 26 C-7.01 25.67 -6.02 25.34 -5 25 C-4.87753906 23.865625 -4.75507813 22.73125 -4.62890625 21.5625 C-4.05293264 16.95471114 -3.04247653 12.50580537 -1.9375 8 C-1.75123047 7.22527344 -1.56496094 6.45054688 -1.37304688 5.65234375 C-0.91923822 3.76729241 -0.46017508 1.8835073 0 0 Z " fill="#2B869C" transform="translate(248,47)"/>
<path d="M0 0 C0.69480469 0.69738281 1.38960937 1.39476562 2.10546875 2.11328125 C4.09466774 4.10388355 6.09919545 6.07756553 8.11328125 8.04296875 C9.17973223 9.09110033 10.24613804 10.13927786 11.3125 11.1875 C11.86228516 11.72052734 12.41207031 12.25355469 12.97851562 12.80273438 C14.35715678 14.16424956 15.68339727 15.57840502 17 17 C17 17.66 17 18.32 17 19 C14.10363554 17.69110379 12.05694168 16.29778091 9.8359375 14.03125 C9.27132812 13.46019531 8.70671875 12.88914063 8.125 12.30078125 C7.5475 11.70652344 6.97 11.11226562 6.375 10.5 C5.49714844 9.60861328 5.49714844 9.60861328 4.6015625 8.69921875 C3.51771323 7.59796823 2.43593439 6.49467333 1.35693359 5.38867188 C0.24572411 4.25147153 -0.87571998 3.12428002 -2 2 C-1.34 1.34 -0.68 0.68 0 0 Z " fill="#0E5A6C" transform="translate(176,188)"/>
<path d="M0 0 C0.69480469 0.69738281 1.38960937 1.39476562 2.10546875 2.11328125 C4.09466774 4.10388355 6.09919545 6.07756553 8.11328125 8.04296875 C9.17973223 9.09110033 10.24613804 10.13927786 11.3125 11.1875 C11.86228516 11.72052734 12.41207031 12.25355469 12.97851562 12.80273438 C14.35715678 14.16424956 15.68339727 15.57840502 17 17 C17 17.66 17 18.32 17 19 C14.11950883 17.69317199 12.0391257 16.29498997 9.80078125 14.06640625 C9.23166016 13.49986328 8.66253906 12.93332031 8.07617188 12.34960938 C7.2031543 11.46499023 7.2031543 11.46499023 6.3125 10.5625 C5.71888672 9.97662109 5.12527344 9.39074219 4.51367188 8.78710938 C3.94841797 8.21927734 3.38316406 7.65144531 2.80078125 7.06640625 C2.02988159 6.2921228 2.02988159 6.2921228 1.2434082 5.50219727 C0 4 0 4 -1 1 C-0.67 0.67 -0.34 0.34 0 0 Z " fill="#125B6D" transform="translate(173,191)"/>
<path d="M0 0 C2.47656846 3.71485269 2.65372421 6.69359174 2 11 C-0.39821029 15.79642058 -3.20357942 18.60178971 -8 21 C-10.76338734 21.30925996 -13.20519828 21.19274495 -16 21 C-16 20.67 -16 20.34 -16 20 C-14.783125 19.731875 -13.56625 19.46375 -12.3125 19.1875 C-7.90930465 18.06526968 -4.21615051 17.00664834 -1.75 12.9375 C-0.66087591 8.67176396 -0.32339103 4.38279947 0 0 Z " fill="#308AA1" transform="translate(185,43)"/>
<path d="M0 0 C2.0625 0.4375 2.0625 0.4375 4 1 C4.66 3.31 5.32 5.62 6 8 C5.34 8.66 4.68 9.32 4 10 C1.525 9.01 1.525 9.01 -1 8 C-1.04241723 5.66705225 -1.04092937 3.33297433 -1 1 C-0.67 0.67 -0.34 0.34 0 0 Z " fill="#004454" transform="translate(248,213)"/>
<path d="M0 0 C2.93230193 1.32120828 4.98664899 2.74638197 7.234375 5.0390625 C8.09482422 5.90917969 8.09482422 5.90917969 8.97265625 6.796875 C9.55917969 7.40015625 10.14570313 8.0034375 10.75 8.625 C11.35199219 9.23601562 11.95398438 9.84703125 12.57421875 10.4765625 C14.05405305 11.97988624 15.52764676 13.48934856 17 15 C16.34 15.66 15.68 16.32 15 17 C12.49195282 14.54976242 9.9949924 12.08852402 7.5 9.625 C6.78457031 8.92632812 6.06914062 8.22765625 5.33203125 7.5078125 C4.65527344 6.8375 3.97851562 6.1671875 3.28125 5.4765625 C2.65283203 4.85861816 2.02441406 4.24067383 1.37695312 3.60400391 C0 2 0 2 0 0 Z " fill="#C8D9DD" transform="translate(174,191)"/>
<path d="M0 0 C1.32 0.33 2.64 0.66 4 1 C4 3.31 4 5.62 4 8 C2.35 8.33 0.7 8.66 -1 9 C-1.625 6.1875 -1.625 6.1875 -2 3 C-1.34 2.01 -0.68 1.02 0 0 Z " fill="#004455" transform="translate(172,213)"/>
<path d="M0 0 C2.0625 0.4375 2.0625 0.4375 4 1 C5.125 6.75 5.125 6.75 4 9 C2.35 8.67 0.7 8.34 -1 8 C-1.04241723 5.66705225 -1.04092937 3.33297433 -1 1 C-0.67 0.67 -0.34 0.34 0 0 Z " fill="#004455" transform="translate(143,186)"/>
<path d="M0 0 C1.32 0.66 2.64 1.32 4 2 C4 3.98 4 5.96 4 8 C2.34385343 8.38218767 0.67542976 8.71395102 -1 9 C-2 8 -2 8 -2.1875 5.0625 C-2 2 -2 2 0 0 Z " fill="#00495B" transform="translate(134,186)"/>
<path d="M0 0 C1.32 0.66 2.64 1.32 4 2 C3.67 4.31 3.34 6.62 3 9 C1.35 8.67 -0.3 8.34 -2 8 C-2.125 5.125 -2.125 5.125 -2 2 C-1.34 1.34 -0.68 0.68 0 0 Z " fill="#00495B" transform="translate(201,186)"/>
<path d="M0 0 C2.0625 0.4375 2.0625 0.4375 4 1 C4 3.31 4 5.62 4 8 C2.68 8.33 1.36 8.66 0 9 C-2 6 -2 6 -1.6875 3.375 C-1 1 -1 1 0 0 Z " fill="#004353" transform="translate(191,267)"/>
<path d="M0 0 C1.32 0.33 2.64 0.66 4 1 C4 3.31 4 5.62 4 8 C2.35 8.33 0.7 8.66 -1 9 C-1.80967438 6.08517222 -2.21845993 4.53886783 -1.0625 1.6875 C-0.711875 1.130625 -0.36125 0.57375 0 0 Z " fill="#004454" transform="translate(191,159)"/>
<path d="M0 0 C1.9375 0.75 1.9375 0.75 4 2 C4.75 4.125 4.75 4.125 5 6 C3.02 7.32 1.04 8.64 -1 10 C-1.9765625 3.9453125 -1.9765625 3.9453125 -2 2 C-1.34 1.34 -0.68 0.68 0 0 Z " fill="#003E4D" transform="translate(201,267)"/>
<path d="M0 0 C1.32 0.66 2.64 1.32 4 2 C3.67 4.64 3.34 7.28 3 10 C1.02 8.68 -0.96 7.36 -3 6 C-1.125 1.125 -1.125 1.125 0 0 Z " fill="#003E4D" transform="translate(134,267)"/>
<path d="M0 0 C2.0625 0.4375 2.0625 0.4375 4 1 C4 3.64 4 6.28 4 9 C3.01 9.495 3.01 9.495 2 10 C1.01 9.34 0.02 8.68 -1 8 C-1.25 4.4375 -1.25 4.4375 -1 1 C-0.67 0.67 -0.34 0.34 0 0 Z " fill="#004050" transform="translate(229,240)"/>
<path d="M0 0 C2.0625 0.4375 2.0625 0.4375 4 1 C4 3.31 4 5.62 4 8 C2.02 8.99 2.02 8.99 0 10 C-1 9 -1 9 -1.1328125 7.1875 C-1.13023438 6.465625 -1.12765625 5.74375 -1.125 5 C-1.12757812 4.278125 -1.13015625 3.55625 -1.1328125 2.8125 C-1 1 -1 1 0 0 Z " fill="#004050" transform="translate(105,240)"/>
<path d="M0 0 C2.0625 1.6875 2.0625 1.6875 4 4 C3.75 6.75 3.75 6.75 3 9 C1.35 8.67 -0.3 8.34 -2 8 C-2.125 5.125 -2.125 5.125 -2 2 C-1.34 1.34 -0.68 0.68 0 0 Z " fill="#014A5C" transform="translate(201,159)"/>
<path d="M0 0 C0.99 0.66 1.98 1.32 3 2 C3.1875 5.125 3.1875 5.125 3 8 C1.35 8.33 -0.3 8.66 -2 9 C-2.6875 6.75 -2.6875 6.75 -3 4 C-1.5625 1.6875 -1.5625 1.6875 0 0 Z " fill="#004556" transform="translate(135,159)"/>
<path d="M0 0 C2.475 0.99 2.475 0.99 5 2 C5 3.98 5 5.96 5 8 C3.35 8.33 1.7 8.66 0 9 C-1.125 3.375 -1.125 3.375 0 0 Z " fill="#003E4D" transform="translate(257,105)"/>
<path d="M0 0 C2 3 2 3 1.625 6.1875 C1.41875 7.115625 1.2125 8.04375 1 9 C-0.65 8.67 -2.3 8.34 -4 8 C-4 6.02 -4 4.04 -4 2 C-2.68 1.34 -1.36 0.68 0 0 Z " fill="#003E4D" transform="translate(79,105)"/>
<path d="M0 0 C2.0625 0.4375 2.0625 0.4375 4 1 C4 3.31 4 5.62 4 8 C2.0625 8.5625 2.0625 8.5625 0 9 C-1 8 -1 8 -1.125 4.5 C-1 1 -1 1 0 0 Z " fill="#004253" transform="translate(143,267)"/>
<path d="M0 0 C2.0625 0.4375 2.0625 0.4375 4 1 C4 3.31 4 5.62 4 8 C2.0625 8.5625 2.0625 8.5625 0 9 C-1 8 -1 8 -1.125 4.5 C-1 1 -1 1 0 0 Z " fill="#00495B" transform="translate(229,213)"/>
<path d="M0 0 C2.0625 0.4375 2.0625 0.4375 4 1 C4 3.31 4 5.62 4 8 C2.0625 8.5625 2.0625 8.5625 0 9 C-1 8 -1 8 -1.125 4.5 C-1 1 -1 1 0 0 Z " fill="#00495B" transform="translate(105,213)"/>
<path d="M0 0 C2.0625 0.4375 2.0625 0.4375 4 1 C4 3.31 4 5.62 4 8 C2.0625 8.5625 2.0625 8.5625 0 9 C-1 8 -1 8 -1.125 4.5 C-1 1 -1 1 0 0 Z " fill="#00495B" transform="translate(86,186)"/>
<path d="M0 0 C1.98 0.495 1.98 0.495 4 1 C4 3.64 4 6.28 4 9 C2.35 8.67 0.7 8.34 -1 8 C-1.125 2.25 -1.125 2.25 0 0 Z " fill="#00495B" transform="translate(248,159)"/>
<path d="M0 0 C0.99 0.33 1.98 0.66 3 1 C3.6875 3.8125 3.6875 3.8125 4 7 C2.5625 8.875 2.5625 8.875 1 10 C-0.95418308 7.06872538 -1.64700993 5.44165321 -2 2 C-1.34 1.34 -0.68 0.68 0 0 Z " fill="#00485A" transform="translate(58,159)"/>
<path d="M0 0 C1.32 0.66 2.64 1.32 4 2 C3.45276317 5.37462715 2.9451 7.08235 1 10 C0.34 9.67 -0.32 9.34 -1 9 C-1.75 6.125 -1.75 6.125 -2 3 C-1.34 2.01 -0.68 1.02 0 0 Z " fill="#00485A" transform="translate(277,159)"/>
<path d="M0 0 C0.66 0 1.32 0 2 0 C1.22095672 13.6332574 1.22095672 13.6332574 -1 20 C-1.33 20 -1.66 20 -2 20 C-1.85879984 17.41633755 -1.71221667 14.83317115 -1.5625 12.25 C-1.52318359 11.52039062 -1.48386719 10.79078125 -1.44335938 10.0390625 C-1.23852902 6.5727027 -0.9147998 3.34666974 0 0 Z " fill="#2B869D" transform="translate(213,39)"/>
<path d="M0 0 C1.31831625 3.95494876 0.27915298 5.30181518 -1.375 9.0625 C-1.83648437 10.12597656 -2.29796875 11.18945312 -2.7734375 12.28515625 C-3.48903967 13.86905278 -4.22272081 15.44544162 -5 17 C-6.65 17 -8.3 17 -10 17 C-9.01 16.67 -8.02 16.34 -7 16 C-6.28771856 14.01578741 -5.63484067 12.01032877 -5 10 C-3.41122971 6.62637701 -1.7145147 3.31123831 0 0 Z " fill="#2B859C" transform="translate(238,53)"/>
<path d="M0 0 C0.33 0 0.66 0 1 0 C1.62693289 10.91908122 1.62693289 10.91908122 -0.8125 15.125 C-3 17 -3 17 -6 19 C-8.1875 18.625 -8.1875 18.625 -10 18 C-9.071875 17.46375 -8.14375 16.9275 -7.1875 16.375 C-3.18393412 13.39195091 -1.50978034 10.76880696 -0.6015625 5.8359375 C-0.34803837 3.89682047 -0.16796495 1.94839347 0 0 Z " fill="#2D869D" transform="translate(157,46)"/>
<path d="M0 0 C0 1.32 0 2.64 0 4 C-1.98 4.33 -3.96 4.66 -6 5 C-6.33 3.35 -6.66 1.7 -7 0 C-3.86650268 -1.04449911 -3.01031744 -0.93423645 0 0 Z " fill="#4EA6BB" transform="translate(118,47)"/>
<path d="M0 0 C1.5625 1 1.5625 1 3 3 C3.24754516 6.96072262 2.83448688 10.05041148 0.1875 13.0625 C-2.37782775 14.16192618 -3.44138709 14.00516936 -6 13 C-5.38125 12.7525 -4.7625 12.505 -4.125 12.25 C-1.51001756 10.71177504 -0.93291754 9.87649576 0 7 C0.0777346 4.66796188 0.08967728 2.33160941 0 0 Z " fill="#28839B" transform="translate(274,56)"/>
<path d="M0 0 C3.9520518 0.58172725 6.22095053 2.55157741 9.25 5.0625 C10.14203125 5.79597656 11.0340625 6.52945313 11.953125 7.28515625 C12.62859375 7.85105469 13.3040625 8.41695312 14 9 C13.67 9.99 13.34 10.98 13 12 C11.8944811 11.06409496 10.79064547 10.12620142 9.6875 9.1875 C9.07261719 8.66542969 8.45773437 8.14335938 7.82421875 7.60546875 C6 6 6 6 4.45703125 4.36328125 C2.93064107 2.74507398 2.93064107 2.74507398 0 2 C0 1.34 0 0.68 0 0 Z " fill="#515353" transform="translate(300,62)"/>
<path d="M0 0 C1.65 0.33 3.3 0.66 5 1 C5.33 1.99 5.66 2.98 6 4 C5.67 4.66 5.34 5.32 5 6 C2.03 5.505 2.03 5.505 -1 5 C-0.67 3.35 -0.34 1.7 0 0 Z " fill="#4EA4B9" transform="translate(261,57)"/>
<path d="M0 0 C2.0625 0.4375 2.0625 0.4375 4 1 C4.125 4.375 4.125 4.375 4 8 C3.34 8.66 2.68 9.32 2 10 C1.01 7.03 0.02 4.06 -1 1 C-0.67 0.67 -0.34 0.34 0 0 Z " fill="#004758" transform="translate(67,186)"/>
<path d="M0 0 C0.33 0.99 0.66 1.98 1 3 C-1.64 4.65 -4.28 6.3 -7 8 C-8.24546405 5.50907189 -7.7767578 4.58919267 -7 2 C-4.69 1.34 -2.38 0.68 0 0 Z " fill="#1D6374" transform="translate(193,214)"/>
<path d="M0 0 C0.99 0.33 1.98 0.66 3 1 C2.01 3.97 1.02 6.94 0 10 C-2 8 -2 8 -2.25 5 C-2 2 -2 2 0 0 Z " fill="#004758" transform="translate(268,186)"/>
<path d="M0 0 C0.66 0.33 1.32 0.66 2 1 C2 3.97 2 6.94 2 10 C1.67 10 1.34 10 1 10 C1 8.02 1 6.04 1 4 C0.01 3.67 -0.98 3.34 -2 3 C-1.34 2.01 -0.68 1.02 0 0 Z M-5 4 C-4.34 4.33 -3.68 4.66 -3 5 C-4.65 6.65 -6.3 8.3 -8 10 C-8.66 9.67 -9.32 9.34 -10 9 C-8.35 7.35 -6.7 5.7 -5 4 Z " fill="#004455" transform="translate(58,118)"/>
<path d="M0 0 C1.98 0 3.96 0 6 0 C5.67 1.65 5.34 3.3 5 5 C3.35 4.67 1.7 4.34 0 4 C0 2.68 0 1.36 0 0 Z " fill="#00495B" transform="translate(161,217)"/>
<path d="M0 0 C1.32 0.66 2.64 1.32 4 2 C4 3.65 4 5.3 4 7 C0.83884224 5.63016497 0.0072908 5.0109362 -2 2 C-1.34 1.34 -0.68 0.68 0 0 Z " fill="#014B5D" transform="translate(182,186)"/>
<path d="M0 0 C3.23861303 1.44424635 5.61969163 3.25772247 8.25 5.625 C8.95640625 6.25664063 9.6628125 6.88828125 10.390625 7.5390625 C10.92171875 8.02117187 11.4528125 8.50328125 12 9 C11.67 9.66 11.34 10.32 11 11 C9.16086305 9.5489926 7.3288247 8.08898341 5.5 6.625 C4.4790625 5.81289062 3.458125 5.00078125 2.40625 4.1640625 C1.6121875 3.44992188 0.818125 2.73578125 0 2 C0 1.34 0 0.68 0 0 Z " fill="#A5A5A5" transform="translate(303,61)"/>
<path d="M0 0 C0.66 0 1.32 0 2 0 C0.55575365 3.23861303 -1.25772247 5.61969163 -3.625 8.25 C-4.25664062 8.95640625 -4.88828125 9.6628125 -5.5390625 10.390625 C-6.02117187 10.92171875 -6.50328125 11.4528125 -7 12 C-7 8.23396179 -5.92592757 7.22857351 -3.625 4.3125 C-2.99851563 3.50425781 -2.37203125 2.69601562 -1.7265625 1.86328125 C-1.15679687 1.24839844 -0.58703125 0.63351562 0 0 Z " fill="#A6A6A6" transform="translate(171,304)"/>
<path d="M0 0 C0.66 1.32 1.32 2.64 2 4 C2.99 3.67 3.98 3.34 5 3 C4.67 4.65 4.34 6.3 4 8 C2.68 8.33 1.36 8.66 0 9 C-1.15941038 5.52176885 -0.70820884 3.54104422 0 0 Z " fill="#447E8C" transform="translate(151,159)"/>
<path d="M0 0 C1.98 0.99 1.98 0.99 4 2 C4 3.98 4 5.96 4 8 C3.01 8.495 3.01 8.495 2 9 C1.34 6.03 0.68 3.06 0 0 Z " fill="#004758" transform="translate(48,132)"/>
<path d="M0 0 C0.33 0 0.66 0 1 0 C1.3690205 9.41002278 1.3690205 9.41002278 -1 14 C-1.33 14 -1.66 14 -2 14 C-1.85923685 12.0412957 -1.7122324 10.08303907 -1.5625 8.125 C-1.48128906 7.03445312 -1.40007812 5.94390625 -1.31640625 4.8203125 C-1 2 -1 2 0 0 Z " fill="#2B859C" transform="translate(223,54)"/>
<path d="M0 0 C0.99 0.33 1.98 0.66 3 1 C3.6875 3.0625 3.6875 3.0625 4 5 C2.02 5.33 0.04 5.66 -2 6 C-1.125 1.125 -1.125 1.125 0 0 Z " fill="#00495B" transform="translate(163,105)"/>
<path d="M0 0 C0.66 0.33 1.32 0.66 2 1 C1.01 3.97 0.02 6.94 -1 10 C-1.66 10 -2.32 10 -3 10 C-2.69201674 8.51988629 -2.378482 7.04092675 -2.0625 5.5625 C-1.88847656 4.73878906 -1.71445312 3.91507812 -1.53515625 3.06640625 C-1 1 -1 1 0 0 Z " fill="#368A9F" transform="translate(258,67)"/>
<path d="M0 0 C0.99 0 1.98 0 3 0 C2.34 2.64 1.68 5.28 1 8 C0.34 7.67 -0.32 7.34 -1 7 C-1.04254356 5.00045254 -1.04080783 2.99958364 -1 1 C-0.67 0.67 -0.34 0.34 0 0 Z " fill="#004658" transform="translate(286,133)"/>
<path d="M0 0 C0.66 0.33 1.32 0.66 2 1 C2 3.97 2 6.94 2 10 C1.34 10 0.68 10 0 10 C0 8.02 0 6.04 0 4 C-0.66 3.67 -1.32 3.34 -2 3 C-1.34 2.01 -0.68 1.02 0 0 Z " fill="#004556" transform="translate(278,118)"/>
<path d="M0 0 C1.65 0.33 3.3 0.66 5 1 C4.67 2.32 4.34 3.64 4 5 C2.35 4.67 0.7 4.34 -1 4 C-0.67 2.68 -0.34 1.36 0 0 Z " fill="#00495A" transform="translate(171,106)"/>
<path d="M0 0 C0.99 0 1.98 0 3 0 C3 2.31 3 4.62 3 7 C2.01 7 1.02 7 0 7 C0 4.69 0 2.38 0 0 Z " fill="#004E62" transform="translate(191,188)"/>
<path d="M0 0 C0.66 0 1.32 0 2 0 C2 2.97 2 5.94 2 9 C1.34 9 0.68 9 0 9 C0 7.02 0 5.04 0 3 C-0.66 2.67 -1.32 2.34 -2 2 C-1.34 1.34 -0.68 0.68 0 0 Z " fill="#004758" transform="translate(87,173)"/>
<path d="M0 0 C0.99 0 1.98 0 3 0 C3 1.98 3 3.96 3 6 C1.68 5.67 0.36 5.34 -1 5 C-0.67 3.35 -0.34 1.7 0 0 Z " fill="#0D586B" transform="translate(229,161)"/>
<path d="M0 0 C0.99 0 1.98 0 3 0 C3.33 1.65 3.66 3.3 4 5 C2.68 5.33 1.36 5.66 0 6 C0 4.02 0 2.04 0 0 Z " fill="#0D586B" transform="translate(105,161)"/>
<path d="M0 0 C0.66 0 1.32 0 2 0 C2 2.97 2 5.94 2 9 C1.34 9 0.68 9 0 9 C0 7.02 0 5.04 0 3 C-0.66 2.67 -1.32 2.34 -2 2 C-1.34 1.34 -0.68 0.68 0 0 Z " fill="#004658" transform="translate(278,146)"/>
<path d="M0 0 C0.66 0 1.32 0 2 0 C2 2.97 2 5.94 2 9 C1.34 9 0.68 9 0 9 C0 7.02 0 5.04 0 3 C-0.66 2.67 -1.32 2.34 -2 2 C-1.34 1.34 -0.68 0.68 0 0 Z " fill="#004758" transform="translate(87,146)"/>
<path d="M0 0 C0.66 0 1.32 0 2 0 C2 2.97 2 5.94 2 9 C1.34 9 0.68 9 0 9 C0 7.02 0 5.04 0 3 C-0.66 2.67 -1.32 2.34 -2 2 C-1.34 1.34 -0.68 0.68 0 0 Z " fill="#004758" transform="translate(68,146)"/>
<path d="M0 0 C0.66 0 1.32 0 2 0 C2 2.97 2 5.94 2 9 C1.34 9 0.68 9 0 9 C0 7.02 0 5.04 0 3 C-0.66 2.67 -1.32 2.34 -2 2 C-1.34 1.34 -0.68 0.68 0 0 Z " fill="#004758" transform="translate(87,119)"/>
<path d="M0 0 C0.66 0 1.32 0 2 0 C2 2.97 2 5.94 2 9 C1.34 9 0.68 9 0 9 C0 7.02 0 5.04 0 3 C-0.66 2.67 -1.32 2.34 -2 2 C-1.34 1.34 -0.68 0.68 0 0 Z " fill="#004758" transform="translate(68,119)"/>
<path d="M0 0 C0.66 0 1.32 0 2 0 C2 2.97 2 5.94 2 9 C1.34 9 0.68 9 0 9 C0 7.02 0 5.04 0 3 C-0.66 2.67 -1.32 2.34 -2 2 C-1.34 1.34 -0.68 0.68 0 0 Z " fill="#004758" transform="translate(154,92)"/>
<path d="M0 0 C0.66 0 1.32 0 2 0 C2 2.97 2 5.94 2 9 C1.34 9 0.68 9 0 9 C0 7.02 0 5.04 0 3 C-0.66 2.67 -1.32 2.34 -2 2 C-1.34 1.34 -0.68 0.68 0 0 Z " fill="#004758" transform="translate(173,92)"/>
<path d="M0 0 C0.66 0 1.32 0 2 0 C2 2.64 2 5.28 2 8 C1.01 8.495 1.01 8.495 0 9 C0 7.02 0 5.04 0 3 C-0.66 2.67 -1.32 2.34 -2 2 C-1.34 1.34 -0.68 0.68 0 0 Z " fill="#004657" transform="translate(135,173)"/>
<path d="M0 0 C0.66 0 1.32 0 2 0 C2 2.64 2 5.28 2 8 C1.01 8.495 1.01 8.495 0 9 C0 7.02 0 5.04 0 3 C-0.66 2.67 -1.32 2.34 -2 2 C-1.34 1.34 -0.68 0.68 0 0 Z " fill="#004657" transform="translate(68,173)"/>
<path d="M0 0 C0.66 0 1.32 0 2 0 C2 2.97 2 5.94 2 9 C1.34 8.67 0.68 8.34 0 8 C0 6.35 0 4.7 0 3 C-0.66 2.67 -1.32 2.34 -2 2 C-1.34 1.34 -0.68 0.68 0 0 Z " fill="#004657" transform="translate(106,146)"/>
<path d="M0 0 C0.66 0 1.32 0 2 0 C2 2.97 2 5.94 2 9 C1.34 9 0.68 9 0 9 C0 7.02 0 5.04 0 3 C-0.66 2.67 -1.32 2.34 -2 2 C-1.34 2 -0.68 2 0 2 C0 1.34 0 0.68 0 0 Z " fill="#004657" transform="translate(211,92)"/>
<path d="M0 0 C0.66 0 1.32 0 2 0 C2 2.97 2 5.94 2 9 C1.34 9 0.68 9 0 9 C0 7.02 0 5.04 0 3 C-0.66 2.67 -1.32 2.34 -2 2 C-1.34 2 -0.68 2 0 2 C0 1.34 0 0.68 0 0 Z " fill="#004657" transform="translate(192,92)"/>
<path d="M0 0 C0 2.64 0 5.28 0 8 C-0.66 8 -1.32 8 -2 8 C-2.2165625 6.824375 -2.2165625 6.824375 -2.4375 5.625 C-2.87798925 3.03578982 -2.87798925 3.03578982 -4 1 C-2 0 -2 0 0 0 Z " fill="#004658" transform="translate(175,281)"/>
<path d="M0 0 C0.66 0 1.32 0 2 0 C2 2.64 2 5.28 2 8 C1.34 8 0.68 8 0 8 C0 6.35 0 4.7 0 3 C-0.66 2.67 -1.32 2.34 -2 2 C-1.34 1.34 -0.68 0.68 0 0 Z " fill="#004657" transform="translate(211,254)"/>
<path d="M0 0 C0.66 0 1.32 0 2 0 C2 2.64 2 5.28 2 8 C1.34 8 0.68 8 0 8 C0 6.35 0 4.7 0 3 C-0.66 2.67 -1.32 2.34 -2 2 C-1.34 1.34 -0.68 0.68 0 0 Z " fill="#004657" transform="translate(192,254)"/>
<path d="M0 0 C0.66 0.33 1.32 0.66 2 1 C2 2.98 2 4.96 2 7 C1.01 7 0.02 7 -1 7 C-1.04254356 5.00045254 -1.04080783 2.99958364 -1 1 C-0.67 0.67 -0.34 0.34 0 0 Z " fill="#005064" transform="translate(230,241)"/>
<path d="M0 0 C0.66 0.33 1.32 0.66 2 1 C2 2.98 2 4.96 2 7 C1.01 7 0.02 7 -1 7 C-1.04254356 5.00045254 -1.04080783 2.99958364 -1 1 C-0.67 0.67 -0.34 0.34 0 0 Z " fill="#005164" transform="translate(106,241)"/>
<path d="M0 0 C0.66 0 1.32 0 2 0 C2 2.64 2 5.28 2 8 C1.34 8 0.68 8 0 8 C0 6.35 0 4.7 0 3 C-0.66 2.67 -1.32 2.34 -2 2 C-1.34 1.34 -0.68 0.68 0 0 Z " fill="#004657" transform="translate(106,227)"/>
<path d="M0 0 C0.66 0.33 1.32 0.66 2 1 C2 2.98 2 4.96 2 7 C1.01 7 0.02 7 -1 7 C-1.04254356 5.00045254 -1.04080783 2.99958364 -1 1 C-0.67 0.67 -0.34 0.34 0 0 Z " fill="#005064" transform="translate(249,214)"/>
<path d="M0 0 C0.66 0 1.32 0 2 0 C2 2.64 2 5.28 2 8 C1.34 8 0.68 8 0 8 C0 6.35 0 4.7 0 3 C-0.66 2.67 -1.32 2.34 -2 2 C-1.34 1.34 -0.68 0.68 0 0 Z " fill="#004657" transform="translate(135,200)"/>
<path d="M0 0 C0.66 0 1.32 0 2 0 C2 2.64 2 5.28 2 8 C1.34 8 0.68 8 0 8 C0 6.35 0 4.7 0 3 C-0.66 2.67 -1.32 2.34 -2 2 C-1.34 1.34 -0.68 0.68 0 0 Z " fill="#004657" transform="translate(106,200)"/>
<path d="M0 0 C0.66 0 1.32 0 2 0 C2 2.64 2 5.28 2 8 C1.34 8 0.68 8 0 8 C0 6.35 0 4.7 0 3 C-0.66 2.67 -1.32 2.34 -2 2 C-1.34 1.34 -0.68 0.68 0 0 Z " fill="#004657" transform="translate(87,200)"/>
<path d="M0 0 C0.66 0 1.32 0 2 0 C2 2.97 2 5.94 2 9 C1.34 8.67 0.68 8.34 0 8 C0 6.35 0 4.7 0 3 C-0.66 2.67 -1.32 2.34 -2 2 C-1.34 2 -0.68 2 0 2 C0 1.34 0 0.68 0 0 Z " fill="#004657" transform="translate(106,119)"/>
<path d="M0 0 C1.13643966 3.40931897 0.86747764 4.00335456 -0.4375 7.1875 C-0.72496094 7.90292969 -1.01242188 8.61835937 -1.30859375 9.35546875 C-1.53675781 9.89816406 -1.76492187 10.44085938 -2 11 C-2.66 10.67 -3.32 10.34 -4 10 C-2.8905928 6.51329166 -1.73662334 3.22515763 0 0 Z " fill="#3D8EA3" transform="translate(238,53)"/>
<path d="M0 0 C0.66 0.33 1.32 0.66 2 1 C2 2.65 2 4.3 2 6 C1.01 6.33 0.02 6.66 -1 7 C-1.04254356 5.00045254 -1.04080783 2.99958364 -1 1 C-0.67 0.67 -0.34 0.34 0 0 Z " fill="#005165" transform="translate(192,268)"/>
<path d="M0 0 C0.66 0.33 1.32 0.66 2 1 C2 2.98 2 4.96 2 7 C1.01 6.67 0.02 6.34 -1 6 C-1.042721 4.33388095 -1.04063832 2.66617115 -1 1 C-0.67 0.67 -0.34 0.34 0 0 Z " fill="#005165" transform="translate(144,268)"/>
<path d="M0 0 C0.66 0 1.32 0 2 0 C2 2.64 2 5.28 2 8 C1.34 7.67 0.68 7.34 0 7 C0 5.68 0 4.36 0 3 C-0.66 2.67 -1.32 2.34 -2 2 C-1.34 1.34 -0.68 0.68 0 0 Z " fill="#004657" transform="translate(125,254)"/>
<path d="M0 0 C0.66 0 1.32 0 2 0 C2 2.64 2 5.28 2 8 C1.34 7.67 0.68 7.34 0 7 C0 5.68 0 4.36 0 3 C-0.66 2.67 -1.32 2.34 -2 2 C-1.34 1.34 -0.68 0.68 0 0 Z " fill="#004657" transform="translate(230,227)"/>
<path d="M0 0 C0.66 0.33 1.32 0.66 2 1 C2 2.65 2 4.3 2 6 C1.01 6.33 0.02 6.66 -1 7 C-1.04254356 5.00045254 -1.04080783 2.99958364 -1 1 C-0.67 0.67 -0.34 0.34 0 0 Z " fill="#005164" transform="translate(173,214)"/>
<path d="M0 0 C0.66 0.33 1.32 0.66 2 1 C2 2.65 2 4.3 2 6 C1.01 6.33 0.02 6.66 -1 7 C-1.04254356 5.00045254 -1.04080783 2.99958364 -1 1 C-0.67 0.67 -0.34 0.34 0 0 Z " fill="#005165" transform="translate(87,214)"/>
<path d="M0 0 C0.99 0 1.98 0 3 0 C3 1.98 3 3.96 3 6 C2.01 6 1.02 6 0 6 C0 4.02 0 2.04 0 0 Z " fill="#005165" transform="translate(143,188)"/>
<path d="M0 0 C0.99 0 1.98 0 3 0 C3 1.98 3 3.96 3 6 C2.01 6 1.02 6 0 6 C0 4.02 0 2.04 0 0 Z " fill="#005165" transform="translate(191,161)"/>
<path d="M0 0 C0.99 0 1.98 0 3 0 C3 1.98 3 3.96 3 6 C2.01 6 1.02 6 0 6 C0 4.02 0 2.04 0 0 Z " fill="#005164" transform="translate(86,161)"/>
<path d="M0 0 C0 2.97 0 5.94 0 9 C-0.66 8.34 -1.32 7.68 -2 7 C-2 5.68 -2 4.36 -2 3 C-2.66 2.67 -3.32 2.34 -4 2 C-1 0 -1 0 0 0 Z " fill="#004557" transform="translate(232,146)"/>
<path d="M0 0 C0.99 0 1.98 0 3 0 C3 1.98 3 3.96 3 6 C2.01 6 1.02 6 0 6 C0 4.02 0 2.04 0 0 Z " fill="#005165" transform="translate(86,134)"/>
<path d="M0 0 C1.37562854 1.28965176 2.70766393 2.62689293 4 4 C4 4.66 4 5.32 4 6 C2.68 6.33 1.36 6.66 0 7 C0 4.69 0 2.38 0 0 Z " fill="#52A5B9" transform="translate(73,61)"/>
<path d="M0 0 C0 1.98 0 3.96 0 6 C-0.99 6 -1.98 6 -3 6 C-3 4.35 -3 2.7 -3 1 C-1 0 -1 0 0 0 Z " fill="#105C6F" transform="translate(127,241)"/>
<path d="M0 0 C0 1.65 0 3.3 0 5 C-0.99 5.33 -1.98 5.66 -3 6 C-3.33 4.35 -3.66 2.7 -4 1 C-2 0 -2 0 0 0 Z " fill="#0D596C" transform="translate(156,215)"/>
<path d="M0 0 C0.66 0 1.32 0 2 0 C2 2.64 2 5.28 2 8 C1.34 7.67 0.68 7.34 0 7 C-0.6875 4 -0.6875 4 -1 1 C-0.67 0.67 -0.34 0.34 0 0 Z " fill="#004557" transform="translate(230,200)"/>
<path d="M0 0 C0.99 0 1.98 0 3 0 C3 1.65 3 3.3 3 5 C2.01 5.33 1.02 5.66 0 6 C0 4.02 0 2.04 0 0 Z " fill="#005064" transform="translate(258,188)"/>
<path d="M0 0 C0.99 0 1.98 0 3 0 C3 1.98 3 3.96 3 6 C2.01 5.67 1.02 5.34 0 5 C0 3.35 0 1.7 0 0 Z " fill="#005165" transform="translate(267,161)"/>
<path d="M0 0 C0.99 0 1.98 0 3 0 C3 1.65 3 3.3 3 5 C2.01 5.33 1.02 5.66 0 6 C0 4.02 0 2.04 0 0 Z " fill="#005064" transform="translate(258,161)"/>
<path d="M0 0 C1.32 0.33 2.64 0.66 4 1 C3.67 2.65 3.34 4.3 3 6 C2.34 6 1.68 6 1 6 C0.67 4.02 0.34 2.04 0 0 Z " fill="#025265" transform="translate(133,161)"/>
<path d="M0 0 C0.66 0 1.32 0 2 0 C2 2.31 2 4.62 2 7 C1.34 7 0.68 7 0 7 C0 5.68 0 4.36 0 3 C-0.66 2.67 -1.32 2.34 -2 2 C-1.34 1.34 -0.68 0.68 0 0 Z " fill="#004657" transform="translate(154,146)"/>
</svg>
