<?xml version="1.0" standalone="no"?>
<!DOCTYPE svg PUBLIC "-//W3C//DTD SVG 20010904//EN"
 "http://www.w3.org/TR/2001/REC-SVG-20010904/DTD/svg10.dtd">
<svg version="1.0" xmlns="http://www.w3.org/2000/svg"
 width="567.000000pt" height="467.000000pt" viewBox="0 0 567.000000 467.000000"
 preserveAspectRatio="xMidYMid meet">

<g transform="translate(0.000000,467.000000) scale(0.100000,-0.100000)"
fill="#000000" stroke="none">
<path d="M68 4643 c-64 -40 -59 147 -56 -2320 l3 -2243 33 -32 32 -33 2743 -3
c2501 -3 2745 -1 2773 13 17 9 38 29 47 45 16 26 17 188 17 2265 0 2458 5
2277 -60 2310 -26 13 -339 15 -2767 15 -2544 -1 -2740 -2 -2765 -17z m4622
-748 c12 -15 7 -48 -16 -100 -2 -6 16 -16 41 -23 78 -21 136 -54 201 -115 77
-72 136 -163 168 -259 41 -122 42 -143 13 -182 -15 -18 -38 -37 -52 -40 -33
-8 -32 -22 4 -34 16 -6 39 -20 50 -31 21 -21 21 -29 21 -425 l0 -403 -23 -35
-24 -34 13 -174 c20 -275 20 -276 -18 -296 -38 -20 -137 -29 -202 -20 -65 10
-111 53 -130 119 -8 29 -28 94 -43 145 l-28 92 -100 4 c-55 3 -122 10 -148 15
-27 6 -52 9 -56 6 -5 -2 -6 -90 -3 -195 l5 -191 -79 3 -79 3 -3 38 c-2 20 -7
37 -13 37 -5 0 -29 -16 -54 -35 -148 -112 -360 -73 -431 79 -34 72 -34 190 0
261 26 55 93 123 153 154 46 23 199 54 258 52 63 -1 69 7 55 72 -27 132 -167
170 -337 92 -31 -14 -57 -24 -58 -23 -11 14 -36 112 -31 124 3 8 36 29 73 47
66 31 73 32 198 32 104 0 137 -3 164 -17 19 -10 51 -18 71 -18 22 0 43 -7 50
-15 20 -24 95 -55 133 -55 43 0 129 26 191 57 48 24 154 93 143 93 -3 0 -69
-18 -148 -41 -158 -45 -177 -45 -248 1 -62 39 -111 91 -165 175 -52 79 -56 74
-21 -26 13 -40 22 -75 19 -80 -3 -5 -16 -9 -30 -9 -32 0 -31 -16 4 -29 23 -9
18 -10 -35 -8 -49 3 -68 9 -98 31 -85 66 -87 197 -4 272 18 16 46 43 63 60 17
18 45 39 61 47 l30 15 -62 7 c-35 4 -63 13 -64 19 -12 176 54 362 177 495 l63
68 -25 24 c-35 32 -46 56 -39 79 9 30 26 25 81 -24 l49 -44 35 18 c38 19 125
40 168 40 23 0 30 6 41 38 16 45 38 82 50 82 5 0 14 -7 21 -15z m-1975 -699
c113 -53 177 -157 179 -291 1 -71 -3 -88 -31 -145 -35 -71 -71 -111 -130 -144
-24 -14 -38 -29 -38 -41 0 -18 -8 -20 -87 -23 -83 -3 -88 -2 -88 17 0 15 -15
28 -48 45 -58 29 -116 92 -146 155 -32 70 -30 197 5 271 39 82 110 150 178
170 56 17 154 11 206 -14z m-1091 -111 c19 -9 43 -34 57 -58 22 -39 24 -55 27
-214 l4 -173 29 0 c24 0 30 -5 38 -38 6 -20 24 -78 41 -127 48 -142 126 -384
145 -452 10 -35 22 -63 26 -63 4 0 42 107 84 238 42 130 87 269 100 307 13 39
26 85 30 103 l7 32 89 0 c73 0 89 -3 89 -15 0 -23 -74 -236 -174 -500 -25 -66
-67 -183 -95 -260 l-49 -140 -84 -3 -85 -3 -30 88 c-17 48 -54 153 -83 233
-29 80 -55 156 -59 169 -4 14 -13 27 -20 29 -10 3 -12 -51 -9 -259 3 -237 1
-267 -15 -296 -34 -64 -28 -63 -536 -63 l-459 0 -30 25 c-18 15 -34 41 -41 69
-7 31 -11 240 -11 666 0 681 -1 673 59 705 40 22 909 22 955 0z m1476 -695 l0
-670 -84 0 c-67 0 -85 3 -90 16 -8 21 -8 1309 1 1317 3 4 44 7 90 7 l83 0 0
-670z m408 -2 l2 -668 -90 0 -90 0 0 670 0 671 88 -3 87 -3 3 -667z m-813
-268 l0 -395 -87 -3 -88 -3 0 401 0 401 88 -3 87 -3 0 -395z m303 -507 c3 -21
-1 -23 -42 -23 -44 0 -46 -1 -46 -30 0 -28 2 -30 39 -30 22 0 41 -5 44 -12 2
-7 9 5 15 27 21 73 67 104 138 91 91 -18 109 -187 25 -243 -19 -13 -44 -23
-56 -23 -36 0 -88 42 -105 85 -15 39 -16 40 -55 35 l-40 -5 -5 -55 c-4 -47 -8
-55 -25 -55 -19 0 -20 8 -23 133 l-3 133 68 -3 c62 -3 68 -5 71 -25z m384 -3
c22 -27 23 -58 4 -86 -12 -17 -12 -27 2 -72 9 -28 20 -52 24 -52 4 0 9 53 10
118 l3 117 65 0 c60 0 65 -2 68 -22 3 -21 -1 -23 -42 -23 -42 0 -46 -2 -46
-24 0 -21 5 -25 38 -28 30 -2 38 -7 40 -25 3 -21 -1 -23 -37 -23 -39 0 -41 -2
-41 -30 0 -26 4 -30 28 -32 15 0 34 -1 42 -2 8 -1 16 -11 18 -24 4 -23 3 -23
-99 -20 l-103 3 -11 45 c-8 35 -16 46 -33 48 -20 3 -22 -1 -22 -47 0 -48 -2
-51 -25 -51 l-25 0 0 124 c0 90 3 126 13 130 6 3 34 4 61 2 37 -3 55 -9 68
-26z m244 22 c6 -4 26 -35 44 -69 18 -35 36 -63 41 -63 4 0 9 30 11 68 3 59 5
67 23 67 19 0 20 -7 20 -125 l0 -125 -25 0 c-19 0 -32 13 -64 70 -40 69 -41
70 -47 40 -4 -16 -7 -49 -8 -72 -1 -36 -4 -43 -21 -43 -19 0 -20 7 -20 123 0
68 3 127 7 130 8 9 25 9 39 -1z m301 -6 c3 -3 3 -12 0 -21 -4 -10 -20 -15 -47
-15 -57 0 -55 -29 5 -64 70 -42 72 -106 4 -141 -46 -24 -115 -3 -102 31 4 12
15 14 43 9 27 -5 40 -2 50 11 15 17 7 28 -64 77 -41 29 -33 102 14 121 17 6
89 1 97 -8z m77 -9 c0 -9 -1 -66 -2 -127 -2 -100 -4 -110 -20 -110 -17 0 -20
12 -25 122 -5 91 -3 124 6 130 19 13 42 4 41 -15z m203 10 c3 -4 3 -13 0 -22
-5 -10 -20 -15 -51 -15 -36 0 -48 -5 -65 -26 -25 -31 -27 -64 -6 -103 17 -33
32 -37 140 -37 75 1 80 3 83 23 2 16 -5 26 -30 39 -43 22 -57 42 -58 80 0 50
21 69 78 69 57 0 66 -5 58 -33 -6 -17 -13 -19 -46 -15 -35 5 -40 3 -40 -15 0
-14 14 -28 42 -44 51 -28 67 -63 49 -106 -17 -42 -60 -58 -110 -43 -28 8 -46
8 -71 0 -41 -15 -97 1 -129 35 -51 55 -28 190 37 215 27 10 108 9 119 -2z"/>
<path d="M4710 3471 c-14 -28 -13 -53 6 -79 30 -44 104 -17 104 38 0 19 -2 20
-15 10 -12 -10 -20 -9 -40 4 -14 9 -25 23 -25 31 0 21 -17 19 -30 -4z"/>
<path d="M4342 3365 c-17 -37 -15 -49 11 -73 48 -45 104 -12 98 57 -1 11 -4
10 -15 -4 -13 -18 -15 -18 -41 -1 -16 10 -24 23 -21 32 10 25 -20 15 -32 -11z"/>
<path d="M4670 3213 l-35 -17 150 -7 c82 -4 151 -6 153 -5 1 2 -13 11 -33 20
-53 25 -191 30 -235 9z"/>
<path d="M4372 2248 c-19 -19 -15 -96 6 -107 33 -17 144 -41 192 -41 52 0 61
7 85 63 l15 37 -24 -10 c-23 -8 -95 6 -112 23 -4 4 -18 7 -30 7 -13 0 -26 5
-29 10 -4 6 -15 8 -26 5 -11 -4 -26 0 -35 9 -19 19 -26 20 -42 4z"/>
<path d="M4043 2169 c-66 -12 -126 -43 -155 -78 -52 -61 -49 -152 7 -208 29
-29 40 -33 84 -33 62 0 109 18 145 56 43 46 56 88 56 185 l0 89 -47 -1 c-27
-1 -67 -5 -90 -10z"/>
<path d="M4674 2145 c-9 -13 -14 -29 -12 -35 2 -7 11 5 21 24 19 41 15 47 -9
11z"/>
<path d="M4708 2109 c-10 -28 79 -255 109 -276 20 -15 33 -17 33 -4 0 17 -79
194 -95 210 -8 9 -20 32 -28 50 -9 21 -16 29 -19 20z"/>
<path d="M2538 3134 c-3 -3 -4 -22 -1 -43 4 -32 1 -41 -22 -59 -35 -28 -65
-88 -65 -130 0 -45 27 -99 62 -125 25 -19 29 -27 26 -62 -2 -37 0 -40 29 -49
75 -21 184 39 227 125 62 124 7 282 -116 333 -36 15 -129 22 -140 10z"/>
<path d="M2374 2909 c-3 -6 -1 -16 5 -22 8 -8 11 -5 11 11 0 24 -5 28 -16 11z"/>
<path d="M1060 2938 c-11 -42 -77 -251 -105 -333 -8 -22 -43 -134 -79 -250
-35 -115 -92 -293 -125 -395 -34 -102 -61 -188 -61 -192 0 -5 29 -8 65 -8 l64
0 31 103 c18 56 44 143 59 192 l28 90 217 3 c168 2 217 0 221 -10 2 -7 30 -95
61 -195 l58 -183 67 0 68 0 -14 43 c-8 23 -35 110 -60 192 -26 83 -82 260
-125 395 -44 135 -103 322 -133 415 l-53 170 -87 3 -86 3 -11 -43z m131 -184
c15 -54 32 -112 37 -129 41 -124 112 -356 112 -364 0 -7 -62 -11 -185 -11
-164 0 -185 2 -185 16 0 9 29 105 64 213 35 108 71 232 81 276 9 44 18 86 21
93 10 32 30 -2 55 -94z"/>
<path d="M3073 1568 c-20 -41 -22 -56 -12 -92 17 -62 68 -74 100 -23 36 57 7
137 -51 137 -18 0 -30 -7 -37 -22z"/>
<path d="M3290 1560 c0 -28 3 -31 28 -28 21 2 27 8 27 28 0 20 -6 26 -27 28
-25 3 -28 0 -28 -28z"/>
</g>
</svg>
