<?xml version="1.0" encoding="UTF-8"?>
<svg version="1.1" xmlns="http://www.w3.org/2000/svg" width="700" height="700">
<path d="M0 0 C2.69518018 1.31542683 5.28825307 2.71846399 7.88037109 4.22729492 C9.41552368 5.11723145 9.41552368 5.11723145 10.98168945 6.02514648 C12.07876221 6.66548828 13.17583496 7.30583008 14.30615234 7.96557617 C15.46293042 8.63747758 16.61991655 9.30902092 17.77709961 9.98022461 C20.18536975 11.37745432 22.592734 12.77622665 24.99951172 14.17602539 C30.67608991 17.47556975 36.36719658 20.74993858 42.05615234 24.02807617 C44.22421746 25.27921129 46.39218827 26.53050982 48.56005859 27.78198242 C52.29555119 29.93822332 56.03241216 32.09204411 59.77099609 34.24291992 C67.93588638 38.94688651 76.05013655 43.72291171 84.11865234 48.59057617 C90.86845868 52.66001166 97.66679995 56.56276112 104.61865234 60.27807617 C115.63795459 66.24203721 126.45512618 72.514881 137.2171936 78.93054199 C146.02846236 84.18101946 154.89085569 89.33132943 163.80615234 94.40307617 C178.48153309 102.75484672 193.08974257 111.21785859 207.61474609 119.82885742 C208.5920166 120.40804932 209.56928711 120.98724121 210.57617188 121.58398438 C212.40256996 122.6677347 214.22787358 123.75333294 216.05175781 124.84130859 C221.25679375 127.93321474 226.51974311 130.88730724 231.84399414 133.76879883 C240.50429912 138.47957801 249.04972635 143.40377459 257.61865234 148.27807617 C258.5509668 148.80755859 259.48328125 149.33704102 260.44384766 149.88256836 C263.04677949 151.36340148 265.64588953 152.85069783 268.24365234 154.34057617 C269.01837891 154.78103271 269.79310547 155.22148926 270.59130859 155.67529297 C271.31447266 156.09206299 272.03763672 156.50883301 272.78271484 156.93823242 C273.4061377 157.2953833 274.02956055 157.65253418 274.671875 158.02050781 C275.63552979 158.64300415 275.63552979 158.64300415 276.61865234 159.27807617 C277.47015429 159.7004487 278.32165623 160.12282124 279.19896126 160.55799294 C283.21373438 165.07117941 282.31982848 170.22559723 282.28048706 176.05697632 C282.28911102 177.39672771 282.29990173 178.73646662 282.3126756 180.07618487 C282.34136408 183.76124296 282.33871727 187.44571881 282.33091187 191.13085604 C282.32783841 195.10375157 282.35339056 199.07647814 282.37512207 203.04930115 C282.41282066 210.83400045 282.42282584 218.61849993 282.42215894 226.40328167 C282.42180216 232.72991626 282.42970706 239.05648702 282.44348526 245.38310623 C282.48594392 265.26842419 282.49840653 285.15354552 282.48882009 305.03890319 C282.48243125 320.73230214 282.52239862 336.42519162 282.58370505 352.11845903 C282.64613798 368.22585216 282.67515362 384.33299915 282.66880047 400.44051611 C282.66588962 409.48630596 282.67667566 418.53159802 282.72304916 427.57728195 C282.76223208 435.27852382 282.77025309 442.97901645 282.73773073 450.68030284 C282.72201764 454.61060294 282.72086061 458.53948764 282.75879288 462.46966743 C282.79315006 466.06792581 282.78597114 469.66362214 282.7456788 473.26179691 C282.73495366 475.17992357 282.76854688 477.0981398 282.80369461 479.0159744 C282.65326916 487.19212569 282.65326916 487.19212569 279.64869523 490.34577489 C277.36250108 491.89370673 275.11883706 493.11567802 272.61865234 494.27807617 C271.60383789 494.89440918 270.58902344 495.51074219 269.54345703 496.14575195 C268.18075684 496.92668213 268.18075684 496.92668213 266.79052734 497.72338867 C265.23519287 498.61767578 265.23519287 498.61767578 263.6484375 499.5300293 C262.5661084 500.14813477 261.4837793 500.76624023 260.36865234 501.40307617 C259.23347168 502.05469727 258.09829102 502.70631836 256.92871094 503.37768555 C253.4944486 505.3487288 250.05681411 507.31384202 246.61865234 509.27807617 C245.60899414 509.85525391 244.59933594 510.43243164 243.55908203 511.02709961 C239.90861982 513.11360745 236.25788434 515.19962792 232.60546875 517.28271484 C228.30410757 519.7370013 224.01338431 522.20649518 219.74365234 524.71557617 C214.15661386 527.9918282 208.51210703 531.16297635 202.86865234 534.34057617 C188.94539921 542.18907013 175.15810299 550.26463274 161.37515259 558.35612488 C158.33149213 560.1429034 155.28759855 561.9292845 152.24365234 563.71557617 C151.63636292 564.07205231 151.02907349 564.42852844 150.40338135 564.79580688 C140.50161504 570.60675584 130.56871502 576.36124175 120.61694336 582.08618164 C113.81945912 585.99897262 107.04130389 589.94181582 100.30517578 593.95947266 C96.71277167 596.09094636 93.08019901 598.12719067 89.40771484 600.11791992 C83.35522577 603.40207566 77.3898368 606.82728159 71.43115234 610.27807617 C69.74046631 611.25538696 69.74046631 611.25538696 68.015625 612.25244141 C57.54289051 618.30907196 47.09289697 624.40464123 36.64794922 630.5090332 C33.47808236 632.36016596 30.30640849 634.20817021 27.13427734 636.05541992 C26.0645166 636.67860107 24.99475586 637.30178223 23.89257812 637.94384766 C21.86517093 639.12479899 19.83752081 640.30533344 17.80957031 641.48535156 C16.88289551 642.02538818 15.9562207 642.5654248 15.00146484 643.12182617 C14.10588867 643.63874023 13.2103125 644.1556543 12.28759766 644.68823242 C10.45842467 645.77783858 8.65616706 646.91355665 6.87939453 648.08666992 C5.57083496 648.93938477 5.57083496 648.93938477 4.23583984 649.80932617 C3.4661084 650.33075195 2.69637695 650.85217773 1.90332031 651.3894043 C-0.38134766 652.27807617 -0.38134766 652.27807617 -2.83666992 651.61889648 C-5.49228153 650.21962382 -8.11755417 648.80171016 -10.71337891 647.29370117 C-12.2631543 646.39651367 -12.2631543 646.39651367 -13.84423828 645.48120117 C-14.94960938 644.83666992 -16.05498047 644.19213867 -17.19384766 643.52807617 C-18.36100709 642.85072004 -19.5283274 642.17364105 -20.69580078 641.49682617 C-24.26045572 639.42871503 -27.82132787 637.35415351 -31.38134766 635.27807617 C-32.41952637 634.67286133 -33.45770508 634.06764648 -34.52734375 633.4440918 C-38.46356909 631.14854944 -42.39925503 628.85209392 -46.33325195 626.55273438 C-54.79423162 621.61016816 -63.28491993 616.72001086 -71.77807617 611.83300781 C-79.86179641 607.1737978 -87.90525765 602.4497813 -95.91503906 597.66455078 C-101.99065772 594.04856431 -108.16036582 590.63678944 -114.38134766 587.27807617 C-124.92393725 581.53150549 -135.32751681 575.58089044 -145.64868164 569.44555664 C-153.91167069 564.5385839 -162.23021791 559.73190996 -170.56030273 554.93994141 C-177.91419653 550.70749628 -185.24674213 546.44023587 -192.56884766 542.15307617 C-201.20201657 537.10295449 -209.883609 532.14663955 -218.59912109 527.24023438 C-235.6826922 517.61366239 -252.62702729 507.7418277 -269.55493164 497.84472656 C-270.48120361 497.30323975 -271.40747559 496.76175293 -272.36181641 496.20385742 C-273.56680786 495.49869995 -273.56680786 495.49869995 -274.79614258 494.77929688 C-277.98186058 492.92936015 -281.18283313 491.10579876 -284.38134766 489.27807617 C-284.38134766 381.36807617 -284.38134766 273.45807617 -284.38134766 162.27807617 C-275.14134766 156.99807617 -265.90134766 151.71807617 -256.38134766 146.27807617 C-247.27598229 140.96288169 -247.27598229 140.96288169 -238.17431641 135.64135742 C-232.44013358 132.29955008 -226.66603598 129.03147079 -220.88134766 125.77807617 C-212.06255433 120.81750492 -203.30473357 115.76085033 -194.57275391 110.64916992 C-187.19228144 106.32959107 -179.79216757 102.04536303 -172.38134766 97.77807617 C-163.92770312 92.90954772 -155.49023397 88.0146864 -147.06884766 83.09057617 C-137.06773793 77.24537983 -127.02483006 71.47698971 -116.95800781 65.74584961 C-111.71450081 62.75892862 -106.47664826 59.76209816 -101.23803711 56.76660156 C-96.96563652 54.32415654 -92.69153223 51.8848398 -88.41259766 49.45385742 C-75.13294242 41.90143456 -61.95177511 34.18572779 -48.78042603 26.44674683 C-41.75756662 22.32179377 -34.72588109 18.2117368 -27.67773438 14.13012695 C-23.17596675 11.51874853 -18.70482765 8.87657145 -14.29150391 6.11791992 C-13.50936523 5.63572998 -12.72722656 5.15354004 -11.92138672 4.65673828 C-10.48534434 3.76794704 -9.05805295 2.86477935 -7.64208984 1.94433594 C-2.99936351 -0.90928008 -2.99936351 -0.90928008 0 0 Z " fill="#434343" transform="translate(356.38134765625,24.721923828125)"/>
<path d="M0 0 C6.93 3.96 6.93 3.96 14 8 C18.09300714 10.30851534 18.09300714 10.30851534 22.18798828 12.61352539 C32.22443262 18.25913932 42.198001 24.00399697 52.13354492 29.82519531 C58.7915516 33.72304281 65.47903373 37.56475146 72.1875 41.375 C78.94276687 45.21339078 85.58960975 49.17158947 92.18359375 53.28125 C96.69329595 56.03335675 101.34754222 58.4998199 106 61 C117.01704338 66.96843906 127.83622728 73.23665784 138.59854126 79.65246582 C147.40981002 84.90294329 156.27220334 90.05325326 165.1875 95.125 C179.86288075 103.47677054 194.47109022 111.93978241 208.99609375 120.55078125 C209.97336426 121.12997314 210.95063477 121.70916504 211.95751953 122.3059082 C213.78391761 123.38965853 215.60922124 124.47525676 217.43310547 125.56323242 C222.63814141 128.65513857 227.90109076 131.60923107 233.2253418 134.49072266 C241.88564677 139.20150183 250.431074 144.12569842 259 149 C260.39847168 149.79422363 260.39847168 149.79422363 261.82519531 150.60449219 C264.42812715 152.08532531 267.02723719 153.57262166 269.625 155.0625 C270.39972656 155.50295654 271.17445313 155.94341309 271.97265625 156.3972168 C272.69582031 156.81398682 273.41898438 157.23075684 274.1640625 157.66015625 C274.78748535 158.01730713 275.4109082 158.37445801 276.05322266 158.74243164 C276.69565918 159.1574292 277.3380957 159.57242676 278 160 C278.85150194 160.42237253 279.70300388 160.84474506 280.58030891 161.27991676 C284.59508204 165.79310323 283.70117614 170.94752106 283.66183472 176.77890015 C283.67045868 178.11865154 283.68124939 179.45839045 283.69402325 180.7981087 C283.72271173 184.48316679 283.72006492 188.16764264 283.71225953 191.85277987 C283.70918607 195.8256754 283.73473821 199.79840196 283.75646973 203.77122498 C283.79416831 211.55592428 283.80417349 219.34042376 283.8035066 227.1252055 C283.80314982 233.45184009 283.81105471 239.77841084 283.82483292 246.10503006 C283.86729158 265.99034802 283.87975419 285.87546935 283.87016775 305.76082702 C283.8637789 321.45422597 283.90374628 337.14711544 283.96505271 352.84038286 C284.02748564 368.94777599 284.05650127 385.05492298 284.05014813 401.16243994 C284.04723728 410.20822979 284.05802331 419.25352184 284.10439682 428.29920578 C284.14357974 436.00044765 284.15160075 443.70094028 284.11907838 451.40222667 C284.1033653 455.33252677 284.10220827 459.26141146 284.14014053 463.19159126 C284.17449772 466.78984964 284.1673188 470.38554596 284.12702645 473.98372073 C284.11630132 475.9018474 284.14989453 477.82006362 284.18504226 479.73789823 C284.03461682 487.91404952 284.03461682 487.91404952 281.03004289 491.06769872 C278.74384873 492.61563056 276.50018471 493.83760185 274 495 C272.98518555 495.61633301 271.97037109 496.23266602 270.92480469 496.86767578 C270.01633789 497.3882959 269.10787109 497.90891602 268.171875 498.4453125 C267.13498535 499.04150391 266.0980957 499.63769531 265.02978516 500.25195312 C263.94745605 500.87005859 262.86512695 501.48816406 261.75 502.125 C260.61481934 502.77662109 259.47963867 503.42824219 258.31005859 504.09960938 C254.87579625 506.07065262 251.43816176 508.03576585 248 510 C246.9903418 510.57717773 245.98068359 511.15435547 244.94042969 511.74902344 C241.28996748 513.83553128 237.63923199 515.92155175 233.98681641 518.00463867 C229.68545523 520.45892513 225.39473196 522.92841901 221.125 525.4375 C215.53796152 528.71375203 209.89345469 531.88490018 204.25 535.0625 C190.32674686 542.91099396 176.53945065 550.98655657 162.75650024 559.07804871 C159.71283978 560.86482723 156.66894621 562.65120833 153.625 564.4375 C153.01771057 564.79397614 152.41042114 565.15045227 151.784729 565.51773071 C141.88296269 571.32867967 131.95006268 577.08316557 121.99829102 582.80810547 C115.20080677 586.72089645 108.42265155 590.66373965 101.68652344 594.68139648 C98.09411932 596.81287018 94.46154666 598.8491145 90.7890625 600.83984375 C84.73657343 604.12399949 78.77118446 607.54920542 72.8125 611 C71.12181396 611.97731079 71.12181396 611.97731079 69.39697266 612.97436523 C55.75535997 620.86363315 42.14839251 628.81253222 28.55078125 636.77734375 C27.48553223 637.4005249 26.4202832 638.02370605 25.32275391 638.66577148 C23.30729233 639.84488399 21.29258022 641.025279 19.27880859 642.20727539 C18.35535645 642.74731201 17.4319043 643.28734863 16.48046875 643.84375 C15.68535889 644.30974609 14.89024902 644.77574219 14.07104492 645.25585938 C9.41566933 647.89978999 4.70005408 650.43633414 0 653 C0 437.51 0 222.02 0 0 Z " fill="#FB8832" transform="translate(355,24)"/>
<path d="M0 0 C9.6857897 3.61818332 19.35722003 7.26837624 29 11 C29.3285713 19.72874607 29.575169 28.45527678 29.72537041 37.18892002 C29.79757181 41.24743367 29.8949361 45.30163544 30.05615234 49.35766602 C30.85902812 70.11448925 29.98757323 84.70839766 16.70159912 101.78182983 C14.4284938 104.74500391 12.54821173 107.83394182 10.6328125 111.0390625 C9.46502017 112.90196931 8.29584079 114.76400764 7.125 116.625 C2.0393788 124.72390777 -2.98755405 132.85477533 -8 141 C4.54 141.33 17.08 141.66 30 142 C30.72638316 167.69580432 31.1004095 193.29516829 31 219 C49.81 219 68.62 219 88 219 C84.6881766 224.96128212 81.46339715 230.41095071 77.5 235.875 C76.43499176 237.3637212 75.37123473 238.85333814 74.30859375 240.34375 C73.76315918 241.10816406 73.21772461 241.87257813 72.65576172 242.66015625 C69.91383658 246.53491451 67.2367654 250.45336406 64.5625 254.375 C64.02447754 255.16350342 63.48645508 255.95200684 62.93212891 256.7644043 C61.83769203 258.36921977 60.74361755 259.97428245 59.64990234 261.57958984 C55.30369419 267.95548621 50.94245933 274.32114263 46.58300781 280.68798828 C45.51440878 282.24869661 44.44605526 283.80957307 43.37792969 285.37060547 C41.83640785 287.62284111 40.2934238 289.87406747 38.75 292.125 C38.05076416 293.14726685 38.05076416 293.14726685 37.33740234 294.19018555 C34.11455745 298.88544255 34.11455745 298.88544255 33 300 C32.90574405 302.14743549 32.88257352 304.29801026 32.88647461 306.44750977 C32.88632858 307.12065216 32.88618256 307.79379456 32.8860321 308.48733521 C32.88673122 310.72205784 32.89452348 312.9566981 32.90234375 315.19140625 C32.90420794 316.73697362 32.90563184 318.28254157 32.90663147 319.82810974 C32.9104566 323.90357077 32.92028683 327.97899637 32.93133545 332.05444336 C32.94154968 336.21011882 32.94612911 340.36579999 32.95117188 344.52148438 C32.96190911 352.68100587 32.97898546 360.84049853 33 369 C31.08156695 369.80062686 29.16300336 370.60094093 27.24438477 371.40112305 C25.64180565 372.06968575 25.64180565 372.06968575 24.0068512 372.75175476 C20.66243634 374.14013405 17.31075761 375.49580093 13.9375 376.8125 C12.34228516 377.44091797 12.34228516 377.44091797 10.71484375 378.08203125 C8 379 8 379 5 379 C4.73671439 369.23684456 4.47577384 359.47362938 4.21769714 349.71033478 C4.09774696 345.17518588 3.97703686 340.64006006 3.85449219 336.10498047 C3.73590834 331.71538548 3.6194484 327.32573849 3.50436401 322.93605042 C3.46045104 321.27460276 3.41581647 319.61317398 3.37039185 317.95176697 C3.24538021 313.37001776 3.1336937 308.78837378 3.044981 304.20577049 C3.01447975 302.71005556 2.9796905 301.21442306 2.94102669 299.71889687 C2.8860617 297.51746473 2.84828772 295.31635127 2.81469727 293.11450195 C2.78932388 291.84476028 2.7639505 290.57501862 2.73780823 289.26679993 C3.07036618 285.12326679 4.22445989 283.02419107 7.16455078 280.17529297 C8.04216064 279.43883545 8.04216064 279.43883545 8.9375 278.6875 C10.14457153 277.54053704 11.34898627 276.39077182 12.55078125 275.23828125 C13.1432666 274.69252441 13.73575195 274.14676758 14.34619141 273.58447266 C16.67149285 271.35665949 18.63796483 268.90494095 20.625 266.375 C24.3759938 261.6827717 28.35103524 257.26016737 32.45947266 252.88232422 C35.03130953 250.16043846 35.03130953 250.16043846 37 247 C25.78 247.33 14.56 247.66 3 248 C2.11268068 230.66583279 1.87814808 213.41689675 1.9375 196.0625 C1.9684375 183.1615625 1.9684375 183.1615625 2 170 C-18.13 170 -38.26 170 -59 170 C-57.58372878 166.45932195 -56.39947321 163.82368984 -54.41796875 160.69140625 C-53.90468018 159.87309326 -53.3913916 159.05478027 -52.86254883 158.21166992 C-52.30978271 157.33744385 -51.7570166 156.46321777 -51.1875 155.5625 C-46.45145158 147.99981128 -41.82559924 140.38528661 -37.3125 132.6875 C-32.48990176 124.47859443 -27.54668238 116.36495112 -22.46044922 108.31738281 C-19.35389574 103.38802714 -16.27377136 98.44206852 -13.1875 93.5 C-11.9310756 91.48952958 -10.67456879 89.47911065 -9.41796875 87.46875 C-8.87938232 86.60701172 -8.3407959 85.74527344 -7.78588867 84.85742188 C-6 82 -6 82 -4.69932556 80.47570801 C0.6494575 73.60993678 -0.2696692 65.29952 -0.29296875 57.03125 C-0.27983898 55.38356713 -0.26453084 53.73590031 -0.24714661 52.08825684 C-0.20743275 47.77444908 -0.19711502 43.46106369 -0.19311523 39.14709473 C-0.18375796 34.73595477 -0.14632831 30.32506033 -0.11132812 25.9140625 C-0.04689108 17.27603695 -0.01353733 8.63825464 0 0 Z " fill="#FEFDFC" transform="translate(493,154)"/>
<path d="M0 0 C0.33 0 0.66 0 1 0 C1.13002391 50.52670047 1.25757283 101.05340674 1.38218227 151.58012087 C1.39718715 157.66352137 1.41221079 163.74692183 1.42724609 169.83032227 C1.43023671 171.04047614 1.43322732 172.25063002 1.43630856 173.49745523 C1.47782289 190.28067982 1.52033182 207.06390161 1.56369197 223.84712152 C1.63877547 252.9097936 1.71175823 281.97247023 1.78125 311.03515625 C1.78399162 312.17988578 1.78673324 313.32461532 1.78955793 314.50403363 C2.01305174 408.00276056 2.06171669 501.5010512 2 595 C3.65 595 5.3 595 7 595 C7.33 594.01 7.66 593.02 8 592 C10.60242414 590.35179805 11.86248779 590 15 590 C15.33 589.34 15.66 588.68 16 588 C18.5625 587.375 18.5625 587.375 21 587 C18.8612896 589.2985087 16.73051517 590.89875923 14.0234375 592.48046875 C12.89421875 593.14272461 12.89421875 593.14272461 11.7421875 593.81835938 C10.96101563 594.27017578 10.17984375 594.72199219 9.375 595.1875 C8.58609375 595.65091797 7.7971875 596.11433594 6.984375 596.59179688 C1.14174107 600 1.14174107 600 0 600 C0 402 0 204 0 0 Z " fill="#FF831A" transform="translate(355,77)"/>
<path d="M0 0 C0.33 0 0.66 0 1 0 C1 57.75 1 115.5 1 175 C2.65 175 4.3 175 6 175 C6.33 174.01 6.66 173.02 7 172 C9.60242414 170.35179805 10.86248779 170 14 170 C14.495 169.01 14.495 169.01 15 168 C17.5625 167.375 17.5625 167.375 20 167 C17.8612896 169.2985087 15.73051517 170.89875923 13.0234375 172.48046875 C12.270625 172.92197266 11.5178125 173.36347656 10.7421875 173.81835938 C9.96101563 174.27017578 9.17984375 174.72199219 8.375 175.1875 C7.58609375 175.65091797 6.7971875 176.11433594 5.984375 176.59179688 C0.14174107 180 0.14174107 180 -1 180 C-1.02364616 162.43709806 -1.04113141 144.87420128 -1.05181217 127.31128693 C-1.05690924 119.15152951 -1.06384836 110.99178223 -1.07543945 102.83203125 C-1.17333106 32.57960409 -1.17333106 32.57960409 0 0 Z " fill="#FA6508" transform="translate(356,497)"/>
<path d="M0 0 C0.33 0 0.66 0 1 0 C1 6.93 1 13.86 1 21 C2.65 21 4.3 21 6 21 C6.33 20.01 6.66 19.02 7 18 C9.60242414 16.35179805 10.86248779 16 14 16 C14.33 15.34 14.66 14.68 15 14 C17.5625 13.375 17.5625 13.375 20 13 C17.8612896 15.2985087 15.73051517 16.89875923 13.0234375 18.48046875 C12.270625 18.92197266 11.5178125 19.36347656 10.7421875 19.81835938 C9.96101563 20.27017578 9.17984375 20.72199219 8.375 21.1875 C7.58609375 21.65091797 6.7971875 22.11433594 5.984375 22.59179688 C0.14174107 26 0.14174107 26 -1 26 C-0.67 17.42 -0.34 8.84 0 0 Z " fill="#E95002" transform="translate(356,651)"/>
<path d="M0 0 C-4.08739534 2.44962982 -8.18081927 4.8887195 -12.28027344 7.31811523 C-13.67490026 8.14660159 -15.06781452 8.97797769 -16.45898438 9.81225586 C-18.45523444 11.00872625 -20.45734815 12.19477818 -22.4609375 13.37890625 C-23.08495453 13.75592178 -23.70897156 14.13293732 -24.35189819 14.52137756 C-25.86651607 15.40968517 -27.43001322 16.21367994 -29 17 C-29.66 16.67 -30.32 16.34 -31 16 C-30.01 14.515 -30.01 14.515 -29 13 C-27.68 13 -26.36 13 -25 13 C-24.67 12.34 -24.34 11.68 -24 11 C-18.57692308 8 -18.57692308 8 -16 8 C-15.67 7.01 -15.34 6.02 -15 5 C-13.68 5 -12.36 5 -11 5 C-10.67 4.34 -10.34 3.68 -10 3 C-8.4765625 1.89453125 -8.4765625 1.89453125 -6.625 0.8125 C-6.01914062 0.44769531 -5.41328125 0.08289063 -4.7890625 -0.29296875 C-3 -1 -3 -1 0 0 Z " fill="#DA5009" transform="translate(407,647)"/>
<path d="M0 0 C1.32 0.99 2.64 1.98 4 3 C3.01 3.495 3.01 3.495 2 4 C1.67 20.17 1.34 36.34 1 53 C0.67 53 0.34 53 0 53 C0 35.51 0 18.02 0 0 Z " fill="#FE9B32" transform="translate(355,24)"/>
<path d="M0 0 C8.91 0 17.82 0 27 0 C26.34 1.32 25.68 2.64 25 4 C24.01 4 23.02 4 22 4 C22 3.01 22 2.02 22 1 C14.74 1 7.48 1 0 1 C0 0.67 0 0.34 0 0 Z " fill="#FDA762" transform="translate(503,401)"/>
<path d="M0 0 C0.33 0 0.66 0 1 0 C1 6.27 1 12.54 1 19 C0.01 19 -0.98 19 -2 19 C-1.85982174 16.02046641 -1.71313658 13.04150696 -1.5625 10.0625 C-1.52318359 9.21236328 -1.48386719 8.36222656 -1.44335938 7.48632812 C-1.40146484 6.67744141 -1.35957031 5.86855469 -1.31640625 5.03515625 C-1.27974854 4.2862915 -1.24309082 3.53742676 -1.20532227 2.76586914 C-1 1 -1 1 0 0 Z " fill="#FF9940" transform="translate(523,217)"/>
<path d="M0 0 C1.32 0.33 2.64 0.66 4 1 C-0.95 3.97 -5.9 6.94 -11 10 C-11.33 9.34 -11.66 8.68 -12 8 C-11.34 8 -10.68 8 -10 8 C-9.67 7.01 -9.34 6.02 -9 5 C-6.39757586 3.35179805 -5.13751221 3 -2 3 C-1.67 2.34 -1.34 1.68 -1 1 C-0.67 0.67 -0.34 0.34 0 0 Z " fill="#D44805" transform="translate(372,664)"/>
<path d="M0 0 C0.66 0 1.32 0 2 0 C0.6302836 3.99500618 -1.25722422 6.80009492 -4 10 C-4.66 9.67 -5.32 9.34 -6 9 C-5.05016642 7.49460339 -4.08988109 5.99579653 -3.125 4.5 C-2.59132813 3.6646875 -2.05765625 2.829375 -1.5078125 1.96875 C-0.76144531 0.99421875 -0.76144531 0.99421875 0 0 Z " fill="#FF983F" transform="translate(574,383)"/>
<path d="M0 0 C0.99 0.33 1.98 0.66 3 1 C0.47043472 4.0916909 -2.22454612 4.90931332 -6 6 C-4 4 -2 2 0 0 Z " fill="#E26016" transform="translate(451,618)"/>
<path d="M0 0 C2 1 2 1 2 1 Z " fill="#95380A" transform="translate(354,678)"/>
<path d="M0 0 C2 1 2 1 2 1 Z " fill="#151515" transform="translate(347,674)"/>
<path d="M0 0 C2 1 2 1 2 1 Z " fill="#121212" transform="translate(340,670)"/>
<path d="M0 0 C2 1 2 1 2 1 Z " fill="#101010" transform="translate(337,668)"/>
<path d="M0 0 C2 1 2 1 2 1 Z " fill="#D44C07" transform="translate(373,667)"/>
<path d="M0 0 C2 1 2 1 2 1 Z " fill="#131313" transform="translate(335,667)"/>
<path d="M0 0 C2 1 2 1 2 1 Z " fill="#111111" transform="translate(332,665)"/>
<path d="M0 0 C2 1 2 1 2 1 Z " fill="#D54F09" transform="translate(385,660)"/>
<path d="M0 0 C2 1 2 1 2 1 Z " fill="#131313" transform="translate(323,660)"/>
<path d="M0 0 C2 1 2 1 2 1 Z " fill="#C45908" transform="translate(387,659)"/>
<path d="M0 0 C2 1 2 1 2 1 Z " fill="#E3540A" transform="translate(390,657)"/>
<path d="M0 0 C2 1 2 1 2 1 Z " fill="#121212" transform="translate(318,657)"/>
<path d="M0 0 C2 1 2 1 2 1 Z " fill="#CC5E08" transform="translate(392,656)"/>
<path d="M0 0 C2 1 2 1 2 1 Z " fill="#D75E09" transform="translate(397,653)"/>
<path d="M0 0 C2 1 2 1 2 1 Z " fill="#131313" transform="translate(311,653)"/>
<path d="M0 0 C2 1 2 1 2 1 Z " fill="#DE610C" transform="translate(402,650)"/>
<path d="M0 0 C2 1 2 1 2 1 Z " fill="#131313" transform="translate(306,650)"/>
<path d="M0 0 C2 1 2 1 2 1 Z " fill="#D5560D" transform="translate(404,649)"/>
<path d="M0 0 C2 1 2 1 2 1 Z " fill="#131313" transform="translate(299,646)"/>
<path d="M0 0 C2 1 2 1 2 1 Z " fill="#131313" transform="translate(294,643)"/>
<path d="M0 0 C2 1 2 1 2 1 Z " fill="#D5590E" transform="translate(416,642)"/>
<path d="M0 0 C2 1 2 1 2 1 Z " fill="#131313" transform="translate(292,642)"/>
<path d="M0 0 C2 1 2 1 2 1 Z " fill="#DA671C" transform="translate(474,609)"/>
<path d="M0 0 C2 1 2 1 2 1 Z " fill="#131313" transform="translate(234,609)"/>
<path d="M0 0 C2 1 2 1 2 1 Z " fill="#E0781E" transform="translate(479,606)"/>
<path d="M0 0 C2 1 2 1 2 1 Z " fill="#121212" transform="translate(229,606)"/>
<path d="M0 0 C2 1 2 1 2 1 Z " fill="#EB6E1E" transform="translate(486,602)"/>
<path d="M0 0 C2 1 2 1 2 1 Z " fill="#131313" transform="translate(222,602)"/>
<path d="M0 0 C2 1 2 1 2 1 Z " fill="#DD7520" transform="translate(489,600)"/>
<path d="M0 0 C2 1 2 1 2 1 Z " fill="#E77220" transform="translate(491,599)"/>
<path d="M0 0 C2 1 2 1 2 1 Z " fill="#121212" transform="translate(217,599)"/>
<path d="M0 0 C2 1 2 1 2 1 Z " fill="#111111" transform="translate(215,598)"/>
<path d="M0 0 C2 1 2 1 2 1 Z " fill="#E4761E" transform="translate(494,597)"/>
<path d="M0 0 C2 1 2 1 2 1 Z " fill="#F77A22" transform="translate(499,594)"/>
<path d="M0 0 C2 1 2 1 2 1 Z " fill="#141414" transform="translate(208,594)"/>
<path d="M0 0 C2 1 2 1 2 1 Z " fill="#FD7923" transform="translate(501,593)"/>
<path d="M0 0 C2 1 2 1 2 1 Z " fill="#121212" transform="translate(203,591)"/>
<path d="M0 0 C2 1 2 1 2 1 Z " fill="#FB7A24" transform="translate(506,590)"/>
<path d="M0 0 C2 1 2 1 2 1 Z " fill="#111111" transform="translate(200,589)"/>
<path d="M0 0 C2 1 2 1 2 1 Z " fill="#FA791F" transform="translate(511,587)"/>
<path d="M0 0 C2 1 2 1 2 1 Z " fill="#F97826" transform="translate(513,586)"/>
<path d="M0 0 C2 1 2 1 2 1 Z " fill="#FF7E26" transform="translate(516,584)"/>
<path d="M0 0 C2 1 2 1 2 1 Z " fill="#FB7D26" transform="translate(518,583)"/>
<path d="M0 0 C2 1 2 1 2 1 Z " fill="#141414" transform="translate(188,582)"/>
<path d="M0 0 C2 1 2 1 2 1 Z " fill="#151515" transform="translate(186,581)"/>
<path d="M0 0 C2 1 2 1 2 1 Z " fill="#FD8029" transform="translate(525,579)"/>
<path d="M0 0 C2 1 2 1 2 1 Z " fill="#111111" transform="translate(183,579)"/>
<path d="M0 0 C2 1 2 1 2 1 Z " fill="#131313" transform="translate(181,578)"/>
<path d="M0 0 C2 1 2 1 2 1 Z " fill="#E77126" transform="translate(530,576)"/>
<path d="M0 0 C2 1 2 1 2 1 Z " fill="#121212" transform="translate(178,576)"/>
<path d="M0 0 C2 1 2 1 2 1 Z " fill="#151515" transform="translate(176,575)"/>
<path d="M0 0 C2 1 2 1 2 1 Z " fill="#E47929" transform="translate(537,572)"/>
<path d="M0 0 C2 1 2 1 2 1 Z " fill="#DE7329" transform="translate(539,571)"/>
<path d="M0 0 C2 1 2 1 2 1 Z " fill="#DB8936" transform="translate(588,543)"/>
<path d="M0 0 C2 1 2 1 2 1 Z " fill="#DB8036" transform="translate(602,535)"/>
<path d="M0 0 C2 1 2 1 2 1 Z " fill="#1C1C1C" transform="translate(106,535)"/>
<path d="M0 0 C2 1 2 1 2 1 Z " fill="#DE8E3A" transform="translate(607,532)"/>
<path d="M0 0 C2 1 2 1 2 1 Z " fill="#1D1D1D" transform="translate(99,531)"/>
<path d="M0 0 C2 1 2 1 2 1 Z " fill="#EE9B40" transform="translate(619,525)"/>
<path d="M0 0 C2 1 2 1 2 1 Z " fill="#1E1E1E" transform="translate(89,525)"/>
<path d="M0 0 C2 1 2 1 2 1 Z " fill="#E9AA46" transform="translate(624,522)"/>
<path d="M0 0 C2 1 2 1 2 1 Z " fill="#202020" transform="translate(82,521)"/>
<path d="M0 0 C2 1 2 1 2 1 Z " fill="#E5A343" transform="translate(629,519)"/>
<path d="M0 0 C2 1 2 1 2 1 Z " fill="#EB9643" transform="translate(631,518)"/>
<path d="M0 0 C2 1 2 1 2 1 Z " fill="#222222" transform="translate(77,518)"/>
<path d="M0 0 C2 1 2 1 2 1 Z " fill="#ED9F43" transform="translate(634,516)"/>
<path d="M0 0 C2 1 2 1 2 1 Z " fill="#6A6A6A" transform="translate(72,185)"/>
<path d="M0 0 C2 1 2 1 2 1 Z " fill="#D8984C" transform="translate(633,183)"/>
<path d="M0 0 C2 1 2 1 2 1 Z " fill="#EB9C54" transform="translate(631,182)"/>
<path d="M0 0 C2 1 2 1 2 1 Z " fill="#6A6A6A" transform="translate(77,182)"/>
<path d="M0 0 C2 1 2 1 2 1 Z " fill="#D48D4E" transform="translate(626,179)"/>
<path d="M0 0 C2 1 2 1 2 1 Z " fill="#686868" transform="translate(82,179)"/>
<path d="M0 0 C2 1 2 1 2 1 Z " fill="#CF8B51" transform="translate(621,176)"/>
<path d="M0 0 C2 1 2 1 2 1 Z " fill="#666666" transform="translate(87,176)"/>
<path d="M0 0 C2 1 2 1 2 1 Z " fill="#E89D45" transform="translate(619,175)"/>
<path d="M0 0 C2 1 2 1 2 1 Z " fill="#686868" transform="translate(89,175)"/>
<path d="M0 0 C2 1 2 1 2 1 Z " fill="#D28F4B" transform="translate(616,173)"/>
<path d="M0 0 C2 1 2 1 2 1 Z " fill="#DA9745" transform="translate(614,172)"/>
<path d="M0 0 C2 1 2 1 2 1 Z " fill="#676767" transform="translate(94,172)"/>
<path d="M0 0 C2 1 2 1 2 1 Z " fill="#D2954A" transform="translate(609,169)"/>
<path d="M0 0 C2 1 2 1 2 1 Z " fill="#6B6B6B" transform="translate(99,169)"/>
<path d="M0 0 C2 1 2 1 2 1 Z " fill="#E89C4D" transform="translate(607,168)"/>
<path d="M0 0 C2 1 2 1 2 1 Z " fill="#6D6D6D" transform="translate(101,168)"/>
<path d="M0 0 C2 1 2 1 2 1 Z " fill="#DA944A" transform="translate(604,166)"/>
<path d="M0 0 C2 1 2 1 2 1 Z " fill="#6C6C6C" transform="translate(104,166)"/>
<path d="M0 0 C2 1 2 1 2 1 Z " fill="#D59547" transform="translate(602,165)"/>
<path d="M0 0 C2 1 2 1 2 1 Z " fill="#6B6B6B" transform="translate(106,165)"/>
<path d="M0 0 C2 1 2 1 2 1 Z " fill="#C08F51" transform="translate(597,162)"/>
<path d="M0 0 C2 1 2 1 2 1 Z " fill="#FC9B4B" transform="translate(595,161)"/>
<path d="M0 0 C2 1 2 1 2 1 Z " fill="#717171" transform="translate(164,132)"/>
<path d="M0 0 C2 1 2 1 2 1 Z " fill="#DB8F4F" transform="translate(532,125)"/>
<path d="M0 0 C2 1 2 1 2 1 Z " fill="#757575" transform="translate(176,125)"/>
<path d="M0 0 C2 1 2 1 2 1 Z " fill="#737373" transform="translate(178,124)"/>
<path d="M0 0 C2 1 2 1 2 1 Z " fill="#DF934A" transform="translate(527,122)"/>
<path d="M0 0 C2 1 2 1 2 1 Z " fill="#707070" transform="translate(183,121)"/>
<path d="M0 0 C2 1 2 1 2 1 Z " fill="#D48E4F" transform="translate(520,118)"/>
<path d="M0 0 C2 1 2 1 2 1 Z " fill="#747474" transform="translate(188,118)"/>
<path d="M0 0 C2 1 2 1 2 1 Z " fill="#FE9B44" transform="translate(518,117)"/>
<path d="M0 0 C2 1 2 1 2 1 Z " fill="#747474" transform="translate(190,117)"/>
<path d="M0 0 C2 1 2 1 2 1 Z " fill="#787878" transform="translate(193,115)"/>
<path d="M0 0 C2 1 2 1 2 1 Z " fill="#FE9B42" transform="translate(513,114)"/>
<path d="M0 0 C2 1 2 1 2 1 Z " fill="#737373" transform="translate(195,114)"/>
<path d="M0 0 C2 1 2 1 2 1 Z " fill="#777777" transform="translate(198,112)"/>
<path d="M0 0 C2 1 2 1 2 1 Z " fill="#737373" transform="translate(200,111)"/>
<path d="M0 0 C2 1 2 1 2 1 Z " fill="#FE9941" transform="translate(501,107)"/>
<path d="M0 0 C2 1 2 1 2 1 Z " fill="#FF9F44" transform="translate(498,105)"/>
<path d="M0 0 C2 1 2 1 2 1 Z " fill="#787878" transform="translate(210,105)"/>
<path d="M0 0 C2 1 2 1 2 1 Z " fill="#FFA345" transform="translate(493,102)"/>
<path d="M0 0 C2 1 2 1 2 1 Z " fill="#7A7A7A" transform="translate(215,102)"/>
<path d="M0 0 C2 1 2 1 2 1 Z " fill="#FFA84A" transform="translate(491,101)"/>
<path d="M0 0 C2 1 2 1 2 1 Z " fill="#767676" transform="translate(217,101)"/>
<path d="M0 0 C2 1 2 1 2 1 Z " fill="#FFA14E" transform="translate(488,99)"/>
<path d="M0 0 C2 1 2 1 2 1 Z " fill="#F69849" transform="translate(486,98)"/>
<path d="M0 0 C2 1 2 1 2 1 Z " fill="#767676" transform="translate(222,98)"/>
<path d="M0 0 C2 1 2 1 2 1 Z " fill="#F49949" transform="translate(481,95)"/>
<path d="M0 0 C2 1 2 1 2 1 Z " fill="#757575" transform="translate(227,95)"/>
<path d="M0 0 C2 1 2 1 2 1 Z " fill="#FD9E44" transform="translate(479,94)"/>
<path d="M0 0 C2 1 2 1 2 1 Z " fill="#727272" transform="translate(229,94)"/>
<path d="M0 0 C2 1 2 1 2 1 Z " fill="#F89E47" transform="translate(474,91)"/>
<path d="M0 0 C2 1 2 1 2 1 Z " fill="#FFA34C" transform="translate(416,58)"/>
<path d="M0 0 C2 1 2 1 2 1 Z " fill="#7A7A7A" transform="translate(292,58)"/>
<path d="M0 0 C2 1 2 1 2 1 Z " fill="#FC9D44" transform="translate(411,55)"/>
<path d="M0 0 C2 1 2 1 2 1 Z " fill="#FC9D49" transform="translate(409,54)"/>
<path d="M0 0 C2 1 2 1 2 1 Z " fill="#737373" transform="translate(299,54)"/>
<path d="M0 0 C2 1 2 1 2 1 Z " fill="#737373" transform="translate(304,51)"/>
<path d="M0 0 C2 1 2 1 2 1 Z " fill="#F39942" transform="translate(397,47)"/>
<path d="M0 0 C2 1 2 1 2 1 Z " fill="#F49947" transform="translate(392,44)"/>
<path d="M0 0 C2 1 2 1 2 1 Z " fill="#737373" transform="translate(316,44)"/>
<path d="M0 0 C2 1 2 1 2 1 Z " fill="#F89E40" transform="translate(390,43)"/>
<path d="M0 0 C2 1 2 1 2 1 Z " fill="#737373" transform="translate(318,43)"/>
<path d="M0 0 C2 1 2 1 2 1 Z " fill="#727272" transform="translate(321,41)"/>
<path d="M0 0 C2 1 2 1 2 1 Z " fill="#EF9B41" transform="translate(385,40)"/>
<path d="M0 0 C2 1 2 1 2 1 Z " fill="#757575" transform="translate(323,40)"/>
<path d="M0 0 C2 1 2 1 2 1 Z " fill="#EC9D41" transform="translate(380,37)"/>
<path d="M0 0 C2 1 2 1 2 1 Z " fill="#757575" transform="translate(328,37)"/>
<path d="M0 0 C2 1 2 1 2 1 Z " fill="#FB9946" transform="translate(378,36)"/>
<path d="M0 0 C2 1 2 1 2 1 Z " fill="#777777" transform="translate(330,36)"/>
<path d="M0 0 C2 1 2 1 2 1 Z " fill="#EE9C43" transform="translate(375,34)"/>
<path d="M0 0 C2 1 2 1 2 1 Z " fill="#797979" transform="translate(333,34)"/>
<path d="M0 0 C2 1 2 1 2 1 Z " fill="#6D6D6D" transform="translate(335,33)"/>
<path d="M0 0 C2 1 2 1 2 1 Z " fill="#767676" transform="translate(338,31)"/>
<path d="M0 0 C2 1 2 1 2 1 Z " fill="#767676" transform="translate(340,30)"/>
<path d="M0 0 C2 1 2 1 2 1 Z " fill="#7B7B7B" transform="translate(345,27)"/>
<path d="M0 0 C2 1 2 1 2 1 Z " fill="#F79645" transform="translate(361,26)"/>
<path d="M0 0 C2 1 2 1 2 1 Z " fill="#7D7D7C" transform="translate(350,24)"/>
<path d="M0 0 C2 1 2 1 2 1 Z " fill="#C79763" transform="translate(354,22)"/>
<path d="" fill="#C04308" transform="translate(0,0)"/>
<path d="" fill="#131313" transform="translate(0,0)"/>
<path d="" fill="#D04704" transform="translate(0,0)"/>
<path d="" fill="#141514" transform="translate(0,0)"/>
<path d="" fill="#EE4D04" transform="translate(0,0)"/>
<path d="" fill="#131313" transform="translate(0,0)"/>
<path d="" fill="#A93907" transform="translate(0,0)"/>
<path d="" fill="#C94605" transform="translate(0,0)"/>
<path d="" fill="#121212" transform="translate(0,0)"/>
<path d="" fill="#FF6300" transform="translate(0,0)"/>
<path d="" fill="#121212" transform="translate(0,0)"/>
<path d="" fill="#9D2F0A" transform="translate(0,0)"/>
<path d="" fill="#121212" transform="translate(0,0)"/>
<path d="" fill="#D64A05" transform="translate(0,0)"/>
<path d="" fill="#FF6503" transform="translate(0,0)"/>
<path d="" fill="#111111" transform="translate(0,0)"/>
<path d="" fill="#A42F0B" transform="translate(0,0)"/>
<path d="" fill="#FF5506" transform="translate(0,0)"/>
<path d="" fill="#111111" transform="translate(0,0)"/>
<path d="" fill="#CF4605" transform="translate(0,0)"/>
<path d="" fill="#AA3909" transform="translate(0,0)"/>
<path d="" fill="#101010" transform="translate(0,0)"/>
<path d="" fill="#FD5B05" transform="translate(0,0)"/>
<path d="" fill="#111111" transform="translate(0,0)"/>
<path d="" fill="#FF6605" transform="translate(0,0)"/>
<path d="" fill="#101010" transform="translate(0,0)"/>
<path d="" fill="#C34A0A" transform="translate(0,0)"/>
<path d="" fill="#111111" transform="translate(0,0)"/>
<path d="" fill="#121212" transform="translate(0,0)"/>
<path d="" fill="#CD4D0A" transform="translate(0,0)"/>
<path d="" fill="#121212" transform="translate(0,0)"/>
<path d="" fill="#131313" transform="translate(0,0)"/>
<path d="" fill="#D44F0A" transform="translate(0,0)"/>
<path d="" fill="#121212" transform="translate(0,0)"/>
<path d="" fill="#C4460B" transform="translate(0,0)"/>
<path d="" fill="#131313" transform="translate(0,0)"/>
<path d="" fill="#FD5F0B" transform="translate(0,0)"/>
<path d="" fill="#0A0A0A" transform="translate(0,0)"/>
<path d="" fill="#DD550D" transform="translate(0,0)"/>
<path d="" fill="#090909" transform="translate(0,0)"/>
<path d="" fill="#111111" transform="translate(0,0)"/>
<path d="" fill="#E8580E" transform="translate(0,0)"/>
<path d="" fill="#121212" transform="translate(0,0)"/>
<path d="" fill="#C54A0D" transform="translate(0,0)"/>
<path d="" fill="#111111" transform="translate(0,0)"/>
<path d="" fill="#B3440F" transform="translate(0,0)"/>
<path d="" fill="#EE530D" transform="translate(0,0)"/>
<path d="" fill="#121212" transform="translate(0,0)"/>
<path d="" fill="#CE4A0F" transform="translate(0,0)"/>
<path d="" fill="#131313" transform="translate(0,0)"/>
<path d="" fill="#D1550F" transform="translate(0,0)"/>
<path d="" fill="#C64F0F" transform="translate(0,0)"/>
<path d="" fill="#131313" transform="translate(0,0)"/>
<path d="" fill="#C65011" transform="translate(0,0)"/>
<path d="" fill="#111111" transform="translate(0,0)"/>
<path d="" fill="#AF4A0E" transform="translate(0,0)"/>
<path d="" fill="#131313" transform="translate(0,0)"/>
<path d="" fill="#141414" transform="translate(0,0)"/>
<path d="" fill="#CE5313" transform="translate(0,0)"/>
<path d="" fill="#C45818" transform="translate(0,0)"/>
<path d="" fill="#131313" transform="translate(0,0)"/>
<path d="" fill="#D75A18" transform="translate(0,0)"/>
<path d="" fill="#121212" transform="translate(0,0)"/>
<path d="" fill="#A24B17" transform="translate(0,0)"/>
<path d="" fill="#F96C19" transform="translate(0,0)"/>
<path d="" fill="#131313" transform="translate(0,0)"/>
<path d="" fill="#FF7C1E" transform="translate(0,0)"/>
<path d="" fill="#131313" transform="translate(0,0)"/>
<path d="" fill="#B64D19" transform="translate(0,0)"/>
<path d="" fill="#131313" transform="translate(0,0)"/>
<path d="" fill="#B8541A" transform="translate(0,0)"/>
<path d="" fill="#131313" transform="translate(0,0)"/>
<path d="" fill="#FF7F1C" transform="translate(0,0)"/>
<path d="" fill="#131313" transform="translate(0,0)"/>
<path d="" fill="#D75E19" transform="translate(0,0)"/>
<path d="" fill="#151515" transform="translate(0,0)"/>
<path d="" fill="#A84C19" transform="translate(0,0)"/>
<path d="" fill="#131313" transform="translate(0,0)"/>
<path d="" fill="#F16C1D" transform="translate(0,0)"/>
<path d="" fill="#131313" transform="translate(0,0)"/>
<path d="" fill="#C0561A" transform="translate(0,0)"/>
<path d="" fill="#131313" transform="translate(0,0)"/>
<path d="" fill="#FB721C" transform="translate(0,0)"/>
<path d="" fill="#141414" transform="translate(0,0)"/>
<path d="" fill="#DC651D" transform="translate(0,0)"/>
<path d="" fill="#131313" transform="translate(0,0)"/>
<path d="" fill="#BD581B" transform="translate(0,0)"/>
<path d="" fill="#131313" transform="translate(0,0)"/>
<path d="" fill="#E56821" transform="translate(0,0)"/>
<path d="" fill="#141414" transform="translate(0,0)"/>
<path d="" fill="#131313" transform="translate(0,0)"/>
<path d="" fill="#DF691E" transform="translate(0,0)"/>
<path d="" fill="#131313" transform="translate(0,0)"/>
<path d="" fill="#B85A21" transform="translate(0,0)"/>
<path d="" fill="#131313" transform="translate(0,0)"/>
<path d="" fill="#D1641F" transform="translate(0,0)"/>
<path d="" fill="#131313" transform="translate(0,0)"/>
<path d="" fill="#141414" transform="translate(0,0)"/>
<path d="" fill="#FA7922" transform="translate(0,0)"/>
<path d="" fill="#121212" transform="translate(0,0)"/>
<path d="" fill="#FF7E25" transform="translate(0,0)"/>
<path d="" fill="#141414" transform="translate(0,0)"/>
<path d="" fill="#FA7624" transform="translate(0,0)"/>
<path d="" fill="#FA7922" transform="translate(0,0)"/>
<path d="" fill="#131313" transform="translate(0,0)"/>
<path d="" fill="#131313" transform="translate(0,0)"/>
<path d="" fill="#101010" transform="translate(0,0)"/>
<path d="" fill="#FC7925" transform="translate(0,0)"/>
<path d="" fill="#131313" transform="translate(0,0)"/>
<path d="" fill="#121212" transform="translate(0,0)"/>
<path d="" fill="#141414" transform="translate(0,0)"/>
<path d="" fill="#FB7D27" transform="translate(0,0)"/>
<path d="" fill="#FF8329" transform="translate(0,0)"/>
<path d="" fill="#FB7E29" transform="translate(0,0)"/>
<path d="" fill="#101010" transform="translate(0,0)"/>
<path d="" fill="#E97025" transform="translate(0,0)"/>
<path d="" fill="#D36722" transform="translate(0,0)"/>
<path d="" fill="#131313" transform="translate(0,0)"/>
<path d="" fill="#FF972E" transform="translate(0,0)"/>
<path d="" fill="#DC7027" transform="translate(0,0)"/>
<path d="" fill="#151515" transform="translate(0,0)"/>
<path d="" fill="#D7712A" transform="translate(0,0)"/>
<path d="" fill="#151515" transform="translate(0,0)"/>
<path d="" fill="#161616" transform="translate(0,0)"/>
<path d="" fill="#161616" transform="translate(0,0)"/>
<path d="" fill="#DE742A" transform="translate(0,0)"/>
<path d="" fill="#151515" transform="translate(0,0)"/>
<path d="" fill="#DF772B" transform="translate(0,0)"/>
<path d="" fill="#161616" transform="translate(0,0)"/>
<path d="" fill="#DA7229" transform="translate(0,0)"/>
<path d="" fill="#161616" transform="translate(0,0)"/>
<path d="" fill="#181818" transform="translate(0,0)"/>
<path d="" fill="#D17731" transform="translate(0,0)"/>
<path d="" fill="#191919" transform="translate(0,0)"/>
<path d="" fill="#CA6C2A" transform="translate(0,0)"/>
<path d="" fill="#1A1A1A" transform="translate(0,0)"/>
<path d="" fill="#FFA33C" transform="translate(0,0)"/>
<path d="" fill="#D17732" transform="translate(0,0)"/>
<path d="" fill="#1A1A1A" transform="translate(0,0)"/>
<path d="" fill="#1B1B1B" transform="translate(0,0)"/>
<path d="" fill="#A45B29" transform="translate(0,0)"/>
<path d="" fill="#1A1A1A" transform="translate(0,0)"/>
<path d="" fill="#CB7431" transform="translate(0,0)"/>
<path d="" fill="#1C1C1C" transform="translate(0,0)"/>
<path d="" fill="#DA722A" transform="translate(0,0)"/>
<path d="" fill="#1F1F1F" transform="translate(0,0)"/>
<path d="" fill="#A25824" transform="translate(0,0)"/>
<path d="" fill="#1E1E1E" transform="translate(0,0)"/>
<path d="" fill="#D2752D" transform="translate(0,0)"/>
<path d="" fill="#1C1C1C" transform="translate(0,0)"/>
<path d="" fill="#F97D30" transform="translate(0,0)"/>
<path d="" fill="#202020" transform="translate(0,0)"/>
<path d="" fill="#AF602D" transform="translate(0,0)"/>
<path d="" fill="#1E1E1E" transform="translate(0,0)"/>
<path d="" fill="#F98C38" transform="translate(0,0)"/>
<path d="" fill="#1D1D1D" transform="translate(0,0)"/>
<path d="" fill="#C36E31" transform="translate(0,0)"/>
<path d="" fill="#1E1E1E" transform="translate(0,0)"/>
<path d="" fill="#1F1F1F" transform="translate(0,0)"/>
<path d="" fill="#FF983F" transform="translate(0,0)"/>
<path d="" fill="#ED8B3E" transform="translate(0,0)"/>
<path d="" fill="#1F1F1F" transform="translate(0,0)"/>
<path d="" fill="#BE7034" transform="translate(0,0)"/>
<path d="" fill="#1D1D1D" transform="translate(0,0)"/>
<path d="" fill="#FF9C40" transform="translate(0,0)"/>
<path d="" fill="#212121" transform="translate(0,0)"/>
<path d="" fill="#F3913E" transform="translate(0,0)"/>
<path d="" fill="#1E1E1E" transform="translate(0,0)"/>
<path d="" fill="#CF7A38" transform="translate(0,0)"/>
<path d="" fill="#1F1F1F" transform="translate(0,0)"/>
<path d="" fill="#EC8939" transform="translate(0,0)"/>
<path d="" fill="#1F1F1F" transform="translate(0,0)"/>
<path d="" fill="#DD823A" transform="translate(0,0)"/>
<path d="" fill="#212121" transform="translate(0,0)"/>
<path d="" fill="#232323" transform="translate(0,0)"/>
<path d="" fill="#FC9741" transform="translate(0,0)"/>
<path d="" fill="#F79640" transform="translate(0,0)"/>
<path d="" fill="#1F1F1F" transform="translate(0,0)"/>
<path d="" fill="#212121" transform="translate(0,0)"/>
<path d="" fill="#E1883D" transform="translate(0,0)"/>
<path d="" fill="#232323" transform="translate(0,0)"/>
<path d="" fill="#212121" transform="translate(0,0)"/>
<path d="" fill="#272727" transform="translate(0,0)"/>
<path d="" fill="#DA884E" transform="translate(0,0)"/>
<path d="" fill="#D68E4C" transform="translate(0,0)"/>
<path d="" fill="#696969" transform="translate(0,0)"/>
<path d="" fill="#696969" transform="translate(0,0)"/>
<path d="" fill="#F2A44F" transform="translate(0,0)"/>
<path d="" fill="#656565" transform="translate(0,0)"/>
<path d="" fill="#FFA23F" transform="translate(0,0)"/>
<path d="" fill="#646464" transform="translate(0,0)"/>
<path d="" fill="#D28C54" transform="translate(0,0)"/>
<path d="" fill="#6C6C6C" transform="translate(0,0)"/>
<path d="" fill="#FD9848" transform="translate(0,0)"/>
<path d="" fill="#6B6B6B" transform="translate(0,0)"/>
<path d="" fill="#F8983A" transform="translate(0,0)"/>
<path d="" fill="#6C6C6C" transform="translate(0,0)"/>
<path d="" fill="#6B6B6B" transform="translate(0,0)"/>
<path d="" fill="#E78D4E" transform="translate(0,0)"/>
<path d="" fill="#6F6F6F" transform="translate(0,0)"/>
<path d="" fill="#F59642" transform="translate(0,0)"/>
<path d="" fill="#686868" transform="translate(0,0)"/>
<path d="" fill="#DB8A4F" transform="translate(0,0)"/>
<path d="" fill="#6B6B6B" transform="translate(0,0)"/>
<path d="" fill="#D1844D" transform="translate(0,0)"/>
<path d="" fill="#6C6C6C" transform="translate(0,0)"/>
<path d="" fill="#E38E4E" transform="translate(0,0)"/>
<path d="" fill="#6A6A6A" transform="translate(0,0)"/>
<path d="" fill="#6C6C6C" transform="translate(0,0)"/>
<path d="" fill="#6C6C6C" transform="translate(0,0)"/>
<path d="" fill="#D28E49" transform="translate(0,0)"/>
<path d="" fill="#6B6B6B" transform="translate(0,0)"/>
<path d="" fill="#FFC630" transform="translate(0,0)"/>
<path d="" fill="#707070" transform="translate(0,0)"/>
<path d="" fill="#E79148" transform="translate(0,0)"/>
<path d="" fill="#6A6A6A" transform="translate(0,0)"/>
<path d="" fill="#CA8C4C" transform="translate(0,0)"/>
<path d="" fill="#6C6C6C" transform="translate(0,0)"/>
<path d="" fill="#747474" transform="translate(0,0)"/>
<path d="" fill="#E2904C" transform="translate(0,0)"/>
<path d="" fill="#686868" transform="translate(0,0)"/>
<path d="" fill="#C48255" transform="translate(0,0)"/>
<path d="" fill="#717171" transform="translate(0,0)"/>
<path d="" fill="#EE9A49" transform="translate(0,0)"/>
<path d="" fill="#F49A43" transform="translate(0,0)"/>
<path d="" fill="#CB8C55" transform="translate(0,0)"/>
<path d="" fill="#6F6F6F" transform="translate(0,0)"/>
<path d="" fill="#E89A5B" transform="translate(0,0)"/>
<path d="" fill="#DF8F52" transform="translate(0,0)"/>
<path d="" fill="#6D6D6D" transform="translate(0,0)"/>
<path d="" fill="#FF9841" transform="translate(0,0)"/>
<path d="" fill="#7C7C7C" transform="translate(0,0)"/>
<path d="" fill="#FF9F46" transform="translate(0,0)"/>
<path d="" fill="#727272" transform="translate(0,0)"/>
<path d="" fill="#CB8A52" transform="translate(0,0)"/>
<path d="" fill="#737373" transform="translate(0,0)"/>
<path d="" fill="#EC924E" transform="translate(0,0)"/>
<path d="" fill="#787878" transform="translate(0,0)"/>
<path d="" fill="#F59549" transform="translate(0,0)"/>
<path d="" fill="#717171" transform="translate(0,0)"/>
<path d="" fill="#D78D50" transform="translate(0,0)"/>
<path d="" fill="#FF9C41" transform="translate(0,0)"/>
<path d="" fill="#747474" transform="translate(0,0)"/>
<path d="" fill="#737373" transform="translate(0,0)"/>
<path d="" fill="#C0835C" transform="translate(0,0)"/>
<path d="" fill="#FF9645" transform="translate(0,0)"/>
<path d="" fill="#737373" transform="translate(0,0)"/>
<path d="" fill="#E9944B" transform="translate(0,0)"/>
<path d="" fill="#737373" transform="translate(0,0)"/>
<path d="" fill="#FE9D44" transform="translate(0,0)"/>
<path d="" fill="#727272" transform="translate(0,0)"/>
<path d="" fill="#FFA344" transform="translate(0,0)"/>
<path d="" fill="#FD9B43" transform="translate(0,0)"/>
<path d="" fill="#737373" transform="translate(0,0)"/>
<path d="" fill="#FFA344" transform="translate(0,0)"/>
<path d="" fill="#FF9A41" transform="translate(0,0)"/>
<path d="" fill="#FF9A42" transform="translate(0,0)"/>
<path d="" fill="#747474" transform="translate(0,0)"/>
<path d="" fill="#FF9B43" transform="translate(0,0)"/>
<path d="" fill="#747474" transform="translate(0,0)"/>
<path d="" fill="#FF9B43" transform="translate(0,0)"/>
<path d="" fill="#767676" transform="translate(0,0)"/>
<path d="" fill="#7C7C7C" transform="translate(0,0)"/>
<path d="" fill="#FE9942" transform="translate(0,0)"/>
<path d="" fill="#7C7C7C" transform="translate(0,0)"/>
<path d="" fill="#FF9740" transform="translate(0,0)"/>
<path d="" fill="#787878" transform="translate(0,0)"/>
<path d="" fill="#FF9D44" transform="translate(0,0)"/>
<path d="" fill="#777777" transform="translate(0,0)"/>
<path d="" fill="#FFB346" transform="translate(0,0)"/>
<path d="" fill="#777777" transform="translate(0,0)"/>
<path d="" fill="#777777" transform="translate(0,0)"/>
<path d="" fill="#F79B4C" transform="translate(0,0)"/>
<path d="" fill="#797979" transform="translate(0,0)"/>
<path d="" fill="#FF9C4D" transform="translate(0,0)"/>
<path d="" fill="#787878" transform="translate(0,0)"/>
<path d="" fill="#FC9549" transform="translate(0,0)"/>
<path d="" fill="#757575" transform="translate(0,0)"/>
<path d="" fill="#FF9E4C" transform="translate(0,0)"/>
<path d="" fill="#7B7B7B" transform="translate(0,0)"/>
<path d="" fill="#757575" transform="translate(0,0)"/>
<path d="" fill="#FFA34C" transform="translate(0,0)"/>
<path d="" fill="#787878" transform="translate(0,0)"/>
<path d="" fill="#F0944B" transform="translate(0,0)"/>
<path d="" fill="#747474" transform="translate(0,0)"/>
<path d="" fill="#FFA445" transform="translate(0,0)"/>
<path d="" fill="#787878" transform="translate(0,0)"/>
<path d="" fill="#EC954A" transform="translate(0,0)"/>
<path d="" fill="#737373" transform="translate(0,0)"/>
<path d="" fill="#FFA048" transform="translate(0,0)"/>
<path d="" fill="#7C7C7C" transform="translate(0,0)"/>
<path d="" fill="#FF9D43" transform="translate(0,0)"/>
<path d="" fill="#777777" transform="translate(0,0)"/>
<path d="" fill="#F39A45" transform="translate(0,0)"/>
<path d="" fill="#737373" transform="translate(0,0)"/>
<path d="" fill="#FEA13D" transform="translate(0,0)"/>
<path d="" fill="#787878" transform="translate(0,0)"/>
<path d="" fill="#FFA442" transform="translate(0,0)"/>
<path d="" fill="#737373" transform="translate(0,0)"/>
<path d="" fill="#E5904E" transform="translate(0,0)"/>
<path d="" fill="#F99B49" transform="translate(0,0)"/>
<path d="" fill="#FF9D4A" transform="translate(0,0)"/>
<path d="" fill="#7A7A7A" transform="translate(0,0)"/>
<path d="" fill="#FFA34C" transform="translate(0,0)"/>
<path d="" fill="#747474" transform="translate(0,0)"/>
<path d="" fill="#FFA24D" transform="translate(0,0)"/>
<path d="" fill="#797979" transform="translate(0,0)"/>
<path d="" fill="#F99D40" transform="translate(0,0)"/>
<path d="" fill="#737373" transform="translate(0,0)"/>
<path d="" fill="#747474" transform="translate(0,0)"/>
<path d="" fill="#ED924D" transform="translate(0,0)"/>
<path d="" fill="#737373" transform="translate(0,0)"/>
<path d="" fill="#F69548" transform="translate(0,0)"/>
<path d="" fill="#747474" transform="translate(0,0)"/>
<path d="" fill="#FFA847" transform="translate(0,0)"/>
<path d="" fill="#F59952" transform="translate(0,0)"/>
<path d="" fill="#727272" transform="translate(0,0)"/>
<path d="" fill="#FF9E4F" transform="translate(0,0)"/>
<path d="" fill="#777777" transform="translate(0,0)"/>
<path d="" fill="#F79B4C" transform="translate(0,0)"/>
<path d="" fill="#737373" transform="translate(0,0)"/>
<path d="" fill="#7A7A7A" transform="translate(0,0)"/>
<path d="" fill="#F39747" transform="translate(0,0)"/>
<path d="" fill="#707070" transform="translate(0,0)"/>
<path d="" fill="#F29646" transform="translate(0,0)"/>
<path d="" fill="#727272" transform="translate(0,0)"/>
<path d="" fill="#F79648" transform="translate(0,0)"/>
<path d="" fill="#747474" transform="translate(0,0)"/>
<path d="" fill="#F3934A" transform="translate(0,0)"/>
<path d="" fill="#F4924A" transform="translate(0,0)"/>
<path d="" fill="#737373" transform="translate(0,0)"/>
<path d="" fill="#EE9548" transform="translate(0,0)"/>
<path d="" fill="#737373" transform="translate(0,0)"/>
<path d="" fill="#EE9649" transform="translate(0,0)"/>
<path d="" fill="#737373" transform="translate(0,0)"/>
<path d="" fill="#FE9943" transform="translate(0,0)"/>
<path d="" fill="#F09446" transform="translate(0,0)"/>
<path d="" fill="#6C6C6C" transform="translate(0,0)"/>
<path d="" fill="#FFA53B" transform="translate(0,0)"/>
<path d="" fill="#FF9F39" transform="translate(0,0)"/>
<path d="" fill="#E7904B" transform="translate(0,0)"/>
<path d="" fill="#6C6C6C" transform="translate(0,0)"/>
<path d="" fill="#F19047" transform="translate(0,0)"/>
<path d="" fill="#6F6F6F" transform="translate(0,0)"/>
<path d="" fill="#FF9F3E" transform="translate(0,0)"/>
<path d="" fill="#7F7F7F" transform="translate(0,0)"/>
<path d="" fill="#EF9447" transform="translate(0,0)"/>
<path d="" fill="#7D7D7D" transform="translate(0,0)"/>
<path d="" fill="#FFAD37" transform="translate(0,0)"/>
<path d="" fill="#F79442" transform="translate(0,0)"/>
<path d="" fill="#7A7878" transform="translate(0,0)"/>
</svg>
