<?xml version="1.0" encoding="UTF-8"?>
<svg version="1.1" xmlns="http://www.w3.org/2000/svg" width="512" height="512">
<path d="M0 0 C1.01790619 0.00215515 2.03581238 0.0043103 3.08456421 0.00653076 C17.69363523 0.05620146 32.02575853 0.30709809 46.375 3.3125 C47.34985352 3.51117676 48.32470703 3.70985352 49.32910156 3.91455078 C97.7109774 14.03517194 141.69928269 35.9516877 177.375 70.3125 C178.3640332 71.26068604 178.3640332 71.26068604 179.37304688 72.22802734 C188.86130305 81.37247479 197.6012044 90.66984009 205.375 101.3125 C206.23306152 102.46355017 207.09113451 103.61459177 207.94921875 104.765625 C213.98736829 112.95680614 219.34595521 121.47054105 224.375 130.3125 C224.73948242 130.94430176 225.10396484 131.57610352 225.47949219 132.22705078 C247.08534998 169.97532572 256.85198095 212.74189997 256.6875 255.9375 C256.68534485 256.95540619 256.6831897 257.97331238 256.68096924 259.02206421 C256.63129854 273.63113523 256.38040191 287.96325853 253.375 302.3125 C253.07698486 303.77478027 253.07698486 303.77478027 252.77294922 305.26660156 C242.65232806 353.6484774 220.7358123 397.63678269 186.375 433.3125 C185.74287598 433.97185547 185.11075195 434.63121094 184.45947266 435.31054688 C175.31502521 444.79880305 166.01765991 453.5387044 155.375 461.3125 C154.22394983 462.17056152 153.07290823 463.02863451 151.921875 463.88671875 C143.73224019 469.92427396 135.22961724 475.30707302 126.375 480.3125 C125.66778809 480.7146875 124.96057617 481.116875 124.23193359 481.53125 C101.09654164 494.5566741 75.92537591 503.30551461 49.9375 508.625 C49.21860596 508.77235596 48.49971191 508.91971191 47.7590332 509.0715332 C33.08339502 511.86090125 18.55831162 512.66142619 3.64770508 512.62817383 C0.70811513 512.6250221 -2.2304558 512.64854926 -5.16992188 512.67382812 C-18.54306192 512.71848737 -31.43916711 511.51301542 -44.625 509.3125 C-46.33055054 509.03031616 -46.33055054 509.03031616 -48.07055664 508.74243164 C-91.33802759 500.97044532 -132.38793216 480.98345309 -165.625 452.3125 C-166.37007813 451.67828125 -167.11515625 451.0440625 -167.8828125 450.390625 C-181.38779833 438.57948485 -194.05918743 425.82889772 -204.625 411.3125 C-205.48149066 410.16255169 -206.33826433 409.01281411 -207.1953125 407.86328125 C-213.23534209 399.67315742 -218.61867614 391.16870382 -223.625 382.3125 C-224.0271875 381.60528809 -224.429375 380.89807617 -224.84375 380.16943359 C-237.8691741 357.03404164 -246.61801461 331.86287591 -251.9375 305.875 C-252.08485596 305.15610596 -252.23221191 304.43721191 -252.3840332 303.6965332 C-255.35789088 288.05024391 -255.99800362 272.57681954 -255.9375 256.6875 C-255.93534485 255.66959381 -255.9331897 254.65168762 -255.93096924 253.60293579 C-255.88129854 238.99386477 -255.63040191 224.66174147 -252.625 210.3125 C-252.42632324 209.33764648 -252.22764648 208.36279297 -252.02294922 207.35839844 C-241.90232806 158.9765226 -219.9858123 114.98821731 -185.625 79.3125 C-184.99287598 78.65314453 -184.36075195 77.99378906 -183.70947266 77.31445312 C-174.56502521 67.82619695 -165.26765991 59.0862956 -154.625 51.3125 C-153.47394983 50.45443848 -152.32290823 49.59636549 -151.171875 48.73828125 C-142.98224019 42.70072604 -134.47961724 37.31792698 -125.625 32.3125 C-124.91778809 31.9103125 -124.21057617 31.508125 -123.48193359 31.09375 C-100.34654164 18.0683259 -75.17537591 9.31948539 -49.1875 4 C-48.46860596 3.85264404 -47.74971191 3.70528809 -47.0090332 3.5534668 C-31.36274391 0.57960912 -15.88931954 -0.06050362 0 0 Z " fill="#0080FF" transform="translate(255.625,-0.3125)"/>
<path d="M0 0 C10.52483291 8.61840551 21.03142421 18.51464452 27.99682617 30.27441406 C28.64780273 31.33917969 29.2987793 32.40394531 29.96948242 33.50097656 C38.0729129 47.01112524 43.34823495 60.99479927 46.99682617 76.27441406 C47.24561523 77.31597656 47.4944043 78.35753906 47.75073242 79.43066406 C54.14114059 112.67866181 45.21437937 147.18050936 26.81860352 175.06005859 C12.71548251 195.68057618 -6.5117939 210.00448896 -29.00317383 220.27441406 C-29.88231445 220.68304688 -30.76145508 221.09167969 -31.66723633 221.51269531 C-46.4771132 227.92700653 -63.02125206 230.27441406 -79.00317383 230.27441406 C-79.00317383 214.10441406 -79.00317383 197.93441406 -79.00317383 181.27441406 C-95.17317383 181.27441406 -111.34317383 181.27441406 -128.00317383 181.27441406 C-128.00317383 193.81441406 -128.00317383 206.35441406 -128.00317383 219.27441406 C-140.87317383 219.27441406 -153.74317383 219.27441406 -167.00317383 219.27441406 C-167.00317383 206.73441406 -167.00317383 194.19441406 -167.00317383 181.27441406 C-177.23317383 181.27441406 -187.46317383 181.27441406 -198.00317383 181.27441406 C-198.00317383 170.71441406 -198.00317383 160.15441406 -198.00317383 149.27441406 C-187.44317383 149.27441406 -176.88317383 149.27441406 -166.00317383 149.27441406 C-166.00317383 159.50441406 -166.00317383 169.73441406 -166.00317383 180.27441406 C-153.79317383 180.27441406 -141.58317383 180.27441406 -129.00317383 180.27441406 C-129.00317383 164.10441406 -129.00317383 147.93441406 -129.00317383 131.27441406 C-112.50317383 131.27441406 -96.00317383 131.27441406 -79.00317383 131.27441406 C-79.00317383 147.44441406 -79.00317383 163.61441406 -79.00317383 180.27441406 C-65.92402427 178.82117522 -56.57904444 177.46791277 -45.00317383 172.27441406 C-44.00672852 171.83226562 -43.0102832 171.39011719 -41.98364258 170.93457031 C-34.11598313 167.05139076 -28.15500492 161.40856748 -22.00317383 155.27441406 C-21.33286133 154.62730469 -20.66254883 153.98019531 -19.97192383 153.31347656 C-5.80382454 138.56577321 -1.57567382 118.36414784 -1.63720703 98.62695312 C-2.02526764 80.41438751 -8.70048394 62.86205156 -21.00317383 49.27441406 C-21.87329102 48.26701172 -21.87329102 48.26701172 -22.76098633 47.23925781 C-31.50619397 37.74393822 -42.92576974 32.31664727 -55.00317383 28.27441406 C-55.69282227 28.03980469 -56.3824707 27.80519531 -57.09301758 27.56347656 C-76.33335621 21.54269033 -98.39503789 25.14713245 -116.06958008 33.77050781 C-133.82324824 43.42276286 -147.3303573 59.97258097 -153.87817383 79.08691406 C-155.53110933 86.70878332 -156.1419135 94.52307112 -157.00317383 102.27441406 C-173.50317383 102.27441406 -190.00317383 102.27441406 -207.00317383 102.27441406 C-207.00317383 93.63978134 -206.58753875 86.58777714 -205.00317383 78.27441406 C-204.88490234 77.6322998 -204.76663086 76.99018555 -204.64477539 76.32861328 C-198.46001198 43.66582332 -178.15350597 14.68126488 -150.96020508 -4.15527344 C-106.16282627 -33.91553461 -42.96636539 -33.63342496 0 0 Z " fill="#FDFEFF" transform="translate(335.003173828125,153.7255859375)"/>
<path d="M0 0 C0.33 0 0.66 0 1 0 C1 16.17 1 32.34 1 49 C19.15 49 37.3 49 56 49 C56 49.33 56 49.66 56 50 C37.85 50 19.7 50 1 50 C1 62.54 1 75.08 1 88 C-11.87 88 -24.74 88 -38 88 C-38 75.46 -38 62.92 -38 50 C-48.23 50 -58.46 50 -69 50 C-69 49.67 -69 49.34 -69 49 C-58.77 49 -48.54 49 -38 49 C-38 38.77 -38 28.54 -38 18 C-37.67 18 -37.34 18 -37 18 C-37 28.23 -37 38.46 -37 49 C-24.79 49 -12.58 49 0 49 C0 32.83 0 16.66 0 0 Z M-37 50 C-37 62.21 -37 74.42 -37 87 C-24.79 87 -12.58 87 0 87 C0 74.79 0 62.58 0 50 C-12.21 50 -24.42 50 -37 50 Z " fill="#7FBFFF" transform="translate(206,285)"/>
</svg>
