<?xml version="1.0" standalone="no"?>
<!DOCTYPE svg PUBLIC "-//W3C//DTD SVG 20010904//EN"
 "http://www.w3.org/TR/2001/REC-SVG-20010904/DTD/svg10.dtd">
<svg version="1.0" xmlns="http://www.w3.org/2000/svg"
 width="1024.000000pt" height="911.000000pt" viewBox="0 0 1024.000000 911.000000"
 preserveAspectRatio="xMidYMid meet">

<g transform="translate(0.000000,911.000000) scale(0.100000,-0.100000)"
fill="#000000" stroke="none">
<path d="M4999 8770 c-192 -25 -388 -101 -539 -210 -75 -53 -229 -194 -223
-203 3 -6 2 -7 -4 -4 -13 8 -69 -51 -134 -143 -59 -84 -88 -139 -152 -291 -44
-101 -50 -125 -63 -239 -3 -30 -11 -58 -16 -61 -7 -5 -9 -47 -6 -120 13 -274
116 -529 295 -732 157 -177 388 -319 618 -378 122 -32 394 -34 495 -5 299 86
440 163 608 333 118 120 245 312 258 392 3 14 11 42 19 62 8 20 11 39 8 43 -4
3 -1 6 6 6 7 0 10 4 7 9 -3 5 6 34 20 65 14 31 23 63 20 71 -3 8 -1 15 4 15 5
0 8 12 8 28 0 15 5 56 11 92 13 80 14 218 1 291 -5 30 -12 72 -15 94 -8 60
-53 191 -93 270 -168 338 -496 563 -892 615 -85 11 -159 11 -241 0z m276 -294
c94 -30 156 -70 229 -146 313 -328 72 -881 -384 -880 -146 0 -259 48 -366 154
-109 109 -158 224 -158 371 0 352 345 607 679 501z m-1238 -1138 c-3 -8 -6 -5
-6 6 -1 11 2 17 5 13 3 -3 4 -12 1 -19z m1400 -99 l-45 -60 49 -71 c27 -40 49
-75 49 -80 0 -4 -18 -8 -39 -8 -38 0 -42 3 -78 60 -49 77 -63 77 -63 -1 l0
-60 -37 3 -38 3 -3 143 -3 142 41 0 40 0 0 -55 c0 -30 4 -55 9 -55 4 0 24 24
44 54 32 48 41 55 74 58 21 2 40 0 41 -5 2 -4 -16 -34 -41 -68z m-467 41 c0
-30 -1 -30 -55 -30 -54 0 -55 0 -55 -30 0 -29 2 -30 45 -30 43 0 45 -1 45 -30
0 -29 -2 -30 -45 -30 l-45 0 0 -55 0 -55 -40 0 -40 0 0 145 0 145 95 0 95 0 0
-30z m240 0 c0 -28 -2 -30 -40 -30 l-40 0 0 -115 0 -115 -35 0 -35 0 0 115 0
115 -40 0 c-38 0 -40 2 -40 30 l0 30 115 0 115 0 0 -30z m-1111 -100 c11 -24
11 -24 -3 -6 -9 11 -16 24 -16 30 0 12 5 7 19 -24z m51 -100 c6 -11 8 -20 6
-20 -3 0 -10 9 -16 20 -6 11 -8 20 -6 20 3 0 10 -9 16 -20z m1950 0 c-6 -11
-13 -20 -16 -20 -2 0 0 9 6 20 6 11 13 20 16 20 2 0 0 -9 -6 -20z m-50 -84 c0
-2 -8 -10 -17 -17 -16 -13 -17 -12 -4 4 13 16 21 21 21 13z m-1829 -23 c13
-16 12 -17 -3 -4 -10 7 -18 15 -18 17 0 8 8 3 21 -13z m1789 -27 c0 -2 -8 -10
-17 -17 -16 -13 -17 -12 -4 4 13 16 21 21 21 13z m-1749 -23 c13 -16 12 -17
-3 -4 -10 7 -18 15 -18 17 0 8 8 3 21 -13z m1699 -36 c0 -2 -19 -21 -42 -42
l-43 -40 40 43 c36 39 45 47 45 39z m-1635 -37 c10 -11 16 -20 13 -20 -3 0
-13 9 -23 20 -10 11 -16 20 -13 20 3 0 13 -9 23 -20z m80 -70 c10 -11 16 -20
13 -20 -3 0 -13 9 -23 20 -10 11 -16 20 -13 20 3 0 13 -9 23 -20z m1455 17 c0
-2 -10 -12 -22 -23 l-23 -19 19 23 c18 21 26 27 26 19z m-60 -51 c0 -2 -8 -10
-17 -17 -16 -13 -17 -12 -4 4 13 16 21 21 21 13z m-1230 -82 c0 -2 -9 0 -20 6
-11 6 -20 13 -20 16 0 2 9 0 20 -6 11 -6 20 -13 20 -16z m287 -110 c-3 -3 -12
-4 -19 -1 -8 3 -5 6 6 6 11 1 17 -2 13 -5z m550 0 c-3 -3 -12 -4 -19 -1 -8 3
-5 6 6 6 11 1 17 -2 13 -5z"/>
<path d="M4991 8434 c-226 -61 -380 -301 -341 -532 40 -237 232 -402 470 -402
139 0 284 65 365 164 49 60 95 165 108 245 28 185 -75 395 -239 483 -104 56
-248 73 -363 42z m200 -64 c124 -24 232 -108 292 -229 29 -60 32 -74 32 -161
0 -86 -3 -101 -31 -161 -150 -317 -578 -319 -725 -4 -90 191 -4 430 187 520
89 42 156 52 245 35z"/>
<path d="M4994 8290 c-66 -26 -133 -85 -166 -146 -95 -176 -28 -383 150 -471
49 -24 69 -28 142 -28 71 0 94 4 141 26 72 34 143 109 171 179 32 82 30 188
-4 261 -33 73 -84 128 -150 164 -45 25 -66 30 -143 32 -72 3 -100 -1 -141 -17z
m144 -12 c-3 -7 -11 -13 -18 -13 -7 0 -15 6 -17 13 -3 7 4 12 17 12 13 0 20
-5 18 -12z m217 -79 c4 -5 0 -18 -9 -28 -15 -17 -15 -22 10 -69 14 -28 29 -71
31 -96 6 -46 -13 -146 -27 -146 -16 0 -27 26 -19 45 15 38 9 129 -11 173 -21
47 -29 51 -55 22 -16 -18 -17 -22 -1 -54 22 -47 20 -95 -7 -147 -59 -111 -214
-119 -286 -14 -27 40 -38 104 -22 134 18 32 31 16 31 -37 1 -82 49 -132 128
-132 89 0 138 54 130 142 -3 27 -8 51 -12 55 -11 11 -56 -40 -56 -64 0 -28
-33 -63 -60 -63 -24 0 -60 34 -60 55 0 22 48 68 64 62 7 -3 52 34 102 84 85
84 115 102 129 78z m-223 -31 c-9 -9 -15 -9 -24 0 -10 10 -10 15 2 22 9 6 19
5 24 0 7 -7 6 -14 -2 -22z m4 -79 c10 -17 -13 -36 -27 -22 -12 12 -4 33 11 33
5 0 12 -5 16 -11z m-242 -109 c1 -90 31 -150 97 -196 35 -24 54 -29 113 -32
51 -3 83 1 111 12 45 19 73 6 39 -18 -54 -40 -175 -46 -246 -12 -48 23 -103
78 -129 128 -25 49 -35 133 -20 171 19 49 34 26 35 -53z m-62 -12 c-9 -9 -15
-9 -24 0 -10 10 -10 15 2 22 20 12 38 -6 22 -22z m400 0 c-9 -9 -15 -9 -24 0
-10 10 -10 15 2 22 9 6 19 5 24 0 7 -7 6 -14 -2 -22z m200 0 c-9 -9 -15 -9
-24 0 -10 10 -10 15 2 22 9 6 19 5 24 0 7 -7 6 -14 -2 -22z m-492 6 c0 -9 -7
-14 -17 -12 -25 5 -28 28 -4 28 12 0 21 -6 21 -16z m100 0 c0 -9 -7 -14 -17
-12 -25 5 -28 28 -4 28 12 0 21 -6 21 -16z m298 4 c-3 -7 -11 -13 -18 -13 -7
0 -15 6 -17 13 -3 7 4 12 17 12 13 0 20 -5 18 -12z m-200 -100 c-3 -7 -11 -13
-18 -13 -7 0 -15 6 -17 13 -3 7 4 12 17 12 13 0 20 -5 18 -12z m212 -27 c17
-33 11 -60 -16 -78 -24 -15 -29 -15 -53 -2 -29 16 -38 48 -21 78 15 28 75 29
90 2z m-214 -62 c10 -17 -13 -36 -27 -22 -12 12 -4 33 11 33 5 0 12 -5 16 -11z
m0 -100 c10 -17 -13 -36 -27 -22 -12 12 -4 33 11 33 5 0 12 -5 16 -11z"/>
<path d="M5107 7994 c-14 -15 -6 -34 14 -34 14 0 19 5 17 17 -3 18 -20 27 -31
17z"/>
<path d="M1520 6817 c-3 -3 -32 -8 -65 -11 -79 -7 -106 -13 -195 -42 -234 -78
-439 -234 -581 -442 -31 -45 -59 -79 -62 -76 -3 4 -14 -10 -23 -29 -10 -20
-22 -33 -28 -30 -6 3 -8 3 -4 -1 4 -5 -1 -16 -10 -26 -27 -30 -92 -185 -120
-289 -23 -87 -26 -113 -26 -276 1 -165 3 -189 28 -280 31 -115 95 -256 161
-354 96 -145 260 -293 406 -366 37 -19 71 -41 76 -48 11 -18 100 -55 152 -63
23 -4 41 -12 41 -19 0 -37 280 -52 475 -26 350 47 683 296 853 636 38 77 105
273 97 285 -3 6 -2 10 3 10 16 0 43 151 37 205 -4 36 -3 45 4 30 7 -14 10 6 9
73 0 54 -5 92 -11 92 -6 0 -7 16 -4 40 3 22 1 43 -4 46 -6 3 -7 14 -4 24 3 10
-9 62 -27 116 -17 55 -31 102 -30 106 2 9 -70 145 -111 209 -74 115 -215 256
-335 336 -78 51 -212 111 -316 139 -70 19 -125 26 -236 31 -80 3 -147 3 -150
0z m-317 -259 c13 -7 52 -11 93 -9 73 2 173 -18 227 -46 26 -13 31 -13 46 1
20 18 73 21 100 6 13 -7 35 -3 77 12 42 16 87 23 157 25 53 1 106 7 116 13 34
18 62 11 98 -25 31 -31 34 -39 29 -73 -4 -20 -8 -77 -10 -127 -2 -64 -11 -111
-28 -160 -23 -64 -24 -73 -11 -104 13 -30 12 -40 -1 -75 -15 -39 -14 -44 10
-111 20 -52 27 -93 29 -160 2 -49 6 -109 10 -132 7 -38 5 -45 -24 -74 -28 -28
-36 -30 -74 -25 -23 3 -82 8 -132 10 -65 2 -111 11 -164 30 -64 22 -79 24
-107 14 -25 -9 -39 -8 -62 1 -27 11 -40 9 -109 -15 -58 -20 -101 -28 -168 -30
-49 -1 -102 -6 -118 -9 -37 -10 -79 9 -100 44 -20 34 -21 54 -6 83 6 11 12 64
13 117 1 73 7 111 25 156 13 33 22 65 22 70 -1 6 -4 29 -7 53 -4 24 -2 48 5
55 7 10 3 30 -17 78 -21 52 -27 82 -29 160 -1 52 -7 108 -13 123 -15 40 -12
60 11 90 34 43 74 55 112 34z m-706 -740 c-3 -7 -5 -2 -5 12 0 14 2 19 5 13 2
-7 2 -19 0 -25z m-10 -170 c-2 -24 -4 -5 -4 42 0 47 2 66 4 43 2 -24 2 -62 0
-85z m10 -100 c-3 -8 -6 -5 -6 6 -1 11 2 17 5 13 3 -3 4 -12 1 -19z m2230 -40
c-3 -7 -5 -2 -5 12 0 14 2 19 5 13 2 -7 2 -19 0 -25z m-1267 -158 c0 -30 -1
-30 -55 -30 -54 0 -55 0 -55 -30 0 -29 2 -30 45 -30 43 0 45 -1 45 -30 0 -29
-2 -30 -45 -30 l-45 0 0 -55 0 -55 -40 0 -40 0 0 145 0 145 95 0 95 0 0 -30z
m240 0 c0 -28 -2 -30 -40 -30 l-40 0 0 -115 0 -115 -35 0 -35 0 0 115 0 115
-40 0 c-38 0 -40 2 -40 30 l0 30 115 0 115 0 0 -30z m100 -25 c0 -30 3 -55 8
-55 4 0 24 25 45 55 35 51 41 55 78 55 21 0 39 -3 39 -7 0 -5 -20 -34 -44 -66
l-44 -58 49 -74 c27 -41 49 -77 49 -80 0 -3 -18 -5 -40 -5 -37 0 -42 4 -80 60
-22 33 -45 60 -50 60 -6 0 -10 -27 -10 -60 l0 -60 -40 0 -40 0 0 145 0 145 40
0 40 0 0 -55z m810 -165 c-6 -11 -13 -20 -16 -20 -2 0 0 9 6 20 6 11 13 20 16
20 2 0 0 -9 -6 -20z m-1939 -85 l10 -20 -16 20 c-9 11 -21 29 -26 40 l-10 20
16 -20 c9 -11 21 -29 26 -40z m507 -71 c32 -22 18 -34 -33 -27 -29 4 -50 1
-60 -7 -20 -17 -20 -88 2 -112 18 -20 63 -24 81 -6 9 9 15 9 24 0 18 -18 -19
-41 -69 -42 -55 0 -93 42 -93 103 1 83 85 135 148 91z m172 -4 c0 -17 -7 -20
-45 -20 -41 0 -45 -2 -45 -25 0 -22 4 -25 35 -25 24 0 35 -5 35 -15 0 -10 -11
-15 -35 -15 -32 0 -35 -2 -35 -30 0 -29 2 -30 45 -30 33 0 45 -4 45 -15 0 -12
-14 -15 -65 -15 l-65 0 0 105 0 105 65 0 c58 0 65 -2 65 -20z m101 -51 l54
-71 3 71 c2 54 6 71 17 71 12 0 15 -20 15 -105 0 -80 -3 -105 -13 -105 -7 0
-35 30 -63 67 l-49 68 -3 -68 c-3 -59 -5 -67 -22 -67 -19 0 -20 7 -20 98 0
138 5 141 81 41z m269 51 c0 -16 -7 -20 -30 -20 l-30 0 0 -85 c0 -78 -2 -85
-20 -85 -18 0 -20 7 -20 85 l0 85 -30 0 c-23 0 -30 4 -30 20 0 18 7 20 80 20
73 0 80 -2 80 -20z m142 -10 c21 -26 16 -56 -12 -81 -17 -15 -16 -17 10 -48
l27 -34 33 84 c35 89 52 115 68 105 10 -6 82 -178 82 -196 0 -21 -31 -9 -40
15 -8 21 -16 25 -50 25 -33 0 -42 -4 -52 -25 -9 -19 -19 -25 -43 -25 -26 0
-37 7 -60 40 -35 50 -50 51 -50 3 0 -28 -5 -38 -17 -41 -16 -3 -18 7 -18 104
l0 107 52 -5 c38 -4 57 -12 70 -28z m266 -63 l3 -87 39 0 c29 0 40 -4 40 -15
0 -12 -13 -15 -60 -15 l-60 0 0 106 c0 95 2 105 18 102 14 -3 17 -17 20 -91z
m-1397 66 c13 -16 12 -17 -3 -4 -10 7 -18 15 -18 17 0 8 8 3 21 -13z m1759
-16 c0 -2 -17 -19 -37 -38 l-38 -34 34 38 c33 34 41 42 41 34z m-1675 -77 c33
-33 57 -60 54 -60 -2 0 -31 27 -64 60 -33 33 -57 60 -54 60 2 0 31 -27 64 -60z
m1575 -23 c0 -2 -15 -16 -32 -33 l-33 -29 29 33 c28 30 36 37 36 29z m-1469
-74 c13 -16 12 -17 -3 -4 -10 7 -18 15 -18 17 0 8 8 3 21 -13z m1389 3 c0 -2
-8 -10 -17 -17 -16 -13 -17 -12 -4 4 13 16 21 21 21 13z m-1290 -73 c0 -7 -39
17 -46 28 -3 6 5 3 20 -6 14 -10 26 -19 26 -22z m1106 -48 c-11 -8 -25 -15
-30 -15 -6 1 0 7 14 15 32 19 40 18 16 0z m-699 -101 c-3 -3 -12 -4 -19 -1 -8
3 -5 6 6 6 11 1 17 -2 13 -5z m390 0 c-3 -3 -12 -4 -19 -1 -8 3 -5 6 6 6 11 1
17 -2 13 -5z m-324 -11 c-7 -2 -21 -2 -30 0 -10 3 -4 5 12 5 17 0 24 -2 18 -5z
m270 0 c-7 -2 -21 -2 -30 0 -10 3 -4 5 12 5 17 0 24 -2 18 -5z m-110 -10 c-24
-2 -62 -2 -85 0 -24 2 -5 4 42 4 47 0 66 -2 43 -4z"/>
<path d="M1260 6463 c0 -41 -40 -83 -80 -83 l-30 0 0 -62 c1 -38 10 -89 23
-128 31 -91 45 -90 129 4 66 75 206 206 221 206 4 0 7 9 7 19 0 28 -96 62
-192 69 l-78 5 0 -30z"/>
<path d="M1782 6471 c-61 -21 -57 -18 -65 -52 -6 -22 3 -33 68 -87 40 -35 100
-94 132 -132 91 -109 123 -95 153 68 14 82 6 112 -30 112 -34 0 -80 49 -80 86
0 23 -3 24 -62 24 -35 -1 -87 -9 -116 -19z"/>
<path d="M1477 6290 c-37 -33 -94 -90 -126 -127 -55 -62 -58 -69 -45 -87 18
-26 18 -66 -1 -93 -14 -19 -11 -25 49 -95 82 -96 184 -181 205 -172 31 13 79
16 99 5 18 -10 29 -4 79 38 62 52 121 113 171 175 25 32 29 43 21 59 -6 10 -9
38 -7 63 3 38 -2 50 -37 95 -22 28 -78 84 -124 125 -72 62 -87 71 -104 62 -18
-9 -47 -8 -92 6 -15 5 -37 -9 -88 -54z m221 -46 c86 -36 141 -120 142 -217 1
-211 -265 -308 -403 -146 -99 115 -62 290 75 358 52 25 132 28 186 5z"/>
<path d="M1440 6025 c0 -37 4 -65 10 -65 6 0 10 13 10 29 0 25 5 30 28 34 l27
4 -27 2 c-23 1 -28 6 -28 25 0 19 6 26 28 29 22 3 20 4 -10 6 l-38 1 0 -65z"/>
<path d="M1558 6083 c20 -4 22 -10 22 -64 0 -33 4 -59 10 -59 6 0 10 25 10 55
0 48 3 57 23 65 17 7 9 9 -33 8 -30 0 -45 -3 -32 -5z"/>
<path d="M1680 6025 c0 -37 4 -65 10 -65 6 0 10 14 10 30 0 18 5 30 13 30 7 0
23 -13 35 -30 32 -43 47 -37 18 8 l-24 38 20 27 c15 21 16 27 6 27 -8 0 -21
-11 -28 -25 -7 -14 -19 -25 -27 -25 -7 0 -13 11 -13 25 0 14 -4 25 -10 25 -6
0 -10 -28 -10 -65z"/>
<path d="M1948 5893 c-36 -48 -141 -152 -205 -205 -21 -17 -33 -36 -33 -52 0
-21 9 -28 56 -46 33 -12 85 -22 122 -23 l66 -2 7 35 c9 40 50 80 84 80 17 0
25 7 29 28 8 33 -6 109 -31 177 -25 68 -47 70 -95 8z"/>
<path d="M1172 5865 c-13 -37 -22 -91 -22 -125 0 -57 1 -60 24 -60 37 0 84
-45 88 -83 l3 -32 60 1 c33 0 90 11 128 23 60 20 68 26 65 46 -2 14 -34 49
-82 92 -44 37 -104 97 -135 133 -38 45 -63 66 -81 68 -25 3 -28 -2 -48 -63z"/>
<path d="M1778 4950 c-4 -26 -1 -30 18 -30 26 0 48 24 40 45 -3 8 -16 15 -30
15 -19 0 -25 -6 -28 -30z"/>
<path d="M1967 4943 c-2 -10 -8 -26 -12 -35 -6 -15 -2 -18 24 -18 30 0 30 1
19 28 -17 39 -25 46 -31 25z"/>
<path d="M8515 6810 c-113 -17 -132 -20 -180 -32 -102 -23 -271 -106 -338
-165 -21 -19 -42 -31 -46 -28 -5 2 -15 -3 -22 -13 -13 -16 -13 -16 6 -2 19 14
19 14 6 -3 -8 -10 -19 -16 -25 -14 -6 2 -31 -12 -56 -31 -166 -126 -298 -304
-380 -512 -67 -170 -98 -463 -66 -631 44 -234 153 -443 317 -610 87 -88 188
-169 212 -169 7 0 48 -20 90 -44 81 -46 149 -71 287 -107 69 -18 114 -22 235
-23 147 0 198 7 293 45 13 5 44 14 69 19 69 16 204 83 243 121 20 19 64 54 98
78 35 25 91 77 125 115 48 55 53 63 22 37 -22 -19 -38 -40 -37 -45 2 -6 0 -8
-3 -4 -4 4 -33 -10 -64 -31 -69 -46 -81 -53 -81 -48 0 2 25 21 55 41 30 20 84
61 120 91 36 31 65 53 65 49 0 -4 7 -1 15 6 9 7 13 15 11 18 -7 7 22 47 34 47
6 0 10 5 11 10 0 6 20 37 43 70 49 69 116 191 116 212 0 8 4 12 9 9 5 -3 8 0
8 7 -1 10 22 92 41 147 3 8 4 23 3 34 -2 10 1 16 6 13 10 -6 17 86 18 228 0
130 -7 225 -17 225 -4 0 -10 21 -13 48 -11 72 -89 249 -155 349 -99 151 -263
298 -420 378 -77 39 -220 91 -276 99 -169 27 -274 32 -379 16z m260 -165 c174
-36 327 -157 403 -316 47 -98 62 -162 62 -262 0 -260 -180 -493 -434 -563
-202 -55 -413 2 -562 151 -118 118 -174 252 -174 415 0 152 49 282 150 393
144 159 347 226 555 182z m-865 -98 c0 -1 -24 -25 -52 -52 l-53 -50 50 53 c46
48 55 57 55 49z m-100 -110 c0 -2 -10 -12 -22 -23 l-23 -19 19 23 c18 21 26
27 26 19z m-50 -61 c0 -2 -8 -10 -17 -17 -16 -13 -17 -12 -4 4 13 16 21 21 21
13z m-122 -201 c-6 -14 -13 -23 -15 -21 -5 5 15 46 22 46 3 0 -1 -11 -7 -25z
m-101 -377 c-3 -7 -5 -2 -5 12 0 14 2 19 5 13 2 -7 2 -19 0 -25z m0 -230 c-3
-7 -5 -2 -5 12 0 14 2 19 5 13 2 -7 2 -19 0 -25z m1203 -208 c0 -26 -4 -29
-36 -32 l-36 -3 -2 -110 -1 -110 -37 -3 -38 -3 0 115 0 115 -42 3 c-24 2 -69
1 -100 0 -57 -4 -58 -5 -58 -33 0 -28 1 -29 50 -29 49 0 50 -1 50 -30 0 -29
-1 -30 -50 -30 l-50 0 0 -55 0 -55 -35 0 -35 0 0 145 0 144 210 1 210 0 0 -30z
m102 -32 l3 -63 33 45 c56 76 60 80 97 80 19 0 35 -4 35 -9 0 -5 -19 -35 -43
-67 l-43 -58 48 -70 c26 -38 48 -73 48 -78 0 -4 -18 -8 -40 -8 -37 0 -42 4
-77 57 -52 78 -63 79 -63 4 l0 -61 -40 0 -40 0 0 138 c0 76 3 142 7 145 3 4
21 7 39 7 l33 0 3 -62z m-1197 -128 c9 -16 13 -30 11 -30 -3 0 -12 14 -21 30
-9 17 -13 30 -11 30 3 0 12 -13 21 -30z m106 -177 c13 -16 12 -17 -3 -4 -10 7
-18 15 -18 17 0 8 8 3 21 -13z m709 -87 l0 -84 44 -4 45 -3 32 87 c27 71 37
88 54 88 16 0 27 -18 55 -91 19 -51 37 -96 38 -100 2 -5 -6 -9 -17 -9 -14 0
-23 8 -27 25 -5 22 -12 25 -49 25 -37 0 -44 -3 -49 -24 -7 -29 -18 -32 -102
-28 l-64 4 0 99 c0 92 1 99 20 99 18 0 20 -7 20 -84z m414 68 c18 -18 21 -55
6 -70 -8 -8 -6 -15 5 -24 21 -17 19 -46 -5 -70 -15 -15 -33 -20 -75 -20 l-55
0 0 100 0 100 54 0 c36 0 60 -5 70 -16z m-1093 -21 c13 -16 12 -17 -3 -4 -10
7 -18 15 -18 17 0 8 8 3 21 -13z m79 -88 c30 -30 52 -55 49 -55 -2 0 -29 25
-59 55 -30 30 -52 55 -49 55 2 0 29 -25 59 -55z m95 -85 c10 -11 16 -20 13
-20 -3 0 -13 9 -23 20 -10 11 -16 20 -13 20 3 0 13 -9 23 -20z m105 -77 c0 -7
-39 17 -46 28 -3 6 5 3 20 -6 14 -10 26 -19 26 -22z m1149 -27 c-2 -2 -15 -9
-29 -15 -24 -11 -24 -11 -6 3 16 13 49 24 35 12z m-686 -133 c-7 -2 -19 -2
-25 0 -7 3 -2 5 12 5 14 0 19 -2 13 -5z m290 0 c-7 -2 -19 -2 -25 0 -7 3 -2 5
12 5 14 0 19 -2 13 -5z m-105 -10 c-26 -2 -71 -2 -100 0 -29 2 -8 3 47 3 55 0
79 -1 53 -3z"/>
<path d="M8570 6599 c-100 -15 -221 -78 -297 -155 -250 -254 -180 -689 137
-848 92 -46 164 -59 280 -54 77 4 109 11 167 35 148 63 250 174 305 333 33 94
31 238 -3 336 -88 246 -329 390 -589 353z m310 -154 c41 -21 60 -53 60 -101 0
-52 -34 -97 -86 -114 -30 -10 -41 -9 -76 9 -23 11 -44 19 -47 17 -3 -1 -74
-42 -157 -91 l-151 -88 1 -40 1 -41 156 -81 156 -81 29 18 c51 32 123 16 158
-34 25 -35 20 -101 -9 -137 -73 -85 -189 -45 -205 72 l-5 40 -159 83 c-153 79
-161 82 -187 68 -56 -28 -120 -9 -153 46 -34 59 -5 139 61 166 41 18 78 12
109 -17 21 -19 21 -19 177 73 155 92 157 93 157 128 1 90 91 146 170 105z"/>
<path d="M8782 6387 c-41 -44 -16 -107 42 -107 60 0 88 68 46 110 -27 27 -62
25 -88 -3z"/>
<path d="M8254 6084 c-22 -33 -10 -72 29 -94 24 -13 30 -13 55 0 34 19 42 72
16 101 -26 29 -79 25 -100 -7z"/>
<path d="M8782 5797 c-41 -44 -16 -107 42 -107 60 0 88 68 46 110 -27 27 -62
25 -88 -3z"/>
<path d="M8621 4940 c-14 -42 -15 -40 15 -40 22 0 24 3 18 23 -14 47 -21 51
-33 17z"/>
<path d="M8790 4966 c0 -22 4 -26 31 -26 26 0 30 3 27 23 -2 16 -11 23 -30 25
-24 3 -28 0 -28 -22z"/>
<path d="M8790 4879 c0 -28 2 -30 32 -27 57 5 48 57 -9 58 -19 0 -23 -5 -23
-31z"/>
<path d="M643 6298 c-15 -20 -25 -38 -20 -38 3 0 12 11 21 25 17 26 16 35 -1
13z"/>
<path d="M3487 5850 c-37 -33 -47 -50 -56 -91 -7 -32 -11 -228 -11 -543 0
-554 2 -569 65 -625 31 -27 43 -31 94 -31 68 0 100 20 131 80 l19 38 -31 6
c-17 3 -57 6 -89 6 l-59 0 0 600 c0 330 -4 600 -9 600 -4 0 -29 -18 -54 -40z"/>
<path d="M4393 5868 c-33 -17 -43 -27 -45 -51 l-3 -30 -294 2 -294 3 5 -91 c2
-50 7 -93 9 -96 3 -3 21 2 39 12 25 12 70 17 179 20 151 5 228 19 285 54 41
25 53 24 122 -11 52 -27 98 -39 221 -56 46 -7 91 -48 103 -95 7 -26 10 -178 8
-437 -3 -387 -2 -398 18 -442 12 -25 34 -56 48 -70 24 -22 37 -25 96 -25 62 0
72 3 99 29 31 30 58 82 47 93 -3 4 -44 9 -91 11 l-85 5 0 543 0 544 -197 2
c-150 2 -198 6 -199 16 -1 6 -2 30 -3 52 -1 46 -9 48 -68 18z"/>
<path d="M5633 5870 c-34 -20 -66 -74 -76 -125 -4 -16 -7 -257 -8 -535 -2
-456 -1 -509 15 -550 21 -56 49 -86 93 -101 44 -14 114 -4 146 21 26 21 63 88
53 98 -4 3 -44 8 -91 10 l-85 5 0 598 c0 330 -3 599 -7 599 -5 0 -22 -9 -40
-20z"/>
<path d="M6270 5783 c-47 -49 -115 -122 -152 -163 -125 -143 -145 -160 -183
-160 -28 0 -35 -4 -35 -20 0 -16 7 -20 38 -20 20 0 47 3 59 6 20 6 123 121
285 322 39 48 78 95 86 105 12 13 12 17 2 17 -8 0 -52 -39 -100 -87z"/>
<path d="M6400 5600 c-192 -226 -196 -230 -212 -230 -12 0 40 -49 53 -50 4 0
18 17 31 38 14 20 78 100 142 177 116 140 161 209 154 242 -2 11 -58 -47 -168
-177z"/>
<path d="M5070 5686 c0 -53 4 -98 10 -101 6 -3 10 -2 10 3 0 18 64 39 133 45
95 9 154 37 173 83 26 63 24 64 -161 64 l-165 0 0 -94z"/>
<path d="M5890 5183 c0 -43 3 -95 7 -116 5 -33 9 -38 28 -33 38 10 81 -26 186
-154 235 -286 276 -320 382 -320 71 0 117 33 117 85 0 33 -2 34 -47 40 -27 3
-55 9 -64 13 -10 4 -112 124 -228 267 -125 154 -225 267 -244 277 -19 11 -53
18 -84 18 l-53 0 0 -77z"/>
<path d="M3760 5159 c0 -35 3 -81 6 -102 6 -34 8 -36 23 -23 26 23 91 36 186
35 139 0 196 24 216 91 7 22 9 43 5 47 -4 4 -103 9 -221 11 l-215 4 0 -63z"/>
<path d="M4760 4305 c0 -25 14 -34 24 -16 8 12 -3 41 -15 41 -5 0 -9 -11 -9
-25z"/>
<path d="M5097 4203 c-11 -10 -8 -43 3 -43 6 0 10 11 10 25 0 26 -2 29 -13 18z"/>
<path d="M6333 4148 c-30 -38 -35 -59 -18 -84 20 -31 33 -30 45 1 6 17 6 34
-2 53 -6 15 -11 30 -10 35 3 11 -4 9 -15 -5z"/>
<path d="M5090 4108 c0 -36 14 -52 29 -34 17 20 10 50 -12 54 -12 3 -17 -3
-17 -20z"/>
<path d="M1515 3800 c-22 -4 -45 -6 -51 -3 -7 2 -15 -1 -19 -6 -3 -6 -10 -9
-14 -6 -5 2 -54 -11 -110 -30 -198 -66 -414 -226 -543 -402 -25 -34 -49 -59
-53 -55 -5 4 -5 1 -1 -5 4 -7 -5 -30 -19 -50 -14 -21 -25 -34 -25 -29 0 4 10
22 22 39 12 17 17 27 10 23 -6 -4 -24 -28 -39 -54 -15 -26 -33 -51 -39 -57
-13 -10 -60 -101 -89 -170 -60 -147 -90 -399 -66 -563 65 -444 376 -807 801
-936 348 -105 754 -28 1022 195 26 22 53 37 61 33 10 -3 56 39 134 124 115
124 121 134 177 257 31 70 55 134 52 142 -3 8 -2 12 3 9 11 -7 23 22 15 35 -3
5 0 9 7 9 7 0 10 3 6 6 -3 3 1 24 9 46 7 22 11 44 8 49 -3 5 0 9 7 9 6 0 9 8
6 20 -3 11 -1 23 4 26 6 3 7 14 4 24 -3 10 -2 21 3 24 5 3 8 82 6 178 -5 221
-5 228 -16 228 -5 0 -6 9 -3 20 4 12 2 20 -5 20 -6 0 -9 4 -5 9 3 5 -6 40 -21
78 -14 37 -27 76 -29 86 -2 10 -18 41 -35 68 -16 27 -30 53 -30 58 0 18 -135
188 -194 244 -169 162 -378 269 -591 303 -95 14 -293 17 -360 4z m312 -155
c211 -50 388 -227 438 -437 47 -199 -13 -400 -164 -548 -126 -124 -265 -177
-436 -167 -228 14 -419 149 -507 359 -138 328 51 700 402 792 72 19 189 19
267 1z m-1171 -502 c-14 -26 -25 -45 -26 -41 0 12 43 98 48 94 2 -2 -8 -26
-22 -53z m-55 -154 c-5 -13 -10 -19 -10 -12 -1 15 10 45 15 40 3 -2 0 -15 -5
-28z m-14 -581 c-3 -8 -6 -5 -6 6 -1 11 2 17 5 13 3 -3 4 -12 1 -19z m1201
-61 c-3 -30 -6 -32 -41 -32 l-37 0 0 -112 0 -113 -40 0 -40 0 0 113 0 112 -95
3 -95 4 0 -31 c0 -30 1 -31 45 -31 43 0 45 -1 45 -30 0 -29 -2 -30 -45 -30
l-45 0 0 -55 0 -55 -40 0 -40 0 0 145 0 144 216 1 215 0 -3 -33z m92 -21 c0
-30 4 -57 9 -60 5 -4 27 20 48 51 36 53 43 58 81 61 23 2 42 0 42 -3 0 -3 -17
-29 -38 -58 -55 -75 -56 -76 -39 -95 8 -9 31 -43 50 -74 l37 -58 -45 0 c-43 0
-45 1 -81 60 -20 33 -43 60 -50 60 -10 0 -14 -16 -14 -60 l0 -60 -35 0 -35 0
0 145 0 145 35 0 35 0 0 -54z m810 -166 c-6 -11 -13 -20 -16 -20 -2 0 0 9 6
20 6 11 13 20 16 20 2 0 0 -9 -6 -20z m-1970 -60 c6 -11 8 -20 6 -20 -3 0 -10
9 -16 20 -6 11 -8 20 -6 20 3 0 10 -9 16 -20z m1910 -44 c0 -2 -8 -10 -17 -17
-16 -13 -17 -12 -4 4 13 16 21 21 21 13z m-1859 -33 c13 -16 12 -17 -3 -4 -10
7 -18 15 -18 17 0 8 8 3 21 -13z m377 -45 c-3 -7 -23 -14 -46 -16 -37 -3 -42
-6 -42 -28 0 -21 5 -24 36 -24 24 0 34 -4 31 -12 -2 -7 -18 -13 -35 -13 -28 0
-32 -3 -32 -27 0 -25 3 -26 33 -22 40 6 70 -11 47 -26 -17 -11 -70 -13 -94 -4
-13 5 -16 23 -16 95 l0 89 61 0 c44 0 60 -3 57 -12z m88 -48 c26 -33 47 -60
48 -60 1 0 -1 27 -2 60 -4 55 -2 60 17 60 20 0 21 -5 21 -90 0 -79 -2 -90 -17
-90 -10 0 -36 25 -58 56 -22 31 -42 57 -45 59 -3 2 -3 -23 -2 -56 4 -54 2 -59
-17 -59 -20 0 -21 5 -21 90 0 111 9 114 76 30z m234 45 c0 -9 -9 -15 -25 -15
-24 0 -25 -2 -25 -75 0 -68 -2 -75 -20 -75 -18 0 -20 7 -20 75 0 73 -1 75 -25
75 -16 0 -25 6 -25 15 0 12 14 15 70 15 56 0 70 -3 70 -15z m138 3 c-3 -7 -23
-14 -46 -16 -37 -3 -42 -6 -42 -28 0 -21 5 -24 36 -24 24 0 34 -4 31 -12 -2
-7 -18 -13 -35 -13 -28 0 -32 -3 -32 -25 0 -23 3 -26 33 -23 17 2 39 -1 47 -7
13 -9 13 -11 0 -20 -17 -11 -70 -13 -94 -4 -13 5 -16 23 -16 95 l0 89 61 0
c44 0 60 -3 57 -12z m126 -10 c21 -29 20 -44 -3 -67 -19 -19 -19 -20 7 -55 14
-20 23 -38 20 -41 -11 -11 -38 8 -59 41 -26 43 -39 43 -39 -1 0 -28 -4 -35
-20 -35 -19 0 -20 7 -20 90 l0 90 49 0 c40 0 53 -4 65 -22z m148 5 c40 -36 9
-103 -49 -103 -19 0 -23 -6 -23 -28 0 -34 -7 -43 -26 -35 -11 4 -14 27 -14 94
l0 89 47 0 c29 0 53 -6 65 -17z m142 1 c22 -21 20 -61 -3 -76 -19 -11 -18 -13
5 -43 13 -18 24 -37 24 -43 0 -21 -35 0 -58 34 -28 43 -40 43 -44 -1 -2 -20
-7 -36 -13 -38 -6 -1 -11 35 -13 91 l-3 92 45 0 c27 0 51 -6 60 -16z m76 -72
c0 -93 -3 -104 -26 -95 -11 4 -14 27 -14 94 0 82 1 89 20 89 18 0 20 -7 20
-88z m129 75 c16 -20 4 -26 -35 -20 -48 8 -47 -23 1 -43 41 -17 50 -33 41 -69
-9 -34 -50 -50 -88 -34 -44 18 -36 38 15 36 53 -2 57 18 8 42 -49 23 -59 43
-38 75 13 19 26 26 51 26 18 0 39 -6 45 -13z m151 -2 c0 -11 -12 -15 -45 -15
-41 0 -45 -2 -45 -25 0 -22 4 -25 36 -25 45 0 41 -24 -5 -28 -27 -3 -32 -7
-29 -25 3 -19 8 -22 39 -19 39 4 61 -14 38 -29 -8 -5 -34 -8 -59 -7 l-45 3 -3
93 -3 92 61 0 c47 0 60 -3 60 -15z m190 2 c0 -2 -10 -12 -22 -23 l-23 -19 19
23 c18 21 26 27 26 19z m-1680 -94 l75 -78 -77 75 c-72 69 -83 80 -75 80 1 0
36 -35 77 -77z m1530 -57 c0 -2 -8 -10 -17 -17 -16 -13 -17 -12 -4 4 13 16 21
21 21 13z m-1389 -63 c13 -16 12 -17 -3 -4 -17 13 -22 21 -14 21 2 0 10 -8 17
-17z m1254 -39 c-26 -20 -55 -36 -55 -30 0 5 63 46 70 46 3 -1 -4 -8 -15 -16z
m-1165 -20 c0 -2 -9 0 -20 6 -11 6 -20 13 -20 16 0 2 9 0 20 -6 11 -6 20 -13
20 -16z m1030 -54 c-19 -11 -39 -19 -45 -19 -5 0 6 8 25 19 19 11 40 19 45 19
6 0 -6 -8 -25 -19z m-723 -66 c-3 -3 -12 -4 -19 -1 -8 3 -5 6 6 6 11 1 17 -2
13 -5z"/>
<path d="M1585 3594 c-179 -40 -319 -160 -386 -332 -31 -79 -38 -245 -14 -328
104 -360 534 -508 828 -285 163 122 243 326 205 519 -60 302 -340 491 -633
426z m273 -139 c106 -48 195 -159 209 -261 4 -32 15 -56 35 -76 25 -25 28 -36
28 -91 0 -80 -17 -107 -68 -107 -36 0 -38 -2 -55 -49 -24 -67 -103 -152 -167
-180 -68 -29 -132 -37 -148 -18 -21 25 -4 44 46 52 99 15 166 64 202 146 20
47 21 65 18 194 -3 137 -4 143 -33 191 -79 127 -265 153 -380 53 -57 -50 -77
-116 -83 -261 l-5 -128 -60 0 c-85 0 -97 13 -97 106 0 64 3 75 24 91 15 12 27
37 35 71 31 144 138 256 278 292 60 15 158 4 221 -25z"/>
<path d="M1660 1932 c0 -26 3 -29 26 -24 33 6 30 45 -3 50 -19 3 -23 -1 -23
-26z"/>
<path d="M1810 1930 c0 -23 5 -30 19 -30 10 0 24 6 30 14 17 20 3 46 -25 46
-20 0 -24 -5 -24 -30z"/>
<path d="M1950 1935 c0 -23 4 -26 28 -23 19 2 27 9 27 23 0 14 -8 21 -27 23
-24 3 -28 0 -28 -23z"/>
<path d="M8539 3806 c-2 -3 -31 -7 -64 -10 -66 -6 -94 -13 -175 -46 -30 -12
-63 -23 -72 -25 -9 -2 -61 -30 -115 -62 -54 -32 -101 -58 -105 -58 -4 0 -15
-10 -24 -23 -8 -12 -21 -21 -27 -20 -21 4 -132 -78 -213 -159 -86 -85 -162
-189 -217 -298 -47 -92 -98 -246 -87 -260 5 -6 3 -42 -6 -85 -53 -279 32 -633
209 -870 67 -89 81 -102 111 -98 22 2 39 -8 84 -52 105 -102 253 -187 412
-238 222 -71 473 -70 696 3 172 56 396 201 457 296 l29 44 -34 -31 c-37 -35
-98 -78 -98 -70 0 3 19 18 43 35 23 16 71 58 107 92 36 35 68 62 73 61 4 -1 6
1 5 5 -2 5 15 33 38 63 75 102 167 278 179 341 2 12 14 60 27 108 18 71 22
112 21 236 0 135 -3 162 -32 270 -71 270 -222 491 -444 649 -81 58 -202 118
-292 146 -38 12 -78 26 -88 31 -29 16 -154 28 -278 29 -64 0 -118 -2 -120 -4z
m265 -176 c138 -35 255 -113 344 -230 32 -42 78 -142 93 -200 19 -77 17 -222
-5 -294 -57 -191 -196 -336 -392 -408 -48 -17 -81 -21 -174 -21 -102 -1 -124
3 -190 28 -41 15 -97 42 -125 60 -72 46 -170 155 -209 234 -36 70 -66 190 -66
261 0 71 30 191 65 259 83 162 211 264 389 311 93 25 175 25 270 0z m-854 -73
c0 -1 -33 -34 -72 -72 l-73 -70 70 73 c64 67 75 77 75 69z m-180 -201 c0 -2
-8 -10 -17 -17 -16 -13 -17 -12 -4 4 13 16 21 21 21 13z m-139 -243 c-12 -20
-14 -14 -5 12 4 9 9 14 11 11 3 -2 0 -13 -6 -23z m-54 -165 c-3 -8 -6 -5 -6 6
-1 11 2 17 5 13 3 -3 4 -12 1 -19z m-10 -40 c-3 -8 -6 -5 -6 6 -1 11 2 17 5
13 3 -3 4 -12 1 -19z m953 -558 c0 -30 -1 -30 -55 -30 -54 0 -55 0 -55 -30 0
-29 2 -30 45 -30 43 0 45 -1 45 -30 0 -29 -2 -30 -45 -30 l-45 0 0 -55 0 -55
-40 0 -40 0 0 145 0 145 95 0 95 0 0 -30z m238 -2 c-3 -31 -6 -33 -41 -33
l-37 0 0 -112 0 -113 -35 0 -34 0 -3 112 -3 113 -37 -3 c-37 -3 -38 -3 -38 32
l0 36 116 0 115 0 -3 -32z m102 -33 l5 -60 43 63 c40 58 45 62 82 62 22 0 40
-3 40 -7 0 -5 -20 -35 -45 -67 -24 -33 -41 -64 -38 -70 4 -6 23 -36 43 -66 20
-30 40 -61 44 -67 5 -10 -4 -13 -36 -13 -42 0 -44 2 -82 60 -21 34 -43 59 -49
57 -6 -2 -10 -27 -8 -60 l2 -57 -40 0 -41 0 0 146 0 145 38 -3 37 -3 5 -60z
m-1216 -91 c3 -8 2 -12 -4 -9 -6 3 -10 10 -10 16 0 14 7 11 14 -7z m46 -94 c6
-11 8 -20 6 -20 -3 0 -10 9 -16 20 -6 11 -8 20 -6 20 3 0 10 -9 16 -20z m477
-125 c30 -13 34 -17 23 -30 -9 -11 -16 -13 -24 -5 -15 15 -62 12 -80 -6 -18
-18 -21 -76 -6 -105 12 -21 58 -26 90 -9 23 13 37 -5 20 -25 -19 -23 -74 -29
-108 -11 -39 20 -52 44 -52 95 0 45 36 97 73 104 12 2 23 5 25 6 1 0 19 -6 39
-14z m216 -26 c72 -88 -23 -216 -123 -164 -85 44 -69 177 25 197 31 7 78 -10
98 -33z m768 15 c14 -17 1 -40 -14 -25 -14 14 -52 14 -77 1 -27 -15 -36 -74
-16 -105 12 -18 25 -25 49 -25 18 0 38 5 43 10 8 8 15 6 23 -4 10 -12 7 -18
-20 -31 -82 -43 -170 37 -139 129 21 64 114 95 151 50z m-633 -55 l52 -71 0
71 c0 56 3 71 15 71 12 0 15 -18 15 -100 0 -123 -9 -127 -77 -34 l-48 66 -3
-66 c-3 -58 -5 -66 -22 -66 -19 0 -20 7 -20 100 0 89 2 100 18 100 9 -1 40
-32 70 -71z m210 0 l52 -71 0 71 c0 56 3 71 15 71 12 0 15 -18 15 -100 0 -78
-3 -100 -14 -100 -7 0 -36 30 -65 67 l-51 67 0 -67 c0 -60 -2 -67 -20 -67 -19
0 -20 7 -20 100 0 89 2 100 18 100 9 -1 40 -32 70 -71z m252 56 c0 -11 -12
-15 -45 -15 -43 0 -45 -1 -45 -28 0 -26 2 -28 35 -24 30 4 35 1 35 -17 0 -17
-6 -21 -35 -21 -31 0 -35 -3 -35 -25 0 -23 4 -25 45 -25 33 0 45 -4 45 -15 0
-12 -14 -15 -65 -15 l-65 0 0 100 0 100 65 0 c51 0 65 -3 65 -15z m350 0 c0
-10 -10 -15 -30 -15 l-30 0 0 -84 c0 -63 -4 -85 -14 -89 -23 -9 -26 2 -26 90
l0 83 -30 0 c-20 0 -30 5 -30 15 0 12 16 15 80 15 64 0 80 -3 80 -15z m-1510
-50 c13 -14 21 -25 18 -25 -2 0 -15 11 -28 25 -13 14 -21 25 -18 25 2 0 15
-11 28 -25z m110 -110 c13 -14 21 -25 18 -25 -2 0 -15 11 -28 25 -13 14 -21
25 -18 25 2 0 15 -11 28 -25z m61 -52 c13 -16 12 -17 -3 -4 -10 7 -18 15 -18
17 0 8 8 3 21 -13z m40 -30 c13 -16 12 -17 -3 -4 -10 7 -18 15 -18 17 0 8 8 3
21 -13z m1259 -18 c0 -2 -10 -9 -22 -15 -22 -11 -22 -10 -4 4 21 17 26 19 26
11z m-50 -30 c0 -2 -10 -9 -22 -15 -22 -11 -22 -10 -4 4 21 17 26 19 26 11z
m-90 -50 c-14 -8 -29 -14 -35 -14 -5 0 1 6 15 14 14 8 30 14 35 14 6 0 -1 -6
-15 -14z m-925 -13 c-3 -3 -11 0 -18 7 -9 10 -8 11 6 5 10 -3 15 -9 12 -12z
m192 -58 c-3 -3 -12 -4 -19 -1 -8 3 -5 6 6 6 11 1 17 -2 13 -5z m530 0 c-3 -3
-12 -4 -19 -1 -8 3 -5 6 6 6 11 1 17 -2 13 -5z m-40 -10 c-3 -3 -12 -4 -19 -1
-8 3 -5 6 6 6 11 1 17 -2 13 -5z"/>
<path d="M8515 3571 c-148 -42 -278 -161 -340 -311 -22 -53 -28 -85 -32 -175
-5 -100 -3 -117 21 -189 60 -177 193 -305 367 -351 69 -19 209 -19 278 0 297
79 464 398 362 692 -58 168 -192 293 -362 338 -73 20 -219 18 -294 -4z m427
-210 c63 -24 102 -103 79 -160 -15 -36 -241 -265 -283 -287 -43 -22 -93 -12
-135 28 -38 36 -49 80 -33 123 13 35 78 105 97 105 23 0 14 -23 -24 -62 -31
-31 -38 -46 -38 -78 0 -54 31 -85 85 -85 38 0 47 7 167 128 121 120 128 129
128 167 0 54 -31 85 -85 85 -32 0 -47 -7 -78 -38 -32 -31 -41 -35 -50 -24 -9
10 -3 21 26 49 60 58 93 69 144 49z m-211 -140 c34 -34 39 -44 39 -85 0 -41
-5 -52 -39 -89 -31 -33 -42 -39 -52 -30 -9 9 -5 20 20 48 59 68 28 155 -56
155 -34 0 -47 -9 -165 -128 -120 -120 -128 -130 -128 -167 0 -53 31 -85 82
-85 31 0 47 8 84 42 35 32 47 39 57 29 9 -10 1 -23 -40 -62 -45 -42 -57 -49
-93 -49 -82 0 -130 49 -130 132 0 41 4 46 143 185 l143 143 48 0 c43 0 53 -4
87 -39z"/>
<path d="M8261 1967 c-21 -26 -24 -75 -7 -102 22 -33 78 -35 100 -3 36 51 8
118 -48 118 -19 0 -39 -6 -45 -13z"/>
<path d="M3548 3348 c6 -25 42 -23 42 1 0 14 -7 18 -23 17 -17 -1 -23 -6 -19
-18z"/>
<path d="M3660 3350 c0 -13 7 -20 20 -20 11 0 20 3 20 8 0 4 -9 13 -20 20 -18
11 -20 10 -20 -8z"/>
<path d="M5065 2560 c-4 -6 -26 -8 -56 -4 -31 4 -49 3 -49 -4 0 -5 -8 -8 -18
-5 -10 2 -53 -7 -97 -21 -43 -14 -82 -23 -87 -20 -4 3 -8 0 -8 -6 0 -6 -4 -9
-9 -6 -5 3 -29 -6 -55 -20 -25 -14 -51 -22 -57 -18 -7 4 -9 3 -6 -3 4 -6 0
-14 -9 -17 -10 -4 -13 -2 -8 7 4 6 -3 2 -15 -10 -20 -21 -34 -27 -54 -24 -5 1
-6 -3 -3 -8 4 -5 -2 -9 -11 -9 -17 2 -103 -49 -103 -59 0 -3 12 3 28 12 95 62
95 58 2 -11 -36 -26 -88 -68 -116 -93 -28 -25 -20 -16 18 20 122 118 45 86
-101 -41 -68 -59 -191 -206 -191 -228 0 -7 -21 -49 -46 -92 -51 -89 -95 -210
-125 -345 -35 -153 -25 -404 20 -535 5 -14 15 -45 22 -70 21 -74 45 -115 106
-178 32 -33 76 -85 98 -117 54 -78 199 -215 286 -271 185 -120 356 -174 576
-181 282 -10 511 61 732 227 94 72 117 95 100 106 -8 5 -10 3 -4 -6 5 -9 4
-11 -4 -6 -6 4 -20 2 -29 -5 -9 -7 3 6 28 29 25 23 50 41 55 42 6 0 -3 -11
-20 -25 -16 -13 -25 -24 -19 -25 5 0 23 13 39 30 16 16 25 30 20 30 -5 0 4 13
19 29 17 18 34 27 46 24 10 -3 23 1 29 9 61 72 99 133 136 219 49 111 50 113
35 104 -6 -3 -7 1 -4 9 3 9 10 13 15 10 9 -5 10 -4 14 31 1 12 8 31 14 44 7
12 10 29 7 37 -4 10 -2 12 6 8 8 -5 9 1 4 20 -5 20 -4 26 5 20 9 -5 10 0 5 20
-3 14 -3 26 1 26 9 0 8 -3 18 165 5 79 3 146 -4 195 -7 41 -15 93 -17 115 -3
22 -20 73 -37 115 -18 41 -32 80 -32 85 -1 22 -82 155 -141 231 -74 96 -171
187 -264 248 -69 46 -221 125 -249 131 -9 2 -56 15 -104 30 -49 15 -95 24
-103 21 -8 -3 -14 -1 -14 5 0 7 -17 9 -49 4 -31 -4 -51 -3 -56 4 -8 14 -102
14 -110 1z m130 -305 c14 -13 25 -34 25 -47 0 -16 -75 -98 -263 -288 l-263
-265 10 -32 10 -33 371 -2 370 -3 3 -36 c2 -27 9 -38 23 -42 16 -4 19 -14 19
-57 0 -44 -4 -56 -29 -81 l-29 -29 -412 0 -412 0 -29 29 c-20 21 -29 39 -29
63 0 27 -6 36 -32 48 -35 18 -68 71 -68 110 0 36 33 86 77 114 21 13 162 148
313 300 201 202 281 276 298 276 13 0 34 -11 47 -25z m-915 -78 c0 -2 -12 -14
-27 -28 l-28 -24 24 28 c23 25 31 32 31 24z m-50 -61 c0 -2 -8 -10 -17 -17
-16 -13 -17 -12 -4 4 13 16 21 21 21 13z m-80 -116 c-6 -11 -13 -20 -16 -20
-2 0 0 9 6 20 6 11 13 20 16 20 2 0 0 -9 -6 -20z m1624 -12 c8 -14 4 -24 -24
-54 -19 -20 -28 -34 -20 -32 19 7 50 -9 50 -25 0 -8 -14 -26 -31 -43 l-30 -29
28 -5 c15 -3 29 -12 31 -20 1 -9 -23 -44 -55 -78 l-58 -62 -325 2 c-307 3
-325 4 -328 21 -2 11 8 32 23 47 l27 28 -23 4 c-34 4 -35 35 -3 69 27 28 27
29 6 29 -12 0 -26 9 -32 20 -10 18 -3 29 56 85 l67 65 315 -2 c285 -3 316 -5
326 -20z m-1681 -103 c-3 -9 -8 -14 -10 -11 -3 3 -2 9 2 15 9 16 15 13 8 -4z
m875 -787 c-3 -33 -4 -33 -56 -33 -51 0 -52 0 -52 -30 0 -29 2 -30 42 -30 41
0 43 -1 46 -32 3 -33 3 -33 -42 -33 l-45 0 -3 -52 -3 -53 -35 0 -35 0 -3 134
c-1 74 0 141 2 148 4 9 31 13 96 13 l91 0 -3 -32z m240 -5 c3 -32 2 -33 -37
-33 l-40 0 -3 -112 -3 -113 -32 -3 -33 -3 0 115 0 116 -40 0 c-39 0 -40 1 -40
35 l0 36 113 -3 112 -3 3 -32z m102 -28 l5 -60 33 45 c56 77 60 80 98 80 43 0
42 -7 -16 -84 l-40 -53 49 -74 c27 -40 47 -77 45 -81 -10 -15 -64 -8 -83 11
-10 10 -29 37 -41 60 -35 61 -55 55 -55 -16 l0 -58 -35 0 -35 0 -3 134 c-1 74
0 141 3 149 3 8 17 12 37 10 33 -3 33 -4 38 -63z m-1211 -105 c11 -24 11 -24
-3 -6 -9 11 -16 24 -16 30 0 12 5 7 19 -24z m111 -190 c12 -16 19 -30 16 -30
-2 0 -14 14 -26 30 -12 17 -19 30 -16 30 2 0 14 -13 26 -30z m451 -22 c-1 -5
-1 -51 -1 -103 0 -78 -3 -95 -15 -95 -12 0 -15 18 -15 106 0 90 2 105 16 102
8 -2 15 -6 15 -10z m111 -54 l35 -66 35 63 c24 44 41 65 57 67 21 3 22 2 19
-100 -2 -84 -6 -103 -18 -103 -12 0 -16 16 -18 69 l-3 69 -29 -54 c-15 -30
-34 -54 -42 -54 -7 0 -24 21 -38 47 -14 26 -28 49 -30 52 -3 2 -5 -26 -5 -62
0 -53 -3 -67 -15 -67 -12 0 -16 19 -18 103 -2 95 -1 102 16 102 14 0 30 -20
54 -66z m309 -34 c44 -107 45 -110 23 -110 -9 0 -21 14 -27 30 -10 27 -16 30
-53 30 -38 0 -43 -3 -53 -30 -5 -16 -17 -30 -25 -30 -22 0 -21 2 21 113 50
128 62 128 114 -3z m193 94 c9 -3 16 -15 16 -26 0 -15 -4 -18 -17 -13 -73 32
-116 6 -111 -66 2 -37 8 -46 31 -57 15 -7 36 -10 47 -7 23 7 27 45 5 45 -8 0
-15 7 -15 15 0 10 11 15 35 15 35 0 35 0 35 -45 0 -43 -1 -45 -39 -56 -48 -14
-79 -7 -114 25 -22 20 -27 34 -27 71 0 63 40 105 98 105 22 0 47 -3 56 -6z
m186 -9 c0 -11 -12 -15 -50 -15 -46 0 -50 -2 -50 -24 0 -21 5 -25 37 -28 27
-2 39 -8 41 -20 3 -15 -4 -18 -37 -18 -37 0 -41 -2 -41 -25 0 -23 3 -25 51
-25 43 0 50 -3 47 -17 -3 -14 -15 -19 -62 -21 -41 -2 -62 1 -67 10 -10 15 -12
182 -2 191 3 4 35 7 70 7 49 0 63 -3 63 -15z m138 -1 c28 -19 28 -58 1 -85
l-20 -20 25 -34 c14 -19 26 -38 26 -44 0 -24 -28 -8 -60 34 -19 25 -37 45 -41
45 -4 0 -9 -19 -11 -42 -2 -30 -8 -43 -18 -43 -12 0 -16 19 -18 103 l-3 102
48 0 c28 0 58 -7 71 -16z m412 -17 c0 -2 -10 -12 -22 -23 l-23 -19 19 23 c18
21 26 27 26 19z m-1740 -32 c13 -14 21 -25 18 -25 -2 0 -15 11 -28 25 -13 14
-21 25 -18 25 2 0 15 -11 28 -25z m121 -122 c13 -16 12 -17 -3 -4 -17 13 -22
21 -14 21 2 0 10 -8 17 -17z m1344 -93 c-3 -5 -16 -15 -28 -21 -19 -9 -19 -8
3 10 28 23 34 26 25 11z m-1125 -56 c0 -2 -9 0 -20 6 -11 6 -20 13 -20 16 0 2
9 0 20 -6 11 -6 20 -13 20 -16z m1050 12 c0 -2 -7 -7 -16 -10 -8 -3 -12 -2 -9
4 6 10 25 14 25 6z m-170 -76 c-8 -5 -19 -10 -25 -10 -5 0 -3 5 5 10 8 5 20
10 25 10 6 0 3 -5 -5 -10z m-517 -47 c-7 -2 -19 -2 -25 0 -7 3 -2 5 12 5 14 0
19 -2 13 -5z m320 0 c-7 -2 -19 -2 -25 0 -7 3 -2 5 12 5 14 0 19 -2 13 -5z
m-115 -10 c-32 -2 -84 -2 -115 0 -32 2 -6 3 57 3 63 0 89 -1 58 -3z"/>
<path d="M4885 1970 c-207 -207 -257 -262 -245 -270 12 -7 70 45 268 243 218
218 277 287 244 287 -4 0 -124 -117 -267 -260z"/>
<path d="M4531 1634 c-25 -32 -26 -46 -6 -83 35 -69 135 -37 135 43 0 63 -89
90 -129 40z"/>
<path d="M4696 1525 c-5 -13 39 -15 354 -15 313 0 360 2 360 15 0 13 -46 15
-354 15 -305 0 -355 -2 -360 -15z"/>
<path d="M4610 1437 c0 -47 1 -47 416 -47 344 0 395 2 408 16 9 8 16 24 16 35
0 18 -12 19 -420 19 l-420 0 0 -23z"/>
<path d="M5127 1923 c-15 -17 -2 -18 251 -16 222 2 268 5 281 18 14 13 -13 15
-250 15 -241 0 -267 -2 -282 -17z"/>
<path d="M5125 1820 c-18 -20 -17 -20 247 -20 252 0 266 1 283 20 18 20 17 20
-247 20 -252 0 -266 -1 -283 -20z"/>
<path d="M5125 1720 c-18 -20 -17 -20 247 -20 252 0 266 1 283 20 18 20 17 20
-247 20 -252 0 -266 -1 -283 -20z"/>
<path d="M5011 680 c-14 -42 -15 -40 14 -40 29 0 29 -1 11 40 l-13 32 -12 -32z"/>
<path d="M5520 700 c0 -28 3 -31 28 -28 21 2 27 8 27 28 0 20 -6 26 -27 28
-25 3 -28 0 -28 -28z"/>
<path d="M5929 633 c-13 -16 -12 -17 4 -4 16 13 21 21 13 21 -2 0 -10 -8 -17
-17z"/>
</g>
</svg>
