<?xml version="1.0" encoding="UTF-8"?>
<svg version="1.1" xmlns="http://www.w3.org/2000/svg" width="1280" height="1041">
<path d="M0 0 C0.9505426 0.16755798 0.9505426 0.16755798 1.92028809 0.33850098 C36.82977101 6.51715207 69.97527057 16.55122069 101 34 C101.67643555 34.37624512 102.35287109 34.75249023 103.04980469 35.14013672 C118.00525962 43.5206675 130.63689713 54.20118813 143 66 C143.98033203 66.90105469 143.98033203 66.90105469 144.98046875 67.8203125 C176.02519537 97.16900892 189.29455111 140.06535887 196 181 C196.13097076 181.77529053 196.26194153 182.55058105 196.3968811 183.34936523 C199.03682281 199.40664299 199.50239429 215.35661764 199.44604492 231.59570312 C199.43687441 234.3583818 199.44376117 237.12021338 199.46655273 239.8828125 C199.61966339 258.55776603 198.40370344 276.59561351 195 295 C194.81030136 296.02820358 194.62060272 297.05640717 194.42515564 298.11576843 C186.83557646 338.61022525 170.56441666 377.02446694 142 407 C141.01773438 408.06154297 141.01773438 408.06154297 140.015625 409.14453125 C133.95876126 415.49906137 126.98886812 420.72569937 120 426 C119.43506836 426.43103027 118.87013672 426.86206055 118.28808594 427.30615234 C96.42557472 443.89789449 70.26758327 456.54941104 43.44824219 462.44042969 C40.77399957 463.05165467 38.12817678 463.74252989 35.4765625 464.4453125 C23.16196396 467.65231304 10.83010227 469.97498203 -1.75 471.8125 C-2.46511749 471.91763916 -3.18023499 472.02277832 -3.91702271 472.13110352 C-19.50426368 474.39788172 -34.88809271 475.23937219 -50.625 475.25 C-51.52906586 475.25067474 -52.43313171 475.25134949 -53.36459351 475.25204468 C-68.7742017 475.23387237 -83.75122964 474.36638929 -99 472 C-100.12583496 471.83371094 -101.25166992 471.66742187 -102.41162109 471.49609375 C-134.80408546 466.62436815 -166.14913234 456.61881796 -195 441 C-196.68996094 440.10087891 -196.68996094 440.10087891 -198.4140625 439.18359375 C-213.66108637 430.78896797 -228.20300968 420.81856481 -241 409 C-241.53286621 408.51096191 -242.06573242 408.02192383 -242.61474609 407.51806641 C-282.87202247 370.12522713 -300.01995272 313.52278908 -303 260 C-303.18133435 254.56175436 -303.24559399 249.12855339 -303.25 243.6875 C-303.25067474 242.9284436 -303.25134949 242.16938721 -303.25204468 241.3873291 C-303.16698761 180.34656178 -291.26246134 113.79242984 -248 68 C-246.87037767 66.67058052 -245.74520688 65.33736282 -244.625 64 C-211.32751749 26.16195169 -156.07791301 8.11327459 -108 0 C-106.96375488 -0.17789062 -105.92750977 -0.35578125 -104.85986328 -0.5390625 C-71.45424724 -5.94141465 -33.32053627 -5.98010218 0 0 Z M-108.96875 132.9453125 C-119.55543283 144.38431302 -121.67206625 159.31603453 -124.1875 174.1875 C-124.35443359 175.17234375 -124.52136719 176.1571875 -124.69335938 177.171875 C-126.5418242 188.59736538 -127.15273283 199.88803435 -127.1328125 211.453125 C-127.13376923 212.71098816 -127.13472595 213.96885132 -127.13571167 215.26483154 C-127.13638856 217.91715004 -127.13508396 220.56937476 -127.13037109 223.22167969 C-127.12363441 227.19728695 -127.13030489 231.17282928 -127.13671875 235.1484375 C-127.35670618 265.49647559 -127.35670618 265.49647559 -124.1875 295.625 C-124.01009277 296.70982666 -123.83268555 297.79465332 -123.64990234 298.91235352 C-120.60011499 316.89153758 -115.56982531 332.31975627 -101.20703125 344.5234375 C-82.12134494 357.75280947 -54.08475304 360.1167482 -31.7421875 356.72265625 C-16.10002024 353.70198721 -1.03922364 348.54031544 8.93359375 335.46484375 C10.77829822 332.70770482 12.41781115 329.91518296 14 327 C14.474375 326.14277344 14.94875 325.28554688 15.4375 324.40234375 C24.91389806 304.80086562 23.16034255 278.69304152 23.203125 257.359375 C23.20595238 256.3918354 23.20877975 255.42429581 23.21169281 254.42743683 C23.22658284 249.2999292 23.23587469 244.17244893 23.24023438 239.04492188 C23.24460464 234.86970207 23.25845464 230.69469058 23.28125 226.51953125 C24.92662538 185.49376327 24.92662538 185.49376327 16 146 C15.65324219 145.19304687 15.30648437 144.38609375 14.94921875 143.5546875 C8.84213921 131.17263619 -2.86016471 123.53630826 -15.40234375 118.68359375 C-18.58265915 117.65878344 -21.75270213 116.78483286 -25 116 C-25.84304688 115.78730469 -26.68609375 115.57460938 -27.5546875 115.35546875 C-54.41129004 109.54072147 -88.74909025 112.96636298 -108.96875 132.9453125 Z " fill="#000000" transform="translate(1081,287)"/>
<path d="M0 0 C3.25025182 1.79566628 6.54991835 3.49658241 9.84155273 5.21484375 C13.56448348 7.16100709 17.27623237 9.12808019 20.98681641 11.09765625 C22.24387138 8.58354631 22.17812231 6.7172422 22.26806641 3.90625 C22.30544922 2.87951172 22.34283203 1.85277344 22.38134766 0.79492188 C22.45178641 -1.38215738 22.52209846 -3.55924073 22.59228516 -5.73632812 C22.62966797 -6.76177734 22.66705078 -7.78722656 22.70556641 -8.84375 C22.73585938 -9.78935791 22.76615234 -10.73496582 22.79736328 -11.70922852 C22.98681641 -13.90234375 22.98681641 -13.90234375 23.98681641 -14.90234375 C26.94584792 -15.14628153 29.88248639 -15.3265261 32.84716797 -15.45874023 C33.74807285 -15.50092147 34.64897774 -15.5431027 35.57718277 -15.58656216 C44.79370233 -15.98724257 53.99771923 -16.0299155 63.22119141 -16 C64.96380573 -15.998127 66.7064206 -15.99670729 68.44903564 -15.99571228 C72.95987491 -15.99195638 77.4706802 -15.98218842 81.98150635 -15.9710083 C86.61478211 -15.96064211 91.24806355 -15.95618263 95.88134766 -15.95117188 C104.91651856 -15.94055733 113.95166462 -15.92356817 122.98681641 -15.90234375 C124.66637114 -12.54323429 124.23380396 -8.74198174 124.30322266 -5.04296875 C124.32404907 -4.07917297 124.34487549 -3.1153772 124.36633301 -2.12237549 C124.43424549 1.2008733 124.49253826 4.5241993 124.54931641 7.84765625 C124.5704953 9.00418701 124.59167419 10.16071777 124.61349487 11.35229492 C125.39681794 55.59206838 125.07199125 99.8530918 124.98681641 144.09765625 C108.05564628 145.15127485 91.14935953 145.55022621 74.18787098 145.69790936 C69.5019229 145.73919058 64.81801565 145.80052443 60.13305664 145.90698242 C55.54739767 146.01070387 50.96356893 146.06528504 46.37680626 146.0853672 C44.643496 146.10124723 42.91024962 146.13435939 41.17762184 146.18552208 C27.70566704 146.56530116 27.70566704 146.56530116 23.41767883 142.9039917 C21.6334938 140.36954792 20.2969197 137.89890532 18.98681641 135.09765625 C16.12995557 131.62424061 13.0702261 128.37039812 9.98681641 125.09765625 C9.10123047 124.09798828 9.10123047 124.09798828 8.19775391 123.078125 C-10.58897348 102.76032071 -39.27406145 92.31546041 -65.38818359 85.78515625 C-66.41384933 85.52833572 -66.41384933 85.52833572 -67.4602356 85.2663269 C-85.51882057 80.78331889 -102.9113827 78.92233767 -121.51318359 78.78515625 C-122.82416016 78.75615234 -124.13513672 78.72714844 -125.48583984 78.69726562 C-136.60519539 78.62549223 -146.26117078 79.89161804 -155.01318359 87.09765625 C-155.67318359 87.09765625 -156.33318359 87.09765625 -157.01318359 87.09765625 C-157.32255859 87.71640625 -157.63193359 88.33515625 -157.95068359 88.97265625 C-158.63818359 90.34765625 -159.32568359 91.72265625 -160.01318359 93.09765625 C-160.63267607 98.26009352 -159.95746259 101.8681529 -156.91870117 106.02001953 C-147.01104823 116.82259821 -128.3968341 119.37075324 -114.95068359 123.09765625 C-112.29972328 123.84299283 -109.65018577 124.59332074 -107.00073242 125.34399414 C-102.26771977 126.68356954 -97.53342606 128.01840197 -92.79713726 129.34634876 C-80.91313913 132.67861817 -69.05602144 136.10255605 -57.20068359 139.53515625 C-52.98602346 140.75454192 -48.77114747 141.97317907 -44.55615234 143.19140625 C-42.95621681 143.65407143 -42.95621681 143.65407143 -41.32395935 144.12608337 C-34.54623815 146.08393755 -27.76445058 148.02702702 -20.97962284 149.9600668 C-15.38324014 151.55478053 -9.78897652 153.15679655 -4.19592953 154.76316929 C-0.81261932 155.73445115 2.57162077 156.70212528 5.95864868 157.66036987 C54.90029224 171.51515091 98.22400976 195.30466395 123.98681641 241.09765625 C134.83634281 261.24421272 140.40512889 281.36334466 140.29931641 304.34765625 C140.29440186 305.61963867 140.2894873 306.89162109 140.28442383 308.20214844 C140.16482517 317.83137401 139.3534584 326.77365708 136.98681641 336.09765625 C136.81520996 336.78682129 136.64360352 337.47598633 136.46679688 338.18603516 C131.23016739 358.79093206 122.0358999 378.03061349 107.98681641 394.09765625 C107.15408203 395.06316406 106.32134766 396.02867187 105.46337891 397.0234375 C73.50294315 433.40362459 24.20856304 447.25252687 -22.63818359 450.72265625 C-77.06021889 453.87340566 -135.20320967 443.8002338 -182.68847656 416.41455078 C-187.35968265 413.76841702 -192.18544937 411.44233163 -197.01318359 409.09765625 C-197.00794678 409.78802979 -197.00270996 410.47840332 -196.99731445 411.18969727 C-196.97640492 414.34650751 -196.96347918 417.50330311 -196.95068359 420.66015625 C-196.94230469 421.74619141 -196.93392578 422.83222656 -196.92529297 423.95117188 C-196.92207031 425.01142578 -196.91884766 426.07167969 -196.91552734 427.1640625 C-196.91029053 428.13287354 -196.90505371 429.10168457 -196.8996582 430.09985352 C-197.02782665 433.48432734 -197.48546193 436.75420169 -198.01318359 440.09765625 C-207.30473055 440.27115015 -216.59639883 440.43743474 -225.88818359 440.59765625 C-226.92102289 440.61547213 -226.92102289 440.61547213 -227.97472763 440.63364792 C-252.32224537 441.05119074 -276.66189511 441.23148848 -301.01318359 441.09765625 C-301.97104087 432.60584717 -302.15583864 424.20886717 -302.14257812 415.66870117 C-302.14393641 414.2513881 -302.14571873 412.83407537 -302.14788818 411.41676331 C-302.15241298 407.5984057 -302.15069316 403.78007539 -302.1475091 399.96171737 C-302.14495824 395.94309023 -302.14733071 391.92446526 -302.14889526 387.90583801 C-302.15070968 381.15686631 -302.14833045 374.40790558 -302.14355469 367.65893555 C-302.13812011 359.88993039 -302.13987183 352.12095152 -302.14538109 344.35194701 C-302.14994095 337.65007339 -302.15054858 330.94820762 -302.14794242 324.24633294 C-302.14639453 320.25763889 -302.14614446 316.26895713 -302.14947891 312.2802639 C-302.15239938 308.52501275 -302.15030647 304.76979495 -302.14458466 301.01454735 C-302.1426633 299.00393086 -302.14557562 296.9933115 -302.14871216 294.98269653 C-302.12961204 286.63898135 -301.71383223 278.41114804 -301.01318359 270.09765625 C-298.12518626 270.02369582 -295.23717061 269.95078642 -292.34912109 269.87890625 C-291.43000443 269.85598511 -290.51088776 269.83306396 -289.56391907 269.80944824 C-284.38811952 269.68376985 -279.21251675 269.5737301 -274.03588867 269.48828125 C-271.85514221 269.45188373 -269.67439678 269.41542452 -267.49365234 269.37890625 C-266.38695694 269.36069824 -265.28026154 269.34249023 -264.14002991 269.32373047 C-257.48535237 269.20161361 -250.84524679 268.97447285 -244.1973877 268.65124512 C-240.03130728 268.45917991 -235.86454079 268.32749543 -231.69586182 268.20629883 C-229.71222732 268.13434746 -227.72936984 268.03556478 -225.74847412 267.90893555 C-210.65741426 266.9636457 -210.65741426 266.9636457 -206.21350098 270.55007935 C-203.06643596 274.11191455 -200.88582051 278.06674135 -198.86964417 282.34848022 C-186.69780745 307.20740039 -153.18263234 323.09443472 -128.35302734 331.75390625 C-112.80241122 336.97103954 -96.92099438 340.16499722 -80.48193359 340.3359375 C-79.69606369 340.3455954 -78.91019379 340.3552533 -78.10050964 340.36520386 C-75.57135224 340.38989223 -73.0424483 340.40258333 -70.51318359 340.41015625 C-69.64923981 340.41310699 -68.78529602 340.41605774 -67.89517212 340.4190979 C-36.75921982 340.84976331 -36.75921982 340.84976331 -9.01318359 329.09765625 C-7.31171371 326.77747005 -7.01832784 325.12659265 -6.51318359 322.28515625 C-7.23144932 317.70621225 -9.45834482 315.00254315 -13.01318359 312.09765625 C-18.29000088 309.0997454 -23.7462781 307.01556075 -29.52099609 305.20703125 C-30.3386998 304.94564865 -31.1564035 304.68426605 -31.99888611 304.41496277 C-34.70965434 303.55163853 -37.42366941 302.69912332 -40.13818359 301.84765625 C-41.08724579 301.54763702 -42.03630798 301.2476178 -43.01412964 300.93850708 C-64.99568025 293.99077713 -87.10991039 287.4924108 -109.22439575 280.9835968 C-133.21733996 273.91885287 -157.17826125 266.74246691 -180.99761963 259.10995483 C-182.67266474 258.57405857 -184.3486828 258.04119059 -186.02581787 257.51187134 C-216.22051929 247.95980484 -243.57307818 233.52140851 -267.01318359 212.09765625 C-267.84462891 211.33839844 -268.67607422 210.57914063 -269.53271484 209.796875 C-293.62764494 186.71469153 -305.16765655 155.14191446 -306.21630859 122.109375 C-306.40044196 109.49623924 -305.44155249 97.47467463 -303.01318359 85.09765625 C-302.87928223 84.39447266 -302.74538086 83.69128906 -302.60742188 82.96679688 C-296.62675688 52.66476088 -278.01031775 24.72240118 -252.52880859 7.43359375 C-251.35764314 6.65388109 -250.18579534 5.87519213 -249.01318359 5.09765625 C-247.48951172 4.06511719 -247.48951172 4.06511719 -245.93505859 3.01171875 C-179.04194107 -40.38304724 -69.07404128 -38.59519151 0 0 Z " fill="#000000" transform="translate(628.01318359375,310.90234375)"/>
<path d="M0 0 C3.57552037 0.00190122 7.15103567 0.00022549 10.72655588 -0.00144988 C21.27763454 -0.00636533 31.82869512 -0.00182845 42.37977147 0.00543904 C48.33090498 0.00946492 54.28203809 0.01129392 60.23317266 0.01290441 C106.86815821 0.027204 153.50223751 0.08912044 200.13536 0.54037786 C203.39397798 0.57171861 206.65260806 0.60142781 209.91124272 0.63097692 C214.88949791 0.67703103 219.8676499 0.72907415 224.84578061 0.78702664 C226.61839446 0.80726426 228.39102534 0.82607034 230.16367078 0.84332013 C232.51812665 0.86695868 234.87240942 0.89686579 237.22676396 0.92888951 C238.52649144 0.94443379 239.82621892 0.95997808 241.16533208 0.97599339 C244.01826787 1.13421178 244.01826787 1.13421178 245.01826787 2.13421178 C245.27464482 4.81914846 245.44847531 7.47265427 245.57295537 10.16546178 C245.61500096 11.07155187 245.65704656 11.97764195 245.70036626 12.91118932 C246.30218039 27.99082421 246.16778673 43.09523643 246.14863896 58.18401647 C246.14290812 62.74351286 246.14625596 67.30295079 246.15221143 71.86244512 C246.15584809 75.42295314 246.15466486 78.98344758 246.15208364 82.54395604 C246.15142473 84.22461001 246.15220575 85.90526527 246.15456319 87.58591771 C246.15714551 89.93993907 246.15317376 92.293869 246.1476624 94.64788365 C246.14968663 95.31621221 246.15171086 95.98454076 246.15379643 96.67312169 C246.12581181 103.22961844 245.5260553 109.53297522 245.01826787 116.13421178 C222.57826787 116.46421178 200.13826787 116.79421178 177.01826787 117.13421178 C177.02350469 122.94893102 177.0287415 128.76365026 177.03413701 134.75457311 C177.05080059 154.09263637 177.06184109 173.43069995 177.07008004 192.76876855 C177.07520333 204.47888425 177.08216892 216.18899307 177.09370732 227.89910436 C177.10377696 238.1235994 177.11015001 248.34808947 177.11235636 258.57258934 C177.11364297 263.97002154 177.11659492 269.3674395 177.12399793 274.76486707 C177.15718463 299.908089 176.91801545 325.00599814 176.01826787 350.13421178 C198.99250093 351.41055806 222.01303002 351.68312868 245.01826787 352.13421178 C245.01826787 389.09421178 245.01826787 426.05421178 245.01826787 464.13421178 C146.01826787 464.13421178 47.01826787 464.13421178 -54.98173213 464.13421178 C-54.98173213 427.17421178 -54.98173213 390.21421178 -54.98173213 352.13421178 C-32.65288805 351.57599068 -10.31755289 351.13421178 12.01826787 351.13421178 C12.34826787 273.91421178 12.67826787 196.69421178 13.01826787 117.13421178 C-16.18673213 116.63921178 -16.18673213 116.63921178 -45.98173213 116.13421178 C-49.94173213 115.63921178 -49.94173213 115.63921178 -53.98173213 115.13421178 C-54.99750113 103.88733938 -55.12905407 92.72968098 -55.11454463 81.44671178 C-55.11522035 79.57211855 -55.11619259 77.69752541 -55.1174438 75.82293248 C-55.11890819 71.91659252 -55.11680706 68.0102756 -55.11210322 64.10393834 C-55.10640673 59.13517475 -55.10969253 54.16646521 -55.11567569 49.1977036 C-55.1193155 45.33346719 -55.11812711 41.46924327 -55.1155479 37.60500646 C-55.11488806 35.77446033 -55.11567344 33.94391301 -55.11802745 32.11336827 C-55.12845035 21.73437475 -54.91604049 11.47912969 -53.98173213 1.13421178 C-36.00015169 -0.11246658 -18.01360116 -0.01339124 0 0 Z " fill="#000000" transform="translate(54.98173213005066,287.86578822135925)"/>
<path d="M0 0 C3.4031907 3.61714375 5.98077591 7.90952037 8.6875 12.0625 C15.56202427 22.4839727 23.13008847 32.31045574 31 42 C31.72058594 42.89589844 32.44117188 43.79179688 33.18359375 44.71484375 C37.59412162 50.16494144 42.12999154 55.45694879 46.859375 60.6328125 C49.47779338 63.52836275 51.99373237 66.50455312 54.4921875 69.50390625 C56.03827955 71.25927146 56.03827955 71.25927146 59 72 C62.03619289 71.10955304 62.03619289 71.10955304 65.46484375 69.67578125 C66.81831287 69.14189054 68.17183084 68.60812367 69.52539062 68.07446289 C70.24315674 67.78749542 70.96092285 67.50052795 71.70043945 67.2048645 C84.99670114 61.90097948 98.40230592 57.03461515 112 52.5625 C112.72420135 52.32423492 113.44840271 52.08596985 114.19454956 51.84048462 C117.69060308 50.69227657 121.1885453 49.54997657 124.6875 48.41064453 C132.1381251 45.98021629 139.5676436 43.48560165 147 41 C145.26655586 35.57946788 143.3780657 30.33621805 141.046875 25.13671875 C140.50477042 23.9083963 139.96311611 22.67987504 139.421875 21.45117188 C138.58176822 19.55524854 137.73813061 17.66113961 136.88671875 15.77026367 C136.05478 13.91763294 135.23735947 12.059139 134.421875 10.19921875 C133.68855957 8.55699341 133.68855957 8.55699341 132.94042969 6.8815918 C132 4 132 4 133 0 C139.6 0 146.2 0 153 0 C158.66666667 11.33333333 164.33333333 22.66666667 170 34 C176.87184076 33.0533457 183.73119069 32.07190276 190.56640625 30.88671875 C223.77443765 25.15403919 257.34517301 21.64592958 291 20 C292.05162473 16.20856161 292.06583189 12.81668452 292 8.875 C291.88933602 2.22132797 291.88933602 2.22132797 293 0 C299.27 0 305.54 0 312 0 C313.11823815 2.23647631 313.19396061 3.64891529 313.31640625 6.1328125 C313.35451416 6.85871582 313.39262207 7.58461914 313.43188477 8.33251953 C313.47498779 9.25403809 313.51809082 10.17555664 313.5625 11.125 C313.64024026 12.7081855 313.71830445 14.29135511 313.79663086 15.87451172 C313.86442057 17.24967448 313.93221029 18.62483724 314 20 C315.92428833 20.0626001 315.92428833 20.0626001 317.88745117 20.12646484 C332.77274031 20.67209569 347.51059942 21.99041758 362.3125 23.625 C363.49535583 23.7536142 364.67821167 23.88222839 365.89691162 24.01473999 C389.77377463 26.63053922 413.45651047 30.22843639 437 35 C437.50974365 33.97527588 438.0194873 32.95055176 438.54467773 31.89477539 C440.43052128 28.10503292 442.31898288 24.31660023 444.20825195 20.52856445 C445.02667959 18.8866702 445.84438997 17.24441822 446.66137695 15.60180664 C447.83357854 13.24531891 449.00832579 10.89011585 450.18359375 8.53515625 C450.55028671 7.79660904 450.91697968 7.05806183 451.29478455 6.2971344 C453.88612829 1.11387171 453.88612829 1.11387171 455 0 C456.4887186 -0.08669432 457.981445 -0.10703494 459.47265625 -0.09765625 C460.37177734 -0.09443359 461.27089844 -0.09121094 462.19726562 -0.08789062 C463.14279297 -0.07951172 464.08832031 -0.07113281 465.0625 -0.0625 C466.01189453 -0.05798828 466.96128906 -0.05347656 467.93945312 -0.04882812 C470.29303065 -0.0370011 472.64648477 -0.02052025 475 0 C473.89341456 9.07693728 470.16488694 16.83687421 466.3125 25 C465.38295891 26.97837129 464.45674839 28.95800968 463.54008484 30.94238281 C462.71764337 32.72192179 461.88318418 34.49589201 461.0480957 36.26953125 C460.70222412 37.17058594 460.35635254 38.07164062 460 39 C460.86498937 41.30323909 460.86498937 41.30323909 463.71435547 41.98632812 C465.52250732 42.50356445 465.52250732 42.50356445 467.3671875 43.03125 C468.72794289 43.42811702 470.08861639 43.82526489 471.44921875 44.22265625 C472.17028809 44.43035645 472.89135742 44.63805664 473.63427734 44.85205078 C492.17783922 50.214288 510.2170572 56.5736785 528.08984375 63.88671875 C529.81364258 64.58958008 529.81364258 64.58958008 531.57226562 65.30664062 C533.76466522 66.20624974 535.95246755 67.11717166 538.13476562 68.04101562 C539.10994141 68.44384766 540.08511719 68.84667969 541.08984375 69.26171875 C541.94441162 69.62225342 542.79897949 69.98278809 543.67944336 70.35424805 C546.27439558 71.07635732 547.51215606 70.96361099 550 70 C555.64976962 65.4753451 560.15725167 59.51744663 564.66015625 53.8984375 C566.99239701 51.00941806 569.39787046 48.1952873 571.8125 45.375 C577.44347053 38.63001985 582.42832377 31.47719332 587.42822266 24.25830078 C589.04715942 21.93224221 590.68281319 19.61884449 592.32421875 17.30859375 C592.86643066 16.54506592 593.40864258 15.78153809 593.96728516 14.99487305 C595.00388721 13.53611029 596.04127813 12.07790768 597.07958984 10.62036133 C597.54961426 9.95673584 598.01963867 9.29311035 598.50390625 8.609375 C598.91455322 8.03155273 599.3252002 7.45373047 599.74829102 6.85839844 C601.11495851 4.9201778 601.11495851 4.9201778 602.32324219 2.30493164 C604 0 604 0 606.4519043 -0.56762695 C607.87369995 -0.52835083 607.87369995 -0.52835083 609.32421875 -0.48828125 C610.35224609 -0.47216797 611.38027344 -0.45605469 612.43945312 -0.43945312 C614.04723633 -0.37661133 614.04723633 -0.37661133 615.6875 -0.3125 C616.77095703 -0.28994141 617.85441406 -0.26738281 618.97070312 -0.24414062 C621.64851905 -0.1851579 624.32357027 -0.10290307 627 0 C625.97573926 4.99564044 623.29394849 8.92743659 620.6875 13.25 C620.15350586 14.1380835 619.61951172 15.02616699 619.06933594 15.94116211 C614.27998753 23.7754082 608.9431916 31.06413823 603.30615234 38.30126953 C601.49518315 40.65654498 599.78035108 43.07628139 598.0625 45.5 C592.6989569 52.91956795 586.81553369 59.93387246 581 67 C579.27000491 69.10348993 577.54092785 71.20772092 575.8125 73.3125 C575.11769531 74.15425781 574.42289063 74.99601563 573.70703125 75.86328125 C571.87775806 78.09023641 571.87775806 78.09023641 570 81 C577.96562801 86.22719169 586.1384902 90.93832143 594.5 95.5 C616.5049505 107.5049505 616.5049505 107.5049505 620 111 C622.25947913 111.54158954 622.25947913 111.54158954 625 111 C627.3871323 109.25827755 629.46648492 107.55224598 631.625 105.5625 C632.87520362 104.44668469 634.12651666 103.33211122 635.37890625 102.21875 C635.9939502 101.66703125 636.60899414 101.1153125 637.24267578 100.546875 C639.61224205 98.4610773 642.08228732 96.51462041 644.5625 94.5625 C649.51460356 90.55539845 653.97916063 86.16905384 658.41040039 81.60375977 C660.90706681 79.0400952 663.40971081 76.60419419 666.18359375 74.33984375 C668.49662386 72.41820015 670.35027405 70.61716753 672.25 68.3125 C674.98158473 65.09957875 677.8558389 62.13188311 680.875 59.1875 C685.18987121 54.92485113 689.02012587 50.43267822 692.80078125 45.6953125 C694.86833412 43.16136671 697.02280754 40.76852195 699.25 38.375 C703.203477 34.02893034 706.81252705 29.47873506 710.375 24.8125 C710.92575195 24.0911084 711.47650391 23.3697168 712.04394531 22.62646484 C714.79421077 18.99569554 717.48684443 15.33516417 720.1015625 11.60546875 C720.59092285 10.91412842 721.0802832 10.22278809 721.58447266 9.51049805 C722.50582379 8.20188705 723.41508132 6.8846493 724.31005859 5.55786133 C726.1157834 2.99640725 727.39593012 1.22851328 730.375 0.1015625 C731.24125 0.06804688 732.1075 0.03453125 733 0 C734.670625 -0.06574219 734.670625 -0.06574219 736.375 -0.1328125 C738.169375 -0.12894531 738.169375 -0.12894531 740 -0.125 C741.19625 -0.12757813 742.3925 -0.13015625 743.625 -0.1328125 C746.56448439 -0.01713835 749.1377576 0.38517959 752 1 C748.70546906 7.23836556 745.05066909 13.00534705 740.875 18.6875 C740.3087793 19.46424072 739.74255859 20.24098145 739.15917969 21.04125977 C733.93962292 28.16155887 728.53874524 35.12604095 723 42 C721.88044922 43.39412109 721.88044922 43.39412109 720.73828125 44.81640625 C707.0419571 61.70935902 692.47282067 77.59590622 677.125 93 C676.24529541 93.88437744 675.36559082 94.76875488 674.45922852 95.67993164 C669.46561403 100.66124309 664.35777576 105.41527877 659 110 C657.84325976 111.02141129 656.688271 112.04481 655.53515625 113.0703125 C647.01770665 120.58628254 638.21042487 127.60226136 629.11865234 134.40917969 C627.03570709 135.97318882 624.96390459 137.55090477 622.89453125 139.1328125 C614.15768817 145.79016 605.25334315 152.08136835 596 158 C595.2255957 158.49612793 594.45119141 158.99225586 593.65332031 159.50341797 C580.41580166 167.93980442 566.89439567 175.70062925 553 183 C552.04125977 183.50998535 551.08251953 184.0199707 550.09472656 184.54541016 C498.28899426 211.96845771 441.18797083 229.2303815 383.3125 237.8125 C382.649086 237.91186859 381.985672 238.01123718 381.30215454 238.11361694 C377.26745642 238.71033176 373.22897663 239.24932682 369.17999268 239.73727417 C367.71881133 239.91337113 366.25830736 240.09517659 364.79852295 240.28250122 C346.58823723 242.56030547 328.27307076 242.34093618 309.95410156 242.31567383 C306.33223001 242.31105513 302.71069528 242.31792926 299.08886719 242.33618164 C276.8408908 242.4472133 255.09013644 241.84151274 233 239 C231.43834128 238.80975154 229.87665865 238.61969913 228.31494141 238.42993164 C224.71955188 237.96560836 221.14255492 237.44472917 217.5625 236.875 C216.27359863 236.67036133 214.98469727 236.46572266 213.65673828 236.25488281 C178.29343371 230.45356174 143.41351346 220.90976656 110 208 C109.15824219 207.67676758 108.31648437 207.35353516 107.44921875 207.02050781 C95.50283924 202.40986595 83.79965539 197.3286796 72.16162109 191.99121094 C70.21005098 191.09631884 68.25624943 190.20664676 66.30078125 189.3203125 C63.86577018 188.2166071 61.43211347 187.11007014 59 186 C59 185.34 59 184.68 59 184 C58.27594971 183.88479004 57.55189941 183.76958008 56.8059082 183.65087891 C53.89675621 182.97605082 51.73109545 181.99613373 49.10546875 180.5859375 C48.16219727 180.08006104 47.21892578 179.57418457 46.24707031 179.05297852 C45.23741211 178.49924561 44.22775391 177.9455127 43.1875 177.375 C42.13014648 176.79741943 41.07279297 176.21983887 39.98339844 175.62475586 C5.59452056 156.61622474 -26.68907457 133.48030854 -55.74609375 107.03515625 C-57.76099039 105.21581284 -59.80894881 103.44809804 -61.875 101.6875 C-66.02498416 98.08690275 -69.8648418 94.19174442 -73.70068359 90.26245117 C-76.64782611 87.26381947 -79.71799883 84.61902597 -83 82 C-84.11811528 80.8023857 -85.20344229 79.57312634 -86.25 78.3125 C-88.83272322 75.28255198 -91.52036891 72.46255949 -94.375 69.6875 C-98.52966054 65.58926948 -102.18819096 61.21729494 -105.83203125 56.6640625 C-107.7376723 54.32235584 -109.70580013 52.09490677 -111.75 49.875 C-122.05053525 38.3890857 -130.90398679 25.55405126 -139.671875 12.88574219 C-140.57979025 11.59663605 -141.5079967 10.32164688 -142.453125 9.05957031 C-146 4.30466555 -146 4.30466555 -146 1 C-142.08560579 -0.26073995 -138.13235073 -0.22032014 -134.0625 -0.25 C-133.35931641 -0.270625 -132.65613281 -0.29125 -131.93164062 -0.3125 C-127.37668146 -0.34665152 -124.53607087 0.09149119 -121 3 C-119.31486655 5.10146053 -117.80408469 7.1468677 -116.3125 9.375 C-115.43420088 10.6432514 -114.55394361 11.91014864 -113.671875 13.17578125 C-113.22779297 13.81596191 -112.78371094 14.45614258 -112.32617188 15.11572266 C-106.34781597 23.61000669 -99.75336973 31.64350962 -92.98364258 39.51367188 C-91.08251926 41.72853691 -89.19687019 43.9547894 -87.32666016 46.19580078 C-80.44479815 54.40032121 -73.18126375 62.10351823 -65.57128906 69.63452148 C-63.73172541 71.45559087 -61.90052859 73.28477504 -60.0703125 75.11523438 C-54.21509195 80.95307261 -48.32424751 86.66643771 -42 92 C-40.84619149 93.00743947 -39.69382655 94.01653483 -38.54296875 95.02734375 C-31.5983015 101.067069 -24.56907751 106.74798703 -17 112 C10.54804767 98.76494899 10.54804767 98.76494899 36 82 C35.46596558 81.36106812 35.46596558 81.36106812 34.92114258 80.70922852 C26.51687805 70.63298173 18.380486 60.39955645 10.47119141 49.93115234 C9.12614503 48.16558366 7.76307938 46.41698585 6.38671875 44.67578125 C-2.6541399 33.18365311 -10.67523683 21.0007297 -18.25 8.5 C-18.63293213 7.87109863 -19.01586426 7.24219727 -19.41040039 6.59423828 C-22 2.24691232 -22 2.24691232 -22 0 C-5.38959443 -1.85511402 -5.38959443 -1.85511402 0 0 Z M249.5 44.0625 C247.66791992 44.24897095 247.66791992 44.24897095 245.79882812 44.43920898 C233.64448353 45.73696799 221.56983857 47.64943207 209.5 49.5625 C208.04484985 49.79285446 208.04484985 49.79285446 206.56030273 50.02786255 C203.77868327 50.47171098 200.99847513 50.9233571 198.21875 51.37890625 C197.39084961 51.51220337 196.56294922 51.64550049 195.70996094 51.78283691 C191.02604612 52.56437466 186.49828926 53.4580341 182 55 C181.67 55.66 181.34 56.32 181 57 C181.98089775 59.32048801 181.98089775 59.32048801 183.5078125 61.92578125 C184.0757251 62.93946777 184.6436377 63.9531543 185.22875977 64.99755859 C185.85451904 66.09148926 186.48027832 67.18541992 187.125 68.3125 C187.76300537 69.43736816 188.40101074 70.56223633 189.05834961 71.72119141 C204.58976417 98.92466447 221.76084076 125.87076572 242.1328125 149.75 C244 152 244 152 245.4921875 154.25 C246.89711969 156.28199231 247.97729116 157.58703123 250 159 C252.2350045 159.18921909 252.2350045 159.18921909 254.72265625 158.796875 C255.69976563 158.68053711 256.676875 158.56419922 257.68359375 158.44433594 C258.77800781 158.29770508 259.87242187 158.15107422 261 158 C262.21300781 157.85079102 263.42601562 157.70158203 264.67578125 157.54785156 C267.96537426 157.13747814 271.25170102 156.71078285 274.53735352 156.27050781 C276.59010847 155.99631221 278.64363615 155.72849553 280.69726562 155.4609375 C281.99470703 155.28820312 283.29214844 155.11546875 284.62890625 154.9375 C285.80525635 154.78152344 286.98160645 154.62554688 288.19360352 154.46484375 C290.94361555 154.15112688 290.94361555 154.15112688 293 153 C293.09932287 130.55360444 292.82431877 108.1144671 292.53643799 85.67041016 C292.47487813 80.84213778 292.41526775 76.01384132 292.35546875 71.18554688 C292.23883298 61.79034074 292.12012088 52.39516218 292 43 C270.71874838 42.71630522 270.71874838 42.71630522 249.5 44.0625 Z M315 43 C313.52696242 45.94607515 313.77698276 48.65020668 313.68359375 51.9375 C313.66272202 52.63998871 313.64185028 53.34247742 313.62034607 54.06625366 C313.55376249 56.37738609 313.49496924 58.68862394 313.4375 61 C313.41665344 61.79674133 313.39580688 62.59348267 313.37432861 63.41436768 C312.79767043 85.60597631 312.98733517 107.74546126 313.4375 129.9375 C313.4570575 130.95809509 313.47661499 131.97869019 313.49676514 133.0302124 C313.55395471 135.94605796 313.61772923 138.86168273 313.68359375 141.77734375 C313.70031631 142.66361954 313.71703888 143.54989532 313.73426819 144.46302795 C313.75420334 145.28081223 313.77413849 146.0985965 313.79467773 146.94116211 C313.81022202 147.65549911 313.8257663 148.36983612 313.84178162 149.1058197 C313.94369097 151.22467805 313.94369097 151.22467805 315 154 C315.79696289 154.11593506 316.59392578 154.23187012 317.41503906 154.35131836 C321.02700139 154.8779532 324.63850191 155.4076914 328.25 155.9375 C329.50425781 156.11990234 330.75851562 156.30230469 332.05078125 156.49023438 C333.25605469 156.66748047 334.46132813 156.84472656 335.703125 157.02734375 C336.81333008 157.18968506 337.92353516 157.35202637 339.06738281 157.51928711 C341.43254152 157.90698254 343.68900073 158.3798291 346 159 C350.65069625 160.03348806 354.37162531 160.2707368 359 159 C363.4300834 155.64429468 366.43559991 150.73243086 369.51269531 146.1796875 C370.91323479 144.1271569 372.36932449 142.13844585 373.8671875 140.15625 C389.84529084 118.8714349 404.58264901 96.30034726 417.74707031 73.17822266 C418.91589089 71.14622398 420.11560001 69.13809333 421.3359375 67.13671875 C421.98820313 66.06035156 422.64046875 64.98398437 423.3125 63.875 C424.11107422 62.57175781 424.11107422 62.57175781 424.92578125 61.2421875 C426.28804463 58.81314435 426.28804463 58.81314435 426 55 C402.05457542 50.28401041 378.35935032 45.88009856 354 44 C352.58184097 43.87188066 351.16384107 43.74197258 349.74609375 43.609375 C338.19634051 42.64583905 326.58019098 42.90648374 315 43 Z M449 61 C444.32077877 67.21282786 440.62560404 74.08269476 436.875 80.875 C424.72979807 102.58509181 410.87476609 123.24762333 396.625 143.625 C395.75210327 144.87398071 395.75210327 144.87398071 394.86157227 146.14819336 C392.39566616 149.65863308 389.91519904 153.14703754 387.30859375 156.5546875 C386.19677734 158.01261719 386.19677734 158.01261719 385.0625 159.5 C384.43472656 160.2940625 383.80695312 161.088125 383.16015625 161.90625 C381.81928095 163.88888523 381.81928095 163.88888523 382.10644531 165.9675293 C383.41876219 168.95251236 385.17053888 169.36654674 388.13671875 170.61328125 C389.18923828 171.05607422 390.24175781 171.49886719 391.32617188 171.95507812 C392.43541016 172.40302734 393.54464844 172.85097656 394.6875 173.3125 C396.32235352 174.01342773 396.32235352 174.01342773 397.99023438 174.72851562 C405.277146 177.75933031 405.277146 177.75933031 413 177 C415.46381378 175.91012473 417.7675603 174.78468528 420.125 173.5 C420.8380127 173.11545654 421.55102539 172.73091309 422.28564453 172.3347168 C441.39416805 161.85335686 459.79675541 150.39740107 477 137 C478.27056382 136.02438849 479.54138701 135.04911465 480.8125 134.07421875 C498.32399969 120.55603096 514.48035151 105.74825215 530 90 C526.66985807 86.36571794 522.85064889 84.90484772 518.375 83 C517.47056152 82.61481201 516.56612305 82.22962402 515.63427734 81.83276367 C483.1264693 67.50635628 483.1264693 67.50635628 449 61 Z M75 91 C78.71535632 94.76252392 82.44189596 98.51366608 86.1875 102.24609375 C86.82042969 102.87700928 87.45335937 103.5079248 88.10546875 104.15795898 C90.60264804 106.58595096 93.16372537 108.92095682 95.828125 111.1640625 C97.61571368 112.67515365 99.36556829 114.21269947 101.109375 115.7734375 C128.49012613 140.13539186 159.60797821 160.01515636 192 177 C192.6489624 177.39936768 193.2979248 177.79873535 193.96655273 178.21020508 C197.58727171 179.61649946 200.3783513 178.24394078 203.86254883 176.87670898 C204.88372803 176.42110596 205.90490723 175.96550293 206.95703125 175.49609375 C208.06884766 175.00302734 209.18066406 174.50996094 210.32617188 174.00195312 C211.47666016 173.48568359 212.62714844 172.96941406 213.8125 172.4375 C214.98232422 171.91736328 216.15214844 171.39722656 217.35742188 170.86132812 C220.24032843 169.57872888 223.12106231 168.29147717 226 167 C224.72922456 163.54459484 223.2639011 160.69419401 221.12890625 157.69921875 C220.56010742 156.89508545 219.99130859 156.09095215 219.40527344 155.26245117 C218.7971582 154.41271729 218.18904297 153.5629834 217.5625 152.6875 C216.28723568 150.88578797 215.01250228 149.08370003 213.73828125 147.28125 C213.10486816 146.38792969 212.47145508 145.49460937 211.81884766 144.57421875 C196.47507474 122.85814604 181.9052747 100.63895936 168.53979492 77.64819336 C163.67538946 69.05208156 163.67538946 69.05208156 158 61 C136.97334466 61 89.27022134 76.72977866 75 91 Z M550.43359375 100.50390625 C549.77488281 101.18324219 549.11617187 101.86257813 548.4375 102.5625 C545.18183532 105.85842908 541.83292019 108.94422737 538.3203125 111.9609375 C535.95956661 114.03553238 533.66052195 116.16482269 531.36401367 118.30981445 C525.9881854 123.3286633 520.52267374 128.1391495 514.78125 132.7421875 C512.33619467 134.72707792 509.94914354 136.76517289 507.57128906 138.82958984 C498.78106897 146.42611007 489.41951074 153.21118096 480 160 C479.28827637 160.5170752 478.57655273 161.03415039 477.84326172 161.56689453 C467.52097612 169.05915146 456.89294918 175.98905784 446.09375 182.7734375 C441.33868692 185.7652855 436.65647579 188.85730526 432 192 C433.61526518 193.76669629 435.24486226 195.37920614 437 197 C437.51175781 197.52335937 438.02351562 198.04671875 438.55078125 198.5859375 C441.74964746 201.26702714 443.9594693 202.08617498 448.16015625 201.73828125 C452.53592713 200.72140915 456.74121839 199.42147733 461 198 C461.96357422 197.68659668 462.92714844 197.37319336 463.91992188 197.05029297 C479.22458948 192.04353491 494.20506176 186.35018048 509 180 C509.77746582 179.66645508 510.55493164 179.33291016 511.35595703 178.98925781 C516.60087614 176.72453442 521.80654898 174.38005676 527 172 C527.80727539 171.63326172 528.61455078 171.26652344 529.44628906 170.88867188 C555.36071004 159.06665505 579.72774057 144.78632732 602 127 C589.76472927 113.97342903 569.10085498 105.94609826 553 99 C551.75831047 98.88457179 551.75831047 98.88457179 550.43359375 100.50390625 Z M44.875 103.4375 C44.16214844 103.79730957 43.44929688 104.15711914 42.71484375 104.52783203 C29.37828118 111.32209578 16.61883772 118.9622031 4 127 C8.23964215 131.67225869 13.06990793 134.87603349 18.375 138.25 C19.27057617 138.82427734 20.16615234 139.39855469 21.08886719 139.99023438 C23.71974069 141.67015575 26.35772802 143.33807628 29 145 C29.66354492 145.41830078 30.32708984 145.83660156 31.01074219 146.26757812 C66.19558281 168.29401619 118.90535828 199.64660816 162 202 C165.20803896 200.96833261 165.20803896 200.96833261 167.625 198.875 C168.46289062 198.25367188 169.30078125 197.63234375 170.1640625 196.9921875 C172.45178734 194.96128717 172.45178734 194.96128717 172 191 C169.66656848 189.25222607 167.45099099 187.81837665 164.9375 186.375 C163.4532892 185.48496771 161.97024083 184.59299446 160.48828125 183.69921875 C159.35640381 183.02318604 159.35640381 183.02318604 158.20166016 182.33349609 C146.83389258 175.44829466 136.08479569 167.57084784 125.36767578 159.72949219 C122.94674459 157.96109906 120.51863849 156.20288543 118.08984375 154.4453125 C109.77672726 148.40518489 101.67125943 142.24847594 93.91015625 135.51171875 C91.13069229 133.11279885 88.29909697 130.79986101 85.4375 128.5 C80.42461612 124.41974568 75.66867791 120.10944139 70.93359375 115.71484375 C67.37858042 112.42491796 63.77141531 109.19617865 60.15625 105.97265625 C58.6711828 104.61403499 57.23514237 103.20050208 55.84375 101.74609375 C52.18117599 98.27751201 48.75266753 101.4721944 44.875 103.4375 Z M191 208 C190.67 208.66 190.34 209.32 190 210 C209.57542512 214.36369762 229.05561051 217.73982635 249 220 C249.98033203 220.11327637 250.96066406 220.22655273 251.97070312 220.34326172 C301.76748272 225.91240686 353.96641729 223.28295735 403 213 C403.74507812 212.84611816 404.49015625 212.69223633 405.2578125 212.53369141 C409.17928187 211.72111095 413.09301536 210.88007162 417 210 C417 209.34 417 208.68 417 208 C357.42536563 160.98878974 251.1460345 163.80733441 191 208 Z " fill="#050505" transform="translate(321,799)"/>
<path d="M0 0 C0.80105793 -0.00282738 1.60211586 -0.00565475 2.42744827 -0.00856781 C6.68308069 -0.02347819 10.93868004 -0.03275397 15.19433594 -0.03710938 C18.642037 -0.04145593 22.08948242 -0.05520951 25.53710938 -0.078125 C47.26649725 -0.21956181 68.45975342 0.46513838 90.0390625 3.203125 C91.62900472 3.39376611 93.21900319 3.58393928 94.80908203 3.7734375 C151.64374981 10.77256096 206.58949986 28.33124165 258.0390625 53.203125 C258.94720703 53.63866699 259.85535156 54.07420898 260.79101562 54.52294922 C273.22293251 60.50655688 285.21685448 67.09471603 297.0390625 74.203125 C297.88082031 74.70714844 298.72257813 75.21117188 299.58984375 75.73046875 C327.86020335 92.72659199 355.23270303 112.27812589 379.4140625 134.7890625 C380.7901648 136.05458515 382.17187392 137.31544635 383.59936523 138.52270508 C390.4557272 144.33817941 396.73301206 150.74668367 403.07543945 157.10913086 C405.09670518 159.1357548 407.12325824 161.15698047 409.15039062 163.17773438 C415.32427568 169.34810227 421.4329451 175.50423162 427.0390625 182.203125 C428.02287371 183.33365768 429.00853462 184.46258353 429.99609375 185.58984375 C436.64100048 193.24964229 442.97684824 201.07525015 449.0390625 209.203125 C449.71799561 210.11046387 449.71799561 210.11046387 450.41064453 211.03613281 C453.6638747 215.39400038 456.87287138 219.78162104 460.0390625 224.203125 C460.4609082 224.7914209 460.88275391 225.3797168 461.31738281 225.98583984 C462.48805307 227.63212395 463.63910906 229.29230374 464.7890625 230.953125 C465.44390625 231.89671875 466.09875 232.8403125 466.7734375 233.8125 C467.19109375 234.60140625 467.60875 235.3903125 468.0390625 236.203125 C467.7090625 237.193125 467.3790625 238.183125 467.0390625 239.203125 C464.1800947 240.15611427 462.38078482 240.33754317 459.4140625 240.328125 C458.21910156 240.33199219 458.21910156 240.33199219 457 240.3359375 C455.53433594 240.27019531 455.53433594 240.27019531 454.0390625 240.203125 C453.3471582 240.22971191 452.65525391 240.25629883 451.94238281 240.28369141 C448.29812957 240.23034956 445.93036451 239.99859304 443.14990234 237.51708984 C441.3022869 235.19548698 439.65928653 232.81364003 438.0390625 230.328125 C436.82892892 228.57927003 435.61669661 226.83186537 434.40234375 225.0859375 C433.82564941 224.24063477 433.24895508 223.39533203 432.65478516 222.52441406 C429.40155518 217.85053817 425.69453061 213.56476308 422.0390625 209.203125 C420.60152511 207.41148833 419.16402618 205.6198208 417.7265625 203.828125 C412.92087642 197.95450868 407.78983063 192.41880001 402.60498047 186.88232422 C401.02322051 185.18613698 399.45322144 183.47981217 397.88671875 181.76953125 C390.65953841 173.87998204 383.41232058 166.14423748 375.28125 159.16796875 C373.11673721 157.27119187 371.0125213 155.31874992 368.91210938 153.3515625 C362.42462204 147.29544655 355.6205549 141.7791626 348.56347656 136.40283203 C347.2189641 135.34470675 345.93213932 134.21415265 344.65625 133.07421875 C342.79877015 131.44619229 341.26901707 130.24826446 339.0390625 129.203125 C331.89372585 131.17149321 325.62982588 135.05015439 319.2265625 138.703125 C317.59279663 139.62665771 317.59279663 139.62665771 315.92602539 140.56884766 C306.25789723 146.04563979 296.6340804 151.59936008 287.0390625 157.203125 C287.76736626 160.45724817 288.5672771 162.12154557 290.8515625 164.578125 C291.79708984 165.62419922 291.79708984 165.62419922 292.76171875 166.69140625 C293.51324219 167.52027344 294.26476562 168.34914062 295.0390625 169.203125 C301.73411757 176.73536974 308.07972507 184.41021429 313.96166992 192.59594727 C317.05818152 196.89990363 320.28383884 201.06808423 323.6015625 205.203125 C344.0390625 230.85654017 344.0390625 230.85654017 344.0390625 239.203125 C337.87482013 242.28524619 328.49626921 242.22092197 322.0390625 240.203125 C317.053499 236.4611737 314.20657734 230.73283731 311.25927734 225.36083984 C309.62534687 222.47154861 307.69446763 219.88776933 305.6640625 217.265625 C304.95121094 216.32589844 304.23835937 215.38617188 303.50390625 214.41796875 C302.68267326 213.34606171 301.86101905 212.27447731 301.0390625 211.203125 C300.52617676 210.53168457 300.01329102 209.86024414 299.48486328 209.16845703 C292.05584885 199.45820989 284.47663509 189.93774017 276.39111328 180.76513672 C275.06153001 179.22908151 273.77922832 177.66327014 272.50390625 176.08203125 C271.73175781 175.15261719 270.95960938 174.22320312 270.1640625 173.265625 C269.50664063 172.45222656 268.84921875 171.63882813 268.171875 170.80078125 C266.11318871 168.88613244 266.11318871 168.88613244 263.29150391 169.45947266 C259.9810284 170.21639417 257.01836407 171.24116477 253.8671875 172.50390625 C252.6620752 172.98077881 251.45696289 173.45765137 250.21533203 173.94897461 C249.25750824 174.33156937 249.25750824 174.33156937 248.28033447 174.72189331 C235.99907371 179.61726973 223.62849591 184.23408697 211.1640625 188.640625 C210.47783813 188.88511383 209.79161377 189.12960266 209.08459473 189.38150024 C201.35240849 192.13243223 193.5852577 194.70878188 185.71875 197.05078125 C184.99535431 197.2678624 184.27195862 197.48494354 183.52664185 197.70860291 C180.59549122 198.56427538 178.10966179 199.203125 175.0390625 199.203125 C175.55404297 200.34378418 176.06902344 201.48444336 176.59960938 202.65966797 C178.50424491 206.88096385 180.40399094 211.10444486 182.30224609 215.32861328 C183.12545094 217.15864347 183.94999129 218.9880735 184.77587891 220.81689453 C185.96085281 223.44147659 187.14105078 226.06815987 188.3203125 228.6953125 C188.69216675 229.51619354 189.064021 230.33707458 189.44714355 231.18283081 C189.78749634 231.94346832 190.12784912 232.70410583 190.47851562 233.48779297 C190.7805188 234.15841766 191.08252197 234.82904236 191.39367676 235.51998901 C192.0390625 237.203125 192.0390625 237.203125 192.0390625 239.203125 C189.69053722 240.37738764 188.30132185 240.31820673 185.6875 240.30078125 C184.83671875 240.29755859 183.9859375 240.29433594 183.109375 240.29101562 C182.21992187 240.28263672 181.33046875 240.27425781 180.4140625 240.265625 C179.516875 240.26111328 178.6196875 240.25660156 177.6953125 240.25195312 C175.47649602 240.24015091 173.25781232 240.22368655 171.0390625 240.203125 C162.25 224.08984375 162.25 224.08984375 160.65917969 221.16552734 C159.54872003 219.13503947 158.42909801 217.10954335 157.30175781 215.08837891 C156.75358398 214.10144043 156.20541016 213.11450195 155.640625 212.09765625 C155.14127441 211.2053833 154.64192383 210.31311035 154.12744141 209.39379883 C153.0390625 207.203125 153.0390625 207.203125 153.0390625 205.203125 C151.71406738 205.48978027 151.71406738 205.48978027 150.36230469 205.78222656 C123.09242595 211.64239445 96.00563697 215.86016924 68.2265625 218.453125 C67.28476135 218.54234222 66.34296021 218.63155945 65.37261963 218.72348022 C54.22675608 219.7671647 43.23776081 220.47476539 32.0390625 220.203125 C32.0486499 221.30567627 32.0582373 222.40822754 32.06811523 223.54418945 C32.08467163 225.44817505 32.08467163 225.44817505 32.1015625 227.390625 C32.1106665 228.12821045 32.11977051 228.8657959 32.12915039 229.62573242 C32.14447935 233.28737639 31.91619591 236.64624541 31.0390625 240.203125 C27.72658063 240.23200646 24.41413083 240.24988299 21.1015625 240.265625 C19.68327148 240.27819336 19.68327148 240.27819336 18.23632812 240.29101562 C17.33720703 240.29423828 16.43808594 240.29746094 15.51171875 240.30078125 C14.67906494 240.30601807 13.84641113 240.31125488 12.98852539 240.31665039 C11.0390625 240.203125 11.0390625 240.203125 10.0390625 239.203125 C9.82777894 236.55327701 9.66293584 233.91972603 9.5390625 231.265625 C9.49615014 226.07609882 9.49615014 226.07609882 8.0390625 221.203125 C5.37026071 220.31227091 2.77174008 220.0318655 -0.02563477 219.86181641 C-0.82017059 219.81137177 -1.61470642 219.76092712 -2.43331909 219.70895386 C-3.28934723 219.65804596 -4.14537537 219.60713806 -5.02734375 219.5546875 C-6.87917003 219.43748436 -8.73097591 219.3199585 -10.58276367 219.20214844 C-11.55200775 219.14152222 -12.52125183 219.080896 -13.51986694 219.01843262 C-44.06074593 217.08334842 -73.81967005 213.26452581 -103.94458008 207.91162109 C-107.27978808 207.31983602 -110.61846576 206.75263597 -113.9609375 206.203125 C-114.26273926 206.80672852 -114.56454102 207.41033203 -114.87548828 208.03222656 C-115.29813965 208.8775293 -115.72079102 209.72283203 -116.15625 210.59375 C-116.62216553 211.52614502 -117.08808105 212.45854004 -117.56811523 213.41918945 C-118.5814303 215.44467864 -119.59657298 217.46925452 -120.61352539 219.49291992 C-123.81456444 225.86554688 -123.81456444 225.86554688 -126.88671875 232.30078125 C-127.38558594 233.36167969 -127.88445312 234.42257813 -128.3984375 235.515625 C-128.80964844 236.41925781 -129.22085937 237.32289063 -129.64453125 238.25390625 C-130.9609375 240.203125 -130.9609375 240.203125 -132.64453125 240.98828125 C-135.96110322 241.29588911 -139.25868731 241.34724713 -142.5859375 241.328125 C-143.606875 241.33392578 -143.606875 241.33392578 -144.6484375 241.33984375 C-149.70749628 241.32984561 -149.70749628 241.32984561 -151.9609375 240.203125 C-151.28532082 235.68538153 -149.61464131 231.72195415 -147.80078125 227.56640625 C-147.49145157 226.84575485 -147.18212189 226.12510345 -146.86341858 225.38261414 C-145.87963791 223.09162805 -144.88964171 220.80340805 -143.8984375 218.515625 C-142.904099 216.21695258 -141.91121035 213.91770523 -140.92274475 211.61650085 C-140.30864056 210.18708738 -139.69109512 208.75914651 -139.06980896 207.33283997 C-137.49429786 203.89316859 -137.49429786 203.89316859 -136.9609375 200.203125 C-137.890271 199.91703369 -138.81960449 199.63094238 -139.77709961 199.33618164 C-161.30380053 192.69667009 -182.64552948 185.77583084 -203.65234375 177.609375 C-204.75102783 177.1860791 -205.84971191 176.7627832 -206.98168945 176.32666016 C-209.07994979 175.51540262 -211.17386045 174.69277092 -213.26245117 173.85693359 C-214.19935791 173.49422363 -215.13626465 173.13151367 -216.1015625 172.7578125 C-216.92172852 172.43280762 -217.74189453 172.10780273 -218.58691406 171.77294922 C-221.42459109 171.09183669 -223.18428394 171.35508873 -225.9609375 172.203125 C-232.36382285 177.35511553 -237.59218894 183.98342785 -242.69921875 190.3828125 C-244.96262548 193.20522987 -247.29943148 195.95176068 -249.6484375 198.703125 C-259.35095197 210.33408956 -268.21057376 222.71860367 -276.49780273 235.39160156 C-279.63746767 240.09530172 -279.63746767 240.09530172 -282.9609375 241.203125 C-284.36918643 241.28334499 -285.78090981 241.31078477 -287.19140625 241.30078125 C-287.99384766 241.29755859 -288.79628906 241.29433594 -289.62304688 241.29101562 C-290.45642578 241.28263672 -291.28980469 241.27425781 -292.1484375 241.265625 C-292.99341797 241.26111328 -293.83839844 241.25660156 -294.70898438 241.25195312 C-296.79299905 241.24017903 -298.87697727 241.2222439 -300.9609375 241.203125 C-301.75579313 238.91941212 -302.14268356 237.68276482 -301.27099609 235.38232422 C-300.69599365 234.45444092 -300.69599365 234.45444092 -300.109375 233.5078125 C-299.460896 232.44808228 -299.460896 232.44808228 -298.79931641 231.36694336 C-298.07494385 230.23397827 -298.07494385 230.23397827 -297.3359375 229.078125 C-296.83884277 228.2847876 -296.34174805 227.4914502 -295.82958984 226.67407227 C-283.24143378 206.85329905 -268.58495775 188.08902943 -253.41015625 170.1953125 C-252.58128906 169.20789063 -251.75242187 168.22046875 -250.8984375 167.203125 C-250.14433594 166.31625 -249.39023437 165.429375 -248.61328125 164.515625 C-246.6702534 162.2699987 -246.6702534 162.2699987 -246.9609375 159.203125 C-247.59257812 158.85233887 -248.22421875 158.50155273 -248.875 158.14013672 C-251.90508004 156.45536419 -254.93308859 154.76690395 -257.9609375 153.078125 C-259.63494629 152.14697876 -259.63494629 152.14697876 -261.34277344 151.19702148 C-267.21016799 147.91854681 -273.03100281 144.58844708 -278.7890625 141.12109375 C-280.40748047 140.15163818 -280.40748047 140.15163818 -282.05859375 139.16259766 C-284.13112585 137.91541872 -286.19651643 136.65628039 -288.25390625 135.38427734 C-289.19363281 134.82047363 -290.13335937 134.25666992 -291.1015625 133.67578125 C-291.92172852 133.17312744 -292.74189453 132.67047363 -293.58691406 132.15258789 C-296.52910699 130.97589226 -297.97784111 131.23236192 -300.9609375 132.203125 C-303.94047946 134.11111312 -303.94047946 134.11111312 -306.9609375 136.578125 C-307.52417725 137.02293213 -308.08741699 137.46773926 -308.66772461 137.92602539 C-318.10803468 145.43396259 -327.2042922 153.30256466 -336.04296875 161.5078125 C-338.92424832 164.16923539 -341.846742 166.7793578 -344.7734375 169.390625 C-348.43328765 172.71728822 -351.78186655 176.10393 -354.9609375 179.88671875 C-357.11847805 182.38558896 -359.36039919 184.78710231 -361.62158203 187.19189453 C-366.82167118 192.72374671 -371.85298364 198.31699074 -376.59765625 204.25 C-378.37211773 206.4673436 -380.16456796 208.66082348 -381.98046875 210.84375 C-388.4039719 218.60110587 -394.45231499 226.47046639 -400.00317383 234.88330078 C-400.4648999 235.56505371 -400.92662598 236.24680664 -401.40234375 236.94921875 C-401.80138916 237.55435303 -402.20043457 238.1594873 -402.61157227 238.78295898 C-404.79419846 241.08010691 -407.13353554 241.1537712 -410.1875 241.3359375 C-416.16644773 241.3164621 -422.02431485 240.91046727 -427.9609375 240.203125 C-425.64111716 235.19760661 -422.78156331 230.85776259 -419.5859375 226.390625 C-418.80126099 225.28726807 -418.80126099 225.28726807 -418.00073242 224.16162109 C-398.78884886 197.32371163 -377.29485395 172.51944798 -354.0234375 149.140625 C-353.33797852 148.45049316 -352.65251953 147.76036133 -351.94628906 147.04931641 C-347.44696914 142.56418648 -342.77689789 138.3439904 -337.9609375 134.203125 C-336.76971124 133.15752699 -335.57957705 132.11068329 -334.390625 131.0625 C-326.6940417 124.31526555 -318.87236188 117.79442045 -310.74560547 111.57128906 C-309.55412568 110.65787556 -308.36564498 109.74053684 -307.18017578 108.81933594 C-288.76919568 94.51790524 -269.14214611 81.8503715 -248.9609375 70.203125 C-248.2277832 69.77870117 -247.49462891 69.35427734 -246.73925781 68.91699219 C-216.90013468 51.74175891 -185.51817576 38.32345325 -152.9609375 27.203125 C-151.62434082 26.74196289 -151.62434082 26.74196289 -150.26074219 26.27148438 C-113.75653105 13.78141139 -75.78348147 6.83456508 -37.57421875 2.18359375 C-36.53519913 2.05590103 -36.53519913 2.05590103 -35.47518921 1.92562866 C-33.3052581 1.66781157 -31.13426432 1.43057554 -28.9609375 1.203125 C-28.09974304 1.11207489 -27.23854858 1.02102478 -26.35125732 0.92721558 C-17.56992299 0.09250396 -8.81146759 0.02137799 0 0 Z M-38.9609375 23.203125 C-40.25741211 23.35297852 -41.55388672 23.50283203 -42.88964844 23.65722656 C-59.75055589 25.6743684 -76.36460303 28.62547206 -92.9609375 32.203125 C-88.96763335 36.64805284 -84.70267032 39.32645661 -79.4609375 42.140625 C-78.65414551 42.57810059 -77.84735352 43.01557617 -77.01611328 43.46630859 C-74.67173839 44.72643926 -72.31887247 45.96859035 -69.9609375 47.203125 C-68.36378906 48.04423828 -68.36378906 48.04423828 -66.734375 48.90234375 C-20.01670711 71.8834068 38.36787464 72.6671349 87.19433594 56.21240234 C98.55356946 52.18227263 109.48729955 47.27673533 120.0390625 41.453125 C120.67972656 41.10072754 121.32039062 40.74833008 121.98046875 40.38525391 C125.98264082 38.08054737 128.93827916 35.56230695 132.0390625 32.203125 C112.46425725 27.83956555 92.98623256 24.43653802 73.0390625 22.203125 C71.53448486 22.02523438 71.53448486 22.02523438 69.99951172 21.84375 C34.11822847 17.74233439 -3.13912203 19.03349475 -38.9609375 23.203125 Z M-126.9609375 41.203125 C-128.97050808 41.17122705 -130.98064826 41.13678338 -132.98828125 41.04296875 C-135.28543365 41.06878078 -135.28543365 41.06878078 -137.9609375 43.203125 C-137.9609375 43.863125 -137.9609375 44.523125 -137.9609375 45.203125 C-139.21519531 45.45449219 -140.46945312 45.70585938 -141.76171875 45.96484375 C-147.38516122 47.2214361 -152.7356711 49.05562738 -158.1484375 51.015625 C-159.21924561 51.40306885 -160.29005371 51.7905127 -161.39331055 52.18969727 C-182.10798352 59.83158544 -202.47982374 68.81267723 -221.9609375 79.203125 C-222.8154248 79.65526367 -223.66991211 80.10740234 -224.55029297 80.57324219 C-241.15138705 89.43319031 -256.69504103 99.77008466 -272.23144531 110.34643555 C-274.13498985 111.64128852 -276.0453911 112.92609406 -277.9609375 114.203125 C-277.9609375 114.863125 -277.9609375 115.523125 -277.9609375 116.203125 C-276.49914507 117.44503946 -276.49914507 117.44503946 -274.54296875 118.63671875 C-273.79313721 119.11568604 -273.04330566 119.59465332 -272.27075195 120.08813477 C-271.44663818 120.60045654 -270.62252441 121.11277832 -269.7734375 121.640625 C-268.92934326 122.16906006 -268.08524902 122.69749512 -267.21557617 123.24194336 C-260.86123533 127.16042439 -254.38109135 130.79316616 -247.7734375 134.265625 C-246.48433472 134.94419556 -246.48433472 134.94419556 -245.16918945 135.63647461 C-236.91489531 140.41663873 -236.91489531 140.41663873 -227.91821289 141.94213867 C-224.46843415 140.63959654 -222.20508167 137.70173178 -219.7109375 135.078125 C-218.53951414 133.87719312 -217.3663481 132.67795851 -216.19140625 131.48046875 C-215.6298584 130.9066748 -215.06831055 130.33288086 -214.48974609 129.74169922 C-211.4719062 126.70458216 -208.23064462 123.96175889 -204.9609375 121.203125 C-203.92474116 120.30458344 -202.88969049 119.40471987 -201.85546875 118.50390625 C-194.89120068 112.45552224 -187.79695926 106.62829955 -180.5078125 100.9765625 C-178.11531362 99.11822131 -175.75475152 97.22785516 -173.4140625 95.3046875 C-165.13310725 88.51888919 -156.55795817 82.3650158 -147.6640625 76.40625 C-144.26291248 74.11935061 -140.94508457 71.74220978 -137.64453125 69.3125 C-131.8269617 65.0543524 -125.82981724 61.11121866 -119.7734375 57.203125 C-118.20239258 56.18412109 -118.20239258 56.18412109 -116.59960938 55.14453125 C-114.05512444 53.49468257 -111.50890108 51.84759412 -108.9609375 50.203125 C-111.69532238 47.41245775 -114.36507062 44.69894418 -117.5234375 42.390625 C-118.36068359 41.76220703 -118.36068359 41.76220703 -119.21484375 41.12109375 C-121.97374119 39.67066668 -124.21690401 39.83110825 -126.9609375 41.203125 Z M154.2890625 43.515625 C153.51046875 44.13050781 152.731875 44.74539062 151.9296875 45.37890625 C149.79824931 47.15368406 149.79824931 47.15368406 149.0390625 50.203125 C149.55065918 50.50379883 150.06225586 50.80447266 150.58935547 51.11425781 C173.69414782 64.73316638 195.964457 79.59803315 217.0390625 96.203125 C217.88597656 96.86699219 218.73289062 97.53085938 219.60546875 98.21484375 C229.22156813 105.82437343 238.56414159 113.77039707 247.63671875 122.01953125 C249.28237931 123.51534304 250.93648589 125.00190032 252.59765625 126.48046875 C253.44457031 127.23457031 254.29148437 127.98867187 255.1640625 128.765625 C256.39576172 129.86197266 256.39576172 129.86197266 257.65234375 130.98046875 C260.66325683 133.78441235 263.42958113 136.7841461 266.15234375 139.8671875 C267.96880134 141.46539878 267.96880134 141.46539878 270.32641602 140.95996094 C273.30669347 140.12845521 275.63826136 138.95732976 278.328125 137.4296875 C279.34398682 136.85710205 280.35984863 136.2845166 281.40649414 135.69458008 C282.4814917 135.0786499 283.55648926 134.46271973 284.6640625 133.828125 C285.7667749 133.20123779 286.8694873 132.57435059 288.00561523 131.9284668 C290.26076027 130.64481395 292.51426173 129.35826937 294.76611328 128.06884766 C297.80359453 126.33735193 300.85359027 124.63110293 303.91015625 122.93359375 C305.64091164 121.96144765 307.37139767 120.98882176 309.1015625 120.015625 C309.90996582 119.57105957 310.71836914 119.12649414 311.55126953 118.66845703 C313.43142567 117.59817597 315.24458196 116.41156541 317.0390625 115.203125 C317.0390625 114.213125 317.0390625 113.223125 317.0390625 112.203125 C315.68314617 110.85969598 315.68314617 110.85969598 313.8046875 109.70703125 C313.09570312 109.23700684 312.38671875 108.76698242 311.65625 108.28271484 C310.87507812 107.7820752 310.09390625 107.28143555 309.2890625 106.765625 C308.48210937 106.2392041 307.67515625 105.7127832 306.84375 105.17041016 C277.06755758 85.90177795 245.98010083 69.24839384 212.92822266 56.33398438 C210.55574637 55.40536259 208.19229404 54.45902326 205.83203125 53.5 C196.83026398 49.95000727 187.60300187 47.14127618 178.3515625 44.328125 C177.68128021 44.12249939 177.01099792 43.91687378 176.32040405 43.70501709 C174.39176944 43.11579178 172.45960124 42.53817136 170.52734375 41.9609375 C169.39852783 41.6220752 168.26971191 41.28321289 167.10668945 40.93408203 C161.48419982 39.59434992 158.80536945 39.85559773 154.2890625 43.515625 Z M117.7421875 65.828125 C117.14855408 66.09447754 116.55492065 66.36083008 115.94329834 66.63525391 C114.05533103 67.48427033 112.17222605 68.34351396 110.2890625 69.203125 C109.00681792 69.78193169 107.72426891 70.3600645 106.44140625 70.9375 C103.30423057 72.35276723 100.17034015 73.77486734 97.0390625 75.203125 C97.64810131 78.34468868 98.65963061 80.37047264 100.55859375 82.93359375 C101.0801001 83.64515625 101.60160645 84.35671875 102.13891602 85.08984375 C102.70408936 85.84910156 103.2692627 86.60835937 103.8515625 87.390625 C105.04500675 89.01899215 106.23769835 90.64791115 107.4296875 92.27734375 C108.03490234 93.10153809 108.64011719 93.92573242 109.26367188 94.77490234 C129.04442122 121.82926607 147.45985366 150.07947054 164.0390625 179.203125 C192.26556486 176.49096997 220.16333507 163.05846316 246.0390625 152.203125 C246.370742 148.93345634 246.370742 148.93345634 243.4765625 146.3125 C242.33914602 145.18416 241.19273716 144.06483638 240.0390625 142.953125 C239.43892334 142.36539307 238.83878418 141.77766113 238.22045898 141.17211914 C233.95557514 137.02111891 229.58716186 133.04159184 225.0390625 129.203125 C223.99112284 128.29289095 222.94435657 127.38130513 221.8984375 126.46875 C214.16286817 119.7402806 206.25404598 113.33536994 198.0390625 107.203125 C197.15565186 106.54014404 197.15565186 106.54014404 196.25439453 105.86376953 C158.70816562 74.6679471 158.70816562 74.6679471 117.7421875 65.828125 Z M-92.56640625 66.44140625 C-93.4586792 66.92601318 -94.35095215 67.41062012 -95.27026367 67.90991211 C-96.22006104 68.43979736 -97.1698584 68.96968262 -98.1484375 69.515625 C-99.62630737 70.33268921 -99.62630737 70.33268921 -101.1340332 71.16625977 C-110.01154732 76.12952857 -118.54100975 81.50550105 -126.9609375 87.203125 C-127.74629883 87.73083496 -128.53166016 88.25854492 -129.34082031 88.80224609 C-153.01254336 104.72524431 -175.34309625 122.35881208 -196.28125 141.7421875 C-199.44294525 144.64578518 -202.67584868 147.44066395 -205.9609375 150.203125 C-205.85485021 152.14348488 -205.85485021 152.14348488 -204.9609375 154.203125 C-202.71378498 155.6235722 -202.71378498 155.6235722 -199.828125 156.6484375 C-198.72710449 157.08075684 -197.62608398 157.51307617 -196.49169922 157.95849609 C-195.28529785 158.41047363 -194.07889648 158.86245117 -192.8359375 159.328125 C-191.57948084 159.8091229 -190.32313502 160.29041044 -189.06689453 160.77197266 C-157.65586394 174.07002919 -157.65586394 174.07002919 -124.9609375 180.203125 C-123.49530974 178.1614381 -122.26551318 176.19308581 -121.0390625 174.01171875 C-120.66218796 173.36360733 -120.28531342 172.71549591 -119.89701843 172.04774475 C-119.08391033 170.64808168 -118.27555186 169.24565105 -117.47140503 167.84082031 C-115.35337774 164.14372093 -113.19832915 160.46839139 -111.04296875 156.79296875 C-110.61170181 156.05625946 -110.18043488 155.31955017 -109.73609924 154.56051636 C-104.33217301 145.37009617 -98.43862658 136.51580221 -92.54785156 127.63232422 C-90.2121451 124.05689663 -87.99667621 120.4115387 -85.7734375 116.765625 C-80.23921195 107.76363586 -73.79859611 99.45942189 -67.34082031 91.10791016 C-65.76552355 89.0645767 -64.20618268 87.00985317 -62.6484375 84.953125 C-61.91862671 84.02294556 -61.91862671 84.02294556 -61.17407227 83.07397461 C-58.67164649 79.94513939 -58.67164649 79.94513939 -58.07446289 76.13818359 C-59.29779874 73.4678008 -60.53900235 73.15633238 -63.2578125 72.1328125 C-64.134375 71.79378906 -65.0109375 71.45476562 -65.9140625 71.10546875 C-67.29851562 70.59693359 -67.29851562 70.59693359 -68.7109375 70.078125 C-70.0721875 69.55798828 -70.0721875 69.55798828 -71.4609375 69.02734375 C-73.16233621 68.37812582 -74.86620606 67.73532114 -76.57324219 67.10107422 C-78.23714679 66.47532359 -79.88321845 65.80092862 -81.51269531 65.09033203 C-85.93847205 63.48649551 -88.631516 64.29295697 -92.56640625 66.44140625 Z M-38.6484375 86.453125 C-39.70357912 88.07020029 -40.75556486 89.69005663 -41.75878906 91.33984375 C-43.56213455 94.13495601 -45.66303352 96.66553665 -47.75170898 99.25073242 C-68.86435714 125.49535128 -88.07591206 154.93383867 -102.9609375 185.203125 C-92.04515274 188.36576433 -81.18606569 190.54963639 -69.9609375 192.265625 C-69.1400061 192.3928595 -68.31907471 192.52009399 -67.4732666 192.65118408 C-28.34238649 201.14889824 -28.34238649 201.14889824 9.0390625 197.203125 C9.18413078 190.00306214 9.32618499 182.80294397 9.46630859 175.6027832 C9.51414476 173.16201484 9.56262854 170.72125907 9.61181641 168.28051758 C10.03326841 147.33263283 10.16198015 126.45861798 9.5390625 105.515625 C9.4906391 103.81966847 9.44246121 102.12370492 9.39453125 100.42773438 C9.27885108 96.35277858 9.15992128 92.27793035 9.0390625 88.203125 C2.67094679 87.19403828 -3.69933934 86.20902887 -10.078125 85.26953125 C-14.13932958 84.66496683 -18.14581316 83.98410587 -22.15625 83.10546875 C-31.33072847 81.21036143 -31.33072847 81.21036143 -38.6484375 86.453125 Z M58.796875 84.296875 C57.64431717 84.46334534 57.64431717 84.46334534 56.46847534 84.63317871 C54.03307502 84.9858613 51.59857931 85.34439972 49.1640625 85.703125 C47.50526477 85.94439878 45.8464111 86.18528822 44.1875 86.42578125 C40.13735989 87.01378399 36.08802024 87.60703725 32.0390625 88.203125 C30.31391035 143.21671221 30.31391035 143.21671221 32.0390625 198.203125 C61.10999798 199.03903049 90.0009952 195.28829831 118.5390625 190.140625 C119.26042389 190.01079224 119.98178528 189.88095947 120.7250061 189.74719238 C122.79936261 189.37144333 124.87252127 188.98975018 126.9453125 188.60546875 C128.14478516 188.38366943 129.34425781 188.16187012 130.58007812 187.93334961 C134.13716521 187.18241458 137.55722199 186.24239321 141.0390625 185.203125 C139.47504654 179.781203 137.01024001 175.10965156 134.2890625 170.203125 C133.80953125 169.3366333 133.33 168.4701416 132.8359375 167.57739258 C124.36162795 152.4703685 114.95332582 137.96557923 104.50341797 124.15478516 C102.87196558 121.98042197 101.26841332 119.78712547 99.66796875 117.58984375 C92.37179605 107.58248646 84.8546747 97.8093109 77.0390625 88.203125 C76.06839844 86.76066406 76.06839844 86.76066406 75.078125 85.2890625 C73.21860469 82.92776248 73.21860469 82.92776248 70.42675781 83.00439453 C66.51404449 83.23392384 62.67005764 83.72023831 58.796875 84.296875 Z " fill="#050505" transform="translate(600.9609375,-0.203125)"/>
<path d="M0 0 C-1.63778045 4.19625909 -4.73323182 6.98676785 -7.8828125 10.078125 C-8.45707977 10.64956238 -9.03134705 11.22099976 -9.62301636 11.80975342 C-11.4523581 13.62792945 -13.28854193 15.43901492 -15.125 17.25 C-16.36894774 18.48391329 -17.6124427 19.71828322 -18.85546875 20.953125 C-21.89842367 23.97406743 -24.94753254 26.98867092 -28 30 C-28.66 29.67 -29.32 29.34 -30 29 C-23.99836188 21.98907739 -17.56103469 15.42222653 -11.0625 8.875 C-10.20938232 8.0089917 -9.35626465 7.1429834 -8.47729492 6.25073242 C-7.67138916 5.4435376 -6.8654834 4.63634277 -6.03515625 3.8046875 C-5.3069165 3.07233887 -4.57867676 2.33999023 -3.82836914 1.58544922 C-2 0 -2 0 0 0 Z " fill="#1C1C1C" transform="translate(257,141)"/>
<path d="M0 0 C0.66 0.33 1.32 0.66 2 1 C0.04761147 3.00612399 -1.91137822 5.00492433 -3.875 7 C-4.43058594 7.57234375 -4.98617187 8.1446875 -5.55859375 8.734375 C-7.00134404 10.19450782 -8.4974374 11.60149298 -10 13 C-10.66 13 -11.32 13 -12 13 C-12.268125 13.598125 -12.53625 14.19625 -12.8125 14.8125 C-13.98493467 16.97224808 -15.19369282 18.35790256 -17 20 C-17.66 19.67 -18.32 19.34 -19 19 C-13.0763504 12.14630879 -6.85369121 5.9236496 0 0 Z " fill="#1E1E1E" transform="translate(851,337)"/>
<path d="M0 0 C1.93166016 0.01740234 1.93166016 0.01740234 3.90234375 0.03515625 C5.19269531 0.04417969 6.48304688 0.05320312 7.8125 0.0625 C8.81152344 0.07410156 9.81054688 0.08570313 10.83984375 0.09765625 C10.83984375 0.42765625 10.83984375 0.75765625 10.83984375 1.09765625 C9.55787109 1.18853516 9.55787109 1.18853516 8.25 1.28125 C6.59291016 1.40693359 6.59291016 1.40693359 4.90234375 1.53515625 C3.80019531 1.61636719 2.69804688 1.69757813 1.5625 1.78125 C-1.07125528 1.80183709 -1.07125528 1.80183709 -2.16015625 3.09765625 C-2.3163618 4.51093572 -2.41071798 5.93120215 -2.4765625 7.3515625 C-2.51845703 8.20556641 -2.56035156 9.05957031 -2.60351562 9.93945312 C-2.64283203 10.83728516 -2.68214844 11.73511719 -2.72265625 12.66015625 C-2.76583984 13.56185547 -2.80902344 14.46355469 -2.85351562 15.39257812 C-2.95993767 17.6274411 -3.06195613 19.86241933 -3.16015625 22.09765625 C-3.49015625 22.09765625 -3.82015625 22.09765625 -4.16015625 22.09765625 C-4.18903439 18.61850684 -4.20691312 15.13938794 -4.22265625 11.66015625 C-4.23103516 10.66693359 -4.23941406 9.67371094 -4.24804688 8.65039062 C-4.25126953 7.70615234 -4.25449219 6.76191406 -4.2578125 5.7890625 C-4.26304932 4.91451416 -4.26828613 4.03996582 -4.27368164 3.13891602 C-4.08521174 -0.24989437 -3.47516227 0.10739068 0 0 Z " fill="#282828" transform="translate(655.16015625,295.90234375)"/>
<path d="M0 0 C1.79133978 -0.05391993 3.58313899 -0.09275571 5.375 -0.125 C6.37273438 -0.14820313 7.37046875 -0.17140625 8.3984375 -0.1953125 C11 0 11 0 13 2 C9.37 2 5.74 2 2 2 C1.67 2.66 1.34 3.32 1 4 C0.67 2.68 0.34 1.36 0 0 Z " fill="#232323" transform="translate(634,840)"/>
<path d="M0 0 C0.99 0.33 1.98 0.66 3 1 C1.68 2.32 0.36 3.64 -1 5 C-1.66 4.67 -2.32 4.34 -3 4 C-2.01 2.68 -1.02 1.36 0 0 Z " fill="#0F0F0F" transform="translate(353,338)"/>
<path d="M0 0 C-1.5830577 4.2742558 -4.50568404 6.26531794 -8 9 C-8.66 8.67 -9.32 8.34 -10 8 C-8.71451591 6.66070495 -7.42141845 5.32871357 -6.125 4 C-5.04605469 2.88625 -5.04605469 2.88625 -3.9453125 1.75 C-2 0 -2 0 0 0 Z " fill="#272727" transform="translate(400,118)"/>
<path d="M0 0 C1.98 0 3.96 0 6 0 C6 0.66 6 1.32 6 2 C5.01 2 4.02 2 3 2 C3.33 3.65 3.66 5.3 4 7 C1.49962266 4.82575883 0.56371414 3.26954202 0 0 Z " fill="#262626" transform="translate(299,799)"/>
<path d="M0 0 C0.33 0.99 0.66 1.98 1 3 C-0.65 4.65 -2.3 6.3 -4 8 C-4.66 7.67 -5.32 7.34 -6 7 C-4.02 4.69 -2.04 2.38 0 0 Z " fill="#323232" transform="translate(838,349)"/>
</svg>
