<?xml version="1.0" encoding="UTF-8"?>
<svg version="1.1" xmlns="http://www.w3.org/2000/svg" width="225" height="225">
<path d="M0 0 C74.25 0 148.5 0 225 0 C225 74.25 225 148.5 225 225 C150.75 225 76.5 225 0 225 C0 150.75 0 76.5 0 0 Z " fill="#FEFEFE" transform="translate(0,0)"/>
<path d="M0 0 C16.60683087 -0.02781714 33.89548665 7.40231407 48.14453125 15.43359375 C50.14453125 17.43359375 50.14453125 17.43359375 50.14453125 21.265625 C49.25644177 27.79177668 46.11919354 33.32598553 43.14453125 39.12109375 C42.03332591 41.30893928 40.92890238 43.50024551 39.83203125 45.6953125 C39.34089844 46.65397217 38.84976563 47.61263184 38.34375 48.6003418 C37.08922755 51.56425325 36.54473888 54.24988317 36.14453125 57.43359375 C36.66015625 57.51609375 37.17578125 57.59859375 37.70703125 57.68359375 C40.14453125 58.43359375 40.14453125 58.43359375 43.20703125 60.37109375 C46.34676349 62.29242244 48.74775987 62.64747046 52.39453125 62.93359375 C58.88149671 64.01325513 63.11022028 67.61643232 67.08203125 72.63671875 C71.23493254 79.07581318 69.94391684 87.16645202 69.14453125 94.43359375 C70.50578125 94.52640625 70.50578125 94.52640625 71.89453125 94.62109375 C76.03548529 95.65633226 76.91390627 96.84141846 79.14453125 100.43359375 C80.44587067 103.56770963 81.60376995 106.69123011 82.6796875 109.90625 C84.54144143 114.99778699 86.83349746 117.16783028 91.14453125 120.43359375 C96.71204588 126.49041489 96.74525683 133.61796069 96.78051758 141.43017578 C96.84708865 147.07887577 97.68705408 151.30519655 100.14453125 156.43359375 C101.13453125 156.76359375 102.12453125 157.09359375 103.14453125 157.43359375 C103.14453125 164.03359375 103.14453125 170.63359375 103.14453125 177.43359375 C65.85453125 177.43359375 28.56453125 177.43359375 -9.85546875 177.43359375 C-9.85546875 176.44359375 -9.85546875 175.45359375 -9.85546875 174.43359375 C-11.30953125 175.42359375 -11.30953125 175.42359375 -12.79296875 176.43359375 C-20.11472589 180.09447232 -30.21616 179.78916003 -37.95703125 177.52734375 C-40.41796875 176.43359375 -40.41796875 176.43359375 -43.85546875 174.43359375 C-44.23058594 174.9646875 -44.60570312 175.49578125 -44.9921875 176.04296875 C-51.64768078 185.2298965 -59.52931052 190.16547973 -70.7734375 192.11328125 C-74.88655083 192.5407531 -78.97199034 192.72691598 -83.10546875 192.80859375 C-83.87431396 192.83469727 -84.64315918 192.86080078 -85.43530273 192.88769531 C-90.70458932 192.9037166 -93.68858011 191.93125482 -97.85546875 188.43359375 C-100.55593875 184.38288876 -100.6086082 181.18674051 -99.85546875 176.43359375 C-97.70636479 172.77215737 -95.75126102 171.71051577 -91.734375 170.46875 C-87.42051827 169.42515255 -83.30515937 168.43359375 -78.85546875 168.43359375 C-79.18546875 142.36359375 -79.51546875 116.29359375 -79.85546875 89.43359375 C-85.79546875 89.10359375 -91.73546875 88.77359375 -97.85546875 88.43359375 C-97.85546875 80.84359375 -97.85546875 73.25359375 -97.85546875 65.43359375 C-73.43546875 65.43359375 -49.01546875 65.43359375 -23.85546875 65.43359375 C-23.85546875 68.73359375 -23.85546875 72.03359375 -23.85546875 75.43359375 C-21.87546875 75.43359375 -19.89546875 75.43359375 -17.85546875 75.43359375 C-18.01273437 74.92441406 -18.17 74.41523437 -18.33203125 73.890625 C-19.63207903 67.78816191 -20.29909674 59.71456646 -17.73828125 53.89453125 C-16.35546875 51.99609375 -16.35546875 51.99609375 -13.85546875 49.43359375 C-14.96921875 49.30984375 -16.08296875 49.18609375 -17.23046875 49.05859375 C-20.85546875 48.43359375 -20.85546875 48.43359375 -22.85546875 46.43359375 C-22.68832994 43.84294225 -22.04346093 42.65291796 -20.35546875 40.68359375 C-16.59989636 38.80580756 -12.97900269 39.19569756 -8.85546875 39.43359375 C-8.74589844 38.510625 -8.63632813 37.58765625 -8.5234375 36.63671875 C-7.54908725 28.62011342 -6.50070198 20.61515663 -5.35546875 12.62109375 C-5.2371167 11.75581055 -5.11876465 10.89052734 -4.99682617 9.99902344 C-4.87799072 9.18723633 -4.75915527 8.37544922 -4.63671875 7.5390625 C-4.53423828 6.81871826 -4.43175781 6.09837402 -4.32617188 5.35620117 C-3.6532903 2.60778704 -2.89930977 0.67752291 0 0 Z " fill="#020201" transform="translate(111.85546875,18.56640625)"/>
<path d="M0 0 C18.15 0 36.3 0 55 0 C55 3.3 55 6.6 55 10 C54.18015625 10.09796875 53.3603125 10.1959375 52.515625 10.296875 C51.43796875 10.44640625 50.3603125 10.5959375 49.25 10.75 C48.18265625 10.88921875 47.1153125 11.0284375 46.015625 11.171875 C42.52687609 12.12992522 41.19068575 13.15415589 39 16 C37.68476029 19.70157122 37.84811915 23.51641129 37.84228516 27.39550781 C37.83720444 28.13426651 37.83212372 28.87302521 37.82688904 29.63417053 C37.81620601 31.23559645 37.80757776 32.83703711 37.80076981 34.43848419 C37.78894551 36.9782531 37.76948261 39.51785466 37.74765015 42.05755615 C37.68616037 49.2777342 37.63206418 56.49789485 37.59863281 63.71826172 C37.57761785 68.13857561 37.54225952 72.55858335 37.49787521 76.97872162 C37.4837684 78.65788913 37.47500486 80.33711079 37.47182083 82.01633453 C37.466879 84.3735173 37.44363814 86.72989632 37.41650391 89.08691406 C37.41951004 89.77187454 37.42251617 90.45683502 37.4256134 91.16255188 C37.32794666 96.91274254 35.9655319 102.19209729 32.6328125 106.953125 C24.49857371 113.94941329 14.18681468 115.41016582 3.77734375 115.62890625 C1 115 1 115 -1.35546875 112.640625 C-3.15113355 109.75732476 -3.3800642 108.32556172 -3 105 C-0.1077543 103.98380557 2.75175721 103.05657955 5.7421875 102.375 C6.71414062 102.148125 7.68609375 101.92125 8.6875 101.6875 C9.61949219 101.48511719 10.55148438 101.28273438 11.51171875 101.07421875 C14.84865402 99.6336266 15.45936612 98.27518782 17 95 C17.28899124 92.36447765 17.42085646 89.96767581 17.40405273 87.33569336 C17.41434761 86.20306816 17.41434761 86.20306816 17.42485046 85.04756165 C17.44309371 82.56146233 17.43928562 80.07599537 17.43359375 77.58984375 C17.43815587 75.85779109 17.44346154 74.12574024 17.44947815 72.39369202 C17.45840369 68.76816439 17.45599148 65.14285713 17.44604492 61.51733398 C17.43453988 56.87102873 17.45479266 52.22548173 17.48396206 47.57927608 C17.50230271 44.00447257 17.50203617 40.42985164 17.49632454 36.85501289 C17.49617115 35.14178972 17.50223024 33.42855431 17.51461601 31.7153759 C17.52948916 29.3214024 17.51887854 26.92884129 17.50170898 24.53491211 C17.51137695 23.82779083 17.52104492 23.12066956 17.53100586 22.39212036 C17.48058716 19.03616631 17.22480784 17.29036808 15.14442444 14.60328674 C10.61673629 11.21814421 5.49856244 10.65982749 0 10 C0 6.7 0 3.4 0 0 Z " fill="#FBC943" transform="translate(24,89)"/>
<path d="M0 0 C16.60683087 -0.02781714 33.89548665 7.40231407 48.14453125 15.43359375 C50.14453125 17.43359375 50.14453125 17.43359375 50.14453125 21.26171875 C49.25390312 27.80521598 46.11765181 33.36751229 43.14453125 39.18359375 C42.03529688 41.38417161 40.93092871 43.5872108 39.83203125 45.79296875 C39.34089844 46.75686523 38.84976563 47.72076172 38.34375 48.71386719 C37.19668795 51.31530678 36.5774846 53.63340432 36.14453125 56.43359375 C32.23326013 54.93596949 28.52620033 53.15684055 24.76953125 51.30859375 C14.5919912 46.41931878 3.8413381 42.99269031 -6.85546875 39.43359375 C-7.18546875 40.42359375 -7.51546875 41.41359375 -7.85546875 42.43359375 C-8.15646279 33.7738838 -7.24542467 25.49223165 -5.98046875 16.93359375 C-5.80644531 15.67289063 -5.63242188 14.4121875 -5.453125 13.11328125 C-5.27910156 11.90929687 -5.10507813 10.7053125 -4.92578125 9.46484375 C-4.69012451 7.83385742 -4.69012451 7.83385742 -4.44970703 6.16992188 C-3.2760626 0.7655641 -3.2760626 0.7655641 0 0 Z " fill="#010000" transform="translate(111.85546875,18.56640625)"/>
<path d="M0 0 C5.94284156 3.16164419 10.19997239 8.42853174 12.32421875 14.7890625 C14.19933443 24.12136898 13.91927506 34.08133709 8.83203125 42.31640625 C5.26564567 46.94493572 1.73365787 50.29497087 -4.16796875 51.31640625 C-9.39527128 51.80940035 -13.66978176 52.02309822 -18.48046875 49.75390625 C-24.50362362 44.29104486 -29.03401067 39.45454463 -29.5390625 31.0234375 C-29.79678129 20.7845935 -29.78771717 12.26817482 -22.3828125 4.42578125 C-16.15442664 -1.2339834 -8.14066849 -2.56687745 0 0 Z " fill="#F8C742" transform="translate(94.16796875,138.68359375)"/>
<path d="M0 0 C0.495 14.355 0.495 14.355 1 29 C3.64 27.02 6.28 25.04 9 23 C14.18788353 22.3082822 16.4901833 22.10053473 20.9375 24.75 C24.81482827 28.97981266 25.26123707 32.13332287 25.37890625 37.84765625 C25.39590073 38.50076279 25.4128952 39.15386932 25.43040466 39.82676697 C25.48334148 41.90524741 25.52374087 43.98371071 25.5625 46.0625 C25.6065168 48.14475937 25.65327964 50.22686971 25.70530701 52.3089447 C25.75170115 54.19548932 25.78927872 56.0822446 25.82641602 57.96899414 C25.87012447 61.04615472 25.87012447 61.04615472 27 64 C28.65 64.33 30.3 64.66 32 65 C32 67.97 32 70.94 32 74 C24.74 74 17.48 74 10 74 C10 71.03 10 68.06 10 65 C11.98 64.34 13.96 63.68 16 63 C16.0871747 59.25014675 16.14045003 55.50055445 16.1875 51.75 C16.21263672 50.68652344 16.23777344 49.62304688 16.26367188 48.52734375 C16.27817383 46.99013672 16.27817383 46.99013672 16.29296875 45.421875 C16.31653442 44.00793457 16.31653442 44.00793457 16.34057617 42.56542969 C15.93702341 39.52562152 15.1326876 38.17760943 13 36 C9.33167628 35.34785356 7.26822398 35.89046696 3.82421875 37.296875 C0.55154958 40.42922226 0.56653065 41.08500329 0.4140625 45.421875 C0.45387705 47.53204597 0.52534 49.64180774 0.625 51.75 C0.65207031 52.82894531 0.67914063 53.90789062 0.70703125 55.01953125 C0.77770858 57.68171065 0.87631599 60.33984236 1 63 C2.98 63.66 4.96 64.32 7 65 C7 67.97 7 70.94 7 74 C-0.26 74 -7.52 74 -15 74 C-15 71.03 -15 68.06 -15 65 C-12.03 64.505 -12.03 64.505 -9 64 C-9.33 47.5 -9.66 31 -10 14 C-11.65 14 -13.3 14 -15 14 C-15.33 11.03 -15.66 8.06 -16 5 C-14.08717875 4.15787744 -12.16957527 3.32661136 -10.25 2.5 C-9.18265625 2.0359375 -8.1153125 1.571875 -7.015625 1.09375 C-4 0 -4 0 0 0 Z " fill="#F4C541" transform="translate(126,115)"/>
<path d="M0 0 C0.33 2.31 0.66 4.62 1 7 C1.46148437 6.566875 1.92296875 6.13375 2.3984375 5.6875 C7.04868537 1.7173279 10.54873603 0.03727226 16.7265625 0.3984375 C20.67483603 1.44316967 21.88788177 3.59335769 24 7 C25.46930415 9.9386083 25.20341709 12.62898787 25.28125 15.90625 C25.30886414 16.92700623 25.30886414 16.92700623 25.33703613 17.96838379 C25.41575206 20.88354708 25.48345909 23.79894375 25.55224609 26.71435547 C25.60397502 28.84093629 25.66122447 30.96731939 25.71875 33.09375 C25.74904297 34.36927734 25.77933594 35.64480469 25.81054688 36.95898438 C25.79606929 39.91775016 25.79606929 39.91775016 27 42 C29.52733235 42.65555119 29.52733235 42.65555119 32 43 C32 45.97 32 48.94 32 52 C24.74 52 17.48 52 10 52 C10 49.03 10 46.06 10 43 C11.98 42.34 13.96 41.68 16 41 C16.0871747 37.25014675 16.14045003 33.50055445 16.1875 29.75 C16.21263672 28.68652344 16.23777344 27.62304688 16.26367188 26.52734375 C16.27333984 25.50253906 16.28300781 24.47773438 16.29296875 23.421875 C16.3086792 22.47924805 16.32438965 21.53662109 16.34057617 20.56542969 C15.94383071 17.57689826 14.98295729 16.22310783 13 14 C7.73489743 14.41294922 4.50384732 14.92017777 1 19 C0.37349583 22.76440935 0.53066398 26.44732978 0.6875 30.25 C0.71005859 31.28125 0.73261719 32.3125 0.75585938 33.375 C0.81472837 35.91814065 0.89689935 38.45833113 1 41 C2.98 41.66 4.96 42.32 7 43 C7 45.97 7 48.94 7 52 C-0.26 52 -7.52 52 -15 52 C-15 49.03 -15 46.06 -15 43 C-12.525 42.505 -12.525 42.505 -10 42 C-10 33.09 -10 24.18 -10 15 C-11.65 14.67 -13.3 14.34 -15 14 C-15 11.03 -15 8.06 -15 5 C-13.06532058 4.16013916 -11.12714871 3.32831973 -9.1875 2.5 C-8.10855469 2.0359375 -7.02960938 1.571875 -5.91796875 1.09375 C-3 0 -3 0 0 0 Z " fill="#F3C441" transform="translate(174,137)"/>
<path d="M0 0 C1.67542976 0.28604898 3.34385343 0.61781233 5 1 C5.103125 2.051875 5.20625 3.10375 5.3125 4.1875 C5.99939644 7.99665301 7.02715135 9.76452822 9 13 C9.268125 14.258125 9.53625 15.51625 9.8125 16.8125 C10.75328741 21.06614562 12.81663462 23.81812789 15.5625 27.140625 C17.00919859 29.01189818 18.01354634 30.85636031 19 33 C16.03 33.495 16.03 33.495 13 34 C13.4125 34.94875 13.825 35.8975 14.25 36.875 C16.255317 41.54767646 18.1264409 46.27330521 20 51 C12.8763095 54.49200515 12.8763095 54.49200515 8 53 C5.17578125 51.4765625 5.17578125 51.4765625 2.3125 49.625 C0.88357422 48.71621094 0.88357422 48.71621094 -0.57421875 47.7890625 C-3 46 -3 46 -5 43 C-4.76099887 37.87233941 -0.05500198 34.26160222 3.1640625 30.65625 C5.21738895 28.23599833 5.21738895 28.23599833 4.96484375 25.796875 C3.39984036 22.88229379 0.77910671 21.65563804 -2 20 C-1.67 19.34 -1.34 18.68 -1 18 C-0.34 18 0.32 18 1 18 C0.484375 16.865625 -0.03125 15.73125 -0.5625 14.5625 C-2.34064144 9.88757414 -2.14152067 5.83032357 -1 1 C-0.67 0.67 -0.34 0.34 0 0 Z " fill="#F5F5F5" transform="translate(146,84)"/>
<path d="M0 0 C2.86890102 2.1112003 4.41311435 4.82622869 6 8 C6.1432593 10.29953332 6.22654708 12.60290801 6.28125 14.90625 C6.30886414 15.92700623 6.30886414 15.92700623 6.33703613 16.96838379 C6.41575206 19.88354708 6.48345909 22.79894375 6.55224609 25.71435547 C6.60397502 27.84093629 6.66122447 29.96731939 6.71875 32.09375 C6.74904297 33.36927734 6.77933594 34.64480469 6.81054688 35.95898438 C6.79606929 38.91775016 6.79606929 38.91775016 8 41 C10.52733235 41.65555119 10.52733235 41.65555119 13 42 C13 44.97 13 47.94 13 51 C5.74 51 -1.52 51 -9 51 C-9 48.03 -9 45.06 -9 42 C-7.02 41.34 -5.04 40.68 -3 40 C-2.95045289 35.94323508 -2.914211 31.88658806 -2.89013672 27.82958984 C-2.88009747 26.45032685 -2.86646323 25.07108504 -2.84912109 23.69189453 C-2.82478246 21.7061486 -2.81456745 19.7202455 -2.8046875 17.734375 C-2.78897705 15.94338379 -2.78897705 15.94338379 -2.77294922 14.11621094 C-2.98965238 11.14201836 -3.43813878 9.49681621 -5 7 C-11.08408472 6.80185739 -11.08408472 6.80185739 -17 8 C-12.42193098 0.73823535 -8.56516822 -1.61194553 0 0 Z " fill="#F8C842" transform="translate(193,138)"/>
<path d="M0 0 C3.59854943 2.14381668 5.48783001 4.13437363 7 8 C7.30297852 11.16040039 7.30297852 11.16040039 7.37890625 14.84765625 C7.39590073 15.50076279 7.4128952 16.15386932 7.43040466 16.82676697 C7.48334148 18.90524741 7.52374087 20.98371071 7.5625 23.0625 C7.6065168 25.14475937 7.65327964 27.22686971 7.70530701 29.3089447 C7.75170115 31.19548932 7.78927872 33.0822446 7.82641602 34.96899414 C7.87012447 38.04615472 7.87012447 38.04615472 9 41 C10.65 41.33 12.3 41.66 14 42 C14 44.97 14 47.94 14 51 C6.74 51 -0.52 51 -8 51 C-8 48.03 -8 45.06 -8 42 C-6.02 41.34 -4.04 40.68 -2 40 C-1.95053887 35.78248718 -1.91425173 31.56512832 -1.89013672 27.34741211 C-1.880083 25.91281188 -1.86643806 24.47823211 -1.84912109 23.04370117 C-1.82484451 20.98090562 -1.81351081 18.91838115 -1.8046875 16.85546875 C-1.79421387 15.61434326 -1.78374023 14.37321777 -1.77294922 13.09448242 C-1.7571193 9.83096691 -1.7571193 9.83096691 -4 7 C-6.66653905 6.63539547 -6.66653905 6.63539547 -9.625 6.8125 C-10.62789062 6.83957031 -11.63078125 6.86664063 -12.6640625 6.89453125 C-13.82035156 6.94673828 -13.82035156 6.94673828 -15 7 C-10.65582618 0.19412768 -7.96105392 -1.00546183 0 0 Z " fill="#F9C842" transform="translate(144,138)"/>
<path d="M0 0 C4.53562605 2.79115449 6.90858384 5.53669703 8.53125 10.6171875 C9.65697147 16.33960497 10.26158066 22.46614731 7.6171875 27.77734375 C5.58460199 30.57092142 4.36168197 31.23598137 1 32 C-3.47858253 32 -5.37334998 31.55543979 -8.75 28.5625 C-13.12098686 22.51259103 -14.75381642 15.31215309 -13.5859375 7.98046875 C-12.70772502 5.01211057 -11.19894235 3.13230773 -9 1 C-5.85088521 -0.57455739 -3.47991184 -0.34799118 0 0 Z " fill="#020100" transform="translate(88,148)"/>
<path d="M0 0 C0.33 0 0.66 0 1 0 C1.06966027 9.90134192 1.12289249 19.80262507 1.15543652 29.7041626 C1.17105987 34.30237515 1.19223702 38.90041943 1.22631836 43.49853516 C1.25903098 47.94002933 1.27687804 52.38136213 1.28463173 56.82296753 C1.29015394 58.513362 1.30093734 60.20374813 1.31719017 61.89407349 C1.33912318 64.27071889 1.34196039 66.64670639 1.34057617 69.0234375 C1.351362 69.71468216 1.36214783 70.40592682 1.3732605 71.11811829 C1.33702981 76.90666767 -0.0130642 82.16152029 -3.3671875 86.953125 C-11.50142629 93.94941329 -21.81318532 95.41016582 -32.22265625 95.62890625 C-35 95 -35 95 -37.43359375 92.65234375 C-37.95050781 91.77707031 -38.46742187 90.90179688 -39 90 C-38.67 89.01 -38.34 88.02 -38 87 C-36.82824219 87.04640625 -35.65648437 87.0928125 -34.44921875 87.140625 C-23.78637689 87.43706745 -14.26832597 87.3075341 -5.4375 80.5 C-1.09619372 76.04737817 -0.74440594 72.95178215 -0.68115234 66.75292969 C-0.66608391 65.6694072 -0.66608391 65.6694072 -0.65071106 64.56399536 C-0.61989198 62.18329645 -0.60284769 59.80270994 -0.5859375 57.421875 C-0.5672248 55.76848382 -0.54765131 54.11510219 -0.5272522 52.46173096 C-0.47593566 48.11512883 -0.43630742 43.76849575 -0.39910889 39.42175293 C-0.35906623 34.98421574 -0.30797508 30.54680729 -0.2578125 26.109375 C-0.16105886 17.40633796 -0.07665233 8.70323718 0 0 Z " fill="#B49030" transform="translate(60,109)"/>
<path d="M0 0 C0.33 0 0.66 0 1 0 C1.47882654 9.97555284 1.7490378 18.83659985 -4.61328125 27.09375 C-9.65572922 32.54987995 -14.13916741 34.04674665 -21.5 34.375 C-27.43433573 34.23848619 -30.44905543 32.59397255 -34.62109375 28.3515625 C-39.71991484 22.75141848 -41.30172171 18.69390372 -41 11 C-39 14 -39 14 -37.95703125 15.90234375 C-35.25183522 20.71260699 -32.50505106 24.3985306 -27 26 C-20.54855464 26.85308368 -14.41400324 26.73868626 -8.6875 23.41015625 C-4.17255544 19.63725119 -1.36389418 14.10433184 -0.68359375 8.30078125 C-0.60238281 7.31464844 -0.52117187 6.32851562 -0.4375 5.3125 C-0.35371094 4.31863281 -0.26992187 3.32476562 -0.18359375 2.30078125 C-0.09271484 1.16189453 -0.09271484 1.16189453 0 0 Z " fill="#AC8A2E" transform="translate(106,156)"/>
<path d="M0 0 C4.58984375 0.09765625 4.58984375 0.09765625 9.1796875 0.1953125 C9.1796875 5.4753125 9.1796875 10.7553125 9.1796875 16.1953125 C2.2496875 19.6603125 2.2496875 19.6603125 -4.8203125 23.1953125 C-4.87407217 19.7367737 -4.91386931 16.27906342 -4.9453125 12.8203125 C-4.96207031 11.83546875 -4.97882813 10.850625 -4.99609375 9.8359375 C-5.00253906 8.89492187 -5.00898437 7.95390625 -5.015625 6.984375 C-5.02609863 6.11506348 -5.03657227 5.24575195 -5.04736328 4.35009766 C-4.67507224 0.81693561 -3.4194604 0.23680474 0 0 Z " fill="#EDEDED" transform="translate(74.8203125,105.8046875)"/>
<path d="M0 0 C14.35081436 0.16377534 37.60781736 7.04531736 47.875 17.3125 C47.875 18.6325 47.875 19.9525 47.875 21.3125 C44.37989744 19.95589231 40.96950876 18.45358021 37.55761719 16.90087891 C28.85295071 12.9703577 20.05753248 9.92068411 10.875 7.3125 C10.18148437 7.10625 9.48796875 6.9 8.7734375 6.6875 C6.24428697 6.18791471 3.82594359 6.18055676 1.25 6.1875 C0.28835937 6.18492188 -0.67328125 6.18234375 -1.6640625 6.1796875 C-4.12974769 6.14888917 -4.12974769 6.14888917 -6.125 7.3125 C-5.05953032 0.15863214 -5.05953032 0.15863214 0 0 Z " fill="#303030" transform="translate(114.125,18.6875)"/>
<path d="M0 0 C6.74226814 1.34024803 12.96804722 3.27313655 19.375 5.75 C20.29240967 6.10126953 21.20981934 6.45253906 22.1550293 6.81445312 C28.75532034 9.39257301 34.96160355 12.26665887 41 16 C40.67 18.31 40.34 20.62 40 23 C39.01 23.33 38.02 23.66 37 24 C34.64029402 22.59930273 32.47153644 21.1586626 30.25 19.5625 C24.98065559 15.90947533 19.67288005 12.55476471 14 9.5625 C13.40219727 9.24547119 12.80439453 8.92844238 12.18847656 8.60180664 C8.20044121 6.52827292 4.14476921 4.7287494 0 3 C0 2.01 0 1.02 0 0 Z " fill="#CF1818" transform="translate(105,58)"/>
<path d="M0 0 C1.77734375 0.92578125 1.77734375 0.92578125 3.9375 2.3125 C7.5694248 4.47422164 10.18021705 5.24954632 14.375 5.5625 C20.83133022 6.58528499 24.99521982 10.29717377 28.9375 15.26953125 C32.96848861 21.45343423 31.82113331 28.99963121 31 36 C30.67 36 30.34 36 30 36 C30.04382813 35.18917969 30.08765625 34.37835938 30.1328125 33.54296875 C30.11648859 26.53185017 29.13371254 22.1939636 24.5625 16.75 C21.08570953 13.30792784 18.80613332 11.41551638 13.875 11.125 C12.64716797 11.14433594 12.64716797 11.14433594 11.39453125 11.1640625 C7.80624369 10.91820919 5.55476841 9.2126103 2.69140625 7.15625 C0.88885265 5.81054924 0.88885265 5.81054924 -2 5 C-2 3.68 -2 2.36 -2 1 C-1.34 0.67 -0.68 0.34 0 0 Z " fill="#393939" transform="translate(150,76)"/>
<path d="M0 0 C4.72257728 2.9062014 6.83594465 5.67884143 8.54296875 10.9296875 C9.22978682 14.04091467 9.19845592 16.82470522 9 20 C8.7525 19.46375 8.505 18.9275 8.25 18.375 C6.01390094 14.12641179 4.03188725 10.68792483 0 8 C-3.41538144 7.41630557 -3.41538144 7.41630557 -7 8 C-10.24884494 10.59907595 -12.42739812 13.13997719 -14 17 C-14.33506294 11.52730529 -13.6071996 7.84194211 -11 3 C-7.75796767 -0.58939294 -4.67362354 -0.64463773 0 0 Z " fill="#AC8A2E" transform="translate(88,141)"/>
<path d="M0 0 C0.33 0 0.66 0 1 0 C1 2.97 1 5.94 1 9 C-6.26 9 -13.52 9 -21 9 C-21 6.69 -21 4.38 -21 2 C-14.07 2 -7.14 2 0 2 C0 1.34 0 0.68 0 0 Z " fill="#AB892E" transform="translate(180,180)"/>
<path d="M0 0 C0.33 0 0.66 0 1 0 C1 2.97 1 5.94 1 9 C-6.26 9 -13.52 9 -21 9 C-21 6.69 -21 4.38 -21 2 C-14.07 2 -7.14 2 0 2 C0 1.34 0 0.68 0 0 Z " fill="#A9882D" transform="translate(157,180)"/>
<path d="M0 0 C0.33 0 0.66 0 1 0 C1 2.97 1 5.94 1 9 C-6.26 9 -13.52 9 -21 9 C-21 6.69 -21 4.38 -21 2 C-14.07 2 -7.14 2 0 2 C0 1.34 0 0.68 0 0 Z " fill="#AB892E" transform="translate(132,180)"/>
<path d="M0 0 C7.26 0 14.52 0 22 0 C22 2.31 22 4.62 22 7 C14.74 7 7.48 7 0 7 C0 4.69 0 2.38 0 0 Z " fill="#AB892E" transform="translate(184,182)"/>
<path d="M0 0 C6.55991923 -0.40162771 11.09026755 0.91096132 16.4375 4.75 C18.60851538 7.87626215 18.28560002 10.28719974 18 14 C17.29875 13.38125 16.5975 12.7625 15.875 12.125 C10.95356277 8.48741596 5.99407748 7.7192893 0 7 C0 4.69 0 2.38 0 0 Z " fill="#B28F2F" transform="translate(24,92)"/>
<path d="M0 0 C1.61648437 0.04060547 1.61648437 0.04060547 3.265625 0.08203125 C4.08546875 0.11683594 4.9053125 0.15164062 5.75 0.1875 C5.75 2.1675 5.75 4.1475 5.75 6.1875 C4.52023438 6.33445312 4.52023438 6.33445312 3.265625 6.484375 C1.64914063 6.70867187 1.64914063 6.70867187 0 6.9375 C-1.06734375 7.07671875 -2.1346875 7.2159375 -3.234375 7.359375 C-6.69174937 8.30880941 -8.00499492 9.44360491 -10.25 12.1875 C-11.48512079 14.32059192 -11.48512079 14.32059192 -12.25 16.1875 C-12.44178072 11.39298203 -12.25050465 7.58861024 -10.25 3.1875 C-6.97197053 -0.03741325 -4.4985437 -0.14669164 0 0 Z " fill="#B08D2F" transform="translate(73.25,92.8125)"/>
<path d="M0 0 C2.63238596 2.79691009 2.97124916 4.49206847 3.1875 8.3125 C3.0946875 9.6428125 3.0946875 9.6428125 3 11 C2.484375 10.319375 1.96875 9.63875 1.4375 8.9375 C-0.92138313 6.64998768 -0.92138313 6.64998768 -4.375 7 C-8.41727447 8.1151102 -10.68899653 9.49655835 -14 12 C-14.375 8.8125 -14.375 8.8125 -14 5 C-9.73414656 -0.01237779 -6.48427053 -1.06299517 0 0 Z " fill="#AD8B2E" transform="translate(188,144)"/>
<path d="M0 0 C2 1.5625 2 1.5625 3 4 C3.1875 7.75 3.1875 7.75 3 11 C2.46375 10.34 1.9275 9.68 1.375 9 C-0.85467353 6.78390498 -0.85467353 6.78390498 -3.8125 6.5 C-7.97279873 7.15259588 -10.46294022 8.73628174 -14 11 C-14.375 8.3125 -14.375 8.3125 -14 5 C-9.65292884 0.00086817 -6.53082197 -0.9635639 0 0 Z " fill="#AF8C2F" transform="translate(140,144)"/>
<path d="M0 0 C0.33 0.66 0.66 1.32 1 2 C2.98 2 4.96 2 7 2 C8.26372044 4.52744088 8.12022795 6.26380308 8.11352539 9.09228516 C8.11344986 10.15323395 8.11337433 11.21418274 8.11329651 12.30728149 C8.10813522 13.45626923 8.10297394 14.60525696 8.09765625 15.7890625 C8.0962413 16.96262299 8.09482635 18.13618347 8.09336853 19.3453064 C8.08775689 23.10522985 8.07520238 26.86509445 8.0625 30.625 C8.0574865 33.16926998 8.05292333 35.71354088 8.04882812 38.2578125 C8.03778368 44.50522853 8.02103418 50.75261006 8 57 C7.67 57 7.34 57 7 57 C6.67 41.16 6.34 25.32 6 9 C4.35 9 2.7 9 1 9 C0.67 6.03 0.34 3.06 0 0 Z " fill="#917426" transform="translate(110,120)"/>
<path d="M0 0 C6.74226814 1.34024803 12.96804722 3.27313655 19.375 5.75 C20.29240967 6.10126953 21.20981934 6.45253906 22.1550293 6.81445312 C28.75532034 9.39257301 34.96160355 12.26665887 41 16 C41 17.65 41 19.3 41 21 C40.95875 20.38125 40.9175 19.7625 40.875 19.125 C40.441875 18.073125 40.441875 18.073125 40 17 C37.44776515 15.95103425 37.44776515 15.95103425 34 15 C32.32451137 14.248535 30.65872706 13.47527303 29 12.6875 C20.24791674 8.65819391 11.57854736 5.26156477 2 4 C1.34 3.67 0.68 3.34 0 3 C0 2.01 0 1.02 0 0 Z " fill="#9D1212" transform="translate(105,58)"/>
<path d="M0 0 C3.67066132 0.25027236 5.46654698 0.43064149 8.03125 3.16796875 C10.05642969 6.08117367 11.41696526 8.84178481 12.75 12.125 C13.17796875 13.15882812 13.6059375 14.19265625 14.046875 15.2578125 C15 18 15 18 15 21 C14.34 21 13.68 21 13 21 C12.52820313 19.75283203 12.52820313 19.75283203 12.046875 18.48046875 C11.61890625 17.39378906 11.1909375 16.30710938 10.75 15.1875 C10.33234375 14.10855469 9.9146875 13.02960938 9.484375 11.91796875 C7.28540757 7.59526173 4.28803474 5.99087327 0 4 C0 2.68 0 1.36 0 0 Z " fill="#303030" transform="translate(181,113)"/>
<path d="M0 0 C0.33 0 0.66 0 1 0 C1 1.98 1 3.96 1 6 C-0.010625 6.268125 -1.02125 6.53625 -2.0625 6.8125 C-5.87327442 7.8935156 -9.38875208 9.37862338 -13 11 C-13.33 9.68 -13.66 8.36 -14 7 C-11.71568262 4.64199496 -9.9918976 3.11279103 -6.6640625 2.734375 C-4.43079795 2.748465 -2.22617559 2.82539799 0 3 C0 2.01 0 1.02 0 0 Z " fill="#303030" transform="translate(103,55)"/>
<path d="M0 0 C0.66 0.33 1.32 0.66 2 1 C2 2.32 2 3.64 2 5 C0.2335343 6.0076952 -1.53833823 7.00591714 -3.3125 8 C-4.79169922 8.8353125 -4.79169922 8.8353125 -6.30078125 9.6875 C-9 11 -9 11 -12 11 C-11.83984375 8.7109375 -11.83984375 8.7109375 -11 6 C-8.56640625 4.1640625 -8.56640625 4.1640625 -5.5625 2.625 C-4.07943359 1.83996094 -4.07943359 1.83996094 -2.56640625 1.0390625 C-1.29603516 0.52472656 -1.29603516 0.52472656 0 0 Z " fill="#323232" transform="translate(82,122)"/>
<path d="M0 0 C0.88563089 3.79074537 1.11681301 7.28695898 1.09765625 11.17578125 C1.09282227 12.91118164 1.09282227 12.91118164 1.08789062 14.68164062 C1.07951172 15.87982422 1.07113281 17.07800781 1.0625 18.3125 C1.05798828 19.53001953 1.05347656 20.74753906 1.04882812 22.00195312 C1.03706578 25.00135226 1.02062826 28.00065089 1 31 C0.67 31 0.34 31 0 31 C-0.33 23.08 -0.66 15.16 -1 7 C-2.65 6.67 -4.3 6.34 -6 6 C-6 4.02 -6 2.04 -6 0 C-3.50907189 -1.24546405 -2.58919267 -0.7767578 0 0 Z " fill="#957828" transform="translate(165,145)"/>
<path d="M0 0 C3.65573061 1.37007562 6.95467647 3.01017865 10.3125 5 C11.19550781 5.515625 12.07851562 6.03125 12.98828125 6.5625 C13.65214844 7.036875 14.31601563 7.51125 15 8 C15 8.66 15 9.32 15 10 C13.32598903 9.35199575 11.66194738 8.67834587 10 8 C9.24074219 7.70867187 8.48148438 7.41734375 7.69921875 7.1171875 C6.89097656 6.78976563 6.08273438 6.46234375 5.25 6.125 C4.47140625 5.81820312 3.6928125 5.51140625 2.890625 5.1953125 C1 4 1 4 0.234375 1.8671875 C0.15703125 1.25101563 0.0796875 0.63484375 0 0 Z " fill="#2E2E2E" transform="translate(141,129)"/>
<path d="M0 0 C2.86724686 0.57344937 3.8614515 0.8614515 6 3 C5.625 5.125 5.625 5.125 5 7 C1.535 5.02 1.535 5.02 -2 3 C-1.34 2.01 -0.68 1.02 0 0 Z " fill="#363636" transform="translate(146,106)"/>
<path d="M0 0 C1.32 0 2.64 0 4 0 C2.125 3.875 2.125 3.875 1 5 C0.76572222 7.01594582 0.58663876 9.038474 0.4375 11.0625 C0.35371094 12.16722656 0.26992187 13.27195312 0.18359375 14.41015625 C0.12300781 15.26480469 0.06242187 16.11945313 0 17 C-0.33 17 -0.66 17 -1 17 C-1.02691685 14.54159395 -1.04679802 12.08348118 -1.0625 9.625 C-1.07087891 8.92632812 -1.07925781 8.22765625 -1.08789062 7.5078125 C-1.11328125 2.2265625 -1.11328125 2.2265625 0 0 Z " fill="#3F3F3F" transform="translate(94,73)"/>
<path d="M0 0 C0.99 0.33 1.98 0.66 3 1 C2.67 2.65 2.34 4.3 2 6 C1.01 6.33 0.02 6.66 -1 7 C-1.33 5.02 -1.66 3.04 -2 1 C-1.34 0.67 -0.68 0.34 0 0 Z " fill="#333333" transform="translate(161,117)"/>
<path d="M0 0 C1.65 0 3.3 0 5 0 C5 1.65 5 3.3 5 5 C3.35 5 1.7 5 0 5 C0 3.35 0 1.7 0 0 Z " fill="#363636" transform="translate(89,94)"/>
</svg>
