<?xml version="1.0" encoding="UTF-8"?>
<svg version="1.1" xmlns="http://www.w3.org/2000/svg" width="935" height="935">
<path d="M0 0 C1.16875671 0.00182281 2.33751343 0.00364563 3.54168701 0.00552368 C20.89015739 0.05106279 37.84992461 0.50213593 55 3.3125 C56.0916748 3.48410645 57.18334961 3.65571289 58.30810547 3.83251953 C129.84777443 15.30634633 196.15918797 46.4852031 249.7578125 95.2890625 C251.70460493 97.04592396 253.68535882 98.74470252 255.6875 100.4375 C265.09812121 108.6381842 273.99894616 117.73686806 282 127.3125 C283.16982422 128.64861328 283.16982422 128.64861328 284.36328125 130.01171875 C332.72574262 185.51578711 362.30685159 256.51446577 371 329.3125 C371.11714355 330.26624512 371.23428711 331.21999023 371.35498047 332.20263672 C382.40271095 426.11655361 354.51882915 523.01094038 292.56689453 604.34326172 C282.5290519 616.95859962 271.61491684 628.76300671 260.25 640.1875 C259.64833008 640.79384277 259.04666016 641.40018555 258.42675781 642.02490234 C254.11571822 646.32062113 249.62775968 650.36139868 245 654.3125 C244.36126953 654.85793457 243.72253906 655.40336914 243.06445312 655.96533203 C221.84580929 673.93896082 199.2049381 689.35777537 174.45800781 702.09204102 C169.26518725 704.82338669 164.94977333 707.79426878 160.65429688 711.80200195 C156.62706679 715.47916732 152.8889602 716.36034188 147.625 716.9375 C140.9910112 717.83600864 135.21345294 719.99017591 129 722.4375 C105.43317956 731.60928123 80.91195919 737.21424174 56 741.3125 C54.94312988 741.49184082 53.88625977 741.67118164 52.79736328 741.85595703 C35.44565666 744.65928907 17.96842076 744.6195256 0.4375 744.6875 C-1.29258301 744.69955475 -1.29258301 744.69955475 -3.05761719 744.71185303 C-81.07813991 745.12364033 -161.63032306 719.20407183 -223.20166016 670.72558594 C-225.02312122 669.29433198 -226.8592189 667.8838783 -228.69921875 666.4765625 C-235.16163256 661.50600747 -241.33908285 656.35965747 -247.3046875 650.796875 C-249.44517791 648.82390123 -251.61295697 646.91248608 -253.81640625 645.01171875 C-258.07285099 641.30033096 -262.08204646 637.37861815 -266.0625 633.375 C-266.73087891 632.71048828 -267.39925781 632.04597656 -268.08789062 631.36132812 C-272.59714353 626.84331088 -276.84390118 622.15544146 -281 617.3125 C-281.85722656 616.33667969 -282.71445312 615.36085938 -283.59765625 614.35546875 C-331.63296193 558.70759481 -361.45711592 488.13306859 -370 415.3125 C-370.11714355 414.31573242 -370.23428711 413.31896484 -370.35498047 412.29199219 C-376.89760724 353.43751596 -368.22893741 294.53429738 -348.01806641 239.14794922 C-347.68210449 238.21225098 -347.34614258 237.27655273 -347 236.3125 C-346.58927246 235.25820801 -346.17854492 234.20391602 -345.75537109 233.11767578 C-345.50609863 232.19196777 -345.25682617 231.26625977 -345 230.3125 C-346.73787565 227.57763223 -346.73787565 227.57763223 -349 225.3125 C-350.93795159 219.49864524 -351.02055692 213.39141224 -348.3125 207.875 C-342.57413531 201.51627156 -342.57413531 201.51627156 -338.5859375 201 C-334.69238321 200.47354759 -331.39454371 199.92342018 -328.71289062 196.82568359 C-325.89822598 192.66969028 -323.63412855 188.1917276 -321.31103516 183.74902344 C-319.13330421 179.70176927 -316.70693166 175.81979025 -314.25 171.9375 C-313.75322754 171.15165527 -313.25645508 170.36581055 -312.74462891 169.55615234 C-301.95399294 152.71398792 -289.47682836 137.33369876 -276.03125 122.5625 C-274.23276792 120.57033524 -272.48799915 118.54470489 -270.75 116.5 C-263.17400532 107.81144666 -254.79498905 99.75198894 -246 92.3125 C-245.03320312 91.4565625 -244.06640625 90.600625 -243.0703125 89.71875 C-222.98466676 72.00856941 -200.62857807 57.03872783 -177.04052734 44.41503906 C-175.16490339 43.40160071 -173.30906256 42.36044495 -171.45703125 41.3046875 C-119.87489673 12.511948 -58.58857846 -0.18973322 0 0 Z " fill="#243F81" transform="translate(470,95.6875)"/>
<path d="M0 0 C3.96763449 0.01611073 7.93425091 0.00001091 11.90185547 -0.01904297 C35.91366845 -0.03966675 59.67419216 1.98198958 83.34326172 6.07861328 C84.08108887 6.20427673 84.81891602 6.32994019 85.57910156 6.45941162 C121.94993916 12.70307207 157.72816104 23.40293254 191.46826172 38.39111328 C192.48500977 38.83922363 193.50175781 39.28733398 194.54931641 39.74902344 C224.61016864 53.07482877 253.03943556 69.13163749 279.39648438 88.84570312 C281.45576499 90.38179154 283.52849335 91.89792293 285.60498047 93.41064453 C298.81838235 103.09435233 310.98108604 113.88254208 322.97802734 125.01855469 C324.51062572 126.43013203 326.05784132 127.82406529 327.60888672 129.21533203 C336.05910746 136.83385831 343.81231465 144.98089759 351.46826172 153.39111328 C352.31517578 154.31150391 353.16208984 155.23189453 354.03466797 156.18017578 C413.2000287 221.00483188 451.89917659 304.59168087 466.21826172 390.89111328 C466.40485352 392.00212402 466.59144531 393.11313477 466.78369141 394.2578125 C470.40886975 417.43096778 471.97194012 440.48332917 471.859375 463.92285156 C471.84326427 467.89048606 471.85936409 471.85710247 471.87841797 475.82470703 C471.89904175 499.83652001 469.87738542 523.59704373 465.78076172 547.26611328 C465.65509827 548.00394043 465.52943481 548.74176758 465.39996338 549.50195312 C459.15630293 585.87279072 448.45644246 621.6510126 433.46826172 655.39111328 C433.02015137 656.40786133 432.57204102 657.42460938 432.11035156 658.47216797 C418.78454623 688.5330202 402.72773751 716.96228712 383.01367188 743.31933594 C381.47758346 745.37861655 379.96145207 747.45134491 378.44873047 749.52783203 C368.76502267 762.74123392 357.97683292 774.9039376 346.84082031 786.90087891 C345.42924297 788.43347728 344.03530971 789.98069288 342.64404297 791.53173828 C335.02551669 799.98195902 326.87847741 807.73516622 318.46826172 815.39111328 C317.54787109 816.23802734 316.62748047 817.08494141 315.67919922 817.95751953 C250.85454312 877.12288026 167.26769413 915.82202815 80.96826172 930.14111328 C79.85725098 930.32770508 78.74624023 930.51429688 77.6015625 930.70654297 C54.42840722 934.33172131 31.37604583 935.89479169 7.93652344 935.78222656 C3.96888894 935.76611583 0.00227253 935.78221565 -3.96533203 935.80126953 C-27.97714501 935.82189331 -51.73766873 933.80023698 -75.40673828 929.70361328 C-76.14456543 929.57794983 -76.88239258 929.45228638 -77.64257812 929.32281494 C-114.01341572 923.07915449 -149.7916376 912.37929403 -183.53173828 897.39111328 C-184.54848633 896.94300293 -185.56523437 896.49489258 -186.61279297 896.03320312 C-216.6736452 882.70739779 -245.10291212 866.65058907 -271.45996094 846.93652344 C-273.51924155 845.40043503 -275.59196991 843.88430364 -277.66845703 842.37158203 C-290.88185892 832.68787423 -303.0445626 821.89968448 -315.04150391 810.76367188 C-316.57410228 809.35209453 -318.12131788 807.95816127 -319.67236328 806.56689453 C-328.12258402 798.94836825 -335.87579122 790.80132898 -343.53173828 782.39111328 C-344.37865234 781.47072266 -345.22556641 780.55033203 -346.09814453 779.60205078 C-405.26350526 714.77739468 -443.96265315 631.19054569 -458.28173828 544.89111328 C-458.46833008 543.78010254 -458.65492188 542.6690918 -458.84716797 541.52441406 C-462.47234631 518.35125878 -464.03541669 495.29889739 -463.92285156 471.859375 C-463.90674083 467.89174051 -463.92284065 463.92512409 -463.94189453 459.95751953 C-463.96251831 435.94570655 -461.94086198 412.18518284 -457.84423828 388.51611328 C-457.71857483 387.77828613 -457.59291138 387.04045898 -457.46343994 386.28027344 C-451.21977949 349.90943584 -440.51991903 314.13121396 -425.53173828 280.39111328 C-425.08362793 279.37436523 -424.63551758 278.35761719 -424.17382812 277.31005859 C-410.84802279 247.24920636 -394.79121407 218.81993944 -375.07714844 192.46289062 C-373.54106003 190.40361001 -372.02492864 188.33088165 -370.51220703 186.25439453 C-360.82849923 173.04099265 -350.04030948 160.87828896 -338.90429688 148.88134766 C-337.49271953 147.34874928 -336.09878627 145.80153368 -334.70751953 144.25048828 C-327.08899325 135.80026754 -318.94195398 128.04706035 -310.53173828 120.39111328 C-309.61134766 119.54419922 -308.69095703 118.69728516 -307.74267578 117.82470703 C-242.91801968 58.6593463 -159.33117069 19.96019841 -73.03173828 5.64111328 C-71.36522217 5.36122559 -71.36522217 5.36122559 -69.66503906 5.07568359 C-46.49188378 1.45050525 -23.43952239 -0.11256512 0 0 Z M-160.48730469 108.44091797 C-162.5392924 109.39462422 -164.6020435 110.32069999 -166.66845703 111.24267578 C-198.28982888 125.50511229 -227.41119749 145.67602441 -253.53173828 168.39111328 C-254.24458984 169.00341797 -254.95744141 169.61572266 -255.69189453 170.24658203 C-268.70971664 181.50018184 -281.39575258 193.24926681 -292.53173828 206.39111328 C-293.41984048 207.40520447 -294.30928469 208.41812119 -295.19970703 209.43017578 C-313.92531004 230.8132076 -329.80626562 254.52661234 -343.53173828 279.39111328 C-343.91346191 280.07093262 -344.29518555 280.75075195 -344.68847656 281.45117188 C-372.58485145 331.24457145 -387.49466581 388.54398918 -390.78173828 445.32861328 C-390.82293793 446.03886658 -390.86413757 446.74911987 -390.90658569 447.480896 C-391.71427399 461.85394829 -391.61518057 476.08564679 -390.78173828 490.45361328 C-390.73916901 491.1890033 -390.69659973 491.92439331 -390.65274048 492.68206787 C-387.77353307 540.88948694 -375.95110521 588.57749357 -355.48193359 632.34667969 C-354.52822734 634.3986674 -353.60215157 636.4614185 -352.68017578 638.52783203 C-338.41773927 670.14920388 -318.24682715 699.27057249 -295.53173828 725.39111328 C-294.91943359 726.10396484 -294.30712891 726.81681641 -293.67626953 727.55126953 C-282.42266972 740.56909164 -270.67358476 753.25512758 -257.53173828 764.39111328 C-256.51764709 765.27921548 -255.50473038 766.16865969 -254.49267578 767.05908203 C-233.10964396 785.78468504 -209.39623922 801.66564062 -184.53173828 815.39111328 C-183.51200928 815.96369873 -183.51200928 815.96369873 -182.47167969 816.54785156 C-129.74770063 846.0860614 -68.4914587 861.26704131 -8.28173828 863.01611328 C-7.53196716 863.03790649 -6.78219604 863.05969971 -6.00970459 863.08215332 C91.25412285 865.78342416 186.44121814 831.51680762 278.91748047 751.78564453 C286.44343445 744.61623642 293.73309752 737.31725164 300.46826172 729.39111328 C301.35779136 728.37582964 302.24852158 727.3615972 303.14013672 726.34814453 C321.86313189 704.96501788 337.74352448 681.25428196 351.46826172 656.39111328 C352.04084717 655.37138428 352.04084717 655.37138428 352.625 654.33105469 C401.25127245 567.53599893 411.65544866 459.79291642 384.56591797 360.58642578 C368.55347827 305.03426996 341.44488299 254.0611993 303.46826172 210.39111328 C302.85595703 209.67826172 302.24365234 208.96541016 301.61279297 208.23095703 C290.35919316 195.21313492 278.61010819 182.52709898 265.46826172 171.39111328 C264.45417053 170.50301108 263.44125381 169.61356688 262.42919922 168.72314453 C241.0461674 149.99754152 217.33276266 134.11658594 192.46826172 120.39111328 C191.44853271 119.81852783 191.44853271 119.81852783 190.40820312 119.234375 C104.40631551 71.05246899 -0.70489742 61.14043952 -160.48730469 108.44091797 Z " fill="#231F20" transform="translate(463.53173828125,-0.39111328125)"/>
<path d="M0 0 C3.35508844 1.46266777 5.56505222 3.34074073 8.1875 5.875 C43.70597046 38.2868987 96.43585351 66.00445876 143 77 C143.95729004 77.22671387 144.91458008 77.45342773 145.90087891 77.68701172 C184.91343433 86.79189097 222.46919872 92.72810887 257.92333984 70.76123047 C259.46460355 69.80153909 261.00530159 68.84093859 262.54541016 67.87939453 C274.75768953 60.33690762 285.48649739 58.12665341 299.625 57.0625 C308.79523063 56.35631865 317.95050284 55.56701241 327.09814453 54.60961914 C332.09535774 54.10604367 336.97690928 53.91944643 342 54 C339.62333743 56.60264032 337.06718854 58.29836115 334.0625 60.125 C318.9585617 69.61209922 305.63985342 81.41984946 292.60375977 93.51707458 C291.09253121 94.9144405 289.57336961 96.30321291 288.05371094 97.69140625 C280.52366055 104.57148973 273.18975684 111.62391749 265.97802734 118.83666992 C264.24204044 120.57044943 262.4981489 122.29601538 260.75390625 124.02148438 C254.03842545 130.70312507 247.84170272 137.52975152 242 145 C240.99358835 146.24617352 239.98708865 147.49227594 238.98046875 148.73828125 C223.35258984 168.56610067 209.58387211 190.13781774 197 212 C196.50016602 212.85980469 196.00033203 213.71960938 195.48535156 214.60546875 C186.42804358 230.20948226 178.07517231 246.15270785 169.90100098 262.23052979 C169.0301772 263.94073518 168.1552972 265.6488733 167.28027344 267.35693359 C153.81643475 293.65608767 142.12103417 320.64777553 131 348 C134.76799689 347.21650327 138.1565447 345.75555263 141.6953125 344.26171875 C142.35139496 343.9851091 143.00747742 343.70849945 143.68344116 343.42350769 C145.8323138 342.51542655 147.97887482 341.60205412 150.125 340.6875 C150.86274658 340.37387512 151.60049316 340.06025024 152.3605957 339.73712158 C166.37508305 333.7725188 180.23008319 327.51123776 194 321 C195.02464355 320.51853516 196.04928711 320.03707031 197.10498047 319.54101562 C242.16210962 298.3459836 286.45999275 274.39511595 326.1875 244.1875 C326.78481934 243.73366943 327.38213867 243.27983887 327.99755859 242.81225586 C330.02443365 241.23821678 332.01477439 239.62635216 334 238 C334.96252686 237.2147998 335.92505371 236.42959961 336.91674805 235.62060547 C346.80691415 227.41583008 355.86011872 218.41343553 364.90698242 209.29882812 C367.45236393 206.73502852 370.00581926 204.1794835 372.56054688 201.625 C374.20620384 199.97443146 375.85140262 198.32340594 377.49609375 196.671875 C378.62282753 195.54347198 378.62282753 195.54347198 379.77232361 194.39227295 C383.82084046 190.30763535 387.71647012 186.13975447 391.46788025 181.78005981 C392.98024143 180.02295606 394.51954979 178.29354009 396.0703125 176.5703125 C407.10691357 164.18072244 417.75461769 151.02010762 425 136 C425.33 136 425.66 136 426 136 C425.46022434 147.65170898 424.32491969 159.22449075 423.10424805 170.82275391 C422.31681763 178.40582348 421.72861432 185.94491331 421.37963867 193.56030273 C420.02433759 205.8399406 412.6227821 216.38380592 406.11450195 226.52929688 C396.5515453 241.59006559 393.61899905 254.94099189 393.75 272.625 C393.75343414 273.28840393 393.75686829 273.95180786 393.76040649 274.63531494 C393.87398863 293.37608598 396.93051495 310.74078494 401 329 C401.2052832 329.94020996 401.41056641 330.88041992 401.62207031 331.84912109 C411.98415084 379.0978647 442.47877558 450.97113965 483 480 C485.29481557 481.45834654 487.58495871 482.742166 490 484 C471.92028325 502.07971675 424.79239697 506.08592055 401 510 C399.94312988 510.17934082 398.88625977 510.35868164 397.79736328 510.54345703 C380.44565666 513.34678907 362.96842076 513.3070256 345.4375 513.375 C343.70741699 513.38705475 343.70741699 513.38705475 341.94238281 513.39935303 C263.92186009 513.81114033 183.36967694 487.89157183 121.79833984 439.41308594 C119.97687878 437.98183198 118.1407811 436.5713783 116.30078125 435.1640625 C109.83836744 430.19350747 103.66091715 425.04715747 97.6953125 419.484375 C95.55482209 417.51140123 93.38704303 415.59998608 91.18359375 413.69921875 C86.92714901 409.98783096 82.91795354 406.06611815 78.9375 402.0625 C78.26912109 401.39798828 77.60074219 400.73347656 76.91210938 400.04882812 C72.40285647 395.53081088 68.15609882 390.84294146 64 386 C63.14277344 385.02417969 62.28554687 384.04835938 61.40234375 383.04296875 C13.36703807 327.39509481 -16.45711592 256.82056859 -25 184 C-25.11714355 183.00323242 -25.23428711 182.00646484 -25.35498047 180.97949219 C-32.15236943 119.83329192 -23.08292944 56.95476042 0 0 Z " fill="#243F81" transform="translate(125,327)"/>
<path d="M0 0 C2.25 0.09765625 2.25 0.09765625 5 1 C6.58878571 3.1635169 7.78387761 5.07999927 9 7.4375 C9.3417627 8.06914062 9.68352539 8.70078125 10.03564453 9.3515625 C11.04232597 11.22525368 12.02372734 13.1103246 13 15 C13.76957031 16.45599609 13.76957031 16.45599609 14.5546875 17.94140625 C19.07183243 26.69504509 22.04166137 35.05013129 20 45 C17.52606142 52.68471047 14.28876257 60.09338583 11.03149414 67.47314453 C10.14205032 69.65201875 9.49258667 71.70440469 9 74 C9.67804688 74.47308594 10.35609375 74.94617188 11.0546875 75.43359375 C22.89789738 83.84850603 36.00676972 93.74848856 41 108 C42.05316406 107.48050781 43.10632813 106.96101563 44.19140625 106.42578125 C73.72335835 92.05963088 73.72335835 92.05963088 87.61450195 96.75146484 C97.72320531 100.40159846 107.51879483 105.35089983 116 112 C115.67 113.32 115.34 114.64 115 116 C111.48509136 115.42593293 108.75432525 114.53162446 105.63671875 112.8203125 C104.83169922 112.38589844 104.02667969 111.95148438 103.19726562 111.50390625 C102.36904297 111.04886719 101.54082031 110.59382813 100.6875 110.125 C86.22335785 102.06500155 86.22335785 102.06500155 70.08886719 102.53759766 C63.43520569 104.72726878 57.01172204 107.51127625 50.625 110.375 C47 112 47 112 45 112 C45 112.66 45 113.32 45 114 C46.03125 114.0825 47.0625 114.165 48.125 114.25 C53.77570657 115.34368514 56.81287808 117.45994995 60.3125 122 C63.15634112 127.05571755 63.96071897 132.26313528 63 138 C60.81197117 142.80760659 58.25415794 146.18848604 53.8125 149.0625 C51 150 51 150 48 150 C47.814375 150.969375 47.62875 151.93875 47.4375 152.9375 C45.50867875 159.58721243 40.80116256 165.11713813 35.0625 168.875 C33.72193765 169.60875477 32.36796236 170.31869062 31 171 C29.865625 171.598125 28.73125 172.19625 27.5625 172.8125 C15.63493549 176.88989926 0.68179991 174.1206579 -10.38671875 168.8671875 C-10.91910156 168.58101562 -11.45148438 168.29484375 -12 168 C-11.525625 169.03125 -11.05125 170.0625 -10.5625 171.125 C-7.81260752 177.10302713 -7.8179192 183.35822865 -7.8125 189.8125 C-7.80025391 190.56853516 -7.78800781 191.32457031 -7.77539062 192.10351562 C-7.76124688 197.63372158 -8.60070486 202.65572322 -10 208 C-6.35829697 210.59387983 -2.69643261 213.155418 0.98632812 215.69042969 C2.23338019 216.55511263 3.4747627 217.42803713 4.70996094 218.30957031 C13.81825462 225.01566886 13.81825462 225.01566886 24.75146484 226.37890625 C25.49348145 226.25386719 26.23549805 226.12882813 27 226 C28.40359089 225.85363882 29.80723535 225.70779027 31.2109375 225.5625 C32.59923843 225.37708528 33.9872549 225.18953 35.375 225 C42.25835131 224.15140815 49.06473443 223.78009336 56 223.75 C56.8667334 223.74097656 57.7334668 223.73195313 58.62646484 223.72265625 C64.75212424 223.75212424 64.75212424 223.75212424 67 226 C62.70317422 228.36590654 58.96829438 229.5800348 54.1328125 230.3515625 C52.83472656 230.56296875 51.53664063 230.774375 50.19921875 230.9921875 C48.84116218 231.20323021 47.48308914 231.41416696 46.125 231.625 C44.7745989 231.84287984 43.42433679 232.06162296 42.07421875 232.28125 C35.7279831 233.3001699 29.3872522 234.27861622 23 235 C21.84757813 235.13535156 21.84757813 235.13535156 20.671875 235.2734375 C14.89436105 235.57875328 10.63693036 233.86801578 5.41796875 231.51171875 C1.4156324 229.74154256 -2.64680031 228.20511557 -6.75 226.6875 C-7.46615479 226.42114746 -8.18230957 226.15479492 -8.92016602 225.88037109 C-10.6127018 225.25157929 -12.30624027 224.62548741 -14 224 C-9.04404607 237.56419823 -9.04404607 237.56419823 0.66748047 247.69824219 C6.7892675 250.34334516 13.2266058 251.76783754 19.71972656 253.20361328 C25.04583457 254.49668892 30.12309679 256.39304695 35.25 258.3125 C36.15991699 258.63911621 37.06983398 258.96573242 38.00732422 259.30224609 C42.26163068 260.85124998 46.26932764 262.37157175 50 265 C50 265.33 50 265.66 50 266 C40.28303997 266.59691295 31.45565442 264.37069131 22.0625 262.1875 C20.46700632 261.82654693 18.87130403 261.46651464 17.27539062 261.10742188 C13.50409047 260.25460623 9.74161863 259.36904315 5.98190308 258.46664429 C4.19414817 258.0457127 2.39925906 257.65536488 0.60375977 257.26879883 C-5.53415382 255.84419285 -8.48604358 254.47026715 -12.1875 249.3125 C-12.92355469 248.31863281 -13.65960937 247.32476562 -14.41796875 246.30078125 C-14.94003906 245.54152344 -15.46210937 244.78226563 -16 244 C-15.32188098 246.60973077 -14.61927207 249.20784088 -13.87890625 251.80078125 C-13.31785803 253.84299678 -12.81874106 255.90392531 -12.40234375 257.98046875 C-10.29890598 266.68157472 -5.68244827 270.45245061 1.0390625 275.76953125 C5.38481904 279.22376702 9.28474333 283.05900444 13.1875 287 C13.82276611 287.63526611 14.45803223 288.27053223 15.11254883 288.92504883 C23 296.8978274 23 296.8978274 23 300 C18.47651504 299.47363084 15.94191243 297.76892394 12.375 295 C11.85429932 294.59845703 11.33359863 294.19691406 10.79711914 293.78320312 C6.42535013 290.39109669 2.11979934 286.91443777 -2.11547852 283.35351562 C-3.92331594 281.87847942 -5.77283835 280.45167965 -7.67578125 279.1015625 C-15.8119127 273.14370068 -19.50323784 266.45399462 -23.4375 257.5 C-24.02542858 256.2188713 -24.61591613 254.93891378 -25.20898438 253.66015625 C-26.84094648 250.12204187 -28.42527295 246.56399405 -30 243 C-30.80337958 241.19791407 -31.60676403 239.3958303 -32.41015625 237.59375 C-33.19712891 235.81484375 -33.19712891 235.81484375 -34 234 C-35.98 234 -37.96 234 -40 234 C-39.86424561 234.68288086 -39.72849121 235.36576172 -39.58862305 236.06933594 C-37.1377756 248.4532202 -34.72754138 260.82024568 -32.98901367 273.32714844 C-32.33128735 278.02094594 -31.49838445 282.64656685 -30.54663086 287.28955078 C-26.9738307 305.00515031 -24.17898755 322.85755558 -21.62158203 340.74316406 C-21.0389801 344.77009516 -20.42343153 348.79170232 -19.80596924 352.81341553 C-10.87660994 411.02531866 -5.75786566 469.24546483 -5.69037247 528.15323257 C-5.68755703 530.39215109 -5.68204145 532.63105179 -5.67636108 534.8699646 C-5.55885351 598.61287868 -5.55885351 598.61287868 -14 617 C-16.84762988 617.23771519 -18.53505659 617.27129136 -21.03515625 615.8125 C-50.20915586 589.73015738 -71.39413661 545.33668999 -86.5 509.9375 C-86.7899585 509.26146729 -87.07991699 508.58543457 -87.37866211 507.88891602 C-92.64378032 495.04667912 -95.98400307 481.7003635 -98.6875 468.125 C-98.91253708 467.00599304 -98.91253708 467.00599304 -99.14212036 465.86437988 C-102.40140369 449.59208353 -104.14781877 434.16739689 -104.3125 417.5625 C-104.33046631 416.2930957 -104.34843262 415.02369141 -104.36694336 413.71582031 C-104.35689064 403.52638645 -102.94086928 394.70704423 -97.875 385.75 C-97.26527344 384.66203125 -96.65554688 383.5740625 -96.02734375 382.453125 C-94.25922317 379.41108445 -92.43133612 376.40684091 -90.59838867 373.40356445 C-82.57890556 360.253636 -77.1577556 348.07622151 -76.03515625 332.5546875 C-75.957314 331.55897736 -75.87947174 330.56326721 -75.79927063 329.53738403 C-75.63369275 327.41397475 -75.47100063 325.29033877 -75.31097412 323.16650391 C-74.89287887 317.62805122 -74.45168031 312.09143916 -74.01171875 306.5546875 C-73.92553284 305.46460388 -73.83934692 304.37452026 -73.75054932 303.25140381 C-72.44837019 286.90409029 -70.84324394 270.58604315 -68.8125 254.3125 C-68.05914221 248.1735679 -67.75973152 242.18023919 -68 236 C-68.78761719 235.8040625 -69.57523438 235.608125 -70.38671875 235.40625 C-79.41591348 232.92722849 -86.26102294 229.21842643 -94 224 C-93.57847656 224.78503906 -93.15695312 225.57007813 -92.72265625 226.37890625 C-87.2165088 236.93775372 -87.2165088 236.93775372 -87 243 C-86.9278125 243.845625 -86.855625 244.69125 -86.78125 245.5625 C-85.66109503 266.62141352 -99.56589053 285.33037561 -112 301 C-113.16208984 302.48306641 -113.16208984 302.48306641 -114.34765625 303.99609375 C-119.64976757 310.62613858 -125.3656455 316.83794395 -131.16894531 323.02563477 C-132.56389513 324.52976265 -133.94644238 326.0454031 -135.32324219 327.56616211 C-142.22551439 335.17784156 -149.34987691 342.53612449 -156.61572266 349.80102539 C-158.50322813 351.69073189 -160.38254617 353.58833938 -162.26171875 355.48632812 C-169.19831077 362.45541989 -176.22843332 368.95867996 -184 375 C-185.01876221 375.81561401 -185.01876221 375.81561401 -186.05810547 376.64770508 C-210.24731508 395.99345173 -237.01701245 411.91010192 -264 427 C-264.87736816 427.49161621 -265.75473633 427.98323242 -266.65869141 428.48974609 C-295.51491014 444.58071153 -325.2554415 459.85170624 -356 472 C-355.20017669 467.60261557 -353.75465441 463.75389769 -351.9375 459.6875 C-351.62369385 458.97875732 -351.3098877 458.27001465 -350.98657227 457.53979492 C-348.62105515 452.25557741 -346.09214838 447.06236076 -343.46557617 441.90356445 C-340.87771271 436.80563626 -338.3955374 431.6623196 -335.93571472 426.50143433 C-329.46050499 412.92262134 -322.72021217 399.56166051 -315.35986328 386.43457031 C-314.07753541 384.13881206 -312.81436277 381.83380616 -311.55859375 379.5234375 C-294.29583373 347.86022885 -274.90771685 317.1050552 -251 290 C-250.36956787 289.28126709 -249.73913574 288.56253418 -249.08959961 287.82202148 C-243.43925087 281.45384491 -237.53628388 275.38140568 -231.5065918 269.3762207 C-229.93225845 267.8072764 -228.36338411 266.23301442 -226.79492188 264.65820312 C-221.93480099 259.7949252 -217.03294376 255.03377189 -211.80395508 250.56323242 C-209.35358702 248.4398454 -207.01997747 246.20421802 -204.67529297 243.96557617 C-185.3016906 225.50364182 -160.22767631 203.26545669 -132.25 202.5625 C-123.45144363 202.81832511 -116.76660211 205.02198429 -109 209 C-109.54269531 208.0821875 -110.08539062 207.164375 -110.64453125 206.21875 C-120.2153323 189.87308722 -120.2153323 189.87308722 -120 182 C-121.1240625 182.17015625 -122.248125 182.3403125 -123.40625 182.515625 C-136.36193914 184.40737318 -149.34951909 185.81932165 -162.375 187.125 C-163.64911743 187.25412781 -163.64911743 187.25412781 -164.94897461 187.38586426 C-174.86042689 188.38636982 -184.7521561 189.23773499 -194.70166016 189.74951172 C-197.56748433 189.96715314 -200.1933217 190.42248834 -203 191 C-204.90391206 191.16187312 -206.81076514 191.29119775 -208.71875 191.39453125 C-231.33346256 192.75929858 -245.93917769 198.45240381 -264.9375 210.3125 C-277.05364601 217.82719968 -287.38612418 220.38297432 -301.625 220.3125 C-302.8106958 220.30758545 -303.9963916 220.3026709 -305.21801758 220.29760742 C-337.89236371 219.87179057 -372.76676714 212.33481948 -402.375 198.5 C-403.50494385 197.97374023 -404.6348877 197.44748047 -405.79907227 196.90527344 C-431.778786 184.65850166 -457.88313746 170.11628814 -481 153 C-481.63244629 152.53223145 -482.26489258 152.06446289 -482.91650391 151.58251953 C-499.50907173 139.19323575 -499.50907173 139.19323575 -502 132.1875 C-502 130 -502 130 -500 128 C-491.68486192 125.1796395 -482.97225312 124.16065876 -474.2734375 123.33203125 C-473.62066204 123.26910196 -472.96788658 123.20617268 -472.29533005 123.14133644 C-454.66168085 121.48533105 -437.000621 121.57352919 -419.30575562 121.6735878 C-416.58461351 121.68770959 -413.86350297 121.69636842 -411.14233398 121.70346069 C-386.09301619 121.77219838 -361.06130407 121.92703066 -336.0725708 123.84179688 C-333.95746344 124.00324689 -331.84187448 124.15651553 -329.72607422 124.30859375 C-312.76049008 125.54609221 -295.87991239 127.4076088 -279 129.5 C-278.17668182 129.60164459 -277.35336365 129.70328918 -276.50509644 129.80801392 C-267.02995972 130.98730644 -257.60866192 132.35167872 -248.19682312 133.96072388 C-242.58365979 134.91758535 -236.96663564 135.69974758 -231.3125 136.375 C-211.44803023 138.86472148 -191.64238245 142.1405867 -172 146 C-168.64665382 146.65013132 -165.29228042 147.2948135 -161.9375 147.9375 C-161.06496582 148.10499756 -160.19243164 148.27249512 -159.29345703 148.44506836 C-151.51260452 149.92703455 -143.71246695 151.28820853 -135.90209961 152.60522461 C-130.22245793 153.57273936 -124.61444716 154.70523974 -119 156 C-118.67 154.02 -118.34 152.04 -118 150 C-118.96824707 149.53102295 -119.93649414 149.0620459 -120.93408203 148.57885742 C-124.54608246 146.82923711 -128.15784206 145.07912012 -131.76953125 143.32885742 C-133.32903647 142.57318921 -134.88860588 141.81765348 -136.44824219 141.06225586 C-138.69743709 139.97284696 -140.94639628 138.8829528 -143.1953125 137.79296875 C-144.23161301 137.29122383 -144.23161301 137.29122383 -145.28884888 136.77934265 C-146.59105377 136.14798412 -147.89234889 135.51474453 -149.19258118 134.8793335 C-150.89944332 134.04892217 -152.61417991 133.23475302 -154.3293457 132.42163086 C-157.7558627 130.59764252 -159.60649652 128.37382959 -162.0625 125.375 C-162.74989258 124.5396875 -162.74989258 124.5396875 -163.45117188 123.6875 C-184 98.48974021 -184 98.48974021 -184 93 C-180.0050819 94.34521412 -177.60139503 96.02303043 -174.63671875 99 C-173.83169922 99.80566406 -173.02667969 100.61132812 -172.19726562 101.44140625 C-171.36904297 102.28574219 -170.54082031 103.13007813 -169.6875 104 C-168.87087891 104.81339844 -168.05425781 105.62679687 -167.21289062 106.46484375 C-163.14337406 110.57002939 -159.50699845 114.6316121 -156.14453125 119.3359375 C-151.72940461 124.98544223 -146.73393418 126.67814293 -140 128.625 C-138.93910156 128.96144531 -137.87820313 129.29789063 -136.78515625 129.64453125 C-134.19787264 130.4603414 -131.60531015 131.24417799 -129 132 C-130.09373851 130.85660286 -130.09373851 130.85660286 -131.93457031 129.57202148 C-138.7654035 124.18274214 -140.89311522 119.42820177 -142.75 111.0625 C-143.02529541 109.9374707 -143.30059082 108.81244141 -143.58422852 107.65332031 C-144.43389091 104.11071866 -145.22571106 100.55978732 -146 97 C-146.38744385 95.24115479 -146.38744385 95.24115479 -146.78271484 93.44677734 C-151.35885668 72.39417362 -151.35885668 72.39417362 -151 66 C-148 67 -148 67 -146.859375 68.765625 C-141.79327184 80.11084194 -137.91774287 92.03576483 -134.58203125 103.99609375 C-134.36546875 104.76872559 -134.14890625 105.54135742 -133.92578125 106.33740234 C-133.5286639 107.77821743 -133.14372443 109.22246751 -132.7734375 110.67041016 C-131.61974179 114.8925575 -130.50955317 117.35797682 -127 120 C-123.97999103 121.72126195 -120.88330832 123.24699116 -117.75 124.75 C-116.90953125 125.16121094 -116.0690625 125.57242188 -115.203125 125.99609375 C-113.13886376 127.00476685 -111.07123857 128.00575457 -109 129 C-110.32620581 124.13141094 -111.79597783 119.40394218 -113.7578125 114.75 C-114.07355225 113.98929199 -114.38929199 113.22858398 -114.71459961 112.44482422 C-115.34615844 110.93890904 -115.99452895 109.43989408 -116.66235352 107.94970703 C-121.09469147 97.29548209 -118.84504381 86.02194748 -117.1875 74.9375 C-117.02185547 73.74833984 -116.85621094 72.55917969 -116.68554688 71.33398438 C-114.38082263 55.49661514 -114.38082263 55.49661514 -112 50 C-110.515 49.505 -110.515 49.505 -109 49 C-108.93964282 52.87493109 -108.9052777 56.7497252 -108.875 60.625 C-108.85824219 61.80763428 -108.84148437 62.99026855 -108.82421875 64.20874023 C-108.79392538 69.85277455 -108.89480204 75.20165275 -110.0078125 80.74609375 C-112.23883328 92.24724634 -110.87059502 99.11756422 -104.39257812 108.99777222 C-101.39302697 113.43372702 -98.22726896 117.72874876 -95 122 C-94.34 122.99 -93.68 123.98 -93 125 C-92.42636719 124.9278125 -91.85273437 124.855625 -91.26171875 124.78125 C-78.83541378 123.42359604 -64.73826313 121.93051875 -53 127 C-53.27714844 126.28714844 -53.55429687 125.57429688 -53.83984375 124.83984375 C-54.20207031 123.88207031 -54.56429688 122.92429687 -54.9375 121.9375 C-55.29714844 120.99777344 -55.65679688 120.05804688 -56.02734375 119.08984375 C-59.34896813 108.53801692 -59.8829034 94.86095739 -55.44921875 84.53125 C-50.88070414 76.551742 -45.41119865 71.83674027 -37.08203125 68.203125 C-33.8146296 66.31502048 -33.26681568 63.43849969 -32 60 C-28.48515125 56.19579324 -25.09582199 53.33542654 -19.80078125 52.76171875 C-12.87199738 52.55505173 -7.69834562 53.64984468 -2.46484375 58.390625 C0.48023785 61.65339762 1.72244481 64.86808726 3 69 C4.65093337 65.25222487 6.29485547 61.50141465 7.9375 57.75 C8.64036133 56.15478516 8.64036133 56.15478516 9.35742188 54.52734375 C10.0293457 52.99013672 10.0293457 52.99013672 10.71484375 51.421875 C11.12855225 50.47924805 11.54226074 49.53662109 11.96850586 48.56542969 C14.98275522 41.06868832 14.97162906 34.81059769 11.8984375 27.31054688 C8.69942578 19.97368304 4.90542139 13.28632846 0.40625 6.671875 C-1 4 -1 4 -0.71875 1.640625 C-0.36296875 0.82851562 -0.36296875 0.82851562 0 0 Z " fill="#242021" transform="translate(635,181)"/>
<path d="M0 0 C12.92675074 9.27353858 20.57815315 28.95980156 23.875 44.0625 C25.95079032 57.37949329 20.13701448 70.08470128 14.875 82.0625 C15.43574219 82.30742187 15.99648438 82.55234375 16.57421875 82.8046875 C23.96083953 86.84287407 30.95001893 94.26211223 35.875 101.0625 C35.875 101.7225 35.875 102.3825 35.875 103.0625 C36.47973145 102.86092285 37.08446289 102.6593457 37.70751953 102.45166016 C51.6953125 97.7890625 51.6953125 97.7890625 54.42773438 96.88183594 C56.3868211 96.22594058 58.33915188 95.54987932 60.2890625 94.8671875 C73.84114359 90.65007465 89.20001709 98.89700184 101 105 C101.76884521 105.39429199 102.53769043 105.78858398 103.32983398 106.19482422 C109.75266287 109.65644694 117.09898939 113.99482123 119.875 121.0625 C120.32804906 126.68030838 120.08744804 130.24382794 116.875 135.0625 C112.94480698 139.03564595 109.34817569 141.1787727 103.71484375 141.421875 C98.28994382 141.35605215 94.86685848 139.24353481 90.4375 136.3125 C88.95071639 135.38870789 87.46114507 134.46938653 85.96875 133.5546875 C85.26234375 133.11866211 84.5559375 132.68263672 83.828125 132.23339844 C76.53622022 127.86190152 70.33064103 126.41483388 61.875 127.0625 C62.15214844 127.67738281 62.42929687 128.29226563 62.71484375 128.92578125 C63.07707031 129.73402344 63.43929687 130.54226563 63.8125 131.375 C64.17214844 132.17550781 64.53179688 132.97601563 64.90234375 133.80078125 C67.90622345 140.78570634 68.12087436 147.56887605 65.55859375 154.75390625 C62.30876625 161.96169856 58.43208713 168.74172415 50.8359375 171.9140625 C48.25314457 173.42669421 47.55093649 175.04251509 46.1875 177.6875 C40.42922158 187.68872042 31.57440685 193.77023962 20.62109375 197.03125 C12.24621404 199.05245002 4.45684146 199.41464243 -4.125 199.0625 C-4.11339844 199.79855469 -4.10179687 200.53460938 -4.08984375 201.29296875 C-4.07630859 202.75669922 -4.07630859 202.75669922 -4.0625 204.25 C-4.05089844 205.21292969 -4.03929687 206.17585937 -4.02734375 207.16796875 C-4.12013378 209.91826513 -4.50388315 212.38729591 -5.125 215.0625 C-4.40828125 215.30613281 -3.6915625 215.54976562 -2.953125 215.80078125 C0.21931281 217.21610917 2.42598353 219.07150814 5.125 221.25 C11.52862972 225.52679241 16.09787317 225.41558373 23.484375 224.5859375 C29.9249888 223.8739735 36.37183813 223.76798778 42.84481812 223.71240234 C44.90126022 223.68793124 46.95523422 223.6314171 49.01098633 223.57421875 C55.77540549 223.51322843 60.85595147 223.61405784 66.44873047 227.65234375 C69.02859436 230.20306163 69.97718965 232.59096663 70.875 236.0625 C70.71085552 240.82268992 69.95657857 244.38448687 66.875 248.0625 C56.37321641 254.85777173 42.04435375 256.47881698 29.875 258.0625 C30.87660156 258.42601562 31.87820313 258.78953125 32.91015625 259.1640625 C48.83555981 265.11834396 48.83555981 265.11834396 53.046875 271.96875 C54.529185 275.71647718 53.9021824 279.23873066 52.875 283.0625 C50.53408908 287.33759986 47.52274347 289.67862133 42.875 291.0625 C31.75454948 291.33154316 20.73975651 289.20049045 9.875 287.0625 C10.61105469 287.76375 11.34710937 288.465 12.10546875 289.1875 C26.00261204 302.60485813 26.00261204 302.60485813 26.4375 311.1875 C26.19027744 315.77877615 25.00210476 318.58793916 21.875 322.0625 C17.10276359 324.98906378 12.29249695 324.92484868 6.875 324.0625 C-3.01248094 320.1786209 -11.25501909 312.37040073 -19.27905273 305.59887695 C-21.53545045 303.72088319 -23.82852825 301.89115827 -26.125 300.0625 C-25.32649823 305.1448611 -24.52687442 310.22704411 -23.72631836 315.30908203 C-23.45552039 317.02908846 -23.18500148 318.74913885 -22.91479492 320.46923828 C-22.52080009 322.97701173 -22.12593633 325.48464589 -21.73046875 327.9921875 C-21.59816864 328.83118591 -21.46586853 329.67018433 -21.32955933 330.53460693 C-20.55862857 335.3992543 -19.75962217 340.25817073 -18.93559265 345.11408997 C-17.69329272 352.43828526 -16.59173596 359.76094984 -15.64355469 367.13037109 C-15.05685337 371.57924655 -14.4107051 376.01749315 -13.7578125 380.45703125 C-8.49291365 416.53237784 -4.90592404 452.64818388 -3.125 489.0625 C-3.03822998 490.69832031 -3.03822998 490.69832031 -2.94970703 492.3671875 C-0.67764258 536.05554841 1.16447789 582.72857691 -7.3125 625.875 C-7.47194092 626.74543945 -7.63138184 627.61587891 -7.7956543 628.51269531 C-9.29664248 634.898932 -12.7263677 638.43606723 -18.125 642.0625 C-23.23688716 643.76646239 -26.9865818 644.09642673 -31.84765625 641.74609375 C-40.40124348 636.48687299 -46.81848479 629.90642218 -52.75 621.875 C-53.256521 621.19284424 -53.76304199 620.51068848 -54.28491211 619.80786133 C-64.9633677 605.23681509 -74.30322364 589.81010361 -83.125 574.0625 C-83.59760254 573.22557617 -84.07020508 572.38865234 -84.55712891 571.52636719 C-100.71451367 542.83689401 -113.04204909 515.19278024 -120.125 483.0625 C-120.32899414 482.13904785 -120.53298828 481.2155957 -120.74316406 480.26416016 C-121.98727768 474.54986842 -123.11744322 468.82320591 -124.125 463.0625 C-124.24359375 462.39508789 -124.3621875 461.72767578 -124.484375 461.04003906 C-126.17868538 451.03049711 -126.35068369 441.0089439 -126.4375 430.875 C-126.45522461 429.62799316 -126.47294922 428.38098633 -126.49121094 427.09619141 C-126.48211164 415.59923082 -125.01038302 404.58123881 -119.625 394.3125 C-119.28750732 393.66112061 -118.95001465 393.00974121 -118.60229492 392.33862305 C-115.41034708 386.30557724 -111.81455616 380.49661485 -108.0703125 374.79199219 C-100.35598773 362.717151 -98.26612293 351.10295885 -97.4375 337.125 C-97.3252986 335.48593624 -97.21094228 333.84701864 -97.09448242 332.20825195 C-96.86640902 328.98142455 -96.64675351 325.75421206 -96.43359375 322.52636719 C-96.03367802 316.5918582 -95.49895092 310.67116713 -94.9375 304.75 C-94.85346924 303.84451416 -94.76943848 302.93902832 -94.68286133 302.00610352 C-94.49886573 300.02471953 -94.3123095 298.04357346 -94.125 296.0625 C-94.64707031 296.98289062 -95.16914062 297.90328125 -95.70703125 298.8515625 C-101.13153682 308.24711162 -107.18672527 316.73326975 -114.125 325.0625 C-114.82665283 325.91062256 -114.82665283 325.91062256 -115.54248047 326.77587891 C-128.23739742 342.0594607 -142.13783605 356.26220655 -156.17871094 370.30151367 C-158.39286026 372.51787813 -160.59882564 374.74218763 -162.8046875 376.96679688 C-170.26689376 384.45918369 -177.72306769 391.61988813 -186.125 398.0625 C-186.88345215 398.6598999 -187.6419043 399.2572998 -188.42333984 399.87280273 C-245.08829427 444.26096884 -312.21459484 476.06466171 -378.27734375 503.80859375 C-379.02881683 504.12444931 -379.78028992 504.44030487 -380.55453491 504.76573181 C-383.3917928 505.95146231 -386.20654781 507.0896826 -389.125 508.0625 C-386.53470531 499.73130394 -383.17021427 491.76455588 -379.75 483.75 C-379.44065521 483.02364349 -379.13131042 482.29728699 -378.81259155 481.54891968 C-363.96559906 446.74073325 -347.69383219 412.23730998 -328.56640625 379.55712891 C-327.1538152 377.11237021 -325.78916605 374.64684897 -324.4375 372.16796875 C-311.9648251 349.45780113 -297.25170958 327.34928435 -281.125 307.0625 C-279.97257812 305.59683594 -279.97257812 305.59683594 -278.796875 304.1015625 C-269.54895681 292.55783245 -259.23690157 282.00761039 -248.77172852 271.57885742 C-246.92541754 269.73795292 -245.08457727 267.89169728 -243.24414062 266.04492188 C-237.89881496 260.69663177 -232.56317853 255.40086224 -226.80053711 250.49731445 C-224.63826385 248.64569272 -222.57944102 246.69648599 -220.51245117 244.73999023 C-208.20504202 233.12394159 -193.67917656 220.05003617 -178.125 213.0625 C-187.50808934 213.61020721 -196.84512924 214.39869953 -206.19726562 215.33154297 C-211.90035782 215.8875634 -217.59002859 216.28001209 -223.3125 216.5625 C-239.43092907 217.47695529 -251.26309824 223.4029877 -264.875 231.6875 C-299.08192157 252.46500474 -337.53317342 245.43753848 -374.8359375 236.4609375 C-386.97662293 233.46917067 -398.76806774 230.36222699 -410.125 225.0625 C-411.00236816 224.6593457 -411.87973633 224.25619141 -412.78369141 223.84082031 C-501.00844507 183.10375838 -501.00844507 183.10375838 -523.1875 152.1875 C-525.00433933 146.1313689 -525.24866273 140.3514426 -522.4375 134.625 C-514.28319564 125.58914923 -503.52912308 124.70362695 -491.875 123.4375 C-490.87726563 123.31632812 -489.87953125 123.19515625 -488.8515625 123.0703125 C-466.2973238 120.52118478 -443.47928614 120.82031512 -420.8125 120.8125 C-420.02621216 120.81191086 -419.23992432 120.81132172 -418.42980957 120.81071472 C-389.90597835 120.79569494 -361.55902874 121.65300914 -333.125 124.0625 C-332.23026978 124.13746704 -331.33553955 124.21243408 -330.41369629 124.28967285 C-292.64049653 127.48078298 -255.29391244 133.25923195 -217.87109375 139.1953125 C-216.87180344 139.35354492 -215.87251312 139.51177734 -214.84294128 139.67480469 C-210.07737784 140.43047888 -205.31317548 141.1932719 -200.55126953 141.97167969 C-199.2456179 142.1831514 -199.2456179 142.1831514 -197.91358948 142.39889526 C-196.30037699 142.6603878 -194.68765058 142.92490599 -193.07554626 143.19314575 C-189.38959729 143.78785392 -185.86089094 144.21066565 -182.125 144.0625 C-182.95902344 143.06992187 -183.79304688 142.07734375 -184.65234375 141.0546875 C-206.7982547 114.42352877 -206.7982547 114.42352877 -206.43359375 103.0546875 C-205.89415866 99.57225846 -204.4622908 97.63951294 -202.125 95.0625 C-197.81003376 92.49011628 -194.24468354 91.44713535 -189.21875 92.375 C-180.52236701 95.23052874 -174.23502331 102.60807036 -168.125 109.0625 C-168.41375 107.804375 -168.7025 106.54625 -169 105.25 C-174.88240044 78.61187643 -174.88240044 78.61187643 -170.87890625 70.5546875 C-168.46967249 67.58670377 -166.77676863 66.27975621 -163.125 65.0625 C-154.3590824 64.49695693 -154.3590824 64.49695693 -150.125 68.0625 C-145.03118896 73.48880524 -140.125 81.38931964 -140.125 89.0625 C-139.465 89.0625 -138.805 89.0625 -138.125 89.0625 C-138.2178125 87.2990625 -138.2178125 87.2990625 -138.3125 85.5 C-138.29575779 74.86869705 -136.23750045 58.9480887 -128.5 50.9375 C-124.49110662 47.77258418 -121.12444126 47.541143 -116.125 48.0625 C-110.93358267 50.02152541 -108.63342331 52.26114243 -106.05859375 57.04296875 C-104.67381977 61.52175655 -104.87443515 65.84069021 -104.9375 70.5 C-104.94394531 71.48266846 -104.95039062 72.46533691 -104.95703125 73.4777832 C-105.01420317 78.92117534 -105.20890591 84.3226858 -105.625 89.75 C-105.70363281 90.83925781 -105.78226563 91.92851562 -105.86328125 93.05078125 C-106.03014584 94.97096927 -106.25132379 96.88773673 -106.54296875 98.79296875 C-107.35790273 106.78877031 -103.96311041 113.494353 -99.4140625 119.88671875 C-97.07901988 122.57267987 -95.42853034 123.58055274 -91.8984375 124.08203125 C-87.88818624 124.23027877 -84.0683294 123.76701543 -80.125 123.0625 C-80.14820313 121.86753906 -80.17140625 120.67257812 -80.1953125 119.44140625 C-80.4104861 104.17050354 -78.89516513 90.60244276 -68.0234375 78.6953125 C-65.55338202 76.57086149 -62.88108158 74.92281062 -60.125 73.1875 C-55.136275 70.02122435 -52.5645993 67.20022872 -49.60546875 62.17578125 C-45.85116777 56.81673948 -39.55834862 53.52373731 -33.20703125 52.30859375 C-24.66198983 51.29857947 -17.36169473 52.6848974 -9.125 55.0625 C-7.71043418 48.30908898 -8.60355315 44.61425517 -11.75 38.5625 C-12.11810791 37.8185498 -12.48621582 37.07459961 -12.86547852 36.30810547 C-15.34456855 31.36729586 -18.07937571 26.67708225 -21.125 22.0625 C-22.98580151 16.48009548 -23.06325348 11.01118031 -20.5 5.6875 C-14.32711748 -1.13515963 -8.68241677 -2.60472503 0 0 Z M-9.125 12.0625 C-9.96732497 13.76942817 -9.96732497 13.76942817 -10.125 16.0625 C-8.71280202 18.86733507 -8.71280202 18.86733507 -6.625 21.8125 C6.39537649 41.86434316 6.39537649 41.86434316 5.5 51.6015625 C2.90807622 61.80726237 -1.59275507 71.59692651 -6.125 81.0625 C-6.516875 80.03125 -6.90875 79 -7.3125 77.9375 C-9.57258798 72.74455366 -12.37244897 69.09341237 -17.3125 66.1875 C-23.22358708 64.44324479 -28.48630169 64.19984863 -34.375 66.125 C-38.17745877 68.80400504 -42.63147756 72.35575835 -43.50390625 77.140625 C-44.125 79.0625 -44.125 79.0625 -46.1640625 80.30078125 C-47.01742188 80.65527344 -47.87078125 81.00976562 -48.75 81.375 C-56.59126011 85.03798865 -61.39482949 90.32585006 -65.125 98.0625 C-66.82121153 103.08425886 -67.44796362 107.66825773 -67.375 112.9375 C-67.36895752 113.64076416 -67.36291504 114.34402832 -67.35668945 115.06860352 C-67.25675924 120.31524252 -66.70348385 125.06875108 -65.125 130.0625 C-64.86074219 130.90039062 -64.59648438 131.73828125 -64.32421875 132.6015625 C-63.61739441 134.76558395 -62.8858232 136.91697858 -62.125 139.0625 C-62.62644531 138.8459375 -63.12789062 138.629375 -63.64453125 138.40625 C-75.73888439 133.9558577 -89.55984261 135.78805309 -102.125 137.0625 C-102.59921387 136.32088623 -103.07342773 135.57927246 -103.56201172 134.81518555 C-105.32480321 132.05869108 -107.08785187 129.30236145 -108.85107422 126.54614258 C-109.61354694 125.35415112 -110.37591768 124.16209442 -111.13818359 122.9699707 C-112.23508199 121.25454746 -113.33234925 119.53936065 -114.4296875 117.82421875 C-115.08952637 116.79256592 -115.74936523 115.76091309 -116.42919922 114.69799805 C-117.64475706 112.80886086 -118.87890824 110.93163764 -120.125 109.0625 C-120.16845703 107.11499023 -120.16845703 107.11499023 -119.8828125 104.87109375 C-119.78597168 104.02047363 -119.68913086 103.16985352 -119.58935547 102.29345703 C-119.47736816 101.37161621 -119.36538086 100.44977539 -119.25 99.5 C-117.86477688 86.68180859 -117.92441894 73.93980405 -118.125 61.0625 C-119.61 61.5575 -119.61 61.5575 -121.125 62.0625 C-124.45145329 69.74229659 -125.1678424 78.78251642 -126.3125 87 C-126.48974609 88.18529297 -126.66699219 89.37058594 -126.84960938 90.59179688 C-128.79324936 104.27232077 -128.54718278 113.83546135 -123.125 126.6875 C-122.18521029 128.99125477 -121.24759056 131.29589635 -120.3125 133.6015625 C-119.89355469 134.60396973 -119.47460938 135.60637695 -119.04296875 136.63916016 C-118.125 139.0625 -118.125 139.0625 -118.125 141.0625 C-121.40729438 139.52329437 -124.67334516 137.95226468 -127.9375 136.375 C-129.3306543 135.72241211 -129.3306543 135.72241211 -130.75195312 135.05664062 C-139.32184834 130.87997689 -139.32184834 130.87997689 -141.125 126.0625 C-142.14518461 122.89966254 -143.02287356 119.71177084 -143.875 116.5 C-145.94973757 108.98155252 -148.1931692 101.55674066 -150.75 94.1875 C-151.02682617 93.37466553 -151.30365234 92.56183105 -151.58886719 91.72436523 C-153.31807497 86.81761025 -155.41266888 82.50409026 -158.125 78.0625 C-158.785 78.0625 -159.445 78.0625 -160.125 78.0625 C-159.69938131 86.73536964 -158.25253884 95.00505881 -156.27856445 103.44335938 C-155.81509903 105.42637958 -155.36455928 107.41199484 -154.91601562 109.3984375 C-154.02778287 113.2970301 -153.08470739 117.18083077 -152.125 121.0625 C-151.96787537 121.71192566 -151.81075073 122.36135132 -151.64886475 123.03045654 C-151.18155629 124.93639685 -150.68682765 126.83554818 -150.19140625 128.734375 C-149.9085376 129.83620117 -149.62566895 130.93802734 -149.33422852 132.07324219 C-147.30126764 137.09879701 -143.50540656 140.04863053 -139.125 143.0625 C-150.52481397 141.04284792 -160.68373271 138.26979537 -167.54296875 128.48828125 C-170.96479344 123.6971415 -175.22439579 119.65266324 -179.375 115.5 C-180.54760376 114.30262207 -180.54760376 114.30262207 -181.74389648 113.08105469 C-182.49356689 112.33114258 -183.2432373 111.58123047 -184.015625 110.80859375 C-184.68625977 110.13497803 -185.35689453 109.4613623 -186.04785156 108.76733398 C-188.30368682 106.91584156 -190.37647636 106.00091082 -193.125 105.0625 C-192.70065935 110.31624135 -189.87033667 113.54767326 -186.75 117.5625 C-186.21632813 118.26157471 -185.68265625 118.96064941 -185.1328125 119.6809082 C-180.75783498 125.36309083 -176.18912963 130.86853493 -171.5 136.29296875 C-169.125 139.0625 -169.125 139.0625 -167.45703125 141.49291992 C-164.47472093 144.77901877 -161.44650407 146.16929733 -157.4375 147.9453125 C-156.69798096 148.28625946 -155.95846191 148.62720642 -155.1965332 148.97848511 C-152.84476307 150.06047432 -150.4855495 151.12481898 -148.125 152.1875 C-145.76587653 153.26013536 -143.40855541 154.33647244 -141.0534668 155.41793823 C-139.59142439 156.08821356 -138.12683674 156.75297269 -136.65942383 157.41140747 C-133.18127343 158.9953093 -130.06170573 160.60046104 -127.125 163.0625 C-127.455 164.7125 -127.785 166.3625 -128.125 168.0625 C-128.75253174 167.92674561 -129.38006348 167.79099121 -130.02661133 167.65112305 C-142.95531213 164.86849075 -155.85774126 162.3681664 -168.93408203 160.40087891 C-172.46433815 159.85564434 -175.98258118 159.2471285 -179.5 158.625 C-180.19464355 158.5022168 -180.88928711 158.37943359 -181.60498047 158.25292969 C-185.32025093 157.58793964 -189.02755338 156.8908422 -192.73046875 156.16015625 C-213.97731483 151.97772302 -235.3832472 148.6526349 -256.88427734 146.08569336 C-262.80299168 145.37429484 -268.68100521 144.53266277 -274.5625 143.5625 C-294.14117194 140.40056185 -313.80794558 138.58249435 -333.5625 136.9375 C-334.58087952 136.85114288 -335.59925903 136.76478577 -336.64849854 136.67581177 C-364.22994052 134.35300349 -391.75414262 133.85117615 -419.41772461 133.82226562 C-423.0053932 133.8178824 -426.59282114 133.80395891 -430.18041992 133.78125 C-447.9894353 133.67106058 -465.71585525 133.67223018 -483.45703125 135.390625 C-484.67605637 135.50734558 -485.89508148 135.62406616 -487.15104675 135.74432373 C-500.0836131 136.58863342 -500.0836131 136.58863342 -511.125 142.0625 C-510.63592707 148.37882486 -506.53910865 151.90619542 -502.125 156.0625 C-484.2012197 171.13167473 -463.45481321 182.6451837 -443.125 194.0625 C-441.47274414 194.990625 -441.47274414 194.990625 -439.78710938 195.9375 C-409.23931017 212.99079536 -380.32770355 223.18709929 -346.0625 229.25 C-345.12325684 229.41701416 -344.18401367 229.58402832 -343.21630859 229.75610352 C-332.67602003 231.5732979 -322.38363978 232.26472271 -311.6875 232.3125 C-310.53701172 232.333125 -309.38652344 232.35375 -308.20117188 232.375 C-290.25712484 232.45633279 -276.35407249 224.35410905 -261.60522461 214.97070312 C-249.70408297 207.47774112 -238.87917155 204.89820293 -224.9375 204 C-222.63132192 203.84523153 -220.32532189 203.68778117 -218.01953125 203.52734375 C-216.50129761 203.42860962 -216.50129761 203.42860962 -214.95239258 203.32788086 C-212.17803541 203.11773496 -212.17803541 203.11773496 -209.69799805 202.57177734 C-206.48992658 201.93679897 -203.32358081 201.69772019 -200.0625 201.44921875 C-198.62831809 201.33666127 -197.19415554 201.22385685 -195.76000977 201.11083984 C-195.00503204 201.05224792 -194.25005432 200.99365601 -193.47219849 200.93328857 C-179.18638323 199.81773455 -164.93288072 198.48534685 -150.6875 196.9375 C-149.88723389 196.85132416 -149.08696777 196.76514832 -148.26245117 196.67636108 C-138.64245006 195.71124032 -138.64245006 195.71124032 -129.125 194.0625 C-129.0321875 195.42375 -129.0321875 195.42375 -128.9375 196.8125 C-127.66604817 205.6410317 -123.03473215 213.76804081 -118.125 221.0625 C-118.86105469 220.71316406 -119.59710937 220.36382812 -120.35546875 220.00390625 C-121.33128906 219.54886719 -122.30710937 219.09382812 -123.3125 218.625 C-124.27542969 218.17253906 -125.23835938 217.72007812 -126.23046875 217.25390625 C-138.00864195 212.40594022 -151.55975483 214.52847683 -163.04833984 219.14208984 C-174.79830109 224.34986717 -185.26011951 231.91687434 -195.125 240.0625 C-195.65544922 240.49675293 -196.18589844 240.93100586 -196.73242188 241.37841797 C-204.56023924 247.80841081 -212.05336938 254.57166286 -219.44482422 261.49560547 C-221.12250158 263.06017003 -222.81156712 264.61147424 -224.50390625 266.16015625 C-231.83367264 272.89269752 -238.98763779 279.79920371 -246.04983521 286.81109619 C-247.45466253 288.20501459 -248.8638577 289.59452668 -250.27319336 290.98388672 C-256.33295979 297.03539659 -261.80268031 303.35989599 -267.125 310.0625 C-268.07423205 311.22334176 -269.02507978 312.38286371 -269.97729492 313.54125977 C-277.11330572 322.26525105 -283.60735425 331.28280407 -289.8125 340.6875 C-290.28000671 341.39194244 -290.74751343 342.09638489 -291.22918701 342.82217407 C-300.78234896 357.23670479 -309.64622025 371.9944449 -318.125 387.0625 C-318.66237793 388.01560059 -319.19975586 388.96870117 -319.75341797 389.95068359 C-323.30000193 396.27453484 -326.73946902 402.65114432 -330.125 409.0625 C-330.43028625 409.64020142 -330.73557251 410.21790283 -331.05010986 410.81311035 C-339.54546858 426.90438784 -347.73235001 443.05487065 -355.07861328 459.70996094 C-356.71558365 463.39027976 -358.41618555 467.04010696 -360.125 470.6875 C-360.929375 472.40839844 -360.929375 472.40839844 -361.75 474.1640625 C-362.57067954 475.89401766 -363.4326403 477.60663878 -364.375 479.2734375 C-365.43100677 481.24183708 -365.43100677 481.24183708 -364.125 484.0625 C-361.76969358 483.04424006 -359.41579656 482.02288794 -357.0625 481 C-356.42505859 480.72478516 -355.78761719 480.44957031 -355.13085938 480.16601562 C-340.05178843 473.60048713 -325.33326811 466.28591492 -310.625 458.9375 C-309.09363907 458.1728241 -309.09363907 458.1728241 -307.53134155 457.3927002 C-293.61508396 450.43259177 -279.83977809 443.3553305 -266.44433594 435.42724609 C-264.08288478 434.03771852 -261.7050628 432.68113238 -259.3203125 431.33203125 C-224.15320933 411.37970175 -191.83786174 388.23003627 -163.35424805 359.49755859 C-161.17102022 357.29588095 -158.97970156 355.10250468 -156.78710938 352.91015625 C-155.36931654 351.4874525 -153.95198216 350.06429168 -152.53515625 348.640625 C-151.57247581 347.67627533 -151.57247581 347.67627533 -150.59034729 346.69244385 C-146.79377172 342.85648155 -143.17415375 338.91076801 -139.65284729 334.82035828 C-137.50802873 332.3526463 -135.24914107 329.99752655 -133 327.625 C-116.17520576 309.48641599 -95.39011227 284.12529196 -95.94140625 258.1171875 C-96.4526144 249.61155407 -98.56536581 243.26741815 -103.125 236.0625 C-102.33738281 236.59359375 -101.54976562 237.1246875 -100.73828125 237.671875 C-93.02860814 242.67175768 -86.11030311 245.82720364 -77.125 248.0625 C-76.9572744 255.88197482 -77.44558909 263.46868256 -78.33203125 271.234375 C-78.59006351 273.59667346 -78.84803644 275.95897841 -79.10595703 278.32128906 C-79.24181213 279.54497192 -79.37766724 280.76865479 -79.51763916 282.02941895 C-82.09141091 305.00135347 -82.09141091 305.00135347 -84.05078125 328.03125 C-84.11423233 328.92596008 -84.17768341 329.82067017 -84.24305725 330.74249268 C-84.52497355 334.80862876 -84.78300568 338.874835 -85.01098633 342.94433594 C-85.75165019 355.07751625 -88.40424061 365.89750661 -94.375 376.5625 C-94.76196045 377.27462646 -95.1489209 377.98675293 -95.54760742 378.72045898 C-98.64377707 384.35714021 -101.99485572 389.81619553 -105.40234375 395.26953125 C-112.2680369 406.40098387 -113.49741071 416.07944219 -113.4375 429.125 C-113.43468018 429.78610779 -113.43186035 430.44721558 -113.42895508 431.12835693 C-113.22923497 462.54188014 -107.62327923 496.48898476 -94.125 525.0625 C-93.29347308 526.89547164 -92.46278541 528.72882418 -91.6328125 530.5625 C-85.64603334 543.58561692 -78.84355089 556.08035726 -71.63574219 568.46289062 C-70.2676094 570.81710489 -68.91605549 573.17981873 -67.5703125 575.546875 C-51.41436985 605.29719844 -51.41436985 605.29719844 -28.125 629.0625 C-25.32652247 629.57003344 -25.32652247 629.57003344 -23.125 629.0625 C-11.76467171 604.31660384 -14.73886154 571.56664193 -14.80694199 544.73275375 C-14.81261014 542.45575641 -14.81541482 540.17876663 -14.81802368 537.90176392 C-14.86450413 509.88098228 -15.82969378 481.99733615 -18.125 454.0625 C-18.20514343 453.07658875 -18.28528687 452.09067749 -18.36785889 451.07489014 C-22.38946195 402.1833007 -28.84447305 352.45366395 -38.66723633 304.37255859 C-39.36616501 300.84548489 -39.93244002 297.30013717 -40.5 293.75 C-41.74922941 286.09277678 -43.16440761 278.47485744 -44.63525391 270.85742188 C-46.22457944 262.60828489 -47.69294507 254.34021143 -49.125 246.0625 C-47.145 246.0625 -45.165 246.0625 -43.125 246.0625 C-42.69155273 246.9596875 -42.25810547 247.856875 -41.81152344 248.78125 C-40.18690699 252.14365613 -38.5615736 255.5057153 -36.93603516 258.86767578 C-36.23564742 260.316476 -35.53544823 261.76536739 -34.83544922 263.21435547 C-34.32715576 264.26647217 -34.32715576 264.26647217 -33.80859375 265.33984375 C-33.47443954 266.03163727 -33.14028534 266.72343079 -32.79600525 267.43618774 C-31.81381492 269.46500875 -30.82609809 271.49107538 -29.83813477 273.51708984 C-28.85430996 275.55315994 -27.88469773 277.59653852 -26.95678711 279.65869141 C-24.83801908 284.29469379 -22.1548481 287.33912757 -18.1875 290.4375 C-17.62192383 290.89664795 -17.05634766 291.3557959 -16.47363281 291.82885742 C-14.70339266 293.25684136 -12.91658835 294.66142995 -11.125 296.0625 C-10.55442871 296.5147998 -9.98385742 296.96709961 -9.39599609 297.43310547 C1.29451451 307.24946002 1.29451451 307.24946002 13.875 312.0625 C10.60813072 304.96872671 4.54052055 299.62360989 -0.875 294.125 C-1.38748291 293.60091553 -1.89996582 293.07683105 -2.42797852 292.53686523 C-5.70738085 289.2574629 -9.07528466 286.71751869 -12.9375 284.125 C-20.75383075 278.05318365 -22.96354117 267.35440517 -25.125 258.0625 C-25.125 257.4025 -25.125 256.7425 -25.125 256.0625 C-24.74214844 256.78695312 -24.35929687 257.51140625 -23.96484375 258.2578125 C-17.70583319 267.8969458 -10.2542421 269.47707875 0.515625 271.78125 C1.55654297 271.99007813 2.59746094 272.19890625 3.66992188 272.4140625 C6.91265835 273.07011887 10.13453367 273.79258833 13.359375 274.53125 C15.46815939 275.00264987 17.57752061 275.4714781 19.6875 275.9375 C21.14361694 276.26113525 21.14361694 276.26113525 22.62915039 276.59130859 C28.79226996 277.87362908 34.58466099 278.32441914 40.875 278.0625 C37.78487287 274.683961 34.2120186 273.3892977 30 271.8125 C28.82244141 271.36342285 28.82244141 271.36342285 27.62109375 270.90527344 C19.75552179 267.9448796 11.79683957 265.26095002 3.8125 262.640625 C2.59506104 262.22937378 2.59506104 262.22937378 1.35302734 261.80981445 C-1.12467624 261.01183991 -1.12467624 261.01183991 -3.73974609 260.58666992 C-7.82467614 259.75577809 -10.31478739 259.03645256 -13.03613281 255.76513672 C-14.78311536 252.86308685 -16.29175624 249.93192523 -17.75 246.875 C-18.27722656 245.83923828 -18.80445313 244.80347656 -19.34765625 243.73632812 C-20.63749404 241.19182994 -21.89445933 238.63605696 -23.125 236.0625 C-21.16054255 236.82431574 -19.19616663 237.58634235 -17.23217773 238.34936523 C-15.57094766 238.99395583 -13.90899347 239.63668321 -12.24633789 240.27758789 C-7.28599667 242.19553451 -2.38126141 244.18677587 2.44140625 246.43359375 C10.42790721 248.49752096 19.1400359 246.4767403 27.125 245.25 C28.26324219 245.08435547 29.40148437 244.91871094 30.57421875 244.74804688 C44.6936704 242.96994553 44.6936704 242.96994553 57.875 238.0625 C55.19689355 235.38439355 53.14367609 235.80267741 49.50146484 235.78515625 C48.63473145 235.79417969 47.76799805 235.80320312 46.875 235.8125 C45.53816162 235.81830078 45.53816162 235.81830078 44.17431641 235.82421875 C37.43573125 235.91004541 30.81607476 236.43889257 24.140625 237.35058594 C22.0541632 237.62924362 19.97009642 237.85885293 17.875 238.0625 C17.07425049 238.14838379 16.27350098 238.23426758 15.44848633 238.32275391 C8.35383406 238.75397734 4.41693658 236.60023341 -1.1875 232.4375 C-1.92548828 231.91542969 -2.66347656 231.39335937 -3.42382812 230.85546875 C-4.90711477 229.8061568 -6.38459897 228.74859107 -7.85595703 227.68261719 C-11.54792048 225.04652192 -15.3354111 222.55534157 -19.125 220.0625 C-18.795 218.94875 -18.465 217.835 -18.125 216.6875 C-15.56401765 205.16307944 -15.58376917 190.63274704 -21.125 180.0625 C-20.3825 180.495625 -19.64 180.92875 -18.875 181.375 C-8.11581318 186.6172952 5.17312474 187.97100528 16.8671875 185.40625 C25.79563165 182.17977174 32.67847577 176.62376091 37 168.17578125 C37.83879221 166.14994828 38.41125103 164.20250826 38.875 162.0625 C39.57625 161.98 40.2775 161.8975 41 161.8125 C46.12767996 160.47484436 49.10127759 158.10091692 52.25 153.875 C54.40608476 149.66206451 54.55676014 145.69518337 53.875 141.0625 C51.87794368 135.07133103 49.37457214 130.60478919 43.9375 127.25 C40.95737965 126.09444313 39.02730109 125.78435579 35.875 126.0625 C35.875 125.4025 35.875 124.7425 35.875 124.0625 C37.050625 123.69125 38.22625 123.32 39.4375 122.9375 C44.62405483 121.21692041 49.67206399 119.18747328 54.73266602 117.13232422 C63.65178981 113.51106059 70.67654329 112.46312249 79.7578125 116.21484375 C86.62872463 119.2584227 93.03655916 122.74844547 99.32421875 126.875 C102.34749612 128.28246757 103.74833765 128.05401815 106.875 127.0625 C106.49807017 124.70909282 106.25732166 123.40624115 104.45483398 121.78564453 C103.84969971 121.42583496 103.24456543 121.06602539 102.62109375 120.6953125 C101.59822266 120.08308838 101.59822266 120.08308838 100.5546875 119.45849609 C99.81476562 119.03906738 99.07484375 118.61963867 98.3125 118.1875 C97.17361328 117.53322021 97.17361328 117.53322021 96.01171875 116.86572266 C85.01007559 110.71600449 73.3106302 104.59956435 60.59765625 107.91796875 C50.58470756 110.9964514 41.25305788 115.43660364 31.875 120.0625 C31.63652344 119.36511719 31.39804687 118.66773438 31.15234375 117.94921875 C29.65699609 114.5698245 27.68660547 111.7776175 25.4375 108.875 C24.99865479 108.30837646 24.55980957 107.74175293 24.10766602 107.15795898 C17.31036598 98.6135714 9.19512782 91.72361468 -0.125 86.0625 C0.58895166 82.7352803 1.78766953 79.8048569 3.16015625 76.6953125 C11.75379254 57.47805718 11.75379254 57.47805718 8.9375 37.25 C7.95706826 35.16799122 6.93023086 33.10761486 5.875 31.0625 C5.51599609 30.35528809 5.15699219 29.64807617 4.78710938 28.91943359 C2.84916405 25.11183703 0.88138552 21.32045532 -1.13671875 17.5546875 C-1.47147217 16.92933105 -1.80622559 16.30397461 -2.15112305 15.65966797 C-3.14995579 13.88047576 -3.14995579 13.88047576 -5.125 12.0625 C-6.445 12.0625 -7.765 12.0625 -9.125 12.0625 Z " fill="#FAFAFB" transform="translate(644.125,168.9375)"/>
</svg>
