<?xml version="1.0" encoding="UTF-8"?>
<svg version="1.1" xmlns="http://www.w3.org/2000/svg" width="275" height="150">
<path d="M0 0 C2.5133341 1.20843134 3.0381043 2.35347453 4.18359375 4.8671875 C4.68632812 5.93259766 4.68632812 5.93259766 5.19921875 7.01953125 C5.93359375 8.9296875 5.93359375 8.9296875 5.93359375 10.9296875 C6.67222656 10.6409375 7.41085938 10.3521875 8.171875 10.0546875 C18.29153305 6.35143271 26.71189842 5.17837846 36.76953125 9.6484375 C40.05357296 11.59277988 41.76129205 13.80700381 43.93359375 16.9296875 C44.92359375 17.9196875 44.92359375 17.9196875 45.93359375 18.9296875 C46.40410156 18.56875 46.87460938 18.2078125 47.359375 17.8359375 C47.98199219 17.371875 48.60460937 16.9078125 49.24609375 16.4296875 C49.86097656 15.965625 50.47585937 15.5015625 51.109375 15.0234375 C52.93359375 13.9296875 52.93359375 13.9296875 55.93359375 13.9296875 C59.29920966 19.99028 61.54689916 24.96918497 61.93359375 31.9296875 C57.64359375 31.9296875 53.35359375 31.9296875 48.93359375 31.9296875 C48.93359375 33.2496875 48.93359375 34.5696875 48.93359375 35.9296875 C50.70075306 36.56500132 52.47261393 37.18723709 54.24609375 37.8046875 C55.72529297 38.32675781 55.72529297 38.32675781 57.234375 38.859375 C66.21786718 41.45861139 74.79505973 42.22954936 84.12109375 42.1171875 C85.14912109 42.11654297 86.17714844 42.11589844 87.23632812 42.11523438 C91.66939625 42.08970807 95.98248132 41.99133852 100.37109375 41.33984375 C103.75306605 40.95047194 105.60345951 41.02455708 108.74609375 42.1796875 C109.47441406 42.43234375 110.20273438 42.685 110.953125 42.9453125 C113.23973304 44.08185141 114.45123387 44.8326906 115.93359375 46.9296875 C118.03901288 58.1012992 114.78086677 65.99641107 108.95019531 75.29589844 C108.08748262 76.68237138 107.28132001 78.10378023 106.48828125 79.53125 C101.09425424 89.18881932 94.04740688 99.35938338 85.93359375 106.9296875 C89.25878791 108.62872276 89.25878791 108.62872276 92.93359375 109.9296875 C93.92359375 109.2696875 94.91359375 108.6096875 95.93359375 107.9296875 C98.5625 107.6640625 98.5625 107.6640625 101.49609375 107.6796875 C102.46675781 107.67453125 103.43742188 107.669375 104.4375 107.6640625 C106.93359375 107.9296875 106.93359375 107.9296875 108.93359375 109.9296875 C109.59359375 109.2696875 110.25359375 108.6096875 110.93359375 107.9296875 C113.8671875 107.69921875 113.8671875 107.69921875 117.37109375 107.7421875 C118.52480469 107.74863281 119.67851562 107.75507812 120.8671875 107.76171875 C123.93359375 107.9296875 123.93359375 107.9296875 126.93359375 108.9296875 C128.44953125 108.4346875 128.44953125 108.4346875 129.99609375 107.9296875 C134.61988927 106.48352167 139.25844393 106.76285781 143.93359375 107.9296875 C146.234375 109.48046875 146.234375 109.48046875 147.93359375 110.9296875 C148.92359375 109.4446875 148.92359375 109.4446875 149.93359375 107.9296875 C152.92703241 107.67924044 155.69652444 107.60406549 158.68359375 107.6796875 C159.88242187 107.68742187 159.88242187 107.68742187 161.10546875 107.6953125 C165.49441512 107.75306179 169.59993648 108.19378344 173.93359375 108.9296875 C174.26359375 108.5996875 174.59359375 108.2696875 174.93359375 107.9296875 C177.55308055 107.80386978 180.14476349 107.74103264 182.765625 107.7265625 C183.55378098 107.72086243 184.34193695 107.71516235 185.15397644 107.70928955 C186.82602592 107.69982432 188.49809417 107.69329955 190.17016602 107.68945312 C192.72510569 107.67976707 195.2792344 107.64876722 197.83398438 107.6171875 C199.45702646 107.6106557 201.08007432 107.60540592 202.703125 107.6015625 C203.46679886 107.5892157 204.23047272 107.5768689 205.01728821 107.56414795 C208.23594959 107.577616 210.55341585 107.7246797 213.4128418 109.26660156 C214.93359375 110.9296875 214.93359375 110.9296875 215.49609375 113.8671875 C214.93359375 116.9296875 214.93359375 116.9296875 212.74609375 119.3671875 C209.93359375 120.9296875 209.93359375 120.9296875 207.30859375 120.8671875 C204.84492085 119.89468504 203.60627747 118.95451516 201.93359375 116.9296875 C201.60359375 117.9196875 201.27359375 118.9096875 200.93359375 119.9296875 C198.2248004 121.28408418 195.92426107 120.99470201 192.93359375 120.9296875 C192.81048828 121.64157227 192.68738281 122.35345703 192.56054688 123.08691406 C191.91524732 126.01287514 190.99660689 128.62629687 189.90234375 131.4140625 C189.30486328 132.93966797 189.30486328 132.93966797 188.6953125 134.49609375 C188.27894531 135.54667969 187.86257812 136.59726563 187.43359375 137.6796875 C187.01722656 138.74574219 186.60085937 139.81179687 186.171875 140.91015625 C183.06808036 148.79520089 183.06808036 148.79520089 181.93359375 149.9296875 C179.79149715 150.08123719 177.64335913 150.15146495 175.49609375 150.1796875 C173.73458984 150.21835937 173.73458984 150.21835937 171.9375 150.2578125 C170.94621094 150.14953125 169.95492187 150.04125 168.93359375 149.9296875 C166.93359375 146.9296875 166.93359375 146.9296875 167.30859375 144.7421875 C167.51484375 144.1440625 167.72109375 143.5459375 167.93359375 142.9296875 C167.45921875 143.8990625 166.98484375 144.8684375 166.49609375 145.8671875 C164.93359375 148.9296875 164.93359375 148.9296875 163.93359375 149.9296875 C159.46027417 150.18348984 154.97575915 150.11491471 150.49609375 150.1171875 C149.22958984 150.12943359 147.96308594 150.14167969 146.65820312 150.15429688 C145.45099609 150.15623047 144.24378906 150.15816406 143 150.16015625 C141.88568604 150.16426514 140.77137207 150.16837402 139.62329102 150.17260742 C136.93359375 149.9296875 136.93359375 149.9296875 134.93359375 147.9296875 C134.25296875 148.25324219 133.57234375 148.57679688 132.87109375 148.91015625 C129.41866918 150.10840467 126.58354742 150.23038808 122.93359375 150.2421875 C121.73734375 150.25894531 120.54109375 150.27570313 119.30859375 150.29296875 C115.71950228 149.90664293 113.83642901 149.01335145 110.93359375 146.9296875 C110.60359375 147.9196875 110.27359375 148.9096875 109.93359375 149.9296875 C104.60026042 149.9296875 99.26692708 149.9296875 93.93359375 149.9296875 C92.99386719 149.94128906 92.05414063 149.95289063 91.0859375 149.96484375 C90.02503906 149.97386719 88.96414062 149.98289063 87.87109375 149.9921875 C86.80761719 150.00378906 85.74414062 150.01539063 84.6484375 150.02734375 C81.93359375 149.9296875 81.93359375 149.9296875 79.93359375 148.9296875 C78.94359375 149.2596875 77.95359375 149.5896875 76.93359375 149.9296875 C74.64597528 150.10111837 72.35216406 150.19612213 70.05859375 150.2421875 C68.84429687 150.27957031 67.63 150.31695312 66.37890625 150.35546875 C62.34593978 149.8570636 60.77482384 148.77091759 57.93359375 145.9296875 C55.95269801 141.59647806 57.70237049 137.95542678 59.2421875 133.72265625 C59.47035156 133.13097656 59.69851562 132.53929687 59.93359375 131.9296875 C61.91359375 131.5996875 63.89359375 131.2696875 65.93359375 130.9296875 C64.61359375 129.2796875 63.29359375 127.6296875 61.93359375 125.9296875 C61.17175781 126.43628906 61.17175781 126.43628906 60.39453125 126.953125 C52.69017392 131.94508686 46.19809442 133.99600522 36.93359375 132.9296875 C27.66196283 128.90614955 23.99195282 118.29157031 20.38110352 109.51464844 C18.90664422 105.96075709 17.43615915 102.87076889 14.93359375 99.9296875 C14.43859375 101.4146875 14.43859375 101.4146875 13.93359375 102.9296875 C14.92359375 104.4146875 14.92359375 104.4146875 15.93359375 105.9296875 C15.87109375 108.4296875 15.87109375 108.4296875 14.93359375 110.9296875 C12.68359375 112.8671875 12.68359375 112.8671875 9.93359375 113.9296875 C7.62109375 113.1171875 7.62109375 113.1171875 4.93359375 111.9296875 C2.24061002 111.74379124 -0.36242089 111.83802698 -3.06640625 111.9296875 C-2.57140625 112.7753125 -2.07640625 113.6209375 -1.56640625 114.4921875 C0.08986561 118.28781052 -0.06640625 120.84766171 -0.06640625 124.9296875 C0.40796875 125.4040625 0.88234375 125.8784375 1.37109375 126.3671875 C3.57055076 128.56664451 3.73447904 130.86086688 3.98828125 133.87890625 C3.87834006 138.00170099 2.16603496 140.66081946 -0.65234375 143.5625 C-3.82576213 146.43104849 -6.83410201 148.90020809 -11.06640625 149.9296875 C-13.37890625 149.5546875 -13.37890625 149.5546875 -15.06640625 148.9296875 C-14.06640625 146.9296875 -14.06640625 146.9296875 -11.62890625 145.4921875 C-8.83080905 144.03304705 -8.83080905 144.03304705 -7.06640625 140.9296875 C-6.73300154 137.88773323 -6.73300154 137.88773323 -7.06640625 134.9296875 C-8.05640625 133.9396875 -8.05640625 133.9396875 -9.06640625 132.9296875 C-11.08892376 132.94129449 -13.11131723 133.03810231 -15.12890625 133.1796875 C-21.16543278 133.28018461 -24.56950185 132.18206342 -29.45703125 128.73046875 C-31.47604913 126.47132496 -31.86150796 124.93168572 -32.06640625 121.9296875 C-29.44595906 117.42251833 -26.91976618 116.38769275 -22.06640625 114.9296875 C-23.33484375 114.74792969 -23.33484375 114.74792969 -24.62890625 114.5625 C-34.99973958 113.03044508 -34.99973958 113.03044508 -39.44140625 111.6171875 C-43.98924517 110.75466632 -45.92696429 112.04812297 -50.06640625 113.9296875 C-54.3505057 113.71548253 -56.48743374 113.31566917 -60.06640625 110.9296875 C-60.56640625 108.1171875 -60.56640625 108.1171875 -60.06640625 104.9296875 C-57.56640625 102.0546875 -57.56640625 102.0546875 -55.06640625 99.9296875 C-55.35515625 99.2284375 -55.64390625 98.5271875 -55.94140625 97.8046875 C-56.31265625 96.8559375 -56.68390625 95.9071875 -57.06640625 94.9296875 C-57.65421875 93.599375 -57.65421875 93.599375 -58.25390625 92.2421875 C-60.48004924 83.16637376 -57.18952023 74.39513697 -52.69140625 66.5234375 C-51.51880778 64.63128997 -50.31996613 62.76892699 -49.06640625 60.9296875 C-50.24203125 60.2490625 -50.24203125 60.2490625 -51.44140625 59.5546875 C-54.06640625 57.9296875 -54.06640625 57.9296875 -56.06640625 55.9296875 C-55.92869546 52.2114962 -55.6666131 49.7457961 -53.4375 46.71484375 C-50.24510249 44.31134184 -48.2045205 44.6266224 -44.25390625 44.7421875 C-39.11345896 44.59658262 -39.11345896 44.59658262 -34.8046875 42.12109375 C-33.06090222 39.79735292 -31.55816488 37.42128436 -30.06640625 34.9296875 C-28.159817 32.48089804 -26.16422526 30.22265246 -24.06640625 27.9296875 C-23.40640625 27.9296875 -22.74640625 27.9296875 -22.06640625 27.9296875 C-22.28296875 27.011875 -22.49953125 26.0940625 -22.72265625 25.1484375 C-24.20487529 18.61569431 -25.46858045 12.63259081 -25.06640625 5.9296875 C-24.07640625 5.99929687 -23.08640625 6.06890625 -22.06640625 6.140625 C-13.15936735 6.73727491 -13.15936735 6.73727491 -5.37890625 2.8671875 C-4.81816406 2.29871094 -4.25742187 1.73023437 -3.6796875 1.14453125 C-2.06640625 -0.0703125 -2.06640625 -0.0703125 0 0 Z M174.93359375 119.9296875 C174.51787109 120.76113281 174.51787109 120.76113281 174.09375 121.609375 C172.70703125 124.3828125 171.3203125 127.15625 169.93359375 129.9296875 C170.82522952 132.04652591 170.82522952 132.04652591 171.93359375 133.9296875 C172.77123643 131.97319353 173.60358434 130.01443194 174.43359375 128.0546875 C174.89765625 126.96414062 175.36171875 125.87359375 175.83984375 124.75 C177.05411831 122.12306821 177.05411831 122.12306821 176.93359375 119.9296875 C176.27359375 119.9296875 175.61359375 119.9296875 174.93359375 119.9296875 Z M84.93359375 123.9296875 C85.92359375 124.9196875 86.91359375 125.9096875 87.93359375 126.9296875 C88.26359375 125.9396875 88.59359375 124.9496875 88.93359375 123.9296875 C87.61359375 123.9296875 86.29359375 123.9296875 84.93359375 123.9296875 Z " fill="#080603" transform="translate(60.06640625,0.0703125)"/>
<path d="M0 0 C3.53233755 1.17744585 3.86308075 1.95605641 5.6875 5.0625 C6.12449219 5.79597656 6.56148437 6.52945312 7.01171875 7.28515625 C7.50091797 8.13400391 7.50091797 8.13400391 8 9 C8.64324219 8.71125 9.28648438 8.4225 9.94921875 8.125 C17.73362842 4.92684025 26.26697868 2.74741191 34.42578125 5.953125 C38.49334433 8.37374634 41.84088656 11.47984502 45 15 C45.53625 15.56074219 46.0725 16.12148438 46.625 16.69921875 C48.56621434 19.94744388 48.29160442 22.50224095 48.1875 26.25 C48.14689453 28.14492188 48.14689453 28.14492188 48.10546875 30.078125 C48.07066406 31.04234375 48.03585938 32.0065625 48 33 C48.67546875 33.11472656 49.3509375 33.22945312 50.046875 33.34765625 C53.5456894 34.1205425 56.87167002 35.26339188 60.25 36.4375 C71.67716391 40.28405073 82.00641508 41.47674371 94 42 C90.93963911 44.04024059 87.88796702 45.49430318 84.5625 47.0625 C67.98343705 55.20166423 55.69720331 67.47958449 45.5 82.625 C44.91234863 83.49543945 44.32469727 84.36587891 43.71923828 85.26269531 C38.95095043 92.57581714 34.92671819 100.19617717 34 109 C31.58657088 105.95069735 29.73719634 102.78452856 27.875 99.375 C22.99485471 90.92502326 16.72555636 83.94273566 9 78 C8.67 78.33 8.34 78.66 8 79 C8.825 80.010625 9.65 81.02125 10.5 82.0625 C13.16540613 85.82899983 13.76302676 88.33705866 13 93 C9.80649461 99.65313623 4.39936286 102.60026235 -2.1875 105.3125 C-7.81644422 106.32755552 -13.29834038 106.20942115 -19 106 C-20.44632813 105.95552734 -20.44632813 105.95552734 -21.921875 105.91015625 C-25.91221076 105.66813884 -28.28725496 105.52152076 -31.5625 103.125 C-33 101 -33 101 -34 98 C-34.58007812 98.433125 -35.16015625 98.86625 -35.7578125 99.3125 C-42.19157895 103.89894737 -42.19157895 103.89894737 -46.5 104.4375 C-49 104 -49 104 -50 103 C-50.375 100.76953125 -50.375 100.76953125 -50 98 C-47.8125 95.32421875 -47.8125 95.32421875 -45 92.6875 C-43.6078125 91.36298828 -43.6078125 91.36298828 -42.1875 90.01171875 C-41.1046875 89.01591797 -41.1046875 89.01591797 -40 88 C-41.485 88.495 -41.485 88.495 -43 89 C-44.66362417 89.34820041 -46.32995171 89.68404492 -48 90 C-51.82079282 85.76146716 -51.61073939 82.03983703 -51.48046875 76.53125 C-50.4989632 69.31758316 -47.2325354 62.50305381 -41.625 57.75 C-40.325625 56.88375 -40.325625 56.88375 -39 56 C-39.99 55.34 -40.98 54.68 -42 54 C-44 52.66666667 -46 51.33333333 -48 50 C-47.4376049 46.73810844 -46.5859495 45.08865152 -44 43 C-38.66353134 41.22117711 -34.04741524 41.55276837 -29 44 C-29.495 43.505 -29.495 43.505 -30 43 C-30.52247105 39.51888475 -30.20366404 38.27951423 -28.1015625 35.39453125 C-27.28429687 34.54246094 -26.46703125 33.69039062 -25.625 32.8125 C-24.81289063 31.95269531 -24.00078125 31.09289062 -23.1640625 30.20703125 C-21.78264368 28.79818354 -20.39520067 27.39520067 -19 26 C-18.01 26 -17.02 26 -16 26 C-15.34 27.32 -14.68 28.64 -14 30 C-10.66484281 30.2180773 -10.66484281 30.2180773 -7 29 C-2.58038086 23.85904405 -1.13857914 17.52095324 0 11 C-0.24234375 11.65226562 -0.4846875 12.30453125 -0.734375 12.9765625 C-4.61917721 23.10693133 -4.61917721 23.10693133 -8 27 C-10.6875 27.4375 -10.6875 27.4375 -13 27 C-14.57320272 25.42679728 -14.32942336 23.70811236 -14.53515625 21.52734375 C-14.66567383 20.17866211 -14.66567383 20.17866211 -14.79882812 18.80273438 C-14.9293457 17.38444336 -14.9293457 17.38444336 -15.0625 15.9375 C-15.15337891 14.98810547 -15.24425781 14.03871094 -15.33789062 13.06054688 C-15.56256498 10.70737865 -15.78308182 8.35389381 -16 6 C-15.39526855 5.9582666 -14.79053711 5.9165332 -14.16748047 5.87353516 C-8.16351664 5.43603491 -8.16351664 5.43603491 -3.125 2.375 C-2.09375 1.59125 -1.0625 0.8075 0 0 Z " fill="#F4A7A9" transform="translate(57,6)"/>
<path d="M0 0 C0.84820312 -0.03738281 1.69640625 -0.07476562 2.5703125 -0.11328125 C4.875 0.3125 4.875 0.3125 6.640625 2.06640625 C8.90710253 6.19053467 8.67006548 9.73799282 7.875 14.3125 C2.79075793 30.62552967 -9.3948033 51.0056939 -24.125 60.3125 C-25.48579 60.83064696 -26.86203776 61.3097881 -28.25 61.75 C-31.46545247 62.77659828 -32.67705174 63.74122642 -34.38671875 66.6328125 C-37.1838212 70.76407322 -40.36031628 72.64782839 -44.8125 74.75 C-45.51930908 75.0905542 -46.22611816 75.4311084 -46.9543457 75.78198242 C-52.29591999 78.21839374 -57.2650063 79.98678392 -63.125 78.3125 C-66.25 76.5 -66.25 76.5 -68.125 73.3125 C-70.70363019 63.34881329 -64.96964613 54.6003432 -60.125 46.3125 C-54.79944628 37.27094125 -48.35832288 29.82402761 -41.125 22.3125 C-40.48046875 21.59320313 -39.8359375 20.87390625 -39.171875 20.1328125 C-35.10694138 15.73208002 -30.56362885 12.34540534 -25.625 9 C-25.00786133 8.57895996 -24.39072266 8.15791992 -23.75488281 7.72412109 C-16.39074508 2.89444492 -8.80511598 0.38172468 0 0 Z " fill="#F1C0BF" transform="translate(162.125,48.6875)"/>
<path d="M0 0 C2.5133341 1.20843134 3.0381043 2.35347453 4.18359375 4.8671875 C4.68632812 5.93259766 4.68632812 5.93259766 5.19921875 7.01953125 C5.93359375 8.9296875 5.93359375 8.9296875 5.93359375 10.9296875 C6.67222656 10.6409375 7.41085938 10.3521875 8.171875 10.0546875 C18.29153305 6.35143271 26.71189842 5.17837846 36.76953125 9.6484375 C40.05357296 11.59277988 41.76129205 13.80700381 43.93359375 16.9296875 C44.92359375 17.9196875 44.92359375 17.9196875 45.93359375 18.9296875 C46.69671875 18.5790625 47.45984375 18.2284375 48.24609375 17.8671875 C50.93359375 16.9296875 50.93359375 16.9296875 53.93359375 17.9296875 C54.8828125 19.92578125 54.8828125 19.92578125 55.62109375 22.3671875 C55.87246094 23.17027344 56.12382813 23.97335938 56.3828125 24.80078125 C56.93359375 26.9296875 56.93359375 26.9296875 56.93359375 28.9296875 C52.18359375 28.0546875 52.18359375 28.0546875 49.93359375 26.9296875 C48.94359375 28.4146875 48.94359375 28.4146875 47.93359375 29.9296875 C47.27359375 29.9296875 46.61359375 29.9296875 45.93359375 29.9296875 C45.93359375 31.9096875 45.93359375 33.8896875 45.93359375 35.9296875 C45.60359375 35.9296875 45.27359375 35.9296875 44.93359375 35.9296875 C44.9078125 35.20523438 44.88203125 34.48078125 44.85546875 33.734375 C44.50364531 27.73738452 44.17880684 23.49329157 39.93359375 18.9296875 C31.72887947 12.73965395 26.30145656 11.0524068 15.93359375 11.9296875 C12.06201862 12.97766706 8.63728174 14.34944729 4.93359375 15.9296875 C2.95359375 12.9596875 0.97359375 9.9896875 -1.06640625 6.9296875 C-5.77825651 8.46678497 -5.77825651 8.46678497 -7.81640625 10.5546875 C-11.35700652 12.71838767 -15.01898979 12.1631923 -19.06640625 11.9296875 C-18.57140625 12.9196875 -18.57140625 12.9196875 -18.06640625 13.9296875 C-17.84949233 15.30175271 -17.67717462 16.68108022 -17.53125 18.0625 C-17.40073242 19.27099609 -17.40073242 19.27099609 -17.26757812 20.50390625 C-17.13706055 21.76654297 -17.13706055 21.76654297 -17.00390625 23.0546875 C-16.91302734 23.90417969 -16.82214844 24.75367187 -16.72851562 25.62890625 C-16.50436945 27.728802 -16.28494177 29.82920043 -16.06640625 31.9296875 C-14.41640625 32.2596875 -12.76640625 32.5896875 -11.06640625 32.9296875 C-10.81890625 32.2696875 -10.57140625 31.6096875 -10.31640625 30.9296875 C-8.74777969 27.16498376 -6.91536551 23.56260355 -5.06640625 19.9296875 C-4.39881253 18.5968181 -3.7318843 17.26361448 -3.06640625 15.9296875 C-1.20684095 21.13647035 -3.84461525 25.19533419 -6.06640625 29.9296875 C-7.87890625 33.4921875 -7.87890625 33.4921875 -10.06640625 35.9296875 C-13.69140625 36.9296875 -13.69140625 36.9296875 -17.06640625 36.9296875 C-17.72640625 36.2696875 -18.38640625 35.6096875 -19.06640625 34.9296875 C-19.06640625 33.9396875 -19.06640625 32.9496875 -19.06640625 31.9296875 C-22.78631753 33.97531297 -25.52980955 36.16048662 -28.37890625 39.3046875 C-29.07628906 40.05492187 -29.77367188 40.80515625 -30.4921875 41.578125 C-32.32871241 44.32151952 -32.47224759 45.69377922 -32.06640625 48.9296875 C-31.73640625 49.5896875 -31.40640625 50.2496875 -31.06640625 50.9296875 C-35.94140625 50.0546875 -35.94140625 50.0546875 -37.06640625 48.9296875 C-41.99693826 48.55041581 -45.17976761 48.72892626 -49.06640625 51.9296875 C-49.72147762 53.98620742 -49.72147762 53.98620742 -50.06640625 55.9296875 C-49.25236328 56.32800781 -49.25236328 56.32800781 -48.421875 56.734375 C-47.70644531 57.08757813 -46.99101563 57.44078125 -46.25390625 57.8046875 C-45.19236328 58.32675781 -45.19236328 58.32675781 -44.109375 58.859375 C-42.06640625 59.9296875 -42.06640625 59.9296875 -39.06640625 61.9296875 C-39.97390625 62.3215625 -40.88140625 62.7134375 -41.81640625 63.1171875 C-47.24789445 66.14628669 -49.91300868 70.64772625 -52.30859375 76.25 C-53.75296079 81.35740098 -53.69131452 86.68336458 -53.06640625 91.9296875 C-52.40640625 92.9196875 -51.74640625 93.9096875 -51.06640625 94.9296875 C-47.6917791 94.38245067 -45.98405625 93.8747875 -43.06640625 91.9296875 C-41.58140625 92.4246875 -41.58140625 92.4246875 -40.06640625 92.9296875 C-40.76507813 93.55617188 -41.46375 94.18265625 -42.18359375 94.828125 C-43.09367187 95.64539063 -44.00375 96.46265625 -44.94140625 97.3046875 C-45.84632812 98.11679688 -46.75125 98.92890625 -47.68359375 99.765625 C-49.17536808 101.12044955 -50.6414606 102.50474185 -52.06640625 103.9296875 C-52.23328073 106.51322968 -52.23328073 106.51322968 -52.06640625 108.9296875 C-49.09640625 108.9296875 -46.12640625 108.9296875 -43.06640625 108.9296875 C-43.06640625 109.5896875 -43.06640625 110.2496875 -43.06640625 110.9296875 C-48.24824514 113.57348285 -51.21126355 114.39347318 -57.06640625 112.9296875 C-58.05640625 112.2696875 -59.04640625 111.6096875 -60.06640625 110.9296875 C-60.56640625 108.1171875 -60.56640625 108.1171875 -60.06640625 104.9296875 C-57.56640625 102.0546875 -57.56640625 102.0546875 -55.06640625 99.9296875 C-55.35515625 99.2284375 -55.64390625 98.5271875 -55.94140625 97.8046875 C-56.31265625 96.8559375 -56.68390625 95.9071875 -57.06640625 94.9296875 C-57.65421875 93.599375 -57.65421875 93.599375 -58.25390625 92.2421875 C-60.48004924 83.16637376 -57.18952023 74.39513697 -52.69140625 66.5234375 C-51.51880778 64.63128997 -50.31996613 62.76892699 -49.06640625 60.9296875 C-50.24203125 60.2490625 -50.24203125 60.2490625 -51.44140625 59.5546875 C-54.06640625 57.9296875 -54.06640625 57.9296875 -56.06640625 55.9296875 C-55.92869546 52.2114962 -55.6666131 49.7457961 -53.4375 46.71484375 C-50.24510249 44.31134184 -48.2045205 44.6266224 -44.25390625 44.7421875 C-39.11345896 44.59658262 -39.11345896 44.59658262 -34.8046875 42.12109375 C-33.06090222 39.79735292 -31.55816488 37.42128436 -30.06640625 34.9296875 C-28.159817 32.48089804 -26.16422526 30.22265246 -24.06640625 27.9296875 C-23.40640625 27.9296875 -22.74640625 27.9296875 -22.06640625 27.9296875 C-22.28296875 27.011875 -22.49953125 26.0940625 -22.72265625 25.1484375 C-24.20487529 18.61569431 -25.46858045 12.63259081 -25.06640625 5.9296875 C-24.07640625 5.99929687 -23.08640625 6.06890625 -22.06640625 6.140625 C-13.15936735 6.73727491 -13.15936735 6.73727491 -5.37890625 2.8671875 C-4.81816406 2.29871094 -4.25742187 1.73023437 -3.6796875 1.14453125 C-2.06640625 -0.0703125 -2.06640625 -0.0703125 0 0 Z " fill="#090606" transform="translate(60.06640625,0.0703125)"/>
<path d="M0 0 C3.59950057 0.34364877 5.27101431 1.17879863 8.25390625 3.1796875 C9.1975 3.80617188 10.14109375 4.43265625 11.11328125 5.078125 C13.33304895 6.68379453 15.46125317 8.30495112 17.58203125 10.03125 C18.43655884 10.71985107 18.43655884 10.71985107 19.30834961 11.42236328 C20.41954314 12.32827801 21.51747192 13.25076764 22.59985352 14.19091797 C25.35605903 16.45132804 26.75969386 17.31687079 30.375 17.21484375 C33.77317252 16.11668259 36.28421233 14.35293776 39.19140625 12.3046875 C39.85140625 12.3046875 40.51140625 12.3046875 41.19140625 12.3046875 C39.89430313 15.82362276 38.32651555 18.75036283 36.25390625 21.8671875 C32.84735096 27.38930525 31.42971692 32.98278566 30.19140625 39.3046875 C27.77797713 36.25538485 25.92860259 33.08921606 24.06640625 29.6796875 C19.18626096 21.22971076 12.91696261 14.24742316 5.19140625 8.3046875 C4.86140625 8.6346875 4.53140625 8.9646875 4.19140625 9.3046875 C5.01640625 10.3153125 5.84140625 11.3259375 6.69140625 12.3671875 C9.35681238 16.13368733 9.95443301 18.64174616 9.19140625 23.3046875 C5.99790086 29.95782373 0.59076911 32.90494985 -5.99609375 35.6171875 C-11.62503797 36.63224302 -17.10693413 36.51410865 -22.80859375 36.3046875 C-24.25492188 36.26021484 -24.25492188 36.26021484 -25.73046875 36.21484375 C-29.65547536 35.97678862 -32.1215583 35.76271113 -35.43359375 33.5546875 C-37.16693774 30.71830643 -37.50889531 29.57276145 -36.80859375 26.3046875 C-34.75717699 22.79742659 -33.58765403 20.81942465 -29.6484375 19.6796875 C-27.09574699 19.47513133 -25.25780968 19.54014097 -22.80859375 20.3046875 C-21.06162392 21.97167558 -19.96444517 23.57656402 -18.78125 25.67578125 C-17.90034896 27.48325227 -17.90034896 27.48325227 -15.80859375 28.3046875 C-8.62001421 29.07884222 -3.21550722 28.82883741 2.765625 24.59375 C4.86024303 22.69998576 5.18463906 21.34190704 5.69140625 18.5546875 C5.03601961 14.29467436 3.30902805 13.17000262 0.015625 10.6015625 C-1.57182137 9.4730139 -3.18799388 8.38508742 -4.80859375 7.3046875 C-5.12109375 4.8046875 -5.12109375 4.8046875 -4.80859375 2.3046875 C-2.80859375 0.3046875 -2.80859375 0.3046875 0 0 Z " fill="#EE8E94" transform="translate(60.80859375,75.6953125)"/>
<path d="M0 0 C0.268125 0.598125 0.53625 1.19625 0.8125 1.8125 C2.03457903 4.06369821 3.03349254 5.37254555 5 7 C15.39361715 9.62850163 27.72901402 8.59672783 38 6 C37.67 6.99 37.34 7.98 37 9 C36.01 9 35.02 9 34 9 C34.495 9.845625 34.99 10.69125 35.5 11.5625 C37.15627186 15.35812302 37 17.91797421 37 22 C37.474375 22.474375 37.94875 22.94875 38.4375 23.4375 C40.63695701 25.63695701 40.80088529 27.93117938 41.0546875 30.94921875 C40.94474631 35.07201349 39.23244121 37.73113196 36.4140625 40.6328125 C33.24064412 43.50136099 30.23230424 45.97052059 26 47 C23.6875 46.625 23.6875 46.625 22 46 C23 44 23 44 25.4375 42.5625 C28.2355972 41.10335955 28.2355972 41.10335955 30 38 C30.33340471 34.95804573 30.33340471 34.95804573 30 32 C29.34 31.34 28.68 30.68 28 30 C25.97748249 30.01160699 23.95508902 30.10841481 21.9375 30.25 C15.90097347 30.35049711 12.4969044 29.25237592 7.609375 25.80078125 C5.59035712 23.54163746 5.20489829 22.00199822 5 19 C7.62044719 14.49283083 10.14664007 13.45800525 15 12 C14.16597656 11.90203125 13.33195312 11.8040625 12.47265625 11.703125 C5.35984326 10.75800895 -0.65134877 9.37938541 -7 6 C-4.74259377 3.66475218 -2.7194239 1.81294927 0 0 Z " fill="#0A0707" transform="translate(23,103)"/>
<path d="M0 0 C2.0625 1.875 2.0625 1.875 2.390625 4.39453125 C1.95058195 9.06213076 0.50856314 13.06442104 -1.125 17.4375 C-1.41697266 18.27474609 -1.70894531 19.11199219 -2.00976562 19.97460938 C-4.38466911 26.42515368 -7.10048569 30.35141824 -13.3125 33.6875 C-18.04906524 35.23913344 -21.71551112 35.70824583 -26.4375 33.9375 C-28.59410526 30.97216776 -27.8701971 28.91402993 -27.40527344 25.38647461 C-26.64203155 21.2886305 -25.31185049 17.50489819 -23.8125 13.625 C-23.54179687 12.84898438 -23.27109375 12.07296875 -22.9921875 11.2734375 C-20.77830779 5.48177004 -18.2915013 3.00727287 -12.9375 -0.125 C-8.35617001 -1.65211 -4.53377695 -1.73634011 0 0 Z " fill="#EDAD11" transform="translate(202.9375,112.125)"/>
<path d="M0 0 C3.375 -0.1875 3.375 -0.1875 7 0 C9.94605767 4.4190865 9.83380748 7.80971003 9 13 C3.96966954 29.30416323 -8.30073449 49.71273679 -23 59 C-24.36079 59.51814696 -25.73703776 59.9972881 -27.125 60.4375 C-30.34045247 61.46409828 -31.55205174 62.42872642 -33.26171875 65.3203125 C-36.05983849 69.45307573 -39.23593177 71.33174398 -43.6875 73.4375 C-44.74227539 73.95376953 -44.74227539 73.95376953 -45.81835938 74.48046875 C-51.24898424 76.98920838 -56.00974227 78.03677538 -62 77 C-62.66 75.68 -63.32 74.36 -64 73 C-60.80062989 71.11319198 -58.49435823 70.83906463 -54.8125 70.8125 C-49.00453326 70.43152226 -46.0647991 68.29556681 -41.875 64.3984375 C-41.25625 63.93695313 -40.6375 63.47546875 -40 63 C-38.515 63.495 -38.515 63.495 -37 64 C-36.55269531 63.46890625 -36.10539062 62.9378125 -35.64453125 62.390625 C-35.03996094 61.68421875 -34.43539062 60.9778125 -33.8125 60.25 C-33.22082031 59.55390625 -32.62914062 58.8578125 -32.01953125 58.140625 C-30 56 -30 56 -27.5234375 54.04296875 C-22.9684287 50.35524491 -19.61011057 45.58689682 -16 41 C-15.57460937 40.46068848 -15.14921875 39.92137695 -14.7109375 39.36572266 C-9.97263577 33.34176645 -5.35335498 27.2903825 -1.25390625 20.8046875 C0.01188173 18.98289919 1.385623 17.51553759 3 16 C2.01 16 1.02 16 0 16 C0.12568359 15.04287109 0.12568359 15.04287109 0.25390625 14.06640625 C0.35574219 13.24011719 0.45757812 12.41382813 0.5625 11.5625 C0.66691406 10.73878906 0.77132812 9.91507813 0.87890625 9.06640625 C0.91886719 8.38449219 0.95882812 7.70257813 1 7 C0.505 6.505 0.505 6.505 0 6 C-0.04080783 4.00041636 -0.04254356 1.99954746 0 0 Z " fill="#F0D2D1" transform="translate(161,50)"/>
<path d="M0 0 C2.475 0.495 2.475 0.495 5 1 C5.91209213 11.28637236 5.91209213 11.28637236 3.83984375 15.1796875 C2.31841973 16.93068701 0.74032199 18.46802642 -1 20 C-1.9417251 20.95418178 -2.87964684 21.91214279 -3.8125 22.875 C-4.534375 23.57625 -5.25625 24.2775 -6 25 C-8.20680179 27.20680179 -7.40382573 32.88851092 -7.51757812 36.00976562 C-7.85712128 43.01204235 -7.85712128 43.01204235 -10 46 C-12.3125 46.9375 -12.3125 46.9375 -15 47 C-18.99460112 45.21294161 -22.10651397 42.28764708 -25.3515625 39.40234375 C-27.15758251 37.81070648 -27.15758251 37.81070648 -30 36 C-30 35.34 -30 34.68 -30 34 C-30.09023438 33.24074219 -30.18046875 32.48148438 -30.2734375 31.69921875 C-29.89167558 27.93068324 -28.21689385 26.51477419 -25.625 23.8125 C-24.81289063 22.95269531 -24.00078125 22.09289062 -23.1640625 21.20703125 C-21.78264368 19.79818354 -20.39520067 18.39520067 -19 17 C-18.01 17 -17.02 17 -16 17 C-15.34 18.32 -14.68 19.64 -14 21 C-10.66484281 21.2180773 -10.66484281 21.2180773 -7 20 C-2.52512031 14.48175459 0.41855005 7.11535089 0 0 Z " fill="#F19096" transform="translate(57,15)"/>
<path d="M0 0 C2.95857409 -0.05379226 5.91617721 -0.09357093 8.875 -0.125 C9.71675781 -0.14175781 10.55851562 -0.15851563 11.42578125 -0.17578125 C12.23144531 -0.18222656 13.03710938 -0.18867187 13.8671875 -0.1953125 C14.61081543 -0.20578613 15.35444336 -0.21625977 16.12060547 -0.22705078 C18 0 18 0 20 2 C19.80677709 5.9932735 19.56998841 8.88852261 17.75 12.4375 C15.56589612 14.38759275 13.87496365 14.68919312 11 15 C11 15.66 11 16.32 11 17 C11.99 17.33 12.98 17.66 14 18 C13.6083965 23.95507399 12.62875405 28.62819824 10 34 C7.69 34 5.38 34 3 34 C3.4848397 30.80005798 4.26689205 28.4148905 5.625 25.4375 C7.23057912 22.23175981 7.23057912 22.23175981 6.6875 19.5625 C6.3471875 18.7890625 6.3471875 18.7890625 6 18 C4.68 18 3.36 18 2 18 C0.02 23.28 -1.96 28.56 -4 34 C-6.31 34 -8.62 34 -11 34 C-10.22075878 29.2869989 -8.71595751 24.8851254 -7.1875 20.375 C-6.92050293 19.5804541 -6.65350586 18.7859082 -6.37841797 17.96728516 C-4.34462231 11.94416813 -2.22938317 5.95376447 0 0 Z " fill="#F1B012" transform="translate(212,112)"/>
<path d="M0 0 C2.62651431 0.28119857 5.25069335 0.57443838 7.875 0.875 C8.62136719 0.95363281 9.36773438 1.03226563 10.13671875 1.11328125 C15.7734375 1.7734375 15.7734375 1.7734375 18 4 C17.89729893 7.08103199 17.00625395 7.99409349 14.75 10.125 C12.19937633 11.8640616 9.90860729 13.00276322 7 14 C6.67 16.97 6.34 19.94 6 23 C7.65 23.33 9.3 23.66 11 24 C11.75 26.25 11.75 26.25 12 29 C10.1875 31.3125 10.1875 31.3125 8 33 C7.34 33 6.68 33 6 33 C6 33.66 6 34.32 6 35 C5.443125 34.773125 4.88625 34.54625 4.3125 34.3125 C1.85196029 33.73482997 1.85196029 33.73482997 -0.5 35.5 C-3 37 -3 37 -5.1875 36.875 C-7 36 -7 36 -9 33 C-10.42568754 23.47256886 -8.3855802 15.90855471 -3 8 C-1.08039934 5.94204974 0.64436101 4.570426 3 3 C2.01 2.01 1.02 1.02 0 0 Z " fill="#EE8E94" transform="translate(15,59)"/>
<path d="M0 0 C2.31 0 4.62 0 7 0 C7 5.28 7 10.56 7 16 C7.99 15.67 8.98 15.34 10 15 C11.04004769 12.4657993 11.89978397 10.04814798 12.6875 7.4375 C12.91244141 6.72658203 13.13738281 6.01566406 13.36914062 5.28320312 C13.92358017 3.52551181 14.46320189 1.76315902 15 0 C16.98 0 18.96 0 21 0 C19.48478774 7.98930101 16.82140644 15.38641366 14 23 C13.22809157 25.12460971 12.45714671 27.24956993 11.6875 29.375 C11.12542394 30.91682128 10.56310022 32.45855247 10 34 C7.36 34 4.72 34 2 34 C2 28.39 2 22.78 2 17 C-1.21932635 20.21932635 -2.2974652 23.00059759 -3.6875 27.1875 C-3.91244141 27.84169922 -4.13738281 28.49589844 -4.36914062 29.16992188 C-4.92057309 30.77728884 -5.46134891 32.38830483 -6 34 C-7.98 34 -9.96 34 -12 34 C-10.02732509 26.29206011 -7.63135559 18.83634351 -4.875 11.375 C-4.51535156 10.38371094 -4.15570313 9.39242187 -3.78515625 8.37109375 C-1.13484172 1.13484172 -1.13484172 1.13484172 0 0 Z " fill="#ECAC11" transform="translate(158,112)"/>
<path d="M0 0 C-0.33 0.99 -0.66 1.98 -1 3 C-1.79148438 3.29390625 -2.58296875 3.5878125 -3.3984375 3.890625 C-6.71319186 5.30412386 -7.14330483 6.51894859 -8.625 9.75 C-13.97799407 20.24957449 -22.00739921 29.14366722 -29.953125 37.765625 C-31.85740152 39.84433906 -33.68080515 41.97200793 -35.5 44.125 C-38.71696807 47.83052631 -42.27082162 51.03761374 -45.984375 54.23828125 C-47.73248877 55.76618689 -49.38231867 57.33624547 -51 59 C-50.61365636 52.28822625 -48.77776718 48.00410077 -45.1875 42.375 C-44.69685059 41.59229736 -44.20620117 40.80959473 -43.70068359 40.00317383 C-38.79832281 32.37304938 -33.1901737 25.60657903 -27 19 C-26.46584473 18.41814941 -25.93168945 17.83629883 -25.38134766 17.23681641 C-9.4686214 0 -9.4686214 0 0 0 Z " fill="#0A0909" transform="translate(156,57)"/>
<path d="M0 0 C3 1.5 3 1.5 5 3 C4.67 4.98 4.34 6.96 4 9 C1.69 9 -0.62 9 -3 9 C-3 7.02 -3 5.04 -3 3 C-6.24983135 4.08784968 -6.24983135 4.08784968 -9 6 C-9.46442646 8.87333089 -9.46442646 8.87333089 -9 12 C-7.0260392 14.22188136 -7.0260392 14.22188136 -4.4375 16 C-0.03597446 19.6402554 -0.03597446 19.6402554 0.3125 23.125 C-2.67263528 29.66386776 -5.64962955 32.82481477 -12 36 C-17.4157076 36.35512837 -20.51066735 36.36699949 -25 33 C-24.125 26.125 -24.125 26.125 -23 25 C-20.66702567 24.95907063 -18.33294775 24.95758277 -16 25 C-16.33 26.98 -16.66 28.96 -17 31 C-14.58354218 31.16687448 -14.58354218 31.16687448 -12 31 C-9.71510104 29.07651895 -9.71510104 29.07651895 -9.3125 25.8125 C-10.25545778 20.5833705 -12.82160134 19.24100523 -17.03125 16.28515625 C-17.6809375 15.86105469 -18.330625 15.43695313 -19 15 C-18.58649697 9.72783638 -17.82965008 6.72614602 -14 3 C-9.16142783 -0.18905893 -5.6259622 -0.53580592 0 0 Z " fill="#EBAB11" transform="translate(146,111)"/>
<path d="M0 0 C0 3 0 3 -2.234375 5.3046875 C-3.14703125 6.19414063 -4.0596875 7.08359375 -5 8 C-6.46098698 10.01019011 -7.87625649 12.05420885 -9.25 14.125 C-13.48347399 20.39129142 -18.10126108 26.23518569 -23 32 C-23.60714844 32.73089844 -24.21429688 33.46179688 -24.83984375 34.21484375 C-29.13268708 39.28643417 -33.97893469 44.98946735 -40 48 C-38.64371602 36.49670251 -29.05694319 26.81837416 -22 18 C-21.36449219 17.17242187 -20.72898438 16.34484375 -20.07421875 15.4921875 C-14.50725415 8.64970853 -7.49585034 4.45329311 0 0 Z " fill="#0F0C0C" transform="translate(164,65)"/>
<path d="M0 0 C6.93 0 13.86 0 21 0 C20.67 1.32 20.34 2.64 20 4 C17.69 4 15.38 4 13 4 C12.86464844 4.65742187 12.72929687 5.31484375 12.58984375 5.9921875 C10.38719256 15.72605922 6.7428181 24.77113345 3 34 C0.36 34 -2.28 34 -5 34 C-1.66666667 24 1.66666667 14 5 4 C3.35 4 1.7 4 0 4 C0 2.68 0 1.36 0 0 Z " fill="#F1B012" transform="translate(237,112)"/>
<path d="M0 0 C4.76205336 0.46839869 6.88811588 1.68179521 10.8125 4.375 C13.49177341 8.39391012 12.96851248 10.61661923 12.8125 15.375 C11.8225 15.705 10.8325 16.035 9.8125 16.375 C8.59380071 18.87947516 8.59380071 18.87947516 7.8125 21.375 C8.4725 21.705 9.1325 22.035 9.8125 22.375 C8.8125 23.375 8.8125 23.375 5.4375 23.625 C1.8125 23.375 1.8125 23.375 -0.125 22.25 C-1.65389539 19.5519493 -1.44662365 17.41970288 -1.1875 14.375 C-0.8575 13.715 -0.5275 13.055 -0.1875 12.375 C0.8025 12.375 1.7925 12.375 2.8125 12.375 C2.1525 10.065 1.4925 7.755 0.8125 5.375 C-3.45178496 5.84880944 -5.30240093 8.41397727 -8.1875 11.375 C-8.8475 11.375 -9.5075 11.375 -10.1875 11.375 C-10.5175 9.395 -10.8475 7.415 -11.1875 5.375 C-10.23875 4.92125 -9.29 4.4675 -8.3125 4 C-0.80153509 0.09429825 -0.80153509 0.09429825 0 0 Z " fill="#EED0CF" transform="translate(89.1875,15.625)"/>
<path d="M0 0 C0 0.66 0 1.32 0 2 C-0.61657471 2.24008789 -1.23314941 2.48017578 -1.8684082 2.72753906 C-4.52650671 4.31429996 -4.99131006 5.50297654 -6.10546875 8.359375 C-6.44900391 9.22820312 -6.79253906 10.09703125 -7.14648438 10.9921875 C-7.49001953 11.90226562 -7.83355469 12.81234375 -8.1875 13.75 C-8.54263672 14.64460938 -8.89777344 15.53921875 -9.26367188 16.4609375 C-11.01100817 20.95692995 -12.4643725 25.17135804 -13 30 C-11.68 30.66 -10.36 31.32 -9 32 C-9.33 32.99 -9.66 33.98 -10 35 C-13.45440136 35.19929239 -16.23675084 35.28621844 -19.5 34.0625 C-21.65660526 31.09716776 -20.9326971 29.03902993 -20.46777344 25.51147461 C-19.70453155 21.4136305 -18.37435049 17.62989819 -16.875 13.75 C-16.60429687 12.97398438 -16.33359375 12.19796875 -16.0546875 11.3984375 C-13.244134 4.0458288 -8.51654158 -1.03860263 0 0 Z " fill="#F0AF12" transform="translate(196,112)"/>
<path d="M0 0 C0.62261719 0.185625 1.24523437 0.37125 1.88671875 0.5625 C1.42410645 1.00940186 0.96149414 1.45630371 0.48486328 1.91674805 C-11.18265149 13.24075959 -21.53496709 24.44665086 -30.05078125 38.375 C-30.416875 38.97328613 -30.78296875 39.57157227 -31.16015625 40.18798828 C-33.69872206 44.49380473 -35.4582006 48.8462984 -37.11328125 53.5625 C-37.44328125 53.5625 -37.77328125 53.5625 -38.11328125 53.5625 C-39.35889938 39.23789155 -28.17779847 26.89590082 -19.57421875 16.4921875 C-17.46974548 14.12736702 -15.32370813 11.82818755 -13.11328125 9.5625 C-12.46359375 8.88574219 -11.81390625 8.20898438 -11.14453125 7.51171875 C-3.16381747 -0.65498624 -3.16381747 -0.65498624 0 0 Z " fill="#F2D3D2" transform="translate(141.11328125,62.4375)"/>
<path d="M0 0 C1.32 0 2.64 0 4 0 C5.46870927 4.55976376 3.92531293 7.9266087 2.3125 12.25 C1.92674805 13.33861328 1.92674805 13.33861328 1.53320312 14.44921875 C-0.3000602 19.5030798 -2.52304454 24.22956726 -5 29 C-6.65 29 -8.3 29 -10 29 C-11.23017421 25.50074832 -10.77212295 23.57744229 -9.453125 20.15625 C-9.1025 19.23972656 -8.751875 18.32320312 -8.390625 17.37890625 C-8.01421875 16.42886719 -7.6378125 15.47882813 -7.25 14.5 C-6.70859375 13.07494141 -6.70859375 13.07494141 -6.15625 11.62109375 C-2.77267292 2.90470496 -2.77267292 2.90470496 0 0 Z " fill="#100C01" transform="translate(193,114)"/>
<path d="M0 0 C1.65 0.33 3.3 0.66 5 1 C5.93045933 3.55144824 6.08564091 4.74006478 5.22265625 7.359375 C4.83980469 8.14828125 4.45695313 8.9371875 4.0625 9.75 C3.68222656 10.54921875 3.30195313 11.3484375 2.91015625 12.171875 C2.60980469 12.77515625 2.30945313 13.3784375 2 14 C3.65 14.33 5.3 14.66 7 15 C6.6083965 20.95507399 5.62875405 25.62819824 3 31 C0.69 31 -1.62 31 -4 31 C-3.51703515 27.81243199 -2.74771076 25.45660779 -1.375 22.5 C0.05106697 18.87001135 0.06502376 17.62108077 -1 14 C-0.67 13.67 -0.34 13.34 0 13 C-0.99 12.67 -1.98 12.34 -3 12 C-2.14285714 3.42857143 -2.14285714 3.42857143 0 0 Z " fill="#ECAC11" transform="translate(219,115)"/>
<path d="M0 0 C6.52687148 2.31160032 11.22376405 7.33564608 15 13 C15.61547819 19.25736162 14.9098295 22.11271313 11 27 C10.34 26.67 9.68 26.34 9 26 C9.66 25.01 10.32 24.02 11 23 C11.49426711 17.76076868 10.87905979 14.41455835 8 10 C5.19960127 6.86090998 2.94700824 5.08768595 -1.375 4.6875 C-2.24125 4.790625 -3.1075 4.89375 -4 5 C-4.33 5.66 -4.66 6.32 -5 7 C-2.36 7.66 0.28 8.32 3 9 C3 9.99 3 10.98 3 12 C1.4156683 11.91231752 -0.16753567 11.80412671 -1.75 11.6875 C-3.07257812 11.60048828 -3.07257812 11.60048828 -4.421875 11.51171875 C-7.36737974 10.92708069 -8.83139051 10.05421036 -11 8 C-11.5 5.5 -11.5 5.5 -11 3 C-7.85334992 -0.6501141 -4.58388682 -0.47419519 0 0 Z " fill="#E09A9B" transform="translate(45,118)"/>
<path d="M0 0 C0.57234375 0.23589844 1.1446875 0.47179687 1.734375 0.71484375 C2.064375 3.02484375 2.394375 5.33484375 2.734375 7.71484375 C1.744375 7.71484375 0.754375 7.71484375 -0.265625 7.71484375 C-0.595625 10.35484375 -0.925625 12.99484375 -1.265625 15.71484375 C-0.275625 16.04484375 0.714375 16.37484375 1.734375 16.71484375 C-0.390625 17.52734375 -0.390625 17.52734375 -3.265625 17.71484375 C-6.84747489 15.25671147 -9.9387892 12.9607183 -11.265625 8.71484375 C-11.390625 5.96484375 -11.390625 5.96484375 -11.265625 3.71484375 C-10.935625 4.70484375 -10.605625 5.69484375 -10.265625 6.71484375 C-9.46898438 5.93947266 -9.46898438 5.93947266 -8.65625 5.1484375 C-7.94984375 4.48972656 -7.2434375 3.83101562 -6.515625 3.15234375 C-5.81953125 2.49105469 -5.1234375 1.82976563 -4.40625 1.1484375 C-2.265625 -0.28515625 -2.265625 -0.28515625 0 0 Z " fill="#F1D3D2" transform="translate(89.265625,20.28515625)"/>
<path d="M0 0 C4.12528499 0.13839953 8.25014108 0.2869741 12.375 0.4375 C13.550625 0.47681641 14.72625 0.51613281 15.9375 0.55664062 C17.05898437 0.59853516 18.18046875 0.64042969 19.3359375 0.68359375 C20.89127197 0.73858032 20.89127197 0.73858032 22.47802734 0.79467773 C25 1 25 1 27 2 C28.54023996 2.06950541 30.08334988 2.08452357 31.625 2.0625 C32.44226563 2.05347656 33.25953125 2.04445312 34.1015625 2.03515625 C34.72804687 2.02355469 35.35453125 2.01195312 36 2 C36 2.33 36 2.66 36 3 C34.36804688 3.20302734 34.36804688 3.20302734 32.703125 3.41015625 C22.74817715 4.80680361 15.38404586 7.19000331 7 13 C5.64648438 13.88558594 5.64648438 13.88558594 4.265625 14.7890625 C2.1595235 16.16914764 0.07299034 17.57089302 -2 19 C0.72882646 12.30197142 6.07315513 9.09833751 12.3125 6.1875 C13.28026367 5.72053711 13.28026367 5.72053711 14.26757812 5.24414062 C15.84059344 4.48676288 17.41969126 3.74203942 19 3 C17.57107422 2.90912109 17.57107422 2.90912109 16.11328125 2.81640625 C14.85902344 2.73261719 13.60476562 2.64882813 12.3125 2.5625 C11.07113281 2.48128906 9.82976562 2.40007813 8.55078125 2.31640625 C5.61819663 2.05508683 2.86558383 1.65201621 0 1 C0 0.67 0 0.34 0 0 Z " fill="#130E0E" transform="translate(129,46)"/>
<path d="M0 0 C1.58272601 1.58272601 1.34735747 3.38034003 1.5625 5.5625 C1.64628906 6.38878906 1.73007813 7.21507812 1.81640625 8.06640625 C1.87699219 8.70449219 1.93757813 9.34257812 2 10 C3.32 9.67 4.64 9.34 6 9 C6 9.66 6 10.32 6 11 C4.824375 11.12375 4.824375 11.12375 3.625 11.25 C0.85250896 11.72806339 0.85250896 11.72806339 -0.3125 14.0625 C-0.6528125 15.0215625 -0.6528125 15.0215625 -1 16 C-1.33 14.68 -1.66 13.36 -2 12 C-2 13.98 -2 15.96 -2 18 C-2.99 18 -3.98 18 -5 18 C-5.125 12.25 -5.125 12.25 -4 10 C-3.01 10 -2.02 10 -1 10 C-1.66 7.69 -2.32 5.38 -3 3 C-7.37859255 3.50522222 -9.81651224 6.17827222 -13 9 C-12.66594467 5.99350204 -11.76111354 4.69085282 -9.875 2.25 C-6.31559862 -0.53561847 -4.41457901 -0.5093745 0 0 Z " fill="#24201F" transform="translate(93,18)"/>
<path d="M0 0 C0.62148926 0.18699463 1.24297852 0.37398926 1.88330078 0.56665039 C-0.52098761 3.05808306 -2.94209936 5.53249268 -5.36669922 8.00415039 C-6.04861328 8.71120117 -6.73052734 9.41825195 -7.43310547 10.14672852 C-8.09697266 10.82026367 -8.76083984 11.49379883 -9.44482422 12.18774414 C-10.05229492 12.81092529 -10.65976563 13.43410645 -11.28564453 14.07617188 C-13.28825807 15.7062993 -14.62739453 16.04054422 -17.11669922 16.56665039 C-18.10669922 17.22665039 -19.09669922 17.88665039 -20.11669922 18.56665039 C-18.48107846 14.37663424 -15.39366766 11.5843114 -12.24169922 8.50415039 C-11.71189453 7.97499023 -11.18208984 7.44583008 -10.63623047 6.90063477 C-3.03027974 -0.62038599 -3.03027974 -0.62038599 0 0 Z " fill="#ECCFCE" transform="translate(141.11669921875,62.433349609375)"/>
<path d="M0 0 C1.65 0.33 3.3 0.66 5 1 C5.6875 2.625 5.6875 2.625 6 5 C3.72413793 10.27586207 3.72413793 10.27586207 2 12 C0.33382885 12.04063832 -1.33388095 12.042721 -3 12 C-2.14285714 3.42857143 -2.14285714 3.42857143 0 0 Z " fill="#1C1402" transform="translate(219,115)"/>
<path d="M0 0 C0.50403768 1.29009643 1.00309926 2.58213789 1.5 3.875 C1.7784375 4.59429688 2.056875 5.31359375 2.34375 6.0546875 C3 8 3 8 3 10 C-1.75 9.125 -1.75 9.125 -4 8 C-4.33 8.66 -4.66 9.32 -5 10 C-5.66 10 -6.32 10 -7 10 C-7.33 7.36 -7.66 4.72 -8 2 C-4.91190305 0.23537317 -3.76687864 0 0 0 Z " fill="#D59294" transform="translate(114,19)"/>
<path d="M0 0 C4.12528499 0.13839953 8.25014108 0.2869741 12.375 0.4375 C13.550625 0.47681641 14.72625 0.51613281 15.9375 0.55664062 C17.05898437 0.59853516 18.18046875 0.64042969 19.3359375 0.68359375 C20.89127197 0.73858032 20.89127197 0.73858032 22.47802734 0.79467773 C25 1 25 1 27 2 C28.54023996 2.06950541 30.08334988 2.08452357 31.625 2.0625 C32.44226563 2.05347656 33.25953125 2.04445312 34.1015625 2.03515625 C34.72804687 2.02355469 35.35453125 2.01195312 36 2 C36 2.33 36 2.66 36 3 C33.04364476 3.55543644 30.08589268 4.09482498 27.125 4.625 C25.86236328 4.86476563 25.86236328 4.86476563 24.57421875 5.109375 C23.36572266 5.32207031 23.36572266 5.32207031 22.1328125 5.5390625 C21.38918457 5.67521973 20.64555664 5.81137695 19.87939453 5.95166016 C19.25919434 5.9676123 18.63899414 5.98356445 18 6 C17.34 5.34 16.68 4.68 16 4 C16.99 3.67 17.98 3.34 19 3 C17.57107422 2.90912109 17.57107422 2.90912109 16.11328125 2.81640625 C14.85902344 2.73261719 13.60476562 2.64882813 12.3125 2.5625 C11.07113281 2.48128906 9.82976562 2.40007813 8.55078125 2.31640625 C5.61819663 2.05508683 2.86558383 1.65201621 0 1 C0 0.67 0 0.34 0 0 Z " fill="#3B2B2B" transform="translate(129,46)"/>
<path d="M0 0 C3.5 0.25 3.5 0.25 5.5 2.25 C3.5 3.25 3.5 3.25 0.1875 3 C-3.6296552 2.89982725 -3.6296552 2.89982725 -6.3125 5.5625 C-8.55898636 8.23551395 -8.55898636 8.23551395 -10.5 11.25 C-10.83 9.27 -11.16 7.29 -11.5 5.25 C-10.55125 4.79625 -9.6025 4.3425 -8.625 3.875 C-1.35987261 0.09713376 -1.35987261 0.09713376 0 0 Z " fill="#E7C8C7" transform="translate(89.5,15.75)"/>
<path d="M0 0 C0.53625 0.2475 1.0725 0.495 1.625 0.75 C1.625 1.41 1.625 2.07 1.625 2.75 C-2.375 4.75 -6.375 6.75 -10.375 8.75 C-9.37684314 5.15663529 -8.42674542 3.79274621 -5.5 1.375 C-2.375 -0.25 -2.375 -0.25 0 0 Z " fill="#1C1711" transform="translate(136.375,109.25)"/>
<path d="M0 0 C1.32527172 3.6297251 0.66675274 5.62288221 -0.8125 9.125 C-1.16957031 9.99382813 -1.52664062 10.86265625 -1.89453125 11.7578125 C-3 14 -3 14 -5 16 C-5.99 15.67 -6.98 15.34 -8 15 C-7.67386719 14.50371094 -7.34773438 14.00742187 -7.01171875 13.49609375 C-4.19308521 9.11432421 -1.91745586 4.84409902 0 0 Z " fill="#1E1414" transform="translate(57,16)"/>
<path d="M0 0 C5.875 0.875 5.875 0.875 7 2 C7.04080783 3.99958364 7.04254356 6.00045254 7 8 C5.8274869 7.04882866 4.66212985 6.08882991 3.5 5.125 C2.8503125 4.59132813 2.200625 4.05765625 1.53125 3.5078125 C1.0259375 3.01023437 0.520625 2.51265625 0 2 C0 1.34 0 0.68 0 0 Z " fill="#D59293" transform="translate(50,115)"/>
<path d="M0 0 C1.23593891 3.70781672 0.5678132 4.67510253 -0.9375 8.1875 C-1.31777344 9.08855469 -1.69804688 9.98960938 -2.08984375 10.91796875 C-2.54037109 11.94857422 -2.54037109 11.94857422 -3 13 C-3.33 13 -3.66 13 -4 13 C-4.29543354 7.97762985 -4.00679573 5.0892422 -1 1 C-0.67 0.67 -0.34 0.34 0 0 Z " fill="#FBD9D8" transform="translate(107,103)"/>
<path d="M0 0 C-2.31 1.65 -4.62 3.3 -7 5 C-7.99 4.34 -8.98 3.68 -10 3 C-3.375 -1.125 -3.375 -1.125 0 0 Z " fill="#301E1F" transform="translate(20,93)"/>
<path d="M0 0 C-0.33 0.99 -0.66 1.98 -1 3 C-2.65 3.33 -4.3 3.66 -6 4 C-6.33 3.34 -6.66 2.68 -7 2 C-4.35261084 0.5393715 -3.10551666 0 0 0 Z " fill="#302726" transform="translate(156,57)"/>
<path d="" fill="#000000" transform="translate(0,0)"/>
<path d="" fill="#000000" transform="translate(0,0)"/>
<path d="" fill="#000000" transform="translate(0,0)"/>
<path d="" fill="#000000" transform="translate(0,0)"/>
</svg>
