<?xml version="1.0" encoding="UTF-8"?>
<svg version="1.1" xmlns="http://www.w3.org/2000/svg" width="1174" height="855">
<path d="M0 0 C1.79064377 0.00323273 1.79064377 0.00323273 3.61746216 0.00653076 C21.08104918 0.05712739 38.24266887 0.3871751 55.5 3.3125 C57.33763916 3.61849121 57.33763916 3.61849121 59.21240234 3.93066406 C94.34802798 9.93742649 128.33313348 19.81502499 160.5 35.3125 C161.36222168 35.72048828 162.22444336 36.12847656 163.11279297 36.54882812 C184.5664751 46.7297097 204.59821621 58.94326324 223.5 73.3125 C224.12696777 73.7878418 224.75393555 74.26318359 225.39990234 74.75292969 C237.31504591 83.83627999 248.9212031 93.34668 259.31640625 104.15625 C261.49370127 106.38141945 261.49370127 106.38141945 264.08984375 108.3828125 C266.18326755 110.0589087 267.79425287 111.63874937 269.5 113.6875 C271.73022159 116.30873447 274.00320009 118.86240323 276.3828125 121.34765625 C284.17560382 129.50228997 291.17666378 138.02882449 297.87060547 147.10498047 C299.49749429 149.30910524 301.1409077 151.50021431 302.78515625 153.69140625 C315.99919555 171.46282438 326.55902887 190.55932679 336.5 210.3125 C337.06412598 211.41875732 337.06412598 211.41875732 337.63964844 212.54736328 C356.55972045 249.84566487 367.1134179 291.8863571 371.5 333.3125 C371.58732895 334.11035416 371.6746579 334.90820831 371.76463318 335.73023987 C372.51981391 343.19820809 372.67714246 350.61075988 372.703125 358.11328125 C372.70882507 359.42491745 372.71452515 360.73655365 372.72039795 362.0879364 C372.73083985 364.86225765 372.73672298 367.63655061 372.74023438 370.41088867 C372.74456437 373.18641706 372.75825235 375.96162496 372.78125 378.73706055 C373.45767839 462.12033246 347.97181024 534.84481148 296.5 600.3125 C295.47778724 601.6171269 294.45565506 602.92181694 293.43359375 604.2265625 C290.79422321 607.59262555 288.1487063 610.95377927 285.5 614.3125 C280.62066255 613.35263034 275.74837837 612.37002365 270.88671875 611.32421875 C269.65175659 611.0597998 269.65175659 611.0597998 268.3918457 610.79003906 C266.7452444 610.43672816 265.09921978 610.0807161 263.45385742 609.72167969 C262.28173706 609.4707959 262.28173706 609.4707959 261.0859375 609.21484375 C260.05025635 608.99042603 260.05025635 608.99042603 258.99365234 608.76147461 C235.03389362 604.44759207 209.21587727 606.93738071 185.5 611.3125 C184.75141724 611.45014771 184.00283447 611.58779541 183.23156738 611.72961426 C175.79286305 613.0997728 168.35753523 614.48701901 160.93408203 615.93774414 C160.1682077 616.08694305 159.40233337 616.23614197 158.61325073 616.38986206 C157.18594084 616.66879413 155.75907814 616.95002986 154.33279419 617.23416138 C138.27291516 620.37467491 122.17952573 621.31359837 107.9140625 612.09765625 C104.47215165 609.55242444 101.37389829 606.70704552 98.24609375 603.7890625 C94.07289971 600.02547072 89.6298153 596.63366809 85.19140625 593.19140625 C82.12271446 590.81059461 79.10119849 588.37700798 76.08764648 585.92700195 C59.6074813 572.56902563 42.22579244 560.30121513 23.625 550.0625 C19.51074425 547.69025271 18.02563795 545.06276511 15.8515625 540.94140625 C14.59105879 539.11490331 14.59105879 539.11490331 12.2734375 538.65234375 C9.8383098 538.40242604 9.8383098 538.40242604 7.48828125 538.4453125 C5.5 538.3125 5.5 538.3125 3.5 536.3125 C-0.03396706 525.55379173 -2.6711718 511.53022095 -0.5 500.3125 C1.13427905 497.99359053 2.76441152 496.76382162 5.09375 495.15625 C23.27542211 481.2248389 31.64579945 450.56913024 36.0546875 429.1328125 C37.25753999 418.8136043 36.16832942 408.65812637 35.0625 398.375 C34.09430838 389.14458499 33.32460125 379.9700365 33.0625 370.6875 C32.52625804 356.31045532 27.34260364 345.35203351 20.3762207 333.00732422 C19.5 331.3125 19.5 331.3125 18.5 328.3125 C25.42181298 330.61186938 28.68688306 335.81298935 31.953125 342.1171875 C37.71094955 355.19369264 39.41337797 369.29809529 41.5 383.3125 C45.2014636 380.47471124 46.29835974 377.66246276 47.13769531 373.13134766 C47.82480207 367.78543487 48.10966876 362.43257293 48.29785156 357.0480957 C48.37451631 355.01284071 48.48367498 352.98095072 48.59375 350.94726562 C49.05232771 340.37386797 47.69566085 330.56740241 41 322 C40.10087891 320.77603516 40.10087891 320.77603516 39.18359375 319.52734375 C38.18842608 318.21815566 37.18417802 316.91565081 36.16015625 315.62890625 C30.06387989 306.92923785 33.79711599 293.52822966 35.0625 283.75 C37.10191593 267.80782229 36.68978521 252.8701916 28.234375 238.54296875 C25.59634482 235.15036687 22.38822013 232.43016416 19.1640625 229.61547852 C13.70884175 224.78421544 9.55133726 219.3852233 5.5 213.3125 C5.02433594 212.61511719 4.54867188 211.91773438 4.05859375 211.19921875 C0.44572259 205.11902094 0.32573205 198.0095718 2.01953125 191.234375 C5.69040771 183.20546294 16.06615443 179.47755593 23.5 175.875 C32.03588336 171.69607137 41.34858676 166.59155699 46.5 158.3125 C46.4593157 155.50764873 46.4593157 155.50764873 45.5 153.3125 C39.62953271 151.13825285 33.8016371 149.70444482 27.6875 148.4375 C21.11814395 147.06262859 15.17726851 145.24343235 9.078125 142.36328125 C-1.42497357 138.08247289 -14.02108651 139.944757 -24.5 143.3125 C-32.39307674 146.70524052 -37.74055605 151.24365228 -41.60546875 158.95703125 C-51.53870558 185.11310903 -41.24026271 218.29174419 -35.31835938 244.50244141 C-30.69783165 265.2011197 -30.16277288 285.38991908 -30.25 306.5625 C-30.25335788 307.9044184 -30.25648954 309.24633739 -30.25939941 310.58825684 C-30.40132916 367.42946126 -30.40132916 367.42946126 -36.5 384.3125 C-37.01216064 385.74916016 -37.01216064 385.74916016 -37.53466797 387.21484375 C-43.43092969 403.47164478 -50.47334107 419.00965869 -58.140625 434.48828125 C-59.26156879 436.76245331 -60.38134509 439.03720118 -61.5 441.3125 C-62.08330078 442.48965576 -62.66660156 443.66681152 -63.26757812 444.87963867 C-67.51464338 453.59781227 -70.79119433 462.46216312 -73.7567749 471.68896484 C-74.51890006 474.05876914 -75.29316923 476.42430411 -76.07080078 478.7890625 C-77.09364622 481.90051039 -78.11347972 485.01290654 -79.12988281 488.12646484 C-91.94876099 527.34436527 -91.94876099 527.34436527 -104.50390625 533.875 C-111.16429136 536.75163259 -117.09313946 538.3743283 -124.3515625 538.59375 C-125.44984375 538.63113281 -126.548125 538.66851563 -127.6796875 538.70703125 C-129.9843677 538.77758268 -132.28905527 538.84789357 -134.59375 538.91796875 C-135.68945312 538.95535156 -136.78515625 538.99273438 -137.9140625 539.03125 C-138.9138916 539.06154297 -139.9137207 539.09183594 -140.94384766 539.12304688 C-143.62033287 539.21636541 -143.62033287 539.21636541 -146.5 540.3125 C-142.93928688 541.36132391 -139.44472103 541.61636953 -135.75 541.875 C-134.57953125 541.95878906 -133.4090625 542.04257812 -132.203125 542.12890625 C-131.31109375 542.18949219 -130.4190625 542.25007812 -129.5 542.3125 C-131.86571266 544.67821266 -132.62781188 544.64579697 -135.8671875 544.9453125 C-136.74665039 545.02942383 -137.62611328 545.11353516 -138.53222656 545.20019531 C-139.4703418 545.27850586 -140.40845703 545.35681641 -141.375 545.4375 C-142.81311035 545.5627002 -142.81311035 545.5627002 -144.28027344 545.69042969 C-156.99769316 546.74554917 -168.88801778 545.98612797 -181.5 544.3125 C-183.25139296 536.50941885 -184.98639079 528.26725348 -183.5 520.3125 C-181.85042835 517.89721207 -179.95592364 516.08394708 -177.859375 514.046875 C-166.23854917 500.5790305 -160.19697734 478.27637114 -161.34228516 460.79492188 C-161.54134613 457.6617144 -161.67812893 454.52674218 -161.82421875 451.390625 C-161.9629127 448.82274 -162.10487875 446.25502979 -162.25 443.6875 C-162.31131104 442.4720752 -162.37262207 441.25665039 -162.43579102 440.00439453 C-163.17008382 428.78877428 -165.61569667 418.64876354 -171.546875 409.01953125 C-172.5 407.3125 -172.5 407.3125 -172.5 405.3125 C-167.28555777 407.48612279 -165.08340036 411.4586182 -162.5 416.3125 C-159.27592117 424.57179358 -158.50330963 433.56600076 -157.5 442.3125 C-153.55672223 436.39758335 -154.21740548 429.51760886 -154.125 422.625 C-154.08761719 421.58666016 -154.05023438 420.54832031 -154.01171875 419.47851562 C-153.91759004 411.13766648 -155.86909687 404.81423824 -161.14599609 398.27172852 C-163.31391298 395.13477701 -162.85210422 391.73187029 -162.75 388.0625 C-162.74484375 387.33675781 -162.7396875 386.61101562 -162.734375 385.86328125 C-162.66422405 380.94394603 -162.14923568 376.18683974 -161.5 371.3125 C-160.73734726 361.61801037 -162.25886834 352.03179442 -168.5 344.3125 C-169.97852338 342.72856595 -171.45776446 341.1453017 -172.9375 339.5625 C-178.06722454 333.92488194 -182.63057489 327.8761433 -183 320 C-182.35879382 315.2711044 -181.53235567 312.86845402 -177.68359375 309.921875 C-174.39209595 307.68436308 -171.00475092 305.61971007 -167.60546875 303.55078125 C-166.64253906 302.95652344 -165.67960938 302.36226563 -164.6875 301.75 C-163.79417969 301.21246094 -162.90085937 300.67492187 -161.98046875 300.12109375 C-159.20171775 298.09501231 -157.34767624 296.21599123 -155.5 293.3125 C-155.62563582 291.04825649 -155.62563582 291.04825649 -156.5 289.3125 C-157.58539063 289.05855469 -158.67078125 288.80460937 -159.7890625 288.54296875 C-161.23446724 288.19569618 -162.67977465 287.84801836 -164.125 287.5 C-165.19427734 287.2515332 -165.19427734 287.2515332 -166.28515625 286.99804688 C-170.72069646 285.9196816 -174.41401288 284.39284787 -178.5 282.3125 C-186.42363132 280.43551897 -194.03670845 281.40854545 -201.3125 285 C-206.05900653 288.44354395 -208.32417542 292.53216849 -209.5 298.3125 C-210.91253285 313.0582701 -208.64655856 327.34562681 -205.88671875 341.7890625 C-205.41936879 344.29592767 -204.95754212 346.80382621 -204.5 349.3125 C-204.36551453 350.03776886 -204.23102905 350.76303772 -204.09246826 351.51028442 C-201.755865 364.38429443 -201.08350809 376.89498561 -201.21875 389.96801758 C-201.2500835 393.00810122 -201.25976479 396.04766068 -201.265625 399.08789062 C-201.38259991 429.11895437 -206.90888463 452.82264224 -219.65136719 480.15942383 C-225.222086 492.12082432 -228.84112893 504.65645321 -232.5 517.3125 C-233.49 517.3125 -234.48 517.3125 -235.5 517.3125 C-237.04296875 515.73046875 -237.04296875 515.73046875 -238.6875 513.5 C-239.30367187 512.67757812 -239.91984375 511.85515625 -240.5546875 511.0078125 C-241.84446502 509.22077136 -243.12073408 507.42389726 -244.3828125 505.6171875 C-254.92968164 490.62953135 -268.02433752 481.39109388 -283.7421875 472.46875 C-285.5 471.3125 -285.5 471.3125 -286.5 469.3125 C-286.85645928 465.20017711 -286.52877608 461.62022283 -283.9296875 458.31640625 C-283.27226562 457.65511719 -282.61484375 456.99382812 -281.9375 456.3125 C-271.44114418 445.47755206 -263.58772608 424.44327339 -263.48706055 409.37573242 C-263.55524935 407.08004284 -263.67415522 404.79253785 -263.8125 402.5 C-263.86245117 401.64269287 -263.91240234 400.78538574 -263.96386719 399.90209961 C-264.07632602 398.036381 -264.192866 396.17090495 -264.31298828 394.30566406 C-264.44120462 392.25353304 -264.55883064 390.20072088 -264.66748047 388.14746094 C-265.64039478 368.5224026 -265.64039478 368.5224026 -273.16015625 350.609375 C-274.5 348.3125 -274.5 348.3125 -274.5 346.3125 C-269.97132025 347.82205992 -267.57013525 351.21166065 -265.5 355.3125 C-262.5421789 364.0944843 -260.79692006 373.14873591 -259.5 382.3125 C-256.2617084 377.4550626 -256.76102265 372.03678738 -256.5 366.3125 C-256.43425781 365.10722656 -256.36851562 363.90195312 -256.30078125 362.66015625 C-256.01362251 353.54039065 -257.40104107 347.6510425 -262.6875 340.25 C-267.02685487 333.21725245 -265.21202374 324.94641748 -264.375 317.125 C-263.38343328 306.47841974 -263.15766188 297.86862476 -268.125 288.125 C-269.57682723 286.40573091 -271.05655418 284.70895719 -272.58203125 283.0546875 C-279.98670054 275.02375265 -285.04994266 269.15172332 -285.06640625 257.890625 C-284.30381847 254.41953581 -282.9960011 252.83709686 -280.5 250.3125 C-278.25697931 248.90370622 -276.08967096 247.6506859 -273.75 246.4375 C-263.9619122 241.50889848 -263.9619122 241.50889848 -257.80078125 233.109375 C-257.70152344 232.51640625 -257.60226562 231.9234375 -257.5 231.3125 C-262.7926881 228.78644432 -268.0181963 227.4069047 -273.72265625 226.07421875 C-276.5 225.3125 -276.5 225.3125 -279.5 223.625 C-285.47350456 221.01159175 -292.73331425 221.43308653 -298.875 223.5 C-304.05076508 225.81349167 -307.57570504 228.59139904 -310.3125 233.6875 C-315.95622722 250.91571993 -310.38176054 270.862804 -307.11376953 288.05029297 C-304.35699876 302.70262829 -303.32019129 316.92554748 -303.375 331.8125 C-303.3765509 332.55929016 -303.37810181 333.30608032 -303.37969971 334.07550049 C-303.40129623 342.95024604 -303.46568243 351.82072449 -303.875 360.6875 C-303.90577637 361.40873047 -303.93655273 362.12996094 -303.96826172 362.87304688 C-304.56154565 373.39952864 -306.77012952 383.13375025 -310.4375 393 C-310.82647461 394.06726318 -311.21544922 395.13452637 -311.61621094 396.23413086 C-314.9333304 405.16408308 -318.73537065 413.84565341 -322.67773438 422.5144043 C-325.93396296 429.75233345 -328.44130467 436.90838227 -330.40234375 444.59375 C-331.5 447.3125 -331.5 447.3125 -333.21777344 448.12011719 C-336.36521208 448.38543401 -338.24636479 447.41450772 -341.11328125 446.109375 C-342.7384668 445.38041016 -342.7384668 445.38041016 -344.39648438 444.63671875 C-345.52376953 444.11722656 -346.65105469 443.59773438 -347.8125 443.0625 C-350.0377305 442.05722545 -352.26299014 441.05201538 -354.48828125 440.046875 C-356.05352539 439.31307617 -356.05352539 439.31307617 -357.65039062 438.56445312 C-360.00633127 437.52938941 -362.21261373 436.83092324 -364.67578125 436.140625 C-367.5 434.3125 -367.5 434.3125 -368.29321289 432.10839844 C-368.84276388 429.17151404 -369.14212858 426.29100058 -369.375 423.3125 C-369.478125 422.32121094 -369.58125 421.32992188 -369.6875 420.30859375 C-369.99223501 417.31203279 -370.24823286 414.31392045 -370.5 411.3125 C-370.67704825 409.51041322 -370.85413092 407.70832982 -371.03125 405.90625 C-379.19062856 315.19602154 -353.72252475 221.95409124 -298.5 149.3125 C-298.0246582 148.68553223 -297.54931641 148.05856445 -297.05957031 147.41259766 C-288.18421594 135.77029411 -278.89293504 124.40406952 -268.3828125 114.1953125 C-266.77443863 112.58693863 -265.34566378 110.96868729 -263.9375 109.1875 C-261.46566339 106.27200041 -258.8738852 103.93876915 -255.96875 101.47265625 C-254.08812329 99.82710788 -252.27219298 98.16040159 -250.46875 96.43359375 C-241.642761 87.99883455 -232.32346134 80.54993407 -222.5 73.3125 C-221.75137695 72.75498047 -221.00275391 72.19746094 -220.23144531 71.62304688 C-210.89221576 64.67347922 -201.45842267 58.13438147 -191.34326172 52.36425781 C-189.48396391 51.30334987 -187.63448611 50.22660889 -185.78515625 49.1484375 C-146.34668332 26.34759595 -103.57050175 11.40368019 -58.625 4.0625 C-57.70066162 3.91135742 -56.77632324 3.76021484 -55.82397461 3.60449219 C-52.72046085 3.12773221 -49.61482031 2.70919055 -46.5 2.3125 C-45.82231567 2.22529694 -45.14463135 2.13809387 -44.44641113 2.04824829 C-29.63486309 0.19914336 -14.9127472 -0.04844787 0 0 Z " fill="#DC662A" transform="translate(573.5,27.6875)"/>
<path d="M0 0 C15.365625 -0.0825 30.73125 -0.165 46.5625 -0.25 C51.38560791 -0.28641602 56.20871582 -0.32283203 61.17797852 -0.36035156 C67.14050293 -0.37841797 67.14050293 -0.37841797 69.94590759 -0.3817749 C71.87445282 -0.38785319 73.80298438 -0.40178592 75.73143005 -0.42230225 C93.17700883 -0.59836545 108.92727221 0.43718964 122.75 12.375 C123.4925 13.24125 124.235 14.1075 125 15 C125.73669922 15.84304688 125.73669922 15.84304688 126.48828125 16.703125 C136.45208378 28.86737027 136.87258189 43.98471094 136 59 C134.46410157 70.81553362 129.85698179 80.89101667 121 89 C112.59488273 95 112.59488273 95 108 95 C113.19927386 102.36180369 118.45892826 109.67077054 123.875 116.875 C124.36806641 117.53129395 124.86113281 118.18758789 125.36914062 118.86376953 C128.04424898 122.41821189 130.73229768 125.96243958 133.4296875 129.5 C134.26330811 130.59852295 134.26330811 130.59852295 135.11376953 131.71923828 C136.18619099 133.13217195 137.26255557 134.54212336 138.34326172 135.94873047 C142 140.77483887 142 140.77483887 142 143 C135.95422535 143.39885852 129.91624235 143.68720347 123.86035156 143.87890625 C121.80691113 143.95885181 119.754367 144.06767368 117.70410156 144.20703125 C101.23016717 145.29780782 101.23016717 145.29780782 95.95193481 141.54309082 C92.26765222 137.8336806 89.63359175 133.55932155 87.11956787 129.0012207 C85.62867515 126.3362591 83.87662706 123.89537157 82.08984375 121.421875 C81.03516986 119.86721698 79.98419446 118.31004143 78.9375 116.75 C77.86405139 115.16093781 76.78986013 113.572377 75.71484375 111.984375 C75.03603149 110.97455566 75.03603149 110.97455566 74.34350586 109.94433594 C73.67847046 108.98188965 73.67847046 108.98188965 73 108 C72.59491211 107.27039063 72.18982422 106.54078125 71.77246094 105.7890625 C69.05959051 103.05078227 66.70694704 103.45235832 62.92578125 103.390625 C61.67450439 103.36000977 60.42322754 103.32939453 59.1340332 103.29785156 C57.54292725 103.28206055 55.95182129 103.26626953 54.3125 103.25 C49.259375 103.1675 44.20625 103.085 39 103 C39 116.2 39 129.4 39 143 C26.13 143 13.26 143 0 143 C0 95.81 0 48.62 0 0 Z M39 32 C39 45.2 39 58.4 39 72 C45.55875 72.061875 52.1175 72.12375 58.875 72.1875 C61.94917236 72.22846802 61.94917236 72.22846802 65.08544922 72.27026367 C66.74185602 72.27903986 68.39826938 72.2866811 70.0546875 72.29296875 C70.8887915 72.30831665 71.72289551 72.32366455 72.58227539 72.33947754 C79.20557968 72.34236645 86.63385579 71.72948043 91.95114136 67.41789246 C96.42644396 62.77923994 97.95750642 57.86084557 98.02734375 51.515625 C97.68229259 45.67629776 96.55145476 41.67296679 93 37 C88.25226765 33.37847393 83.49273087 31.86913903 77.59863281 31.88647461 C76.7380426 31.88655014 75.87745239 31.88662567 74.99078369 31.88670349 C74.07085632 31.89186478 73.15092896 31.89702606 72.203125 31.90234375 C71.25435486 31.9037587 70.30558472 31.90517365 69.32806396 31.90663147 C66.30201038 31.91222258 63.27603117 31.92477348 60.25 31.9375 C58.19661565 31.94251615 56.14323014 31.94707885 54.08984375 31.95117188 C49.05984423 31.9613376 44.03000523 31.98091482 39 32 Z " fill="#FFFFFF" transform="translate(345,688)"/>
<path d="M0 0 C0 12.21 0 24.42 0 37 C-3.46968207 35.61212717 -6.83001534 34.1552766 -10.21533203 32.58837891 C-25.2058619 25.74076128 -40.25463028 21.83948436 -56.75 21.6875 C-57.78382812 21.65849609 -58.81765625 21.62949219 -59.8828125 21.59960938 C-66.85467894 21.5425349 -72.91065496 22.39101974 -79 26 C-81.46324069 29.69486103 -81.38991688 31.63293092 -81 36 C-74.20956106 44.76986531 -56.55108044 45.09893241 -46.33544922 46.85180664 C-7.89127897 53.50665742 -7.89127897 53.50665742 3 68 C9.71028911 79.30613817 10.77655477 91.41565678 8.38671875 104.30859375 C4.71774537 115.4448169 -2.73662346 124.43095193 -13 130 C-27.00626961 136.67486286 -41.40427498 138.55921518 -56.75 138.375 C-57.7943219 138.36802094 -57.7943219 138.36802094 -58.85974121 138.36090088 C-80.9215423 138.18874997 -100.7650887 133.99329391 -121 125 C-121 112.79 -121 100.58 -121 88 C-117.44084219 89.18638594 -114.12028934 90.31140537 -110.70703125 91.76953125 C-89.24286818 100.76466667 -62.25327312 110.33027874 -39 103 C-34.20284986 100.92386386 -34.20284986 100.92386386 -31 97 C-30.45662157 92.08764561 -30.45662157 92.08764561 -32.66748047 87.90063477 C-41.48376344 80.71675755 -57.18905374 80.10919998 -68.20166016 78.14819336 C-85.47773968 75.04927157 -103.94311507 71.51611992 -115.56640625 57.10546875 C-121.50099021 48.38955389 -123.23101138 38.54255277 -121.5390625 28.17578125 C-119.16904092 17.28762329 -113.99506883 7.79748753 -105 1 C-73.24767601 -18.93857812 -32.86258953 -14.60559535 0 0 Z " fill="#FFFFFF" transform="translate(175,696)"/>
<path d="M0 0 C20.13 0 40.26 0 61 0 C63.59875 7.074375 66.1975 14.14875 68.875 21.4375 C69.75381836 23.82943604 70.63263672 26.22137207 71.53808594 28.68579102 C75.19681721 38.6439935 78.85494603 48.60241294 82.50762939 58.56283569 C84.00877116 62.65622279 85.51044751 66.74941359 87.0123291 70.8425293 C87.75391318 72.86364082 88.49536833 74.88479966 89.23669434 76.90600586 C93.35704778 88.1374015 97.49894112 99.36025007 101.6875 110.56640625 C102.06405731 111.57457397 102.44061462 112.5827417 102.82858276 113.62145996 C104.62347884 118.42564931 106.42208749 123.22839245 108.22705078 128.02880859 C108.86240723 129.7261986 109.49766688 131.42362484 110.1328125 133.12109375 C110.57197998 134.28288902 110.57197998 134.28288902 111.02001953 135.46815491 C113 140.77323929 113 140.77323929 113 143 C99.8 143 86.6 143 73 143 C67.14746208 128.95390898 67.14746208 128.95390898 64.6875 121.9375 C64.29208008 120.84018555 64.29208008 120.84018555 63.88867188 119.72070312 C62.81968879 116.69145496 62 114.23670983 62 111 C41.21 111 20.42 111 -1 111 C-1.99 114.3 -2.98 117.6 -4 121 C-4.6599962 122.93696817 -5.33715255 124.86831677 -6.04296875 126.7890625 C-6.36031982 127.65740723 -6.6776709 128.52575195 -7.00463867 129.42041016 C-7.39498291 130.4779248 -7.78532715 131.53543945 -8.1875 132.625 C-9.445625 136.04875 -10.70375 139.4725 -12 143 C-25.2 143 -38.4 143 -52 143 C-49.95911761 136.19705869 -47.83127365 129.5644687 -45.3671875 122.921875 C-45.01820404 121.973694 -44.66922058 121.025513 -44.30966187 120.04859924 C-43.16764405 116.94799966 -42.02136211 113.84899573 -40.875 110.75 C-40.06843323 108.56283693 -39.26212225 106.37557952 -38.45605469 104.18823242 C-36.37909154 98.55464712 -34.29844401 92.92243105 -32.21643066 87.29071045 C-31.04963924 84.13428497 -29.88354671 80.97760242 -28.71777344 77.82080078 C-25.51868345 69.15802148 -22.31809189 60.49580021 -19.11457825 51.83465576 C-12.72625672 34.56261461 -6.36326555 17.28128961 0 0 Z M27 33 C25.52417737 37.01581756 24.04920895 41.03194763 22.57495117 45.04833984 C22.0758233 46.40779604 21.5764826 47.76717411 21.0769043 49.12646484 C19.62065647 53.08898412 18.16944863 57.05329326 16.72369385 61.01965332 C15.99337097 63.01813997 15.25717872 65.01440788 14.52099609 67.01074219 C14.05927829 68.27528404 13.5978404 69.53992814 13.13671875 70.8046875 C12.72510498 71.92601074 12.31349121 73.04733398 11.8894043 74.20263672 C10.84850117 76.9872706 10.84850117 76.9872706 11 80 C23.87 80 36.74 80 50 80 C48.14067076 73.18245946 46.28896389 66.64269431 43.86328125 60.05078125 C43.43682564 58.87554146 43.43682564 58.87554146 43.00175476 57.67655945 C42.10943277 55.22035865 41.21109813 52.76641065 40.3125 50.3125 C39.69946686 48.62840183 39.0868335 46.94415807 38.47460938 45.25976562 C36.98767465 41.17148482 35.49535053 37.08520971 34 33 C31.69 33 29.38 33 27 33 Z " fill="#FFFFFF" transform="translate(982,688)"/>
<path d="M0 0 C19.8 0 39.6 0 60 0 C63.12291733 7.49500159 66.15292103 14.92064275 68.90625 22.54296875 C69.26402527 23.52582855 69.62180054 24.50868835 69.99041748 25.52133179 C70.76093733 27.63872397 71.53025308 29.75655464 72.29846191 31.87478638 C74.38576745 37.62961477 76.48250323 43.38100841 78.578125 49.1328125 C79.23503326 50.93683281 79.23503326 50.93683281 79.9052124 52.77729797 C84.98470863 66.71874829 90.11596098 80.64106457 95.25 94.5625 C95.68916748 95.75362396 96.12833496 96.94474792 96.58081055 98.17196655 C97.43778753 100.49628527 98.29488114 102.82056098 99.15209961 105.14479065 C99.96596161 107.35213865 100.77929163 109.55968289 101.59204102 111.7674408 C103.43476877 116.77072308 105.28590012 121.77039747 107.16210938 126.76123047 C107.4928949 127.64552231 107.82368042 128.52981415 108.16448975 129.44090271 C108.77489183 131.07138522 109.38908911 132.70045424 110.00787354 134.32777405 C111.138284 137.35540168 112 139.73984268 112 143 C98.8 143 85.6 143 72 143 C70.185 138.09125 68.37 133.1825 66.5 128.125 C65.63858398 125.80299561 65.63858398 125.80299561 64.75976562 123.43408203 C64.31310547 122.22091309 63.86644531 121.00774414 63.40625 119.7578125 C63.16874023 119.12029053 62.93123047 118.48276855 62.68652344 117.82592773 C61 113.2281436 61 113.2281436 61 111 C40.54 111.33 20.08 111.66 -1 112 C-4.57812057 121.82689526 -4.57812057 121.82689526 -8.15014648 131.65600586 C-8.59430908 132.87167236 -9.03847168 134.08733887 -9.49609375 135.33984375 C-9.72848755 135.98248169 -9.96088135 136.62511963 -10.20031738 137.28723145 C-11.8859282 141.8859282 -11.8859282 141.8859282 -13 143 C-15.8843382 143.08865208 -18.74462158 143.11521296 -21.62890625 143.09765625 C-22.92525246 143.09553383 -22.92525246 143.09553383 -24.24778748 143.09336853 C-27.01939292 143.08775239 -29.7909188 143.07519719 -32.5625 143.0625 C-34.4368478 143.05748708 -36.31119685 143.05292381 -38.18554688 143.04882812 C-42.79039544 143.03777772 -47.39518421 143.0205023 -52 143 C-50.66159749 136.27733703 -48.71957724 130.08597964 -46.28125 123.6875 C-45.91125381 122.70135208 -45.54125763 121.71520416 -45.16004944 120.69917297 C-44.36190871 118.57366984 -43.56108755 116.44917166 -42.75784302 114.32559204 C-40.59633143 108.61080441 -38.45420794 102.88873943 -36.30859375 97.16796875 C-35.86708481 95.99260056 -35.42557587 94.81723236 -34.97068787 93.60624695 C-30.82400379 82.55849269 -26.75080802 71.48438887 -22.69406128 60.40335083 C-17.15463025 45.27243807 -11.59399798 30.150088 -5.9375 15.0625 C-5.68493439 14.38788727 -5.43236877 13.71327454 -5.17214966 13.01821899 C-1.17712408 2.35424815 -1.17712408 2.35424815 0 0 Z M27 33 C23.18295782 41.85690605 19.77814256 50.82886419 16.49584961 59.89453125 C15.6755702 62.15791774 14.84875684 64.41884886 14.02148438 66.6796875 C13.49700797 68.12225487 12.97290496 69.56495808 12.44921875 71.0078125 C12.07901863 72.01861374 12.07901863 72.01861374 11.70133972 73.04983521 C10.42440994 76.43866636 10.42440994 76.43866636 10 80 C23.2 80 36.4 80 50 80 C46.17594553 68.36511087 42.26020931 56.77813435 38.125 45.25 C37.7319165 44.14922119 37.33883301 43.04844238 36.93383789 41.91430664 C36.56637451 40.8958667 36.19891113 39.87742676 35.8203125 38.828125 C35.49305176 37.9196582 35.16579102 37.01119141 34.82861328 36.07519531 C34.17593514 34.04444225 34.17593514 34.04444225 33 33 C31.00041636 32.95919217 28.99954746 32.95745644 27 33 Z " fill="#FFFFFF" transform="translate(722,688)"/>
<path d="M0 0 C12.87 0 25.74 0 39 0 C39.0093457 2.70429199 39.01869141 5.40858398 39.02832031 8.19482422 C39.06217142 17.1555727 39.11776558 26.11609285 39.18390274 35.07665825 C39.22331847 40.50652098 39.25553596 45.93622296 39.27099609 51.36621094 C39.28620147 56.61190877 39.32071606 61.85716451 39.36830902 67.10266495 C39.38308281 69.0983609 39.3910387 71.09411999 39.39188385 73.08987045 C38.87918164 89.02577742 38.87918164 89.02577742 45.67779541 102.87667847 C54.1300458 110.94691605 64.658945 111.37578306 75.75 111.21875 C84.61229819 110.90614689 91.8527467 108.1472533 98.1875 101.8125 C102.42874025 95.23126513 103.44602241 88.41306813 103.43237305 80.71655273 C103.4425647 79.83741714 103.45275635 78.95828156 103.46325684 78.05250549 C103.49317744 75.17946832 103.50262052 72.30676568 103.51171875 69.43359375 C103.52858098 67.42862356 103.54673329 65.42366384 103.56611633 63.41871643 C103.6134547 58.16632358 103.64336845 52.9139732 103.66955566 47.66143799 C103.69944298 42.29178482 103.74594514 36.92227777 103.79101562 31.55273438 C103.87686488 21.03521621 103.94275429 10.51771278 104 0 C116.54 0 129.08 0 142 0 C142.09077756 12.37088663 142.16398945 24.74154793 142.20724869 37.11269379 C142.22802277 42.85862211 142.25615224 48.60430851 142.30175781 54.35009766 C142.34558132 59.90685872 142.36921341 65.46338875 142.37950897 71.02030945 C142.38683536 73.12834809 142.40113973 75.23637572 142.42292023 77.34431458 C142.61294767 96.51768573 141.09822146 114.29009573 127.625 129.1875 C111.80870399 144.16884825 88.56184405 147.57223567 67.59375 147.1875 C46.59783182 146.09206079 26.87706791 142.04489236 12 126 C-1.23999887 109.56413933 -0.15254221 89.16367512 -0.09765625 69.23828125 C-0.09578813 67.23618098 -0.09436609 65.23408026 -0.09336853 63.23197937 C-0.08957439 57.99600941 -0.07977104 52.76006776 -0.06866455 47.52410889 C-0.05657145 41.22384476 -0.0520334 34.92357109 -0.04621124 28.62329865 C-0.03655727 19.08217948 -0.01737909 9.54112229 0 0 Z " fill="#FFFFFF" transform="translate(188,688)"/>
<path d="M0 0 C1 1 1 1 1.11352539 4.51000977 C1.11336626 6.07048422 1.10767142 7.63096393 1.09765625 9.19140625 C1.09553383 10.42116432 1.09553383 10.42116432 1.09336853 11.67576599 C1.08775289 14.30471382 1.07519779 16.93357773 1.0625 19.5625 C1.05748701 21.34049357 1.05292376 23.11848846 1.04882812 24.89648438 C1.03777839 29.26435545 1.02050331 33.63216348 1 38 C-3.1173954 36.40936676 -6.83384242 34.43056229 -10.625 32.1875 C-27.29121607 22.55653245 -44.4047314 16.98469859 -63.7578125 20.7265625 C-73.33978116 23.46109184 -81.85373535 27.96947904 -88 36 C-94.41189522 47.68058431 -96.07864086 60.39301735 -93.24609375 73.484375 C-89.68758909 83.58773725 -83.49911677 91.31817978 -73.9375 96.3125 C-57.53688197 103.7069983 -39.2569075 101.40902202 -22.7265625 95.5625 C-15.6692195 92.74701118 -8.74988956 88.87857271 -2.73046875 84.2578125 C-1 83 -1 83 1 83 C1 95.54 1 108.08 1 121 C-14.86170213 128.93085106 -14.86170213 128.93085106 -21.125 130.8125 C-22.34445312 131.19019531 -23.56390625 131.56789063 -24.8203125 131.95703125 C-34.7648125 134.59944458 -44.55070578 135.36102078 -54.8125 135.3125 C-56.04427979 135.30758545 -57.27605957 135.3026709 -58.54516602 135.29760742 C-79.21203098 135.0314753 -99.35854892 129.37493552 -114.75 114.9375 C-130.60922251 98.25442178 -134.70255217 77.29233092 -134.3046875 54.95703125 C-133.61157615 36.82443632 -125.91170385 18.85051094 -113 6 C-82.80234043 -20.38630448 -33.08735655 -23.03360195 0 0 Z " fill="#FFFFFF" transform="translate(672,699)"/>
<path d="M0 0 C45.21 0 90.42 0 137 0 C137.57841255 10.98983849 138 21.99495065 138 33 C121.17 33 104.34 33 87 33 C87 69.3 87 105.6 87 143 C74.46 143 61.92 143 49 143 C49 106.7 49 70.4 49 33 C32.5 33 16 33 -1 33 C-1 21.99495065 -0.9139196 10.96703525 0 0 Z " fill="#FFFFFF" transform="translate(814,688)"/>
<path d="M0 0 C12.54 0 25.08 0 38 0 C38 47.19 38 94.38 38 143 C25.46 143 12.92 143 0 143 C0 95.81 0 48.62 0 0 Z " fill="#FFFFFF" transform="translate(491,688)"/>
<path d="M0 0 C8.33800885 4.06210688 12.09781359 10.72971831 15.4375 19.1875 C17.36337446 25.45152171 17.80317146 31.21535592 17.8125 37.75 C17.83699219 38.65685547 17.86148438 39.56371094 17.88671875 40.49804688 C17.91335692 46.62038738 16.98409011 50.17085488 13.4375 55.1875 C12.4475 56.1775 12.4475 56.1775 11.4375 57.1875 C11.78026399 62.60937037 12.94143306 67.27705762 14.72265625 72.42578125 C14.94320175 73.073228 15.16374725 73.72067474 15.39097595 74.38774109 C16.08673911 76.42773329 16.79250546 78.46404971 17.5 80.5 C18.20991516 82.55415602 18.91751526 84.6090175 19.61973572 86.66581726 C20.25295332 88.51903401 20.89397018 90.36958044 21.53540039 92.2199707 C22.4375 95.1875 22.4375 95.1875 22.4375 98.1875 C18.82643637 97.76266898 15.23813539 97.32718084 11.65551758 96.70214844 C3.17364429 95.23875748 -5.0883433 94.80404303 -13.6875 94.8125 C-14.37083405 94.8110498 -15.05416809 94.80959961 -15.75820923 94.80810547 C-29.08356931 94.81119456 -41.91234668 96.38242993 -55.02416992 98.8203125 C-57.57453964 99.18924162 -59.98950633 99.25232404 -62.5625 99.1875 C-61.716875 98.1975 -60.87125 97.2075 -60 96.1875 C-59.17242187 95.21296875 -59.17242187 95.21296875 -58.328125 94.21875 C-57.22028587 92.94424481 -56.08787389 91.69027265 -54.921875 90.46875 C-39.31741636 73.84343893 -29.58099917 49.10219602 -25 27.0625 C-22.61316773 16.12971079 -15.50969857 8.36417148 -6.375 2.125 C-3.99605297 0.76427933 -2.76281423 0.20215714 0 0 Z " fill="#C93525" transform="translate(543.5625,464.8125)"/>
<path d="M0 0 C8.36819261 5.94915206 13.88700832 13.77707344 16.13671875 23.81640625 C17.74567304 33.78617658 16.22191443 43.3401131 11.03125 52.14453125 C4.80942921 60.6016515 -3.09708171 66.27426959 -13.42578125 68.52734375 C-25.58476418 69.7285336 -35.68981533 68.27818649 -45.73828125 60.90234375 C-53.89278445 53.88688226 -58.02494349 45.14138372 -59.42578125 34.52734375 C-59.76442189 23.40864286 -56.48560474 14.10993457 -49.40625 5.56640625 C-36.39372656 -7.83110309 -15.760338 -9.56787025 0 0 Z M-45.95703125 14.44140625 C-50.70644483 21.37223653 -52.14367637 28.68812587 -51.0234375 36.98046875 C-49.17463538 44.8590242 -44.917573 51.67463262 -38.42578125 56.52734375 C-31.08801664 60.59974103 -23.49340199 62.92361519 -15.1171875 60.99609375 C-5.33415087 57.96054782 1.42203235 52.09620638 6.44921875 43.21484375 C9.54954029 33.05267871 8.85399737 24.72248114 3.88671875 15.33984375 C-1.68975883 8.55764128 -8.41066039 2.60057242 -17.42578125 1.52734375 C-29.11293554 0.51983045 -38.71130983 5.38425448 -45.95703125 14.44140625 Z " fill="#FFFFFF" transform="translate(1143.42578125,693.47265625)"/>
<path d="M0 0 C5.07860073 3.33736619 7.97128664 7.86777985 9.68359375 13.6015625 C10.33993314 17.29537954 10.51282928 20.94563904 10.5625 24.6875 C10.58340698 25.71593018 10.58340698 25.71593018 10.60473633 26.76513672 C10.57380008 30.05723565 10.39159446 32.11778552 8.6015625 34.921875 C5.9173104 39.69717431 8.05673055 45.12643474 9.37890625 50.15625 C9.83007033 51.75167082 10.28715815 53.34542775 10.75 54.9375 C11.10094727 56.17113281 11.10094727 56.17113281 11.45898438 57.4296875 C12.02992072 59.43379058 12.60796705 61.43586591 13.1875 63.4375 C6.81548595 62.26187937 1.18805338 60.39791442 -4.6875 57.6875 C-5.46399902 57.33623047 -6.24049805 56.98496094 -7.04052734 56.62304688 C-13.12532648 53.83665641 -19.02498745 50.8029258 -24.8125 47.4375 C-24.16660407 42.41211458 -22.69532251 38.02540208 -20.9375 33.3125 C-19.05364059 28.16280153 -17.39498745 23.10990261 -16.1875 17.75 C-14.30632518 9.82528079 -10.17915224 5.25169271 -3.8125 0.4375 C-1.8125 -0.5625 -1.8125 -0.5625 0 0 Z " fill="#C83124" transform="translate(372.8125,506.5625)"/>
<path d="M0 0 C6.0328125 -0.0928125 6.0328125 -0.0928125 12.1875 -0.1875 C14.07698364 -0.22846802 14.07698364 -0.22846802 16.00463867 -0.27026367 C17.50861206 -0.28150269 17.50861206 -0.28150269 19.04296875 -0.29296875 C20.06414795 -0.3086792 21.08532715 -0.32438965 22.13745117 -0.34057617 C26.43434108 0.17065295 29.04433143 1.91690895 31.875 5.125 C33.49211811 9.25763518 33.18481304 12.7537573 32 17 C29.87667613 19.76032103 27.90657489 21.06228341 25 23 C25.59296875 23.69480469 26.1859375 24.38960937 26.796875 25.10546875 C30.29708037 29.70414282 32.48772827 34.80416528 35 40 C30.71 40 26.42 40 22 40 C21.45730469 39.01257813 20.91460938 38.02515625 20.35546875 37.0078125 C19.63318662 35.71333285 18.91050971 34.41907342 18.1875 33.125 C17.83107422 32.47402344 17.47464844 31.82304688 17.10742188 31.15234375 C15.29918897 27.93402097 14.12048255 26.0803217 11 24 C11 29.28 11 34.56 11 40 C7.37 40 3.74 40 0 40 C0 26.8 0 13.6 0 0 Z M11 7 C11 10.3 11 13.6 11 17 C15.455 16.505 15.455 16.505 20 16 C21.19838209 13.67145537 21.19838209 13.67145537 22 11 C20.37921338 7.82990528 20.37921338 7.82990528 17.8359375 7.48828125 C17.02382812 7.43027344 16.21171875 7.37226562 15.375 7.3125 C13.93125 7.209375 12.4875 7.10625 11 7 Z " fill="#FFFFFF" transform="translate(1105,705)"/>
<path d="M0 0 C4.53237602 1.68697063 6.32005464 5.76879275 8.4453125 9.91015625 C11.28454526 17.4051925 12.01045775 27.03131801 9.0078125 34.47265625 C8.4921875 35.27703125 7.9765625 36.08140625 7.4453125 36.91015625 C6.28590212 40.3883874 6.73710366 42.36911203 7.4453125 45.91015625 C1.84522485 44.17347899 -3.49467045 41.92767261 -8.8671875 39.59765625 C-9.78564453 39.21931641 -10.70410156 38.84097656 -11.65039062 38.45117188 C-12.52244141 38.07025391 -13.39449219 37.68933594 -14.29296875 37.296875 C-15.08743408 36.95873779 -15.88189941 36.62060059 -16.70043945 36.2722168 C-18.5546875 34.91015625 -18.5546875 34.91015625 -19.37451172 32.52441406 C-19.55175214 29.95274688 -19.37726307 28.16646508 -18.69921875 25.6953125 C-18.48845703 24.92638672 -18.27769531 24.15746094 -18.06054688 23.36523438 C-17.83173828 22.57568359 -17.60292969 21.78613281 -17.3671875 20.97265625 C-17.15771484 20.18697266 -16.94824219 19.40128906 -16.73242188 18.59179688 C-14.86945599 11.98573091 -12.19273025 6.72331755 -6.6171875 2.47265625 C-5.96878906 1.95832031 -5.32039063 1.44398438 -4.65234375 0.9140625 C-2.5546875 -0.08984375 -2.5546875 -0.08984375 0 0 Z " fill="#CE4226" transform="translate(270.5546875,447.08984375)"/>
</svg>
