<svg version="1.1" id="Layer_1" xmlns="http://www.w3.org/2000/svg" xmlns:xlink="http://www.w3.org/1999/xlink" x="0px" y="0px"
	 width="100%" viewBox="0 0 793 769" enable-background="new 0 0 793 769" xml:space="preserve">
<path fill="#010101" opacity="1.000000" stroke="none" 
	d="
M1.000000,283.000000 
	C1.000000,188.666672 1.000000,94.833336 1.000000,1.000000 
	C265.333344,1.000000 529.666687,1.000000 794.000000,1.000000 
	C794.000000,257.333344 794.000000,513.666687 794.000000,770.000000 
	C529.666687,770.000000 265.333344,770.000000 1.000000,770.000000 
	C1.000000,607.833313 1.000000,445.666656 1.000000,283.000000 
M624.500366,17.543036 
	C499.408569,17.543036 374.316742,17.543036 248.756592,17.543036 
	C248.756592,112.823715 248.756592,207.562393 248.756592,302.551727 
	C247.171692,302.648499 246.037994,302.749695 244.902313,302.782379 
	C214.252060,303.665070 184.711807,309.955444 157.034134,323.083710 
	C77.752609,360.688965 31.007042,423.086212 19.435656,510.093475 
	C11.803430,567.481445 25.373301,620.791809 57.498199,669.203369 
	C59.813240,672.692078 62.089619,674.272217 66.570320,674.257080 
	C125.401917,674.058411 184.234390,674.124939 243.066650,674.124939 
	C244.852753,674.124939 246.638840,674.124939 248.885712,674.124939 
	C248.885712,700.512329 248.885712,726.421387 248.885712,752.500488 
	C425.256531,752.500488 601.158752,752.500488 777.164551,752.500488 
	C777.164551,507.471863 777.164551,262.726746 777.164551,17.543005 
	C726.415771,17.543005 675.958069,17.543005 624.500366,17.543036 
z"/>
<path fill="#FEFEFE" opacity="1.000000" stroke="none" 
	d="
M625.000366,17.543020 
	C675.958069,17.543005 726.415771,17.543005 777.164551,17.543005 
	C777.164551,262.726746 777.164551,507.471863 777.164551,752.500488 
	C601.158752,752.500488 425.256531,752.500488 248.885712,752.500488 
	C248.885712,726.421387 248.885712,700.512329 248.885712,674.124939 
	C246.638840,674.124939 244.852753,674.124939 243.066650,674.124939 
	C184.234390,674.124939 125.401917,674.058411 66.570320,674.257080 
	C62.089619,674.272217 59.813240,672.692078 57.498199,669.203369 
	C25.373301,620.791809 11.803430,567.481445 19.435656,510.093475 
	C31.007042,423.086212 77.752609,360.688965 157.034134,323.083710 
	C184.711807,309.955444 214.252060,303.665070 244.902313,302.782379 
	C246.037994,302.749695 247.171692,302.648499 248.756592,302.551727 
	C248.756592,207.562393 248.756592,112.823715 248.756592,17.543036 
	C374.316742,17.543036 499.408569,17.543036 625.000366,17.543020 
M77.497787,407.011078 
	C52.441326,441.076019 37.937019,479.061981 34.793072,521.333069 
	C31.246313,569.020142 42.249218,613.103088 67.179703,653.816223 
	C68.744492,656.371582 70.303314,657.910645 73.751442,657.907410 
	C193.217194,657.798157 312.683105,657.831787 432.148773,657.683594 
	C434.145325,657.681091 436.981445,656.212524 438.012177,654.551086 
	C468.782318,604.952454 478.757050,551.350647 467.302734,494.156555 
	C457.455017,444.984680 433.301666,403.632172 394.818939,371.509430 
	C336.757080,323.043427 270.231110,308.149536 197.042725,326.443726 
	C148.070877,338.684753 108.615738,366.341522 77.497787,407.011078 
M644.041077,657.659424 
	C636.372742,662.139160 627.693970,658.951111 624.798645,650.629089 
	C611.679321,612.920471 598.543091,575.217651 585.419861,537.510376 
	C580.509705,523.401917 575.618286,509.286896 570.636780,494.939972 
	C542.144653,501.712921 513.785339,502.469818 484.938690,497.701019 
	C488.837708,520.907593 489.400787,543.356689 486.745605,565.770691 
	C482.282471,603.446533 469.282837,638.050110 448.179810,669.628113 
	C446.007812,672.878235 443.799011,674.223450 439.784241,674.211487 
	C389.288910,674.060791 338.792938,674.112610 288.297150,674.112610 
	C286.347321,674.112610 284.397461,674.112610 282.270813,674.112610 
	C282.270813,689.566528 282.270813,704.447205 282.270813,719.450562 
	C436.339386,719.450562 590.066040,719.450562 743.834045,719.450562 
	C743.834045,496.422638 743.834045,273.734650 743.834045,51.141098 
	C589.676453,51.141098 435.968628,51.141098 282.186340,51.141098 
	C282.186340,135.666336 282.186340,219.766663 282.186340,303.986664 
	C292.084351,305.845062 301.752136,307.660217 311.537872,309.497528 
	C303.324799,205.371750 366.748474,113.931541 467.378601,86.661324 
	C561.960510,61.030140 662.387573,104.010696 708.736511,193.949631 
	C732.708862,240.467438 738.412842,289.677185 725.830322,340.442505 
	C711.401733,398.655487 677.162842,442.493134 625.693115,473.396393 
	C626.685852,474.620239 627.453430,475.676605 628.330627,476.632263 
	C662.923096,514.315491 697.523193,551.991699 732.129395,589.662170 
	C736.899780,594.855042 735.516663,604.807678 729.463318,608.304749 
	C701.207336,624.628845 672.940796,640.934753 644.041077,657.659424 
M553.760681,447.533295 
	C550.178345,436.826813 546.638000,426.106079 543.003357,415.417389 
	C538.129395,401.083893 538.097839,401.094025 551.694824,394.249939 
	C551.831360,394.181274 552.023926,394.223785 552.669067,394.187347 
	C554.258484,395.891785 556.074341,397.809937 557.858521,399.757172 
	C567.201904,409.954224 576.785583,419.946686 585.757996,430.460663 
	C589.556946,434.912262 592.403442,435.046204 597.359619,432.305176 
	C656.837585,399.410156 688.723755,338.216553 681.066284,270.320099 
	C676.920410,233.560257 661.242615,202.010025 635.079590,176.103210 
	C586.383606,127.883995 515.756592,115.676819 453.634064,144.029739 
	C385.409973,175.167465 347.453522,251.997177 364.062683,325.097748 
	C365.017334,329.299500 366.885345,331.939087 370.714447,334.176361 
	C413.210022,359.005402 445.044983,393.687134 466.293884,438.130127 
	C467.355560,440.350677 469.888000,442.624176 472.216248,443.367371 
	C498.741425,451.834351 525.719421,453.470703 553.760681,447.533295 
M581.575195,475.953827 
	C600.703369,531.013672 619.831482,586.073547 639.068604,641.447021 
	C665.044922,626.441101 690.501099,611.735596 716.285156,596.840759 
	C667.207458,543.388916 618.479736,490.318268 569.751953,437.247589 
	C569.326355,437.541351 568.900757,437.835114 568.475159,438.128845 
	C572.732849,450.496979 576.990479,462.865082 581.575195,475.953827 
M568.122253,436.523682 
	C568.313110,436.601929 568.504028,436.680145 568.694885,436.758362 
	C568.639099,436.545441 568.583313,436.332520 568.122253,436.523682 
z"/>
<path fill="#019C19" opacity="1.000000" stroke="none" 
	d="
M77.718933,406.729858 
	C108.615738,366.341522 148.070877,338.684753 197.042725,326.443726 
	C270.231110,308.149536 336.757080,323.043427 394.818939,371.509430 
	C433.301666,403.632172 457.455017,444.984680 467.302734,494.156555 
	C478.757050,551.350647 468.782318,604.952454 438.012177,654.551086 
	C436.981445,656.212524 434.145325,657.681091 432.148773,657.683594 
	C312.683105,657.831787 193.217194,657.798157 73.751442,657.907410 
	C70.303314,657.910645 68.744492,656.371582 67.179703,653.816223 
	C42.249218,613.103088 31.246313,569.020142 34.793072,521.333069 
	C37.937019,479.061981 52.441326,441.076019 77.718933,406.729858 
M207.090668,518.409363 
	C200.845367,512.162842 194.701675,505.810242 188.324738,499.701141 
	C182.524933,494.144958 175.443466,489.143677 183.733414,480.108276 
	C152.960709,462.044342 122.940659,444.422180 92.920609,426.800049 
	C92.710785,427.031860 92.500954,427.263641 92.291130,427.495422 
	C109.917587,457.514496 127.544044,487.533569 145.231506,517.656555 
	C147.318649,516.931519 149.198380,516.624451 150.688171,515.693481 
	C154.534103,513.290222 157.006485,514.540894 160.016052,517.597412 
	C179.308884,537.190796 198.873795,556.516174 218.182983,576.093689 
	C219.613098,577.543579 220.661072,580.429688 220.335464,582.390564 
	C216.420822,605.964478 238.401596,625.832092 261.589325,619.469849 
	C277.994263,614.968689 288.487671,598.881409 285.757843,582.417419 
	C282.858429,564.930725 268.216614,553.211243 250.497314,554.988770 
	C245.562866,555.483704 242.583862,554.151245 239.340714,550.792969 
	C228.922852,540.005310 218.197601,529.514465 207.090668,518.409363 
z"/>
<path fill="#848484" opacity="1.000000" stroke="none" 
	d="
M644.359558,657.453308 
	C672.940796,640.934753 701.207336,624.628845 729.463318,608.304749 
	C735.516663,604.807678 736.899780,594.855042 732.129395,589.662170 
	C697.523193,551.991699 662.923096,514.315491 628.330627,476.632263 
	C627.453430,475.676605 626.685852,474.620239 625.693115,473.396393 
	C677.162842,442.493134 711.401733,398.655487 725.830322,340.442505 
	C738.412842,289.677185 732.708862,240.467438 708.736511,193.949631 
	C662.387573,104.010696 561.960510,61.030140 467.378601,86.661324 
	C366.748474,113.931541 303.324799,205.371750 311.537872,309.497528 
	C301.752136,307.660217 292.084351,305.845062 282.186340,303.986664 
	C282.186340,219.766663 282.186340,135.666336 282.186340,51.141098 
	C435.968628,51.141098 589.676453,51.141098 743.834045,51.141098 
	C743.834045,273.734650 743.834045,496.422638 743.834045,719.450562 
	C590.066040,719.450562 436.339386,719.450562 282.270813,719.450562 
	C282.270813,704.447205 282.270813,689.566528 282.270813,674.112610 
	C284.397461,674.112610 286.347321,674.112610 288.297150,674.112610 
	C338.792938,674.112610 389.288910,674.060791 439.784241,674.211487 
	C443.799011,674.223450 446.007812,672.878235 448.179810,669.628113 
	C469.282837,638.050110 482.282471,603.446533 486.745605,565.770691 
	C489.400787,543.356689 488.837708,520.907593 484.938690,497.701019 
	C513.785339,502.469818 542.144653,501.712921 570.636780,494.939972 
	C575.618286,509.286896 580.509705,523.401917 585.419861,537.510376 
	C598.543091,575.217651 611.679321,612.920471 624.798645,650.629089 
	C627.693970,658.951111 636.372742,662.139160 644.359558,657.453308 
z"/>
<path fill="#848484" opacity="1.000000" stroke="none" 
	d="
M553.415344,447.741089 
	C525.719421,453.470703 498.741425,451.834351 472.216248,443.367371 
	C469.888000,442.624176 467.355560,440.350677 466.293884,438.130127 
	C445.044983,393.687134 413.210022,359.005402 370.714447,334.176361 
	C366.885345,331.939087 365.017334,329.299500 364.062683,325.097748 
	C347.453522,251.997177 385.409973,175.167465 453.634064,144.029739 
	C515.756592,115.676819 586.383606,127.883995 635.079590,176.103210 
	C661.242615,202.010025 676.920410,233.560257 681.066284,270.320099 
	C688.723755,338.216553 656.837585,399.410156 597.359619,432.305176 
	C592.403442,435.046204 589.556946,434.912262 585.757996,430.460663 
	C576.785583,419.946686 567.201904,409.954224 557.858521,399.757172 
	C556.074341,397.809937 554.258484,395.891785 552.669067,394.187347 
	C552.023926,394.223785 551.831360,394.181274 551.694824,394.249939 
	C538.097839,401.094025 538.129395,401.083893 543.003357,415.417389 
	C546.638000,426.106079 550.178345,436.826813 553.415344,447.741089 
M538.684631,252.694626 
	C532.554504,251.443115 526.413269,249.090317 520.296387,249.151901 
	C503.655823,249.319443 491.375061,257.589905 484.236023,272.488434 
	C477.074310,287.434296 478.692657,302.113586 488.811127,315.240875 
	C499.093781,328.581116 513.189941,333.567291 529.575317,330.494934 
	C547.717529,327.093231 559.848083,313.075226 562.530579,293.785950 
	C564.721130,278.034027 555.290833,261.410217 538.684631,252.694626 
z"/>
<path fill="#4B4B4B" opacity="1.000000" stroke="none" 
	d="
M581.411682,475.593506 
	C576.990479,462.865082 572.732849,450.496979 568.475159,438.128845 
	C568.900757,437.835114 569.326355,437.541351 569.751953,437.247589 
	C618.479736,490.318268 667.207458,543.388916 716.285156,596.840759 
	C690.501099,611.735596 665.044922,626.441101 639.068604,641.447021 
	C619.831482,586.073547 600.703369,531.013672 581.411682,475.593506 
z"/>
<path fill="#4B4B4B" opacity="1.000000" stroke="none" 
	d="
M568.324890,436.321655 
	C568.583313,436.332520 568.639099,436.545441 568.694885,436.758362 
	C568.504028,436.680145 568.313110,436.601929 568.324890,436.321655 
z"/>
<path fill="#FDFEFE" opacity="1.000000" stroke="none" 
	d="
M207.340790,518.659241 
	C218.197601,529.514465 228.922852,540.005310 239.340714,550.792969 
	C242.583862,554.151245 245.562866,555.483704 250.497314,554.988770 
	C268.216614,553.211243 282.858429,564.930725 285.757843,582.417419 
	C288.487671,598.881409 277.994263,614.968689 261.589325,619.469849 
	C238.401596,625.832092 216.420822,605.964478 220.335464,582.390564 
	C220.661072,580.429688 219.613098,577.543579 218.182983,576.093689 
	C198.873795,556.516174 179.308884,537.190796 160.016052,517.597412 
	C157.006485,514.540894 154.534103,513.290222 150.688171,515.693481 
	C149.198380,516.624451 147.318649,516.931519 145.231506,517.656555 
	C127.544044,487.533569 109.917587,457.514496 92.291130,427.495422 
	C92.500954,427.263641 92.710785,427.031860 92.920609,426.800049 
	C122.940659,444.422180 152.960709,462.044342 183.733414,480.108276 
	C175.443466,489.143677 182.524933,494.144958 188.324738,499.701141 
	C194.701675,505.810242 200.845367,512.162842 207.340790,518.659241 
z"/>
<path fill="#FEFEFE" opacity="1.000000" stroke="none" 
	d="
M539.034119,252.838348 
	C555.290833,261.410217 564.721130,278.034027 562.530579,293.785950 
	C559.848083,313.075226 547.717529,327.093231 529.575317,330.494934 
	C513.189941,333.567291 499.093781,328.581116 488.811127,315.240875 
	C478.692657,302.113586 477.074310,287.434296 484.236023,272.488434 
	C491.375061,257.589905 503.655823,249.319443 520.296387,249.151901 
	C526.413269,249.090317 532.554504,251.443115 539.034119,252.838348 
z"/>
</svg>