<?xml version="1.0" encoding="UTF-8"?>
<svg version="1.1" xmlns="http://www.w3.org/2000/svg" width="640" height="320">
<path d="M0 0 C2.26682823 0.81108904 4.30535869 1.79679401 6.4309082 2.92871094 C26.87469545 13.6066642 47.71563847 21.14380206 70.0715332 26.74121094 C69.50394938 34.19505722 68.54639083 41.48480934 67.21606445 48.83886719 C67.03384842 49.86391861 66.85163239 50.88897003 66.66389465 51.94508362 C66.07674346 55.23243066 65.48133979 58.51819492 64.8840332 61.80371094 C64.68211365 62.92082458 64.48019409 64.03793823 64.27215576 65.18890381 C61.95831497 77.9605979 59.61813196 90.71744071 56.6965332 103.36621094 C56.35779175 104.83392944 56.35779175 104.83392944 56.01220703 106.33129883 C54.16539734 113.98078596 52.43628435 120.93013982 46.8215332 126.74121094 C44.06786442 129.63158668 41.36698625 132.53576769 38.7590332 135.55761719 C35.1011115 139.75821925 31.26176277 143.74328243 27.3215332 147.67871094 C26.62487549 148.37456299 25.92821777 149.07041504 25.21044922 149.78735352 C19.76787629 155.16597731 14.16202454 160.09937918 8.0715332 164.74121094 C7.39477539 165.29679688 6.71801758 165.85238281 6.02075195 166.42480469 C3.58417891 168.35006262 1.77941248 169.68675869 -1.3659668 169.92871094 C-9.2794092 166.26150592 -15.57912039 159.56981959 -21.9284668 153.74121094 C-22.94709033 152.82613699 -23.96665121 151.91210558 -24.98706055 150.99902344 C-30.07439291 146.42606014 -34.95487817 141.82505 -39.3503418 136.56542969 C-40.97151524 134.69144949 -42.69514645 133.00974027 -44.4909668 131.30371094 C-56.08114562 119.71353212 -58.21112803 104.38946166 -61.2409668 88.86621094 C-61.45766525 87.77083008 -61.45766525 87.77083008 -61.67874146 86.65332031 C-64.23787561 73.71212366 -66.58609686 60.73421459 -68.8659668 47.74121094 C-69.02134918 46.85806213 -69.17673157 45.97491333 -69.33682251 45.06500244 C-69.77577498 42.56182415 -70.21052477 40.05796203 -70.64331055 37.55371094 C-70.77420074 36.80531952 -70.90509094 36.0569281 -71.03994751 35.28585815 C-71.5344078 32.3946243 -71.9284668 29.68084563 -71.9284668 26.74121094 C-71.37723145 26.60134766 -70.82599609 26.46148437 -70.25805664 26.31738281 C-47.87821942 20.57825325 -24.93951026 13.66812648 -5.14331055 1.41308594 C-1.9284668 -0.25878906 -1.9284668 -0.25878906 0 0 Z " fill="#FDFCFC" transform="translate(301.928466796875,142.2587890625)"/>
<path d="M0 0 C9.61950595 3.9109261 18.71978208 10.32319595 23.61328125 19.6875 C29.90947414 35.24566003 34.70416487 58.0782872 28.75 74.3125 C27.80078125 76.3671875 27.80078125 76.3671875 26.4375 78.4375 C25.53837891 79.82775391 25.53837891 79.82775391 24.62109375 81.24609375 C20.76060094 85.76007577 15.24352343 88.09034376 10.01904297 90.70678711 C8.19853453 91.61946803 6.38992422 92.55285391 4.58203125 93.49023438 C-1.69664506 96.69201241 -7.80044624 99.44225881 -14.5625 101.4375 C-14.8925 96.8175 -15.2225 92.1975 -15.5625 87.4375 C-17.2125 87.23125 -18.8625 87.025 -20.5625 86.8125 C-41.58612086 83.22250158 -65.53896906 71.60678516 -78.5625 54.4375 C-78.5625 54.1075 -78.5625 53.7775 -78.5625 53.4375 C-71.05480769 53.06826923 -71.05480769 53.06826923 -68.5625 54.9375 C-68.2325 55.4325 -67.9025 55.9275 -67.5625 56.4375 C-66.9025 55.4475 -66.2425 54.4575 -65.5625 53.4375 C-48.91598084 55.86869266 -48.91598084 55.86869266 -43.5625 58.4375 C-41.9375 61.125 -41.9375 61.125 -41.5625 63.4375 C-40.799375 63.045625 -40.03625 62.65375 -39.25 62.25 C-33.89736374 61.07060557 -29.67423197 62.74571682 -24.5625 64.4375 C-24.2325 65.7575 -23.9025 67.0775 -23.5625 68.4375 C-22.5725 67.7775 -21.5825 67.1175 -20.5625 66.4375 C-17.27734375 66.13671875 -17.27734375 66.13671875 -13.5 66.125 C-12.25089844 66.10824219 -11.00179687 66.09148437 -9.71484375 66.07421875 C-8.67457031 66.19410156 -7.63429688 66.31398438 -6.5625 66.4375 C-5.5725 67.9225 -5.5725 67.9225 -4.5625 69.4375 C-2.9125 67.4575 -1.2625 65.4775 0.4375 63.4375 C-0.33851563 63.53289062 -1.11453125 63.62828125 -1.9140625 63.7265625 C-2.99429688 63.83742188 -4.07453125 63.94828125 -5.1875 64.0625 C-6.23164063 64.17851563 -7.27578125 64.29453125 -8.3515625 64.4140625 C-19.42016786 64.87674191 -30.28074121 61.62505149 -40.75 58.4375 C-56.06238731 53.72315838 -56.06238731 53.72315838 -71.9375 52.25 C-73.37222656 52.25966797 -73.37222656 52.25966797 -74.8359375 52.26953125 C-77.59025969 52.37487153 -77.59025969 52.37487153 -80.3515625 53.01171875 C-81.08117187 53.15222656 -81.81078125 53.29273438 -82.5625 53.4375 C-83.5625 52.4375 -83.5625 52.4375 -83.84765625 49.359375 C-83.50932059 44.70610101 -82.17237156 41.74032143 -80 37.6875 C-79.63793457 36.99229248 -79.27586914 36.29708496 -78.90283203 35.58081055 C-68.16901505 15.25971142 -68.16901505 15.25971142 -56.9597168 11.17382812 C-52.37718165 9.76625851 -47.64770072 9.04373143 -42.9375 8.1875 C-35.6749246 6.79883174 -29.2043078 5.289111 -22.75 1.625 C-14.73646501 -2.81834023 -8.62712085 -2.75487893 0 0 Z M-13.1875 4.8125 C-14.38246094 5.19535156 -14.38246094 5.19535156 -15.6015625 5.5859375 C-17.74499027 6.26725406 -17.74499027 6.26725406 -18.5625 8.4375 C-17.2940625 8.18613281 -17.2940625 8.18613281 -16 7.9296875 C-9.11622746 6.69373743 -4.1886005 6.14848346 2.4375 8.4375 C3.76788449 8.7824145 5.1006314 9.11864075 6.4375 9.4375 C4.16018574 6.83172695 2.22347238 5.7850813 -1.0625 4.75 C-1.8359375 4.49863281 -2.609375 4.24726562 -3.40625 3.98828125 C-7.07088614 3.05220571 -9.68061645 3.65876958 -13.1875 4.8125 Z M-57.5625 27.4375 C-56.5625 29.4375 -56.5625 29.4375 -56.5625 29.4375 Z " fill="#00AA00" transform="translate(278.5625,50.5625)"/>
<path d="M0 0 C2.26682823 0.81108904 4.30535869 1.79679401 6.4309082 2.92871094 C26.87469545 13.6066642 47.71563847 21.14380206 70.0715332 26.74121094 C69.50394938 34.19505722 68.54639083 41.48480934 67.21606445 48.83886719 C67.03384842 49.86391861 66.85163239 50.88897003 66.66389465 51.94508362 C66.07674346 55.23243066 65.48133979 58.51819492 64.8840332 61.80371094 C64.68211365 62.92082458 64.48019409 64.03793823 64.27215576 65.18890381 C61.95831497 77.9605979 59.61813196 90.71744071 56.6965332 103.36621094 C56.35779175 104.83392944 56.35779175 104.83392944 56.01220703 106.33129883 C54.16539734 113.98078596 52.43628435 120.93013982 46.8215332 126.74121094 C44.06786442 129.63158668 41.36698625 132.53576769 38.7590332 135.55761719 C35.1011115 139.75821925 31.26176277 143.74328243 27.3215332 147.67871094 C26.62487549 148.37456299 25.92821777 149.07041504 25.21044922 149.78735352 C19.76787629 155.16597731 14.16202454 160.09937918 8.0715332 164.74121094 C7.39477539 165.29679688 6.71801758 165.85238281 6.02075195 166.42480469 C3.58417891 168.35006262 1.77941248 169.68675869 -1.3659668 169.92871094 C-9.2794092 166.26150592 -15.57912039 159.56981959 -21.9284668 153.74121094 C-22.94709033 152.82613699 -23.96665121 151.91210558 -24.98706055 150.99902344 C-30.07439291 146.42606014 -34.95487817 141.82505 -39.3503418 136.56542969 C-40.97151524 134.69144949 -42.69514645 133.00974027 -44.4909668 131.30371094 C-56.08114562 119.71353212 -58.21112803 104.38946166 -61.2409668 88.86621094 C-61.45766525 87.77083008 -61.45766525 87.77083008 -61.67874146 86.65332031 C-64.23787561 73.71212366 -66.58609686 60.73421459 -68.8659668 47.74121094 C-69.02134918 46.85806213 -69.17673157 45.97491333 -69.33682251 45.06500244 C-69.77577498 42.56182415 -70.21052477 40.05796203 -70.64331055 37.55371094 C-70.77420074 36.80531952 -70.90509094 36.0569281 -71.03994751 35.28585815 C-71.5344078 32.3946243 -71.9284668 29.68084563 -71.9284668 26.74121094 C-71.37723145 26.60134766 -70.82599609 26.46148437 -70.25805664 26.31738281 C-47.87821942 20.57825325 -24.93951026 13.66812648 -5.14331055 1.41308594 C-1.9284668 -0.25878906 -1.9284668 -0.25878906 0 0 Z M-5.6159668 21.30371094 C-19.41806933 30.64430581 -35.84306673 35.87853877 -51.9284668 39.74121094 C-52.23892434 46.83861522 -51.04840215 53.35398826 -49.6784668 60.30371094 C-49.21625579 62.71101885 -48.75534112 65.11857599 -48.2956543 67.52636719 C-48.06458984 68.73180176 -47.83352539 69.93723633 -47.59545898 71.17919922 C-46.42584585 77.42541286 -45.37943705 83.69352661 -44.36108398 89.96606445 C-42.20108992 102.80988723 -39.08450915 112.54418787 -30.4284668 122.42871094 C-29.64669067 123.32783203 -29.64669067 123.32783203 -28.84912109 124.24511719 C-16.51079224 139.73957912 -16.51079224 139.73957912 0.1340332 147.99121094 C4.3254911 146.20761183 7.57468188 143.62593738 11.0715332 140.74121094 C12.0821582 139.95746094 13.0927832 139.17371094 14.1340332 138.36621094 C17.05690228 135.75428538 19.5441506 133.03210269 22.07543945 130.04980469 C24.40167346 127.35938532 26.83119933 124.77766967 29.2590332 122.17871094 C40.81300262 109.36621536 42.54055512 93.29889841 45.1340332 76.74121094 C45.62094019 73.67806452 46.11263416 70.61571195 46.60668945 67.55371094 C46.72517242 66.81386963 46.8436554 66.07402832 46.96572876 65.31176758 C47.97649038 59.09596472 49.20736929 52.93911292 50.51855469 46.78027344 C51.19087826 43.60014068 51.19087826 43.60014068 51.0715332 39.74121094 C49.94360352 39.4846875 48.81567383 39.22816406 47.65356445 38.96386719 C31.52985877 35.11317135 15.59129018 29.56132709 1.93481445 19.95605469 C-1.40726449 17.77704724 -2.67047328 19.15490329 -5.6159668 21.30371094 Z " fill="#AB0101" transform="translate(301.928466796875,142.2587890625)"/>
<path d="M0 0 C20.77490368 1.27193288 40.31149296 13.65661905 54.30078125 28.4296875 C71.66664428 48.99896215 79.05274683 76.43687746 79.203125 102.96875 C79.21330658 104.21495872 79.21330658 104.21495872 79.22369385 105.48634338 C79.24056203 108.15760091 79.24688404 110.82869276 79.25 113.5 C79.25233643 114.40797333 79.25467285 115.31594666 79.25708008 116.25143433 C79.27142462 131.02517198 78.44493198 145.40193537 76 160 C69.69632197 159.41632611 64.01339937 157.95928381 58 156 C58.09087891 155.39679932 58.18175781 154.79359863 58.27539062 154.17211914 C60.50227494 138.75380024 61.32797828 123.55973741 61.375 108 C61.38623901 106.72251389 61.38623901 106.72251389 61.39770508 105.41921997 C61.60043408 77.33956359 56.56114632 47.4204236 37 26 C36.42121094 25.31808594 35.84242188 24.63617187 35.24609375 23.93359375 C25.9984081 13.72718475 12.2258084 7.85859231 0 2 C0 1.34 0 0.68 0 0 Z " fill="#00AA00" transform="translate(298,2)"/>
<path d="M0 0 C6.03653699 -0.3221077 10.83245145 -0.56806924 16 3 C20.06161155 7.27584245 21.84106039 12.03638975 23.890625 17.45703125 C24.24010193 18.35999435 24.58957886 19.26295746 24.949646 20.19328308 C26.05819059 23.06319257 27.1542383 25.93768884 28.25 28.8125 C29.00178298 30.76529029 29.75437833 32.71776805 30.5078125 34.66992188 C32.34796968 39.44304623 34.17693798 44.22032158 36 49 C38.68069661 42.67387661 41.28356556 36.32553996 43.75390625 29.9140625 C44.21603516 28.71652344 44.67816406 27.51898438 45.15429688 26.28515625 C46.10145881 23.82332343 47.0440922 21.35974401 47.98242188 18.89453125 C48.44326172 17.70472656 48.90410156 16.51492187 49.37890625 15.2890625 C49.7869751 14.22381348 50.19504395 13.15856445 50.61547852 12.06103516 C52.9940257 6.80231102 55.45114281 2.12509424 61 0 C64.68138034 -0.23398604 68.31704771 -0.17415011 72 0 C71.38769188 3.44392836 70.51210183 6.56620967 69.25341797 9.82763672 C68.89569305 10.75986053 68.53796814 11.69208435 68.16940308 12.65255737 C67.78092194 13.65151031 67.3924408 14.65046326 66.9921875 15.6796875 C66.58847931 16.72464386 66.18477112 17.76960022 65.76882935 18.84622192 C64.91173568 21.06103508 64.05254109 23.27503619 63.19140625 25.48828125 C61.8942275 28.8255334 60.60682615 32.16643693 59.3203125 35.5078125 C46.69631332 68.15271875 46.69631332 68.15271875 40 74 C36.52674819 75.1577506 33.63932552 75.06866652 30 75 C26.08334161 67.58573498 23.02320014 59.84933947 19.921875 52.0703125 C19.34486672 50.62914103 18.76765383 49.18805146 18.19024658 47.74703979 C16.9878711 44.74403405 15.78796938 41.74005532 14.58984375 38.73535156 C13.05222743 34.87984977 11.50836896 31.02688299 9.96268845 27.17460823 C8.77293484 24.20743485 7.58645534 21.23896095 6.40097809 18.27007675 C5.83262679 16.84786329 5.26324859 15.42605976 4.69283295 14.004673 C3.8996306 12.02672644 3.11084742 10.04707522 2.32324219 8.06689453 C1.8734198 6.94074738 1.42359741 5.81460022 0.96014404 4.65432739 C0 2 0 2 0 0 Z " fill="#040404" transform="translate(265,191)"/>
<path d="M0 0 C0.66 0 1.32 0 2 0 C1.80664062 0.65484375 1.61328125 1.3096875 1.4140625 1.984375 C-0.56902 8.93498098 -1.93977819 15.85285768 -3 23 C-2.07703125 22.979375 -1.1540625 22.95875 -0.203125 22.9375 C12.1125527 23.13221427 21.87168635 26.9827032 33 32 C34.69895961 32.75449005 36.39816826 33.50841962 38.09765625 34.26171875 C39.39855742 34.84087654 40.69938554 35.42019864 42 36 C42 36.66 42 37.32 42 38 C39.2411433 39.37942835 37.01714365 39.12721397 33.9296875 39.12939453 C32.65496582 39.13254669 31.38024414 39.13569885 30.06689453 39.13894653 C28.669596 39.1371567 27.27229779 39.13510573 25.875 39.1328125 C24.44775374 39.13348585 23.02050759 39.13445615 21.59326172 39.13571167 C18.60057484 39.13718715 15.60791779 39.13503888 12.61523438 39.13037109 C8.77490871 39.12467388 4.93465293 39.12795369 1.09432983 39.13394356 C-1.85327686 39.13755319 -4.80086693 39.13640873 -7.74847412 39.13381577 C-9.16469328 39.13314761 -10.58091394 39.13397104 -11.99713135 39.13629532 C-13.97464978 39.13882837 -15.95217349 39.13428457 -17.9296875 39.12939453 C-19.61940674 39.12820114 -19.61940674 39.12820114 -21.34326172 39.12698364 C-24 39 -24 39 -26 38 C-26.23017882 32.36061883 -26.33805247 26.79963383 -22.54199219 22.25415039 C-20.68510124 20.4532731 -18.77294842 18.74995073 -16.8125 17.0625 C-15.44787044 15.84280261 -14.08585762 14.62017081 -12.7265625 13.39453125 C-12.07848633 12.81268066 -11.43041016 12.23083008 -10.76269531 11.63134766 C-7.55200583 8.65990346 -4.77846033 5.36673369 -2 2 C-1.34 1.34 -0.68 0.68 0 0 Z " fill="#00AA00" transform="translate(349,278)"/>
<path d="M0 0 C5.49316384 2.32953651 9.44188405 6.84142343 13.64624023 10.94604492 C14.66852742 11.93529764 15.70141912 12.91371507 16.74487305 13.88061523 C26.50866166 22.93341085 26.50866166 22.93341085 27.17578125 30.22265625 C27.16751749 31.81616035 27.12817816 33.41163796 27 35 C24.24327579 36.3783621 22.01487184 36.13482398 18.9296875 36.14526367 C17.65496582 36.15164352 16.38024414 36.15802338 15.06689453 36.16459656 C13.66959674 36.166125 12.27229844 36.16723909 10.875 36.16796875 C9.44775356 36.17118063 8.02050746 36.17454465 6.59326172 36.17805481 C3.60057817 36.18404652 0.6079235 36.18589462 -2.38476562 36.18530273 C-6.2251432 36.185201 -10.06533636 36.19886481 -13.90567017 36.21607494 C-16.85328019 36.22717552 -19.80084533 36.22922256 -22.74847412 36.22869301 C-24.16469968 36.22987562 -25.5809263 36.23431306 -26.99713135 36.24202538 C-28.97462599 36.25178755 -30.95217452 36.24769279 -32.9296875 36.24291992 C-34.05616699 36.24434494 -35.18264648 36.24576996 -36.34326172 36.24723816 C-39 36 -39 36 -41 34 C-26.20868664 26.25857236 -12.92394761 20.26073309 4 20 C2.5842521 9.87130235 2.5842521 9.87130235 0 0 Z " fill="#00A900" transform="translate(254,281)"/>
<path d="M0 0 C3.93792318 2.56821077 6.74612583 5.61725165 8.875 9.875 C9.41535594 14.8002115 9.41935469 18.74441718 7.25 23.25 C3.90061758 26.95194899 1.36104424 29.51191157 -3.74609375 30.2578125 C-8.22285904 30.44004175 -11.42759875 30.17932054 -15.5625 28.375 C-19.82433554 24.21711166 -21.84885557 20.16305385 -22.5625 14.25 C-21.87742629 8.96514564 -20.12399694 5.534266 -16.125 2.0625 C-10.93589161 -1.72122487 -6.05728943 -2.18062419 0 0 Z " fill="#F8FBF8" transform="translate(278.125,60.125)"/>
<path d="M0 0 C0.93908203 -0.00386719 1.87816406 -0.00773438 2.84570312 -0.01171875 C4.3084668 0.00568359 4.3084668 0.00568359 5.80078125 0.0234375 C7.23454102 0.00603516 7.23454102 0.00603516 8.69726562 -0.01171875 C15.02524861 0.01416257 20.25540405 1.00066772 26.11328125 3.3984375 C23.41771957 5.19547862 22.09045224 5.79461955 19.05859375 6.46875 C18.27871094 6.64277344 17.49882812 6.81679687 16.6953125 6.99609375 C15.88449219 7.17011719 15.07367188 7.34414062 14.23828125 7.5234375 C13.43519531 7.70519531 12.63210937 7.88695312 11.8046875 8.07421875 C7.80795265 8.94994484 4.22340411 9.4911335 0.11328125 9.3984375 C0.23968994 10.04393555 0.36609863 10.68943359 0.49633789 11.35449219 C1.06494592 14.28417986 1.62048844 17.21619823 2.17578125 20.1484375 C2.37494141 21.16421875 2.57410156 22.18 2.77929688 23.2265625 C2.96298828 24.20625 3.14667969 25.1859375 3.3359375 26.1953125 C3.50875244 27.09604492 3.68156738 27.99677734 3.85961914 28.92480469 C4.11348825 31.4004561 3.88198765 33.05160799 3.11328125 35.3984375 C-0.96089946 30.93020822 -3.43376535 26.6720555 -5.69921875 21.0859375 C-6.01052734 20.37759766 -6.32183594 19.66925781 -6.64257812 18.93945312 C-8.66906599 14.02689024 -10.2472255 8.69311481 -8.88671875 3.3984375 C-6.06834129 0.56128683 -3.93020578 0.01576737 0 0 Z " fill="#00A900" transform="translate(221.88671875,153.6015625)"/>
<path d="M0 0 C1.875 0.3125 1.875 0.3125 4 1 C6.68495774 5.02743661 6.57173628 8.26867516 6 13 C4.5 16.0625 4.5 16.0625 3 18 C1.125 17.8125 1.125 17.8125 -1 17 C-3.53948391 12.80985155 -3.37656625 8.7447347 -3 4 C-1.5 1.5 -1.5 1.5 0 0 Z " fill="#191919" transform="translate(265,67)"/>
</svg>
