<?xml version="1.0" encoding="UTF-8"?>
<svg version="1.1" xmlns="http://www.w3.org/2000/svg" width="1200" height="1027">
<path d="M0 0 C144.87 0 289.74 0 439 0 C446.92 28.05 454.84 56.1 463 85 C469.76766579 108.84796517 476.53689322 132.69544995 483.31298828 156.54101562 C487.26828261 170.46248569 491.21675194 184.38589069 495.16439438 198.30953217 C495.74870791 200.37044272 496.33304474 202.43134667 496.91738892 204.49224854 C498.45834252 209.92699654 499.99926388 215.36175369 501.54008484 220.79653931 C504.27115317 230.4295663 507.00263196 240.06247682 509.734375 249.6953125 C509.93092367 250.38839949 510.12747234 251.08148647 510.32997704 251.7955761 C512.31030161 258.77876586 514.29067164 265.76194273 516.27114773 272.74508953 C517.25500306 276.21416884 518.23883526 279.6832547 519.22265625 283.15234375 C519.41772074 283.84016497 519.61278522 284.52798618 519.81376076 285.23665047 C522.4573922 294.55856571 525.10004664 303.88075739 527.74186707 313.20318604 C528.57583205 316.1460479 529.40990825 319.0888782 530.24409485 322.03167725 C530.44918136 322.75517365 530.65426786 323.47867004 530.86556911 324.22409058 C531.27793749 325.67882385 531.69030943 327.13355611 532.10268497 328.58828735 C533.31416101 332.86231639 534.52484578 337.13656862 535.73494434 341.41098785 C539.41356849 354.4036731 543.10298559 367.39280186 546.859375 380.36328125 C547.43502369 382.35602499 548.01062771 384.34878163 548.58618164 386.34155273 C549.61700531 389.90968743 550.6562353 393.47521127 551.70092773 397.03930664 C552.14858303 398.58601107 552.59595076 400.13279876 553.04296875 401.6796875 C553.24504944 402.3595723 553.44713013 403.03945709 553.65533447 403.73994446 C554.71016068 407.42028074 555 410.07477622 555 414 C506.82 414 458.64 414 409 414 C407.00156865 408.67084974 405.1886291 403.49824807 403.66943359 398.04296875 C403.45500768 397.28388277 403.24058176 396.52479679 403.01965809 395.74270821 C402.30935946 393.2252016 401.60392475 390.70635875 400.8984375 388.1875 C400.38893887 386.3783982 399.87910878 384.56938971 399.36897278 382.76046753 C398.27478431 378.87826037 397.18265003 374.99548359 396.09213257 371.11224365 C394.35316598 364.92033676 392.60938824 358.72979177 390.86450195 352.53955078 C390.56975636 351.49386744 390.27501078 350.44818409 389.9713335 349.37081337 C389.3708785 347.24059094 388.77040724 345.11037309 388.16991997 342.98015976 C387.25563302 339.73622 386.34177285 336.49216025 385.42799377 333.24807739 C379.63626567 312.68972975 373.80433658 292.14288967 367.96206284 271.59885788 C366.67403446 267.06932705 365.38646999 262.53966436 364.09887695 258.01000977 C363.58744965 256.21087094 363.07602083 254.41173255 362.56459045 252.6125946 C362.3124132 251.72546972 362.06023594 250.83834484 361.80041695 249.92433739 C361.04277112 247.25913969 360.28505546 244.59396186 359.52732849 241.92878723 C353.35190797 220.20684772 347.18875154 198.48142793 341.02507401 176.75615406 C340.18314513 173.78862034 339.34117811 170.82109744 338.49921036 167.85357475 C337.92949881 165.84552022 337.35987018 163.83744218 336.79025269 161.82936096 C336.44962799 160.62875534 336.1090033 159.42814972 335.75805664 158.19116211 C335.44925568 157.09794647 335.14045471 156.00473083 334.82229614 154.87838745 C334.33181746 153.16150273 333.83257606 151.44702577 333.31515503 149.73806763 C332.36432484 146.59579035 332 144.35381133 332 141 C284.15 141 236.3 141 187 141 C191.16625 155.64375 195.3325 170.2875 199.625 185.375 C210.19315621 222.53419538 220.73551124 259.70058599 231.25 296.875 C240.31431105 328.92209538 249.39201537 360.96528858 258.5 393 C268.0135447 426.46136355 277.49447528 459.93187896 286.96343994 493.40588379 C295.790206 524.60927118 304.63181628 555.80835843 313.5 587 C322.36914073 618.19500763 331.21158333 649.39749559 340.03939056 680.60422516 C349.54089845 714.19225815 359.05022696 747.77803357 368.5884285 781.35566711 C369.36895412 784.1037139 370.14922452 786.85183302 370.92941284 789.59997559 C375.7629186 806.62490289 380.60196771 823.64805685 385.49988556 840.65458298 C386.09406302 842.71819967 386.68762227 844.78199307 387.28094482 846.84585571 C389.04273191 852.97348616 390.80872946 859.09982441 392.58544922 865.22314453 C393.18350001 867.29973795 393.78133466 869.37639363 394.37890625 871.453125 C394.64938278 872.37755402 394.91985931 873.30198303 395.1985321 874.25442505 C395.43924942 875.09504486 395.67996674 875.93566467 395.92797852 876.80175781 C396.13681168 877.52228333 396.34564484 878.24280884 396.56080627 878.98516846 C397 881 397 881 397 885 C436.93 885 476.86 885 518 885 C518.66 881.7 519.32 878.4 520 875 C520.46704763 873.17447808 520.95982339 871.35502862 521.49511719 869.54833984 C521.77975327 868.57918137 522.06438934 867.61002289 522.35765076 866.61149597 C522.66759476 865.57181168 522.97753876 864.53212738 523.296875 863.4609375 C523.63360733 862.31720169 523.97033966 861.17346588 524.317276 859.99507141 C525.06108579 857.46920103 525.80633756 854.94380524 526.55386353 852.41903687 C528.69255456 845.19308122 530.81221642 837.96152191 532.93359375 830.73046875 C533.16655844 829.93681978 533.39952312 829.14317081 533.63954735 828.32547188 C540.11496455 806.2600255 546.47400773 784.16093972 552.83982849 762.06368256 C554.46929686 756.40773126 556.09940451 750.75196423 557.72949219 745.09619141 C558.21263854 743.41986004 558.21263854 743.41986004 558.70554543 741.70966339 C559.35291688 739.4635526 560.0002945 737.21744358 560.64767838 734.97133636 C561.29071937 732.74025007 561.93373243 730.50915573 562.57671738 728.27805328 C566.7254036 713.88263783 570.87869456 699.48857069 575.04296875 685.09765625 C575.34993903 684.03682233 575.34993903 684.03682233 575.66311073 682.95455742 C580.77181545 665.30199998 585.88719048 647.65136618 591 630 C598.26 604.92 605.52 579.84 613 554 C806.71 554 1000.42 554 1200 554 C1200.061875 610.079375 1200.12375 666.15875 1200.1875 723.9375 C1200.21481201 741.63753662 1200.24212402 759.33757324 1200.27026367 777.57397461 C1200.28381348 799.20617676 1200.28381348 799.20617676 1200.28633118 809.33668518 C1200.28912342 816.40430204 1200.30010521 823.47184737 1200.31672668 830.53944397 C1200.33589031 838.7001205 1200.34449208 846.86072867 1200.34033485 855.02142784 C1200.33853594 859.19151211 1200.34128799 863.36144381 1200.35764539 867.53149974 C1200.47557103 899.10883895 1200.47557103 899.10883895 1197 913 C1196.77406756 913.96692748 1196.54813513 914.93385496 1196.31535625 915.93008327 C1195.76168124 918.23206772 1195.12827834 920.4856571 1194.4375 922.75 C1194.18846924 923.56799072 1193.93943848 924.38598145 1193.68286133 925.22875977 C1188.8542964 940.30997278 1181.70291883 954.48288941 1172 967 C1171.31679687 967.90363281 1170.63359375 968.80726563 1169.9296875 969.73828125 C1147.79810218 997.95401088 1116.8272202 1017.2830988 1081.5625 1024.25 C1080.75361328 1024.41322754 1079.94472656 1024.57645508 1079.11132812 1024.74462891 C1062.63262348 1027.78819768 1045.64288397 1027.14225485 1028.96365499 1027.11606562 C1025.46560779 1027.1116969 1021.96756211 1027.11321204 1018.46951294 1027.1139679 C1012.42709913 1027.11448911 1006.38469622 1027.11138469 1000.34228516 1027.10573006 C991.60626081 1027.09756005 982.87024167 1027.09499423 974.13421392 1027.09374207 C959.95633495 1027.09156014 945.77846177 1027.08492347 931.60058594 1027.07543945 C917.83821644 1027.06624303 904.07584852 1027.05917313 890.31347656 1027.05493164 C889.4633994 1027.05466892 888.61332224 1027.05440619 887.73748517 1027.05413551 C883.47237095 1027.05283035 879.20725672 1027.05156667 874.94214249 1027.05032361 C839.62809086 1027.03997778 804.31404597 1027.02238298 769 1027 C769.31382944 1025.4040315 769.62914483 1023.80835516 769.94508362 1022.21280289 C770.20823034 1020.87986769 770.20823034 1020.87986769 770.47669315 1019.52000451 C771.10939356 1016.47321104 771.90595691 1013.50159255 772.77734375 1010.51464844 C773.1201387 1009.33193359 773.46293365 1008.14921875 773.81611633 1006.93066406 C774.37120125 1005.03912598 774.37120125 1005.03912598 774.9375 1003.109375 C775.3345746 1001.74489972 775.73126728 1000.38031326 776.12760925 999.015625 C777.1927236 995.35199216 778.26288375 991.68985174 779.33410263 988.02799988 C780.45247929 984.20209216 781.56654974 980.37493119 782.6809082 976.54785156 C784.06009629 971.81211655 785.43971254 967.07650829 786.82136536 962.3414917 C789.77955492 952.20215639 792.72218933 942.05844444 795.65118027 931.9106369 C796.89905774 927.58802511 798.148694 923.26592132 799.39813042 918.94375992 C800.39097749 915.50861849 801.3827602 912.07317651 802.37231445 908.63708496 C803.46733311 904.83515696 804.567443 901.03471275 805.66796875 897.234375 C805.99306931 896.10233643 806.31816986 894.97029785 806.65312195 893.80395508 C806.94959122 892.78293701 807.24606049 891.76191895 807.55151367 890.70996094 C807.80873703 889.81887634 808.06596039 888.92779175 808.33097839 888.00970459 C809 886 809 886 810 885 C813.15559158 884.89393631 816.28963759 884.85396088 819.44590759 884.85523987 C820.95190335 884.8499496 820.95190335 884.8499496 822.48832327 884.84455246 C825.8801595 884.83380797 829.27196771 884.83017458 832.66381836 884.82641602 C835.08433655 884.82011525 837.50485357 884.81335 839.92536926 884.80615234 C845.151175 884.7914506 850.37697907 884.779658 855.60279655 884.77020454 C863.16071902 884.75635372 870.71860781 884.73516952 878.27650613 884.71177601 C890.54036789 884.67383156 902.80423574 884.63887159 915.06811523 884.60717773 C915.80271635 884.60527724 916.53731746 884.60337675 917.29417921 884.60141867 C927.7215708 884.57458109 938.1489671 884.55070993 948.57636846 884.52803367 C949.67781534 884.52563771 949.67781534 884.52563771 950.80151367 884.52319336 C951.53492105 884.52159989 952.26832844 884.52000643 953.02396028 884.51836468 C965.23946046 884.49162533 977.45492478 884.45723784 989.67038637 884.41653961 C997.21192533 884.39172292 1004.75342564 884.37341961 1012.29499901 884.363384 C1018.06914293 884.35514001 1023.84321801 884.33666496 1029.61732292 884.31432343 C1031.99177211 884.30681871 1034.36623495 884.30276512 1036.74069595 884.30232811 C1039.96960742 884.30125353 1043.19824392 884.28807771 1046.42710876 884.27174377 C1047.37777424 884.27436063 1048.32843972 884.27697748 1049.30791324 884.27967364 C1050.16819395 884.27282484 1051.02847466 884.26597605 1051.91482449 884.25891972 C1052.66081258 884.25718347 1053.40680068 884.25544722 1054.17539448 884.25365835 C1056.24981431 884.15218898 1056.24981431 884.15218898 1058 882 C1058.20519029 879.51734153 1058.28513715 877.14477923 1058.2784729 874.6602478 C1058.28715141 873.51502403 1058.28715141 873.51502403 1058.29600525 872.34666443 C1058.31310832 869.76671251 1058.3158798 867.18693783 1058.31884766 864.60693359 C1058.32825224 862.73438388 1058.33853048 860.86183839 1058.3496151 858.98929787 C1058.37695471 853.96099818 1058.39228901 848.93272789 1058.40519714 843.90437317 C1058.41909771 839.19117309 1058.44374419 834.4780536 1058.4675293 829.76489258 C1058.53085677 815.96830721 1058.57686288 802.17164673 1058.625 788.375 C1058.74875 757.56125 1058.8725 726.7475 1059 695 C947.13 695 835.26 695 720 695 C719.67 697.31 719.34 699.62 719 702 C718.38748347 704.41399715 717.72822238 706.81642757 717.0324707 709.20776367 C716.83307892 709.89797607 716.63368713 710.58818848 716.42825317 711.29931641 C715.7652394 713.59019242 715.09551583 715.87904938 714.42578125 718.16796875 C713.94946516 719.80882287 713.47357958 721.44980202 712.99809265 723.09089661 C711.97731713 726.6106414 710.9535793 730.12950567 709.92749023 733.64770508 C708.29012707 739.26184139 706.6592454 744.87784787 705.02929688 750.49414062 C702.78052425 758.24076115 700.52907136 765.98659756 698.27587891 773.73193359 C695.29447805 783.98175784 692.32229862 794.2342308 689.35546875 804.48828125 C689.02091077 805.64455143 689.02091077 805.64455143 688.67959404 806.8241806 C687.78603319 809.9125617 686.8925433 813.00096332 685.99917889 816.08940125 C684.43011959 821.51375264 682.86021422 826.9378586 681.28979492 832.36181641 C672.32589825 863.32185692 663.37329122 894.28516041 654.42144775 925.24868774 C648.36233739 946.20634235 642.30219068 967.1636973 636.2421875 988.12109375 C635.96478682 989.08043296 635.68738614 990.03977217 635.40157938 991.02818227 C631.93439751 1003.01879143 628.46720456 1015.00939739 625 1027 C596.21801487 1027.02340398 567.43603117 1027.04101594 538.65403843 1027.05181217 C535.98867861 1027.05283862 533.32331879 1027.05387327 530.65795898 1027.05493164 C529.99551117 1027.05519395 529.33306335 1027.05545626 528.65054136 1027.05572652 C518.61980803 1027.05979611 508.58908008 1027.06683265 498.55834961 1027.07543945 C486.9035175 1027.085435 475.24868969 1027.09186499 463.59385341 1027.09408849 C457.42793078 1027.09538735 451.26202044 1027.09842067 445.09610176 1027.10573006 C439.28084747 1027.11256725 433.46561041 1027.11460144 427.65035248 1027.11310768 C425.52730401 1027.11338057 423.40425491 1027.11533967 421.28120995 1027.11920547 C379.1704959 1027.19205885 339.74411541 1020.75938179 307 992 C306.19691406 991.31679688 305.39382813 990.63359375 304.56640625 989.9296875 C276.04591676 965.10217871 263.92749241 933.98771684 253.75 898.5 C253.04706161 896.06559643 252.34384791 893.63127234 251.64038086 891.19702148 C245.77964014 870.87493694 240.05195908 850.51523956 234.34448242 830.1496582 C227.80367433 806.81377571 221.19089758 783.49864186 214.5625 760.1875 C214.02152645 758.28474167 213.48056169 756.38198085 212.93960571 754.47921753 C210.80239986 746.9618667 208.66511894 739.44453722 206.52754211 731.92729187 C201.95187467 715.83519984 197.38521768 699.74056182 192.82255173 683.64477921 C191.29667058 678.261959 189.77058872 672.8791957 188.244524 667.49642754 C187.86313474 666.1511797 187.4817502 664.80593053 187.10037041 663.46068001 C182.4595666 647.09123834 177.81398989 630.72315149 173.16841125 614.35506439 C166.08146527 589.38508666 158.99723444 564.41434148 151.91662598 539.44256592 C145.66939947 517.4100184 139.41889603 495.37840271 133.16622162 473.34740067 C126.23336227 448.91979551 119.30226177 424.49169317 112.375 400.0625 C112.18047997 399.37652363 111.98595993 398.69054726 111.78554535 397.98378372 C108.66244278 386.97011964 105.53953651 375.95639991 102.41665649 364.94267273 C99.48619943 354.60758819 96.5556685 344.27252459 93.625 333.9375 C93.33346165 332.90938139 93.33346165 332.90938139 93.03603363 331.86049271 C86.52696159 308.90616079 80.01425085 285.9528627 73.5 263 C66.78926999 239.35484601 60.08036719 215.70917539 53.375 192.0625 C53.18047997 191.37652363 52.98595993 190.69054726 52.78554535 189.98378372 C49.66244278 178.97011964 46.53953651 167.95639991 43.41665649 156.94267273 C33.70080924 122.67699318 23.98324664 88.41180118 14.26067352 54.14802933 C13.57008914 51.71424592 12.87955069 49.28044948 12.18902588 46.84664917 C11.10149133 43.01358908 10.01382416 39.18056664 8.92605782 35.34757233 C8.52861901 33.94703615 8.13122095 32.54648841 7.73386955 31.14592743 C7.18280782 29.20361464 6.63156719 27.26135261 6.08032227 25.3190918 C5.73776398 24.10772552 5.39520569 22.89635925 5.04226685 21.64828491 C4.32095178 19.12343931 3.58967975 16.60366268 2.8432312 14.08633423 C2.47593903 12.83686005 2.10864685 11.58738586 1.73022461 10.30004883 C1.39792343 9.18422928 1.06562225 8.06840973 0.72325134 6.91877747 C-0 4 -0 4 0 0 Z " fill="#00748A" transform="translate(0,0)"/>
<path d="M0 0 C37.27485091 -0.06877827 74.5496922 -0.12158559 111.8245938 -0.15319599 C116.23267202 -0.15694777 120.6407501 -0.16083077 125.04882812 -0.16479492 C126.36509278 -0.16597532 126.36509278 -0.16597532 127.70794864 -0.16717956 C141.88660028 -0.18020703 156.06521515 -0.2038461 170.24384503 -0.23145839 C184.8097895 -0.2595868 199.37571481 -0.27619192 213.94168532 -0.28226548 C222.91805509 -0.28636656 231.89432091 -0.2992842 240.87065865 -0.3237494 C247.03947166 -0.33969856 253.20823152 -0.34437977 259.37706362 -0.34050413 C262.92763187 -0.33859674 266.47801942 -0.34136481 270.02855492 -0.35761642 C288.18562098 -0.43661637 305.47506181 0.20176267 322.9375 5.625 C323.75541016 5.87588379 324.57332031 6.12676758 325.41601562 6.38525391 C362.02514745 18.13243701 392.30866685 45.27644726 410.32666016 78.94677734 C420.52687104 98.89756129 426.18080478 120.30555055 426.12025452 142.70581055 C426.12111053 143.8654985 426.12196655 145.02518646 426.12284851 146.22001648 C426.12421099 149.42727011 426.12109245 152.63448296 426.11607273 155.84173179 C426.11169287 159.35785133 426.11316821 162.87396942 426.11389065 166.39009094 C426.11442141 173.20942568 426.10981278 180.0287472 426.10338932 186.84807855 C426.09617931 194.73921512 426.09539402 202.63034379 426.09460449 210.52148438 C426.08935768 231.34765834 426.07539652 252.17382937 426.0625 273 C426.041875 319.53 426.02125 366.06 426 414 C245.82 414 65.64 414 -120 414 C-116.5542237 400.21689481 -116.5542237 400.21689481 -114.68188477 393.83813477 C-114.36297775 392.74120174 -114.36297775 392.74120174 -114.03762817 391.62210846 C-113.34101519 389.22791543 -112.64122041 386.83466534 -111.94140625 384.44140625 C-111.44021548 382.72104378 -110.93923933 381.00061877 -110.4384613 379.28013611 C-109.37195888 375.61753457 -108.30409158 371.955335 -107.23510742 368.29345703 C-105.53659809 362.47495367 -103.84123075 356.65553785 -102.14648438 350.8359375 C-101.57132413 348.86099111 -100.99615933 346.88604604 -100.42098999 344.91110229 C-100.13585918 343.932048 -99.85072838 342.9529937 -99.55695724 341.94427109 C-98.68945705 338.96596425 -97.82165536 335.98774542 -96.95376587 333.009552 C-92.348616 317.20581926 -87.76112066 301.39702525 -83.1829834 285.58544922 C-81.16856483 278.62829014 -79.15284156 271.67150912 -77.13671875 264.71484375 C-76.93273594 264.01099422 -76.72875313 263.3071447 -76.51858902 262.5819664 C-70.96066068 243.4056833 -65.38661204 224.23408381 -59.8125 205.0625 C-59.55114384 204.16357655 -59.28978767 203.26465309 -59.02051163 202.33848953 C-54.74511599 187.6335204 -50.46896586 172.9287707 -46.19273376 158.2240448 C-42.71672017 146.27101355 -39.24090696 134.31792407 -35.76550293 122.36471558 C-34.71879049 118.76469603 -33.67199182 115.16470158 -32.62512207 111.56472778 C-27.33475375 93.37187021 -22.04836391 75.17788274 -16.78010368 56.97860909 C-16.06407221 54.50507575 -15.34791473 52.03157892 -14.63172913 49.55809021 C-12.6310802 42.64802674 -10.63093449 35.73782055 -8.63392258 28.82670498 C-7.83900225 26.07650888 -7.04313084 23.32658865 -6.24702835 20.57673454 C-5.70975281 18.71966412 -5.17374734 16.86222639 -4.63778687 15.004776 C-4.31718292 13.89782883 -3.99657898 12.79088165 -3.66625977 11.65039062 C-3.2530825 10.22080017 -3.2530825 10.22080017 -2.83155823 8.7623291 C-1.94595585 5.8204723 -0.97665446 2.91272985 0 0 Z M107 141 C104.86954668 146.50352939 103.03541312 152.00523812 101.41552734 157.67797852 C101.17595306 158.507173 100.93637878 159.33636749 100.68954468 160.19068909 C99.90200036 162.9192377 99.11896462 165.64905822 98.3359375 168.37890625 C97.77914681 170.3111129 97.22206308 172.24323512 96.66470337 174.17527771 C95.19566582 179.27036604 93.73039833 184.36653084 92.26599121 189.46295166 C90.80832035 194.53384487 89.34749125 199.60382769 87.88671875 204.67382812 C86.18263547 210.58833454 84.47891907 216.50294383 82.77801514 222.41836548 C80.25274261 231.19853225 77.72080129 239.97653604 75.15722656 248.74560547 C74.83273875 249.85687569 74.83273875 249.85687569 74.50169563 250.99059582 C73.51087219 254.38336788 72.51756118 257.77536639 71.51913452 261.16590881 C71.18233673 262.31764084 70.84553894 263.46937286 70.49853516 264.65600586 C70.20661285 265.6486998 69.91469055 266.64139374 69.61392212 267.66416931 C68.91526832 269.9198574 68.91526832 269.9198574 69 272 C140.28 272 211.56 272 285 272 C285.061875 250.941875 285.12375 229.88375 285.1875 208.1875 C285.21481201 201.53231201 285.24212402 194.87712402 285.27026367 188.02026367 C285.28029545 182.06736226 285.28029545 182.06736226 285.28633118 176.11445618 C285.29094563 173.4577525 285.30039779 170.8014726 285.31672668 168.14485168 C285.34109817 164.12667798 285.34172107 160.10882353 285.34057617 156.09057617 C285.3513705 154.90222011 285.36216482 153.71386404 285.37328625 152.48949718 C285.36915376 151.41060884 285.36502127 150.33172049 285.36076355 149.22013855 C285.36352893 148.27898791 285.36629431 147.33783728 285.36914349 146.36816692 C285.15184694 143.99571061 285.15184694 143.99571061 283.9152298 142.19628906 C280.96874653 140.35585941 278.44559098 140.63182765 274.99555969 140.63923645 C274.27837475 140.63667318 273.56118982 140.6341099 272.822272 140.63146895 C270.41294471 140.62651741 268.00424051 140.643046 265.5949707 140.65942383 C263.87041234 140.66026981 262.1458529 140.65979553 260.42129517 140.65809631 C255.73351159 140.65723379 251.04595721 140.67490104 246.35822701 140.69581819 C241.46150126 140.71454225 236.56477055 140.71633205 231.66801453 140.71989441 C222.39262179 140.72922745 213.11733484 140.75385825 203.84198874 140.78394288 C193.28348925 140.81744774 182.72498477 140.83396304 172.16644537 140.84902918 C150.44423782 140.88040671 128.72212557 140.93319165 107 141 Z " fill="#F19110" transform="translate(774,0)"/>
</svg>
