<?xml version="1.0" encoding="UTF-8"?>
<svg version="1.1" xmlns="http://www.w3.org/2000/svg" width="1200" height="1199">
<path d="M0 0 C1.51788042 -0.00682998 1.51788042 -0.00682998 3.06642509 -0.01379794 C4.74219463 -0.01371636 4.74219463 -0.01371636 6.45181811 -0.01363313 C8.23302829 -0.01940845 8.23302829 -0.01940845 10.05022252 -0.02530044 C13.36676072 -0.03500578 16.68325172 -0.04020568 19.99979892 -0.04352394 C23.60050351 -0.04818504 27.20119255 -0.0585168 30.8018868 -0.06809402 C37.95306328 -0.08616886 45.10424004 -0.0987277 52.25543075 -0.10956253 C58.20338149 -0.11872479 64.15132401 -0.1302114 70.0992676 -0.1431936 C71.38533804 -0.14599733 71.38533804 -0.14599733 72.69738969 -0.1488577 C74.44593783 -0.15267479 76.19448597 -0.15649359 77.94303411 -0.16031409 C101.59684706 -0.21148563 125.25068012 -0.24721348 148.9045254 -0.27950799 C150.35754378 -0.28149401 150.35754378 -0.28149401 151.83991606 -0.28352015 C190.19243105 -0.3357221 228.54495667 -0.38009684 266.89749467 -0.41131412 C276.40244261 -0.41906684 285.9073903 -0.42711419 295.4123379 -0.43526971 C296.4626074 -0.43616366 297.5128769 -0.4370576 298.59497275 -0.43797864 C332.62199172 -0.46716305 366.64885797 -0.52813122 400.67579612 -0.60665356 C435.66089365 -0.68723973 470.6459088 -0.7384329 505.63109991 -0.75177241 C510.57645559 -0.75366537 515.52181108 -0.75587859 520.46716654 -0.7582792 C521.44043225 -0.75873951 522.41369795 -0.75919982 523.41645656 -0.75967407 C539.05854783 -0.76790274 554.70041946 -0.80671224 570.34242611 -0.85689501 C586.08027256 -0.90668674 601.81788287 -0.92327823 617.55580138 -0.90647109 C626.89655121 -0.89747655 636.2364705 -0.9133106 645.57708317 -0.96548659 C651.83002303 -0.99791005 658.08241118 -0.99712303 664.33537535 -0.97025598 C667.88996896 -0.95590336 671.44299273 -0.95509189 674.99742584 -0.99507292 C692.43519529 -1.15596171 705.72967219 0.76939642 721.1310879 9.13455451 C722.66868387 9.93682975 724.2068918 10.73793341 725.7457571 11.53777122 C734.14377868 15.93231364 741.7750464 21.14819261 749.1310879 27.13455451 C749.69569727 27.59233283 750.26030665 28.05011115 750.8420254 28.52176154 C767.83609756 42.39437885 780.83537494 58.48368664 791.0685879 77.88455451 C791.50485499 78.71068244 791.94112208 79.53681036 792.39060938 80.38797247 C798.03382507 91.4309838 801.89140242 101.28038416 801.77146685 113.7950846 C801.77993244 115.00591511 801.78839803 116.21674562 801.79712015 117.46426797 C801.81543483 120.80016892 801.81167417 124.13467031 801.79823112 127.47050191 C801.78910417 131.10911205 801.80902679 134.74758797 801.82511115 138.38615811 C801.84926625 144.75512233 801.85491487 151.12389223 801.84823954 157.49289572 C801.83833797 166.96435238 801.85696963 176.43560586 801.88094635 185.90702959 C801.92515971 203.81018402 801.93534384 221.71325999 801.9345945 239.61646158 C801.93414029 253.44559909 801.9420841 267.27470814 801.95592082 281.10383856 C801.95982063 285.08758968 801.96369273 289.07134083 801.96756339 293.05509198 C801.96852948 294.04552815 801.96949557 295.03596432 801.97049093 296.05641371 C801.99737715 323.90894939 802.01355932 351.76147485 802.00805438 379.6140238 C802.00785126 380.66373251 802.00764815 381.71344122 802.00743888 382.79495929 C802.00638381 388.11505443 802.00524092 393.43514955 802.00407146 398.75524467 C802.00384054 399.81179215 802.00360961 400.86833963 802.00337169 401.9569037 C802.00290372 404.09350014 802.0024298 406.23009658 802.00194993 408.36669301 C801.99475698 441.59962551 802.02519198 474.83234083 802.08470118 508.06521857 C802.15155225 545.42215325 802.1880378 582.77894806 802.18123603 620.13594639 C802.18061682 624.12221236 802.18010914 628.10847833 802.1796757 632.09474432 C802.17955 633.07622708 802.17942431 634.05770983 802.17929481 635.06893449 C802.17804402 649.86338227 802.20060619 664.65767153 802.23548472 679.45207465 C802.27516901 696.287346 802.28344966 713.12229615 802.25016628 729.95758849 C802.23249705 739.36945508 802.23944985 748.78052669 802.28258182 758.19231528 C802.30893842 764.49235419 802.30211301 770.79181443 802.26919505 777.09182048 C802.25139055 780.67309271 802.24708293 784.25282952 802.28343044 787.83399647 C802.44865098 805.26712831 800.55915695 818.74891778 792.1310879 834.13455451 C791.71326744 834.92081806 791.29544699 835.70708161 790.8649653 836.51717132 C773.26149648 869.58008008 744.08825933 894.03517216 709.1310879 907.13455451 C706.09485826 908.03839354 703.10565097 908.83833398 700.00218165 909.46658576 C699.07599024 909.79723029 699.07599024 909.79723029 698.1310879 910.13455451 C697.8010879 911.12455451 697.4710879 912.11455451 697.1310879 913.13455451 C636.0810879 913.13455451 575.0310879 913.13455451 512.1310879 913.13455451 C512.40781003 971.18812885 512.40781003 971.18812885 512.76170313 1029.24124396 C512.79331934 1040.51773322 512.79331934 1040.51773322 512.79919398 1045.81148016 C512.80566608 1049.47678575 512.83169561 1053.14136799 512.87011683 1056.80647528 C512.91870538 1061.50487984 512.93242276 1066.20225694 512.92259383 1070.9008894 C512.9246441 1072.6106594 512.93818406 1074.32047135 512.96559381 1076.03002286 C513.42858664 1106.35513572 494.59983184 1136.8117019 474.1310879 1158.13455451 C457.43326953 1175.18573952 437.41804824 1186.4296447 415.41600001 1195.2024256 C412.98780958 1196.14910397 412.98780958 1196.14910397 410.22732645 1197.66974109 C405.07051337 1199.86177944 399.82504284 1199.54295649 394.30635893 1199.50369799 C393.1130437 1199.50715952 391.91972846 1199.51062106 390.69025216 1199.51418748 C387.37594484 1199.5207629 384.06215864 1199.51388254 380.74790114 1199.50135308 C377.14316597 1199.49103904 373.53845851 1199.49816505 369.93371779 1199.50308555 C363.61548377 1199.50930518 357.29733452 1199.5043782 350.97911036 1199.49217093 C341.58415163 1199.4740696 332.18924637 1199.47316317 322.79427338 1199.4757969 C306.99064595 1199.47973932 291.18705614 1199.46971161 275.38343966 1199.45174468 C259.73401735 1199.43399861 244.0846107 1199.42244785 228.4351784 1199.41918623 C227.46244414 1199.41898002 226.48970988 1199.4187738 225.48749882 1199.41856133 C220.54755001 1199.41754634 215.60760119 1199.41664219 210.66765236 1199.4157807 C175.67050888 1199.40947809 140.67338587 1199.38926216 105.67625391 1199.36087286 C71.67527846 1199.33332346 37.67430861 1199.31207071 3.67332423 1199.29934943 C2.62541766 1199.29895485 1.57751109 1199.29856027 0.49784978 1199.29815373 C-10.02557958 1199.2941982 -20.54900899 1199.29037076 -31.07243844 1199.28663716 C-52.51021695 1199.27902835 -73.94799509 1199.27056459 -95.38577306 1199.26158392 C-96.37146526 1199.26117205 -97.35715745 1199.26076018 -98.37271911 1199.26033583 C-164.20479195 1199.23273 -230.03685344 1199.18519395 -295.8689121 1199.13455451 C-295.8689121 1198.47455451 -295.8689121 1197.81455451 -295.8689121 1197.13455451 C-297.14895116 1196.88576544 -298.42899023 1196.63697638 -299.74781835 1196.38064826 C-320.96643351 1191.63639628 -341.15264281 1178.85836872 -356.8689121 1164.13455451 C-357.44093359 1163.60491095 -358.01295507 1163.0752674 -358.60231054 1162.52957404 C-370.15417892 1151.73711653 -379.3209788 1140.00617982 -387.1189121 1126.25955451 C-387.68303808 1125.27293829 -387.68303808 1125.27293829 -388.25856054 1124.26639044 C-389.02953938 1122.85482381 -389.76603493 1121.42402656 -390.47208947 1119.97889137 C-391.47244004 1117.94188686 -392.52543246 1115.93040671 -393.61176354 1113.93792748 C-400.23669259 1100.86029894 -399.86737693 1087.67283468 -399.76198362 1073.30727337 C-399.74314168 1069.66768093 -399.76532478 1066.02828256 -399.78202111 1062.38871121 C-399.80565474 1056.02434177 -399.8035449 1049.66039502 -399.78409994 1043.29601729 C-399.75526385 1033.83187505 -399.76671523 1024.36807279 -399.78589177 1014.90392132 C-399.81882048 997.99778079 -399.81200295 981.09183357 -399.78829784 964.185688 C-399.7676772 949.3918777 -399.76053983 934.59813594 -399.76668394 919.80431235 C-399.76707351 918.82196523 -399.76746308 917.83961812 -399.76786445 916.82750291 C-399.76946212 912.8395843 -399.77111974 908.85166573 -399.77286909 904.86374719 C-399.78905933 867.47708153 -399.76528322 830.09053589 -399.72295494 792.70389575 C-399.68559897 759.50397595 -399.68149315 726.30421179 -399.7060703 693.10428107 C-399.73356206 655.78180104 -399.7419184 618.45940289 -399.71813542 581.13691735 C-399.7156444 577.15699996 -399.71319038 573.17708255 -399.71074522 569.19716513 C-399.70981377 567.72728792 -399.70981377 567.72728792 -399.7088635 566.22771622 C-399.69980056 551.44352523 -399.70510462 536.65938442 -399.71724927 521.87519705 C-399.73094341 505.06294324 -399.72290992 488.25085236 -399.68651275 471.43862925 C-399.66674232 462.0345468 -399.66332075 452.63080056 -399.6837398 443.22671757 C-399.69571358 436.93964272 -399.685744 430.65284559 -399.65817215 424.36582054 C-399.64307765 420.78736645 -399.63717995 417.20958442 -399.65796266 413.6311435 C-399.80191116 386.81232446 -399.80191116 386.81232446 -392.8689121 374.13455451 C-392.00636564 372.30523541 -391.14854004 370.47367083 -390.2985996 368.63846076 C-389.45888152 366.98525559 -388.60725069 365.33804818 -387.7439121 363.69705451 C-387.04612646 362.37000494 -387.04612646 362.37000494 -386.33424413 361.0161463 C-379.54419525 348.45987297 -370.71847038 337.43181998 -360.8689121 327.13455451 C-360.2501621 326.46424201 -359.6314121 325.79392951 -358.9939121 325.10330451 C-341.9075022 307.16257411 -318.82760532 295.65586617 -295.8689121 287.13455451 C-294.96657527 286.78421715 -294.06423845 286.4338798 -293.13455808 286.07292616 C-289.45962702 285.01694791 -286.09937749 284.86175193 -282.31388891 284.89404547 C-281.57372293 284.89233662 -280.83355696 284.89062777 -280.07096171 284.88886714 C-277.60198199 284.88558472 -275.13327676 284.8965552 -272.66432226 284.90750372 C-270.89006085 284.90806811 -269.11579897 284.90775075 -267.34153783 284.90661871 C-262.53208813 284.90604526 -257.72273834 284.9177984 -252.91331184 284.93176663 C-247.88446883 284.94427521 -242.85562349 284.94544459 -237.82676733 284.94781744 C-228.30713306 284.95403183 -218.78754477 284.97044212 -209.26793075 284.99051642 C-198.42882652 285.01287669 -187.5897201 285.02386918 -176.75059855 285.03390729 C-154.45667741 285.05480836 -132.16279765 285.08998356 -109.8689121 285.13455451 C-109.87628644 284.2529308 -109.88366079 283.37130709 -109.8912586 282.46296751 C-110.06866874 260.91643632 -110.20067272 239.37003265 -110.28340948 217.82292235 C-110.32449378 207.40244275 -110.38040987 196.98245351 -110.47242773 186.56228888 C-110.552681 177.46994508 -110.60389875 168.37795674 -110.62162006 159.28526855 C-110.63196371 154.47969816 -110.65591243 149.67514381 -110.71475255 144.86990225 C-111.16560747 106.57708578 -111.16560747 106.57708578 -101.8689121 88.13455451 C-101.34201284 86.97079794 -100.81511358 85.80704138 -100.27224767 84.60801947 C-99.10818439 82.04983788 -97.84700628 79.59697259 -96.4939121 77.13455451 C-96.03041357 76.27338019 -95.56691503 75.41220587 -95.08937109 74.52493536 C-90.9237572 66.94123654 -86.27273772 59.88734396 -80.8689121 53.13455451 C-80.39840429 52.54593634 -79.92789648 51.95731818 -79.44313085 51.3508631 C-62.47221116 30.37789606 -29.11463517 0.06184289 0 0 Z M100.1310879 204.13455451 C99.51878321 204.66307013 98.90647852 205.19158576 98.27561915 205.73611701 C87.78092506 215.48633623 75.58077386 233.88686728 73.86881983 248.35032904 C73.7871068 250.721647 73.79287117 253.07479468 73.83811915 255.44705451 C73.84448641 256.72854376 73.84448641 256.72854376 73.85098231 258.03592169 C73.86763087 260.73580133 73.90525567 263.43490461 73.9435879 266.13455451 C73.95865266 267.97699156 73.97233792 269.81944044 73.98460352 271.66189826 C74.01748884 276.15307789 74.06917334 280.64368507 74.1310879 285.13455451 C74.81443876 285.13439215 75.49778962 285.1342298 76.20184809 285.13406253 C116.75275426 285.12518959 157.30353607 285.14760604 197.85439741 285.2103448 C202.72942347 285.21786034 207.60444988 285.22511592 212.47947657 285.23221076 C213.93519828 285.23433588 213.93519828 285.23433588 215.42032851 285.23650394 C231.10958827 285.2587887 246.7987822 285.26004046 262.48805337 285.25344314 C278.6010421 285.24713869 294.71389295 285.26361373 310.8268401 285.30099058 C320.75986885 285.32332141 330.69258278 285.32813729 340.62562168 285.31015114 C347.44815659 285.29950389 354.27043431 285.31109397 361.09291642 285.33971603 C365.02222052 285.35555793 368.95091191 285.36203205 372.88021052 285.34194624 C388.50407211 285.26835923 402.79502572 285.22614476 417.1310879 292.13455451 C419.03868226 292.94481855 420.94727314 293.75274873 422.8576504 294.55642951 C424.49628489 295.32010112 426.12926459 296.09603485 427.7560879 296.88455451 C428.63506739 297.30793097 429.51404688 297.73130744 430.41966212 298.16751349 C466.87121563 316.15422012 492.47642504 347.71105008 507.1310879 385.13455451 C507.47033927 385.98096794 507.80959064 386.82738137 508.15912235 387.6994437 C511.10736847 395.66548896 511.70222074 402.73549632 511.65006983 411.18161261 C511.65595835 412.56141124 511.66359227 413.94120331 511.6728009 415.32098377 C511.69291431 419.07931129 511.68854615 422.83725819 511.67989337 426.59561455 C511.67492325 430.66092373 511.69306467 434.72614035 511.70831263 438.79141486 C511.73156671 445.8237525 511.74037575 452.85598719 511.73920405 459.88836157 C511.73753114 470.05580523 511.75790687 480.22311209 511.78355935 490.39051917 C511.82459076 506.8888498 511.84794066 523.38715574 511.86009181 539.88553107 C511.8719293 555.90638853 511.89214342 571.92719954 511.92356837 587.94803107 C511.92550447 588.93656092 511.92744057 589.92509077 511.92943534 590.94357607 C511.93920028 595.90304039 511.94912932 600.86250437 511.95913994 605.8219682 C512.04189614 646.92614121 512.09592345 688.03031498 512.1310879 729.13455451 C517.69537965 729.25978093 523.25882045 729.34964658 528.82420313 729.40921271 C530.7104165 729.43408832 532.59653628 729.46800183 534.48240626 729.51175177 C546.75071608 729.78887277 556.76697741 729.01960562 568.1310879 724.13455451 C569.00336024 723.75992575 569.87563258 723.385297 570.77433741 722.99931586 C572.82120219 722.08060141 574.78573382 721.08181349 576.7560879 720.00955451 C577.46136622 719.62758917 578.16664454 719.24562384 578.89329493 718.8520838 C596.18152837 709.13697998 608.42573147 694.20435836 616.26001996 676.11014658 C617.02869081 674.36679227 617.86430573 672.65328676 618.70953238 670.94573557 C621.21890098 664.11718816 620.55430151 656.5417348 620.5322262 649.36659491 C620.53783415 647.64208496 620.54473771 645.91757882 620.55282217 644.1930787 C620.57115149 639.46280936 620.57077834 634.73269928 620.56723905 630.00240254 C620.56662638 624.89720754 620.58318958 619.7920634 620.59741175 614.68689215 C620.62232076 604.68724971 620.63057584 594.68766033 620.63224889 584.68798947 C620.6336751 576.55710315 620.63984304 568.42623432 620.64935076 560.29535353 C620.67576955 537.23217039 620.68960931 514.16902911 620.68735934 491.10583072 C620.68723947 489.86274365 620.6871196 488.61965658 620.6869961 487.33890021 C620.68687346 486.09429129 620.68675082 484.84968237 620.68662446 483.56735802 C620.68540562 463.40559853 620.71410061 443.24400727 620.7564112 423.08229642 C620.79953348 402.36996145 620.82021997 381.65770846 620.81762987 360.94532746 C620.81663491 349.32117103 620.82483409 337.69719088 620.85716403 326.07307494 C620.88452021 316.17391409 620.89097148 306.27500941 620.87063576 296.37582707 C620.86085985 291.32879473 620.86059698 286.28225345 620.8866955 281.23526824 C620.91038375 276.60659529 620.90590427 271.97880023 620.87984311 267.35014791 C620.87525823 265.68390916 620.88061055 264.01760388 620.89742333 262.35144364 C621.07840691 243.12853211 613.51108645 226.81661891 601.1310879 212.13455451 C600.48655665 211.33275763 599.8420254 210.53096076 599.1779629 209.70486701 C587.93230399 196.33502808 571.85136448 186.99619039 555.1310879 182.13455451 C551.67327276 181.83292603 551.67327276 181.83292603 547.94066775 181.87169898 C546.88392829 181.86554107 546.88392829 181.86554107 545.80584055 181.85925877 C543.44524229 181.84795014 541.08487858 181.85082928 538.72425807 181.85367072 C537.01456314 181.84850159 535.30487064 181.84247476 533.59518147 181.83566391 C528.89656046 181.81953807 524.19800059 181.81594556 519.4993552 181.81446898 C514.43160598 181.81076528 509.36388839 181.79566904 504.29615748 181.78219855 C493.2131517 181.75503863 482.13016041 181.74298288 471.04712689 181.73417723 C464.12379013 181.72864997 457.20045895 181.72017469 450.27712595 181.71116889 C431.10085427 181.68678201 411.92458705 181.66618525 392.74830019 181.6594187 C391.52100963 181.65897957 390.29371907 181.65854044 389.02923789 181.658088 C387.18393427 181.65743317 387.18393427 181.65743317 385.30135179 181.6567651 C382.808562 181.65587818 380.31577221 181.65498505 377.82298243 181.65408576 C376.58647666 181.6536429 375.34997089 181.65320004 374.07599525 181.65274376 C354.05381942 181.6448529 334.0317894 181.60996117 314.00966986 181.56336671 C293.44317115 181.51589272 272.87674552 181.49101278 252.31019115 181.48868287 C240.76700706 181.48685172 229.22401283 181.47540711 217.68088114 181.43904364 C207.84831688 181.4081778 198.01600113 181.39803795 188.18339761 181.41451985 C183.17067683 181.42231118 178.158456 181.42058167 173.14579737 181.39240515 C168.54722463 181.36679389 163.94952403 181.36943616 159.35095136 181.39358658 C157.69674356 181.39747791 156.04247256 181.39144905 154.3883533 181.37389785 C133.01422044 181.16165809 116.14071656 190.20077468 100.1310879 204.13455451 Z M-166.8689121 475.13455451 C-167.70697896 475.53031683 -168.54504583 475.92607916 -169.40850866 476.33383429 C-179.70768507 481.21877497 -188.05676496 487.90966966 -195.8689121 496.13455451 C-196.69004491 496.99693732 -197.51117773 497.85932013 -198.35719335 498.74783576 C-204.99435135 506.30204495 -209.69516796 515.03508179 -213.8689121 524.13455451 C-214.21745099 524.87233578 -214.56598988 525.61011706 -214.92509055 526.37025535 C-218.5154263 534.91141023 -218.43565883 543.14490909 -218.39030492 552.22531378 C-218.39635372 553.94829027 -218.40413558 555.67126138 -218.41349006 557.39422309 C-218.43399392 562.10636237 -218.42970097 566.81819635 -218.42112887 571.53036034 C-218.41618409 576.62119579 -218.43423552 581.71195871 -218.44920385 586.8027674 C-218.4746742 596.76792742 -218.47828814 606.7329796 -218.47360332 616.6981667 C-218.47003378 624.80085839 -218.47354311 632.90351741 -218.48205221 641.0062052 C-218.48324258 642.16048497 -218.48443296 643.31476473 -218.48565941 644.50402267 C-218.48808298 646.84914583 -218.49051125 649.19426899 -218.49294417 651.53939214 C-218.51468646 673.5218207 -218.51037449 695.50418786 -218.49817447 717.48661986 C-218.48783878 737.58029526 -218.51034148 757.67377667 -218.54837091 777.76741371 C-218.58715105 798.41656933 -218.6036355 819.06563324 -218.59612441 839.71482551 C-218.59230361 851.30092388 -218.59724367 862.88685718 -218.62555349 874.47292578 C-218.64941303 884.33725539 -218.65215549 894.20131836 -218.62797315 904.06565174 C-218.61621741 909.09447153 -218.61393505 914.12280398 -218.63797796 919.15159094 C-218.65977068 923.7635019 -218.65340258 928.37452086 -218.62545459 932.98639074 C-218.620181 934.64647897 -218.62482967 936.30663797 -218.64092632 937.96665654 C-218.74356897 949.35053885 -216.867132 957.82888547 -211.8689121 968.13455451 C-211.49442737 968.91097666 -211.11994263 969.68739882 -210.73410988 970.48734891 C-200.14658479 991.0285071 -182.95002269 1004.43468442 -161.8689121 1013.13455451 C-160.98420256 1013.53587927 -160.98420256 1013.53587927 -160.0816201 1013.94531161 C-152.35678796 1017.04176472 -144.28182185 1016.56109567 -136.10804784 1016.53569281 C-134.39647459 1016.54130226 -132.68490518 1016.54820642 -130.97334182 1016.55628878 C-126.28339734 1016.57459961 -121.59361363 1016.57424713 -116.90364158 1016.57070565 C-111.84000759 1016.57009252 -106.77642474 1016.58666073 -101.71281469 1016.60087836 C-91.79619181 1016.62577751 -81.87962244 1016.63404201 -71.96297091 1016.63571549 C-63.89839186 1016.63714223 -55.83383043 1016.64331277 -47.76925695 1016.65281737 C-24.8881258 1016.67923391 -2.00703682 1016.69307634 20.87410969 1016.69082595 C22.10714492 1016.69070608 23.34018015 1016.69058621 24.61058009 1016.69046271 C26.46240052 1016.69027875 26.46240052 1016.69027875 28.35163146 1016.69009107 C48.34708045 1016.68887242 68.34235975 1016.71756316 88.33775967 1016.75987781 C108.88515425 1016.80301619 129.43246616 1016.82368568 149.97990716 1016.82109648 C161.50909779 1016.82010204 173.03811063 1016.82827793 184.56726038 1016.86063063 C194.38619126 1016.8880081 204.2048638 1016.89442075 214.02381641 1016.87410236 C219.02857442 1016.86433697 224.03283741 1016.8640251 229.03754771 1016.89016211 C233.6298956 1016.9138976 238.22135983 1016.90932356 242.81368738 1016.88330971 C244.4644542 1016.87873509 246.11528852 1016.88403758 247.76597565 1016.90088994 C269.10841662 1017.10414177 288.35337694 1008.5737232 304.1310879 994.13455451 C314.07699036 984.33553246 327.33305059 966.85809042 328.25134242 952.2172724 C328.2491218 951.49557364 328.24690119 950.77387488 328.24461329 950.03030646 C328.24453776 949.20968222 328.24446223 948.38905798 328.24438441 947.54356635 C328.23922312 946.66222525 328.23406184 945.78088416 328.22874415 944.87283576 C328.2273292 943.96704276 328.22591425 943.06124976 328.22445643 942.12800848 C328.21885791 939.2343236 328.20630571 936.34071602 328.1935879 933.44705451 C328.18857271 931.48546708 328.18400983 929.52387844 328.17991602 927.56228888 C328.16888897 922.75301429 328.15162537 917.94379751 328.1310879 913.13455451 C327.4318411 913.1335777 326.73259431 913.13260089 326.01215822 913.13159448 C284.6020502 913.07336779 243.19199536 912.9996055 201.78195242 912.90556822 C196.81377713 912.89429958 191.84560155 912.8831612 186.87742579 912.87210333 C185.88831923 912.86989965 184.89921267 912.86769597 183.88013319 912.8654255 C167.84841574 912.83001852 151.81669834 912.80517361 135.78495624 912.78420749 C119.34435995 912.76247249 102.90381456 912.72944407 86.46326154 912.68585294 C76.31224634 912.65929647 66.16129461 912.64163057 56.01024637 912.63520847 C49.05658704 912.62996677 42.10300767 912.61379103 35.14939114 912.58888885 C31.13287694 912.57483187 27.11650604 912.56571858 23.09996569 912.56954634 C19.42659604 912.57294106 15.75353315 912.56268232 12.0802264 912.54131899 C10.11404281 912.53350508 8.14781781 912.54052041 6.18163282 912.54797155 C5.02265574 912.53851501 3.86367865 912.52905846 2.66958106 912.51931536 C1.66522078 912.51741676 0.66086051 912.51551816 -0.37393492 912.51356202 C-3.28023088 912.07207181 -4.02778403 911.34348684 -5.8689121 909.13455451 C-7.88639554 908.15206741 -7.88639554 908.15206741 -10.1579746 907.40799201 C-11.43402563 906.95093878 -11.43402563 906.95093878 -12.73585546 906.48465216 C-14.1010935 906.00197882 -14.1010935 906.00197882 -15.4939121 905.50955451 C-52.34321313 891.92301459 -81.62100673 865.64092534 -98.8689121 830.13455451 C-101.78234838 823.57245746 -104.42686039 816.88606638 -106.8689121 810.13455451 C-107.21039797 809.22100978 -107.55188383 808.30746506 -107.90371776 807.36623716 C-108.87663148 804.10870832 -109.12302593 801.5511573 -109.13062513 798.16444838 C-109.13809062 796.98556457 -109.14555611 795.80668076 -109.15324783 794.5920732 C-109.15034573 792.66308726 -109.15034573 792.66308726 -109.147385 790.6951319 C-109.15238996 789.30814213 -109.15826635 787.92115529 -109.16493773 786.53417253 C-109.18072753 782.72818641 -109.18416785 778.92227414 -109.18558633 775.11625922 C-109.18928216 771.00996549 -109.20443856 766.90371218 -109.21820104 762.79744208 C-109.24047194 755.68481237 -109.25548625 748.57219704 -109.26556814 741.45954001 C-109.28015533 731.17584439 -109.30569228 720.89219887 -109.33389942 710.60853265 C-109.37936667 693.9238605 -109.41598176 677.23918113 -109.4470371 660.55447638 C-109.47722291 644.34710672 -109.51157334 628.13975471 -109.55152929 611.93240607 C-109.55399084 610.93333889 -109.55645239 609.93427171 -109.55898853 608.90492977 C-109.57136313 603.89288954 -109.58381967 598.88084951 -109.59631693 593.86880958 C-109.69988372 552.29074911 -109.78908732 510.7126669 -109.8689121 469.13455451 C-115.57558669 468.98434845 -121.2810693 468.87647812 -126.98927343 468.80496466 C-128.92404805 468.77510257 -130.85869107 468.73439669 -132.79298437 468.68191779 C-145.60772726 468.34337757 -155.34571694 469.24607102 -166.8689121 475.13455451 Z M74.1310879 469.13455451 C74.0141251 494.59558742 73.92603624 520.05657988 73.87202704 545.51782763 C73.8462796 557.34076367 73.81119516 569.16353247 73.75389063 580.98636115 C73.70394983 591.29487925 73.67177176 601.60327619 73.66064543 611.9119119 C73.65414478 617.36691623 73.63893853 622.82157404 73.60243762 628.27646697 C73.56830943 633.41879617 73.55806879 638.56063858 73.56554949 643.70307028 C73.56418244 645.58271622 73.55435085 647.46237972 73.53506052 649.34192717 C73.42707327 660.41376464 74.11841566 669.04978078 79.1310879 679.13455451 C79.63807986 680.19147262 79.63807986 680.19147262 80.15531409 681.26974261 C91.83182528 704.36828809 110.86559436 719.33725938 134.98465884 727.67436659 C143.09326342 730.1886957 151.13522569 730.0576888 159.54588282 729.92923224 C161.40087778 729.92725105 163.2558782 729.92837902 165.11087 729.93232977 C170.08115891 729.93431427 175.05023236 729.89355521 180.02024209 729.84431207 C185.23846625 729.80014683 190.45672727 729.79640928 195.67510951 729.78813422 C205.52746365 729.76649546 215.37926523 729.70921424 225.23137754 729.63868779 C236.46006294 729.5600754 247.68877662 729.52186558 258.9176693 729.48681974 C281.98911356 729.41391958 305.06006958 729.29102798 328.1310879 729.13455451 C328.27151332 703.83847308 328.37718393 678.54245043 328.44196093 653.24605715 C328.47284317 641.49936544 328.51491584 629.75291651 328.58372462 618.00638068 C328.64369922 607.76303243 328.68227794 597.5198601 328.69561887 587.27634114 C328.70341208 581.85697451 328.72160982 576.43811095 328.76546824 571.01890624 C328.80649493 565.90770287 328.81869669 560.79720505 328.80973399 555.68585265 C328.81137127 553.81993509 328.82312589 551.95399149 328.84632075 550.08821738 C329.0268956 534.8002291 325.90455902 522.94347495 317.4435879 509.94705451 C317.01916407 509.28689337 316.59474024 508.62673224 316.15745509 507.94656622 C304.96967459 491.02576433 289.60415085 480.13384284 271.1310879 472.13455451 C269.94293986 471.61169363 268.75479182 471.08883276 267.53063929 470.55012763 C259.94329583 468.0821551 251.74048239 468.74344312 243.85154688 468.79397833 C241.99802631 468.79482545 240.14450474 468.79434782 238.29098475 468.79265082 C233.2791918 468.79179273 228.26761578 468.8093883 223.25587308 468.83037269 C218.01084388 468.8491706 212.76580929 468.85089239 207.5207516 468.85444891 C197.59744951 468.86376023 187.67424698 468.88836167 177.75098866 468.91849738 C166.44992073 468.95206981 155.14884797 468.96853455 143.84774256 468.98358369 C120.60880255 469.01491202 97.36995081 469.06765476 74.1310879 469.13455451 Z " fill="#F28B00" transform="translate(398.86891210079193,-0.13455450534820557)"/>
<path d="M0 0 C1.51788042 -0.00682998 1.51788042 -0.00682998 3.06642509 -0.01379794 C4.74219463 -0.01371636 4.74219463 -0.01371636 6.45181811 -0.01363313 C8.23302829 -0.01940845 8.23302829 -0.01940845 10.05022252 -0.02530044 C13.36676072 -0.03500578 16.68325172 -0.04020568 19.99979892 -0.04352394 C23.60050351 -0.04818504 27.20119255 -0.0585168 30.8018868 -0.06809402 C37.95306328 -0.08616886 45.10424004 -0.0987277 52.25543075 -0.10956253 C58.20338149 -0.11872479 64.15132401 -0.1302114 70.0992676 -0.1431936 C71.38533804 -0.14599733 71.38533804 -0.14599733 72.69738969 -0.1488577 C74.44593783 -0.15267479 76.19448597 -0.15649359 77.94303411 -0.16031409 C101.59684706 -0.21148563 125.25068012 -0.24721348 148.9045254 -0.27950799 C150.35754378 -0.28149401 150.35754378 -0.28149401 151.83991606 -0.28352015 C190.19243105 -0.3357221 228.54495667 -0.38009684 266.89749467 -0.41131412 C276.40244261 -0.41906684 285.9073903 -0.42711419 295.4123379 -0.43526971 C296.4626074 -0.43616366 297.5128769 -0.4370576 298.59497275 -0.43797864 C332.62199172 -0.46716305 366.64885797 -0.52813122 400.67579612 -0.60665356 C435.66089365 -0.68723973 470.6459088 -0.7384329 505.63109991 -0.75177241 C510.57645559 -0.75366537 515.52181108 -0.75587859 520.46716654 -0.7582792 C521.44043225 -0.75873951 522.41369795 -0.75919982 523.41645656 -0.75967407 C539.05854783 -0.76790274 554.70041946 -0.80671224 570.34242611 -0.85689501 C586.08027256 -0.90668674 601.81788287 -0.92327823 617.55580138 -0.90647109 C626.89655121 -0.89747655 636.2364705 -0.9133106 645.57708317 -0.96548659 C651.83002303 -0.99791005 658.08241118 -0.99712303 664.33537535 -0.97025598 C667.88996896 -0.95590336 671.44299273 -0.95509189 674.99742584 -0.99507292 C692.43519529 -1.15596171 705.72967219 0.76939642 721.1310879 9.13455451 C722.66868387 9.93682975 724.2068918 10.73793341 725.7457571 11.53777122 C734.14377868 15.93231364 741.7750464 21.14819261 749.1310879 27.13455451 C749.69569727 27.59233283 750.26030665 28.05011115 750.8420254 28.52176154 C767.83609756 42.39437885 780.83537494 58.48368664 791.0685879 77.88455451 C791.50485499 78.71068244 791.94112208 79.53681036 792.39060938 80.38797247 C798.03382507 91.4309838 801.89140242 101.28038416 801.77146685 113.7950846 C801.77993244 115.00591511 801.78839803 116.21674562 801.79712015 117.46426797 C801.81543483 120.80016892 801.81167417 124.13467031 801.79823112 127.47050191 C801.78910417 131.10911205 801.80902679 134.74758797 801.82511115 138.38615811 C801.84926625 144.75512233 801.85491487 151.12389223 801.84823954 157.49289572 C801.83833797 166.96435238 801.85696963 176.43560586 801.88094635 185.90702959 C801.92515971 203.81018402 801.93534384 221.71325999 801.9345945 239.61646158 C801.93414029 253.44559909 801.9420841 267.27470814 801.95592082 281.10383856 C801.95982063 285.08758968 801.96369273 289.07134083 801.96756339 293.05509198 C801.96852948 294.04552815 801.96949557 295.03596432 801.97049093 296.05641371 C801.99737715 323.90894939 802.01355932 351.76147485 802.00805438 379.6140238 C802.00785126 380.66373251 802.00764815 381.71344122 802.00743888 382.79495929 C802.00638381 388.11505443 802.00524092 393.43514955 802.00407146 398.75524467 C802.00384054 399.81179215 802.00360961 400.86833963 802.00337169 401.9569037 C802.00290372 404.09350014 802.0024298 406.23009658 802.00194993 408.36669301 C801.99475698 441.59962551 802.02519198 474.83234083 802.08470118 508.06521857 C802.15155225 545.42215325 802.1880378 582.77894806 802.18123603 620.13594639 C802.18061682 624.12221236 802.18010914 628.10847833 802.1796757 632.09474432 C802.17955 633.07622708 802.17942431 634.05770983 802.17929481 635.06893449 C802.17804402 649.86338227 802.20060619 664.65767153 802.23548472 679.45207465 C802.27516901 696.287346 802.28344966 713.12229615 802.25016628 729.95758849 C802.23249705 739.36945508 802.23944985 748.78052669 802.28258182 758.19231528 C802.30893842 764.49235419 802.30211301 770.79181443 802.26919505 777.09182048 C802.25139055 780.67309271 802.24708293 784.25282952 802.28343044 787.83399647 C802.44865098 805.26712831 800.55915695 818.74891778 792.1310879 834.13455451 C791.71326744 834.92081806 791.29544699 835.70708161 790.8649653 836.51717132 C773.26149648 869.58008008 744.08825933 894.03517216 709.1310879 907.13455451 C706.09485826 908.03839354 703.10565097 908.83833398 700.00218165 909.46658576 C699.07599024 909.79723029 699.07599024 909.79723029 698.1310879 910.13455451 C697.8010879 911.12455451 697.4710879 912.11455451 697.1310879 913.13455451 C636.0810879 913.13455451 575.0310879 913.13455451 512.1310879 913.13455451 C511.8010879 911.81455451 511.4710879 910.49455451 511.1310879 909.13455451 C454.7010879 909.13455451 398.2710879 909.13455451 340.1310879 909.13455451 C340.1310879 910.45455451 340.1310879 911.77455451 340.1310879 913.13455451 C226.9410879 913.13455451 113.7510879 913.13455451 -2.8689121 913.13455451 C-3.3639121 911.64955451 -3.3639121 911.64955451 -3.8689121 910.13455451 C-5.82646964 909.38555805 -5.82646964 909.38555805 -8.3064121 908.94705451 C-32.28333414 902.96839343 -53.3580448 888.04149963 -70.8689121 871.13455451 C-71.43231298 870.59451788 -71.99571386 870.05448126 -72.57618749 869.4980799 C-89.41527256 853.0597609 -99.98677813 832.0453527 -107.8689121 810.13455451 C-108.21039277 809.22263071 -108.55187345 808.31070691 -108.90370202 807.37114906 C-109.88135577 804.09282773 -110.11753427 801.52585791 -110.11500776 798.11759627 C-110.11898986 796.92826227 -110.12297195 795.73892828 -110.12707472 794.51355386 C-110.12124904 793.21589038 -110.11542335 791.91822691 -110.10942113 790.5812403 C-110.11029363 789.18187865 -110.11204541 787.78251732 -110.11459947 786.38315773 C-110.11906844 782.54293993 -110.11107551 778.70283382 -110.10104334 774.86263025 C-110.09240466 770.71954778 -110.0953293 766.57647158 -110.09684789 762.43338263 C-110.09789648 755.25689066 -110.09162262 748.08043506 -110.08037221 740.90395224 C-110.06411662 730.52797378 -110.05890915 720.15201289 -110.05639623 709.77602307 C-110.05201922 692.94158478 -110.03870996 676.10716587 -110.01979101 659.2727381 C-110.00143236 642.9198745 -109.98727578 626.56701617 -109.97877538 610.21414435 C-109.97798721 608.7021021 -109.97798721 608.7021021 -109.97718312 607.15951355 C-109.97457304 602.1025213 -109.97204562 597.04552902 -109.96955931 591.98853672 C-109.94882663 550.03719583 -109.91360094 508.08587628 -109.8689121 466.13455451 C-108.5489121 465.80455451 -107.2289121 465.47455451 -105.8689121 465.13455451 C-105.8689121 465.79455451 -105.8689121 466.45455451 -105.8689121 467.13455451 C-47.7889121 467.13455451 10.2910879 467.13455451 70.1310879 467.13455451 C70.1310879 466.47455451 70.1310879 465.81455451 70.1310879 465.13455451 C71.1210879 465.13455451 72.1110879 465.13455451 73.1310879 465.13455451 C74.40466104 469.03634107 74.26888478 472.95139194 74.25566065 477.00697577 C74.2570708 477.80568093 74.25848095 478.60438609 74.25993383 479.42729443 C74.26358729 482.10699449 74.26025001 484.78664163 74.25706446 487.46634161 C74.2584593 489.38670133 74.26035866 491.30706073 74.26272547 493.2274195 C74.2672238 497.36618989 74.26907859 501.50495036 74.26918757 505.64372313 C74.27032838 512.19640228 74.28317153 518.74902514 74.29875147 525.30168402 C74.30132433 526.40808027 74.30389718 527.51447652 74.306548 528.65439993 C74.31181477 530.91713906 74.31710025 533.17987814 74.32240403 535.44261718 C74.35748779 550.69711593 74.38407002 565.95154525 74.38157618 581.20608771 C74.37998445 591.49567391 74.39609897 601.78506844 74.43228281 612.07459325 C74.45069657 617.51607 74.46012592 622.95722695 74.44780695 628.39872801 C74.43631528 633.52478209 74.4482022 638.65026532 74.47744143 643.77624381 C74.4840465 645.64940546 74.48227664 647.52261996 74.47114336 649.39576018 C74.41100571 660.43703294 75.14612115 669.07549802 80.1310879 679.13455451 C80.63793305 680.19159535 80.63793305 680.19159535 81.1550175 681.26999056 C90.25333705 699.26020305 103.52594163 711.78182908 121.1310879 721.13455451 C121.72197404 721.46263114 122.31286018 721.79070777 122.92165196 722.12872612 C139.47881432 730.94795551 158.8536328 729.12105724 177.03270376 729.02030909 C182.05660828 729.0001905 187.08037914 729.02079451 192.10427821 729.03601325 C201.92140116 729.05933083 211.73812512 729.04536141 221.55522421 729.01807472 C233.00295357 728.98746481 244.45058738 728.99245658 255.8983461 728.99830213 C276.33001141 729.00735293 296.76148699 728.98161027 317.19309962 728.93728888 C336.99231959 728.89434739 356.79129989 728.88020681 376.59056056 728.89627326 C398.18770676 728.9137603 419.7847446 728.91546607 441.38188636 728.88968933 C443.68678835 728.88695638 445.99169035 728.88423004 448.29659235 728.88151038 C449.43045445 728.88014902 450.56431654 728.87878767 451.73253809 728.87738506 C459.70169382 728.86878307 467.67080435 728.87099664 475.63996089 728.87716162 C485.3558791 728.88422726 495.07157826 728.8729093 504.78744176 728.83865377 C509.7392855 728.82159928 514.69080242 728.81229355 519.64266741 728.82478964 C524.18388373 728.83599841 528.72443721 728.823766 533.26556137 728.79355994 C534.89982527 728.78664074 536.53415135 728.78793491 538.1683943 728.79872188 C552.27584104 728.88361438 564.24577465 725.81689376 576.7560879 719.00955451 C577.46064112 718.62831427 578.16519434 718.24707404 578.89109766 717.85428107 C595.9782155 708.25812167 607.434573 693.92764116 615.24328107 676.12688547 C616.02221345 674.37888009 616.86229303 672.65838988 617.71172965 670.94353831 C620.21885339 664.11581077 619.55429728 656.54036038 619.5322262 649.36659491 C619.53783415 647.64208496 619.54473771 645.91757882 619.55282217 644.1930787 C619.57115149 639.46280936 619.57077834 634.73269928 619.56723905 630.00240254 C619.56662638 624.89720754 619.58318958 619.7920634 619.59741175 614.68689215 C619.62232076 604.68724971 619.63057584 594.68766033 619.63224889 584.68798947 C619.6336751 576.55710315 619.63984304 568.42623432 619.64935076 560.29535353 C619.67576955 537.23217039 619.68960931 514.16902911 619.68735934 491.10583072 C619.68723947 489.86274365 619.6871196 488.61965658 619.6869961 487.33890021 C619.68687346 486.09429129 619.68675082 484.84968237 619.68662446 483.56735802 C619.68540562 463.40559853 619.71410061 443.24400727 619.7564112 423.08229642 C619.79953348 402.36996145 619.82021997 381.65770846 619.81762987 360.94532746 C619.81663491 349.32117103 619.82483409 337.69719088 619.85716403 326.07307494 C619.88452021 316.17391409 619.89097148 306.27500941 619.87063576 296.37582707 C619.86085985 291.32879473 619.86059698 286.28225345 619.8866955 281.23526824 C619.91038375 276.60659529 619.90590427 271.97880023 619.87984311 267.35014791 C619.87525823 265.68390916 619.88061055 264.01760388 619.89742333 262.35144364 C620.0787125 243.09607363 612.48314333 226.86709171 600.1310879 212.13455451 C599.56003321 211.40623419 598.98897852 210.67791388 598.40061915 209.92752326 C587.66882846 196.86173971 571.25099676 187.82162574 555.1310879 183.13455451 C551.67327276 182.83292603 551.67327276 182.83292603 547.94066775 182.87169898 C546.88392829 182.86554107 546.88392829 182.86554107 545.80584055 182.85925877 C543.44524229 182.84795014 541.08487858 182.85082928 538.72425807 182.85367072 C537.01456314 182.84850159 535.30487064 182.84247476 533.59518147 182.83566391 C528.89656046 182.81953807 524.19800059 182.81594556 519.4993552 182.81446898 C514.43160598 182.81076528 509.36388839 182.79566904 504.29615748 182.78219855 C493.2131517 182.75503863 482.13016041 182.74298288 471.04712689 182.73417723 C464.12379013 182.72864997 457.20045895 182.72017469 450.27712595 182.71116889 C431.10085427 182.68678201 411.92458705 182.66618525 392.74830019 182.6594187 C391.52100963 182.65897957 390.29371907 182.65854044 389.02923789 182.658088 C387.18393427 182.65743317 387.18393427 182.65743317 385.30135179 182.6567651 C382.808562 182.65587818 380.31577221 182.65498505 377.82298243 182.65408576 C376.58647666 182.6536429 375.34997089 182.65320004 374.07599525 182.65274376 C354.05381942 182.6448529 334.0317894 182.60996117 314.00966986 182.56336671 C293.44317115 182.51589272 272.87674552 182.49101278 252.31019115 182.48868287 C240.76700706 182.48685172 229.22401283 182.47540711 217.68088114 182.43904364 C207.84831688 182.4081778 198.01600113 182.39803795 188.18339761 182.41451985 C183.17067683 182.42231118 178.158456 182.42058167 173.14579737 182.39240515 C168.54722463 182.36679389 163.94952403 182.36943616 159.35095136 182.39358658 C157.69674356 182.39747791 156.04247256 182.39144905 154.3883533 182.37389785 C133.28786002 182.16437527 115.72927316 190.99463031 100.1310879 205.13455451 C88.09952838 217.00754322 75.04220477 235.38523938 74.66438258 252.88449347 C74.66112971 253.68373236 74.65787684 254.48297125 74.6545254 255.30642951 C74.63115611 256.57368872 74.63115611 256.57368872 74.60731471 257.86654913 C74.56018357 260.53920924 74.53215595 263.21161341 74.5060879 265.88455451 C74.46949674 268.57159732 74.4288388 271.25849824 74.38343775 273.94540656 C74.35638366 275.61031983 74.33495856 277.27533669 74.31990016 278.94040167 C74.27150024 282.49976655 74.08752352 285.70839381 73.1310879 289.13455451 C72.61803473 288.97281776 72.10498156 288.81108101 71.57638133 288.64444315 C68.35366084 287.97244667 65.29978274 287.99285025 62.00639307 287.97633612 C60.92933403 287.96892916 60.92933403 287.96892916 59.83051622 287.96137255 C57.42452419 287.94601458 55.01855882 287.93764155 52.61253321 287.92923224 C50.88782482 287.91965238 49.16311876 287.90964223 47.43841517 287.89923346 C42.75493209 287.87219004 38.07143894 287.85117741 33.38792098 287.83123147 C28.49383993 287.80936848 23.59978991 287.78198132 18.7057339 287.75517523 C9.43752544 287.70525261 0.16929975 287.66031217 -9.0989424 287.61715287 C-19.65024545 287.56777683 -30.20151738 287.51286005 -40.75279033 287.45747328 C-62.45813526 287.34365983 -84.1635099 287.23681938 -105.8689121 287.13455451 C-105.8689121 287.79455451 -105.8689121 288.45455451 -105.8689121 289.13455451 C-107.1889121 288.80455451 -108.5089121 288.47455451 -109.8689121 288.13455451 C-110.05656769 265.30635518 -110.19724393 242.47828473 -110.28340948 219.64946806 C-110.32449775 209.04739067 -110.38042172 198.44579509 -110.47242773 187.84402716 C-110.55266852 178.5934703 -110.60389589 169.34326268 -110.62162006 160.09236741 C-110.63196575 155.20296784 -110.65592825 150.31456658 -110.71475255 145.42549002 C-111.16537668 106.47491385 -111.16537668 106.47491385 -101.8689121 88.13455451 C-101.07856321 86.39018858 -101.07856321 86.39018858 -100.27224767 84.61058295 C-99.10868517 82.05109501 -97.84747118 79.59781863 -96.4939121 77.13455451 C-96.03041357 76.27338019 -95.56691503 75.41220587 -95.08937109 74.52493536 C-90.9237572 66.94123654 -86.27273772 59.88734396 -80.8689121 53.13455451 C-80.39840429 52.54593634 -79.92789648 51.95731818 -79.44313085 51.3508631 C-62.47221116 30.37789606 -29.11463517 0.06184289 0 0 Z " fill="#0097D2" transform="translate(398.86891210079193,-0.13455450534820557)"/>
<path d="M0 0 C0.69843631 -0.00155999 1.39687263 -0.00311998 2.11647367 -0.00472724 C4.47419518 -0.00873951 6.83185313 -0.00554674 9.1895752 -0.00241089 C10.87280821 -0.00376483 12.55604092 -0.00554472 14.23927307 -0.00772095 C18.82385287 -0.01229614 23.40841028 -0.01050537 27.99299049 -0.00734186 C32.77983284 -0.0048187 37.56667321 -0.00715567 42.35351562 -0.00872803 C50.39376166 -0.01054985 58.43399852 -0.00814308 66.47424316 -0.00338745 C75.7838138 0.00205519 85.09336254 0.00029255 94.40293264 -0.00521386 C102.38082362 -0.00974462 110.35870798 -0.01039572 118.33659983 -0.00777519 C123.10806544 -0.00621221 127.87952075 -0.00601921 132.65098572 -0.00931168 C137.13573169 -0.01218986 141.62044929 -0.01021568 146.10519218 -0.00441742 C147.75603119 -0.00308954 149.40687257 -0.00348441 151.05771065 -0.00568008 C153.30160876 -0.00839049 155.5454145 -0.00501184 157.78930664 0 C159.67749493 0.00056554 159.67749493 0.00056554 161.60382843 0.0011425 C164.39465332 0.12698364 164.39465332 0.12698364 165.39465332 1.12698364 C165.48963978 3.56094383 165.52023749 5.96641317 165.50817871 8.40066528 C165.50832474 9.16158981 165.50847076 9.92251434 165.50862122 10.70649719 C165.50792194 13.23340663 165.50012887 15.76024326 165.49230957 18.28713989 C165.49044544 20.03448954 165.48902152 21.78183971 165.48802185 23.52919006 C165.48419625 28.13730299 165.47436561 32.74538459 165.46331787 37.35348511 C165.45310466 42.05206885 165.44852442 46.75065763 165.44348145 51.44924927 C165.43274337 60.67517452 165.41566645 69.90107648 165.39465332 79.12698364 C161.02014706 80.15839217 159.12339279 79.93345544 155.04699707 77.94338989 C153.98658203 77.4366272 152.92616699 76.9298645 151.83361816 76.40774536 C150.67813477 75.84071899 149.52265137 75.27369263 148.33215332 74.68948364 C145.78465176 73.46772873 143.23206594 72.25673666 140.67980957 71.04495239 C140.00921509 70.72504333 139.33862061 70.40513428 138.64770508 70.07553101 C130.92169579 66.40068714 123.09720223 62.9536441 115.26965332 59.50198364 C101.94618761 53.61291696 88.66074342 47.6441253 75.39465332 41.62698364 C62.81484943 35.92333268 50.22508602 30.24392933 37.60232544 24.63589478 C35.36542117 23.64176856 33.1293961 22.64568464 30.89343262 21.64944458 C24.16338765 18.6554099 17.42097767 15.69962211 10.63684082 12.83010864 C9.4574292 12.32672974 8.27801758 11.82335083 7.06286621 11.30471802 C4.89306494 10.38154611 2.71803781 9.47052077 0.5369873 8.57424927 C-0.8695813 7.97386841 -0.8695813 7.97386841 -2.30456543 7.36135864 C-3.11756104 7.023302 -3.93055664 6.68524536 -4.76818848 6.33694458 C-6.60534668 5.12698364 -6.60534668 5.12698364 -7.43664551 3.04983521 C-7.49231689 2.41529419 -7.54798828 1.78075317 -7.60534668 1.12698364 C-5.72622154 -0.7521415 -2.4996885 0.00074869 0 0 Z " fill="#C86D00" transform="translate(745.6053466796875,907.8730163574219)"/>
<path d="M0 0 C0.33 1.32 0.66 2.64 1 4 C-19.42110185 12.90011847 -39.90251999 21.65249709 -60.4095459 30.35249329 C-72.27836742 35.38912179 -84.1386279 40.44586042 -96 45.5 C-114.29880786 53.29636336 -132.60071801 61.0853616 -150.90820312 68.86132812 C-151.68160538 69.18985779 -152.45500763 69.51838745 -153.25184631 69.85687256 C-154.66345043 70.45647168 -156.07509756 71.05596956 -157.48680115 71.65533447 C-161.20844308 73.22281116 -161.20844308 73.22281116 -164.88113403 74.90002441 C-168.42980342 76.56396168 -170.2761938 77.1976601 -174 76 C-174.02312465 66.36887288 -174.04091571 56.73775526 -174.05181217 47.10660648 C-174.05704074 42.63494451 -174.06413789 38.16330147 -174.07543945 33.69165039 C-174.08626929 29.37988027 -174.09227704 25.06812841 -174.09487724 20.75634575 C-174.09673132 19.10763702 -174.1003516 17.45892934 -174.10573006 15.81022835 C-174.11294178 13.50896128 -174.11399089 11.2077706 -174.11352539 8.90649414 C-174.115746 7.5941127 -174.11796661 6.28173126 -174.12025452 4.92958069 C-174 2 -174 2 -173 1 C-170.1018621 0.8743344 -167.22648777 0.81382493 -164.3269043 0.79467773 C-162.95247461 0.77983259 -162.95247461 0.77983259 -161.55027866 0.76468754 C-158.47495232 0.73279763 -155.39961191 0.70813375 -152.32421875 0.68359375 C-150.15451723 0.66291442 -147.98481916 0.64187072 -145.81512451 0.6204834 C-139.98002179 0.56448155 -134.14488019 0.51520472 -128.30970383 0.46757126 C-124.70434882 0.43763988 -121.09901567 0.40581021 -117.49368286 0.37332153 C-78.32851162 0.02132205 -39.16653603 -0.14056464 0 0 Z " fill="#0077A9" transform="translate(463,469)"/>
</svg>
