<?xml version="1.0" standalone="no"?>
<!DOCTYPE svg PUBLIC "-//W3C//DTD SVG 20010904//EN"
 "http://www.w3.org/TR/2001/REC-SVG-20010904/DTD/svg10.dtd">
<svg version="1.0" xmlns="http://www.w3.org/2000/svg"
 width="200.000000pt" height="200.000000pt" viewBox="0 0 200.000000 200.000000"
 preserveAspectRatio="xMidYMid meet">

<g transform="translate(0.000000,200.000000) scale(0.100000,-0.100000)"
fill="#000000" stroke="none">
<path d="M930 1565 l0 -235 70 0 70 0 0 235 0 235 -70 0 -70 0 0 -235z"/>
<path d="M720 1622 c-192 -82 -340 -245 -408 -450 -23 -67 -26 -94 -26 -212 0
-122 2 -143 27 -215 77 -222 245 -389 464 -463 69 -23 94 -26 218 -27 157 0
217 14 350 83 108 56 229 182 287 299 64 127 82 215 75 362 -4 89 -11 133 -31
189 -63 181 -192 328 -361 411 -125 62 -119 64 -123 -55 l-3 -101 67 -39 c159
-93 254 -258 254 -444 0 -222 -135 -411 -349 -486 -93 -33 -239 -33 -332 0
-364 128 -468 583 -195 851 34 33 87 74 119 90 l57 30 0 103 c0 75 -3 102 -12
102 -7 0 -42 -13 -78 -28z"/>
<path d="M1173 1338 c-108 -350 -178 -566 -182 -562 -3 3 -28 69 -56 147 l-50
142 -155 3 -155 3 45 -46 44 -45 77 0 77 0 26 -72 c15 -40 55 -154 90 -253 36
-99 67 -173 70 -165 3 8 46 148 97 310 50 162 94 301 98 307 4 7 19 -23 35
-67 l28 -80 42 0 c35 0 49 7 91 45 l50 44 -60 1 -60 0 -64 175 c-35 96 -65
175 -66 175 -2 0 -12 -28 -22 -62z"/>
</g>
</svg>
