<?xml version="1.0" encoding="UTF-8"?>
<svg version="1.1" xmlns="http://www.w3.org/2000/svg" width="256" height="256">
<path d="M0 0 C0.91427765 0.00609283 1.8285553 0.01218567 2.77053833 0.01846313 C16.30576834 0.12416208 29.2697774 0.79046209 42.0625 5.625 C43.6403125 6.21861328 43.6403125 6.21861328 45.25 6.82421875 C47.93590369 7.97259518 50.47992081 9.26186422 53.0625 10.625 C54.17753906 11.14964844 55.29257813 11.67429687 56.44140625 12.21484375 C64.27825715 15.91034724 71.23696134 20.26425652 78.0625 25.625 C79.02027344 26.35589844 79.97804687 27.08679688 80.96484375 27.83984375 C86.17512038 31.88091384 86.17512038 31.88091384 88.0625 33.625 C88.0625 34.285 88.0625 34.945 88.0625 35.625 C88.701875 35.893125 89.34125 36.16125 90 36.4375 C92.0625 37.625 92.0625 37.625 93.0625 40.625 C93.64773437 40.90214844 94.23296875 41.17929687 94.8359375 41.46484375 C108.44226969 48.55445894 118.5020291 73.81290517 123.0625 87.625 C123.30371582 88.29692383 123.54493164 88.96884766 123.79345703 89.66113281 C131.93989736 113.03321111 131.98405837 146.49462841 123.0625 169.625 C122.78954102 170.37555664 122.51658203 171.12611328 122.23535156 171.89941406 C119.02848849 180.65308498 115.26449008 188.85688077 110.0625 196.625 C109.44890625 197.5634375 108.8353125 198.501875 108.203125 199.46875 C105.8956438 202.87102156 103.48792192 206.16627433 101 209.4375 C100.56623047 210.02208984 100.13246094 210.60667969 99.68554688 211.20898438 C96.41244905 215.50835032 96.41244905 215.50835032 93.0625 216.625 C92.7325 217.285 92.4025 217.945 92.0625 218.625 C91.7325 219.285 91.4025 219.945 91.0625 220.625 C90.0725 220.955 89.0825 221.285 88.0625 221.625 C87.39355705 222.95719276 86.72724613 224.29070813 86.0625 225.625 C76.69799672 234.66658937 64.74324724 241.09598717 53.0625 246.625 C52.29550781 247.03363281 51.52851563 247.44226563 50.73828125 247.86328125 C47.8960119 249.30449475 45.04051777 250.48768417 42.0625 251.625 C41.4535791 251.85783691 40.8446582 252.09067383 40.21728516 252.33056641 C15.82562262 261.06938162 -19.09648915 260.54588141 -42.9375 250.625 C-44.34003974 250.11057366 -45.74498979 249.60266829 -47.15234375 249.1015625 C-54.59521184 246.38405437 -61.30766356 242.94034215 -67.9375 238.625 C-68.84113281 238.07972656 -69.74476562 237.53445312 -70.67578125 236.97265625 C-76.93846057 233.15268173 -82.91298828 229.02169777 -87.9375 223.625 C-87.9375 222.965 -87.9375 222.305 -87.9375 221.625 C-88.576875 221.356875 -89.21625 221.08875 -89.875 220.8125 C-91.9375 219.625 -91.9375 219.625 -92.9375 216.625 C-94.26969276 215.95605705 -95.60320813 215.28974613 -96.9375 214.625 C-103.45536924 207.87434971 -108.2185025 199.6726667 -112.9375 191.625 C-113.42347656 190.81933594 -113.90945312 190.01367188 -114.41015625 189.18359375 C-118.25208335 182.61589574 -120.78879387 175.67214326 -122.86279297 168.36499023 C-123.53273058 166.03360125 -124.23565537 163.71113266 -124.98803711 161.4050293 C-128.07961622 151.31109977 -128.58696623 141.74061435 -128.51391602 131.22045898 C-128.50010041 128.45758075 -128.53419309 125.69813913 -128.57226562 122.93554688 C-128.67080858 100.24518034 -122.23558406 79.67126351 -109.9375 60.625 C-109.12152344 59.27148438 -109.12152344 59.27148438 -108.2890625 57.890625 C-104.46557552 51.62771872 -100.33582429 45.65102607 -94.9375 40.625 C-94.2775 40.625 -93.6175 40.625 -92.9375 40.625 C-92.669375 39.985625 -92.40125 39.34625 -92.125 38.6875 C-90.9375 36.625 -90.9375 36.625 -87.9375 35.625 C-87.26855705 34.29280724 -86.60224613 32.95929187 -85.9375 31.625 C-76.05895817 22.08709754 -63.29258989 15.36313798 -50.9375 9.625 C-49.81408203 9.08939453 -49.81408203 9.08939453 -48.66796875 8.54296875 C-33.08229848 1.69182472 -16.84320225 -0.24686637 0 0 Z " fill="#63A7EB" transform="translate(127.9375,-0.625)"/>
<path d="M0 0 C-0.31541828 4.41585599 -0.64904017 7.68873604 -2.9375 11.5 C-12.78519444 30.22852434 -8.65642951 63.81336409 -3.015625 83.421875 C-2.09248682 85.99245978 -1.06620043 88.48650742 0 91 C0.75889288 93.33477572 1.48396883 95.67654238 2.19140625 98.02734375 C3.19585329 100.47780633 4.16518855 102.06830127 6 104 C8.71534653 104.61847083 8.71534653 104.61847083 11.84838867 104.54589844 C13.0494072 104.56561707 14.25042572 104.58533569 15.48783875 104.60565186 C17.4332531 104.60749481 17.4332531 104.60749481 19.41796875 104.609375 C20.75891623 104.62435538 22.09984524 104.64108224 23.44075012 104.65948486 C26.9670801 104.70318794 30.49316121 104.72316354 34.01971436 104.73822021 C37.61941259 104.75778104 41.21884162 104.79975202 44.81835938 104.83984375 C51.87880377 104.91517721 58.93922877 104.96544943 66 105 C64.9308895 107.20643791 63.85435495 109.40872799 62.7734375 111.609375 C62.47622803 112.22474121 62.17901855 112.84010742 61.87280273 113.47412109 C53.00664758 131.44317786 37.21585439 147.05158478 20 157 C19.43651855 157.32887207 18.87303711 157.65774414 18.29248047 157.99658203 C4.59737394 165.91435631 -9.38481328 170.38833719 -25 173 C-25.76183594 173.13277344 -26.52367187 173.26554688 -27.30859375 173.40234375 C-57.33979313 177.67578928 -86.69333124 168.79337815 -111.03125 151.29296875 C-115.59471408 147.76829321 -119.83339024 143.98126235 -124 140 C-124.60070312 139.46246094 -125.20140625 138.92492187 -125.8203125 138.37109375 C-129.69879047 134.77222698 -132.87823799 130.69578585 -136 126.4375 C-136.39123047 125.91454346 -136.78246094 125.39158691 -137.18554688 124.8527832 C-141.58138006 118.68400006 -144.71042907 111.79777509 -148 105 C-147.31761765 104.99413376 -146.63523529 104.98826752 -145.93217468 104.98222351 C-138.84326015 104.9183933 -131.75480398 104.83400059 -124.66625977 104.73754883 C-122.01918574 104.70425128 -119.37203989 104.67623458 -116.72485352 104.65356445 C-112.9243299 104.62010789 -109.12446745 104.56779514 -105.32421875 104.51171875 C-104.13664474 104.50532883 -102.94907074 104.4989389 -101.72550964 104.49235535 C-100.62459488 104.47256119 -99.52368011 104.45276703 -98.3894043 104.43237305 C-97.41899704 104.42126999 -96.44858978 104.41016693 -95.44877625 104.39872742 C-92.58596068 103.93258313 -91.70558313 103.30617412 -90 101 C-89.13311958 98.26133977 -89.13311958 98.26133977 -88.60546875 95.109375 C-88.37553223 93.93213867 -88.1455957 92.75490234 -87.90869141 91.54199219 C-87.55170166 89.66495605 -87.55170166 89.66495605 -87.1875 87.75 C-85.05047309 77.21798576 -82.67246494 67.71647528 -78 58 C-77.3864039 56.65769596 -76.77313761 55.31524113 -76.16015625 53.97265625 C-68.75104932 38.11992119 -57.31891782 22.12616381 -42 13 C-41.01 13 -40.02 13 -39 13 C-39 12.34 -39 11.68 -39 11 C-27.16058546 4.12425518 -13.88441029 -0.55626644 0 0 Z " fill="#459AD6" transform="translate(169,72)"/>
<path d="M0 0 C0.91427765 0.00609283 1.8285553 0.01218567 2.77053833 0.01846313 C16.30576834 0.12416208 29.2697774 0.79046209 42.0625 5.625 C43.6403125 6.21861328 43.6403125 6.21861328 45.25 6.82421875 C47.93590369 7.97259518 50.47992081 9.26186422 53.0625 10.625 C54.17753906 11.14964844 55.29257813 11.67429687 56.44140625 12.21484375 C64.27825715 15.91034724 71.23696134 20.26425652 78.0625 25.625 C79.02027344 26.35589844 79.97804687 27.08679688 80.96484375 27.83984375 C86.17512038 31.88091384 86.17512038 31.88091384 88.0625 33.625 C88.0625 34.285 88.0625 34.945 88.0625 35.625 C88.701875 35.893125 89.34125 36.16125 90 36.4375 C92.0625 37.625 92.0625 37.625 93.0625 40.625 C93.64773437 40.90214844 94.23296875 41.17929687 94.8359375 41.46484375 C108.44226969 48.55445894 118.5020291 73.81290517 123.0625 87.625 C123.30371582 88.29692383 123.54493164 88.96884766 123.79345703 89.66113281 C131.93989736 113.03321111 131.98405837 146.49462841 123.0625 169.625 C122.78954102 170.37555664 122.51658203 171.12611328 122.23535156 171.89941406 C119.02848849 180.65308498 115.26449008 188.85688077 110.0625 196.625 C109.44890625 197.5634375 108.8353125 198.501875 108.203125 199.46875 C105.8956438 202.87102156 103.48792192 206.16627433 101 209.4375 C100.56623047 210.02208984 100.13246094 210.60667969 99.68554688 211.20898438 C96.41244905 215.50835032 96.41244905 215.50835032 93.0625 216.625 C92.7325 217.285 92.4025 217.945 92.0625 218.625 C91.7325 219.285 91.4025 219.945 91.0625 220.625 C90.0725 220.955 89.0825 221.285 88.0625 221.625 C87.39355705 222.95719276 86.72724613 224.29070813 86.0625 225.625 C76.69799672 234.66658937 64.74324724 241.09598717 53.0625 246.625 C52.29550781 247.03363281 51.52851563 247.44226563 50.73828125 247.86328125 C47.8960119 249.30449475 45.04051777 250.48768417 42.0625 251.625 C41.4535791 251.85783691 40.8446582 252.09067383 40.21728516 252.33056641 C15.82562262 261.06938162 -19.09648915 260.54588141 -42.9375 250.625 C-44.34003974 250.11057366 -45.74498979 249.60266829 -47.15234375 249.1015625 C-54.59521184 246.38405437 -61.30766356 242.94034215 -67.9375 238.625 C-68.84113281 238.07972656 -69.74476562 237.53445312 -70.67578125 236.97265625 C-76.93846057 233.15268173 -82.91298828 229.02169777 -87.9375 223.625 C-87.9375 222.965 -87.9375 222.305 -87.9375 221.625 C-88.576875 221.356875 -89.21625 221.08875 -89.875 220.8125 C-91.9375 219.625 -91.9375 219.625 -92.9375 216.625 C-94.26969276 215.95605705 -95.60320813 215.28974613 -96.9375 214.625 C-103.45536924 207.87434971 -108.2185025 199.6726667 -112.9375 191.625 C-113.42347656 190.81933594 -113.90945312 190.01367188 -114.41015625 189.18359375 C-118.25208335 182.61589574 -120.78879387 175.67214326 -122.86279297 168.36499023 C-123.53273058 166.03360125 -124.23565537 163.71113266 -124.98803711 161.4050293 C-128.07961622 151.31109977 -128.58696623 141.74061435 -128.51391602 131.22045898 C-128.50010041 128.45758075 -128.53419309 125.69813913 -128.57226562 122.93554688 C-128.67080858 100.24518034 -122.23558406 79.67126351 -109.9375 60.625 C-109.12152344 59.27148438 -109.12152344 59.27148438 -108.2890625 57.890625 C-104.46557552 51.62771872 -100.33582429 45.65102607 -94.9375 40.625 C-94.2775 40.625 -93.6175 40.625 -92.9375 40.625 C-92.669375 39.985625 -92.40125 39.34625 -92.125 38.6875 C-90.9375 36.625 -90.9375 36.625 -87.9375 35.625 C-87.26855705 34.29280724 -86.60224613 32.95929187 -85.9375 31.625 C-76.05895817 22.08709754 -63.29258989 15.36313798 -50.9375 9.625 C-49.81408203 9.08939453 -49.81408203 9.08939453 -48.66796875 8.54296875 C-33.08229848 1.69182472 -16.84320225 -0.24686637 0 0 Z M-83.9375 45.625 C-84.90236328 46.49705078 -84.90236328 46.49705078 -85.88671875 47.38671875 C-105.4448166 65.48593751 -117.01933369 94.39793671 -118.21875 120.66015625 C-118.64041236 136.54277165 -116.50451046 151.40163181 -111.9375 166.625 C-93.7875 166.625 -75.6375 166.625 -56.9375 166.625 C-55.9475 160.355 -54.9575 154.085 -53.9375 147.625 C-52.72307566 143.45547644 -51.5213191 139.62442808 -49.9375 135.625 C-49.57914062 134.67882812 -49.22078125 133.73265625 -48.8515625 132.7578125 C-37.23796835 103.37308099 -17.72333564 80.16503159 11.42504883 67.26708984 C16.48493992 65.12286037 21.29976336 63.61586709 26.77734375 62.921875 C29.33234942 62.65429048 29.33234942 62.65429048 32.75 61.5 C36.92731238 60.38780153 41.14350521 60.44224003 45.4375 60.4375 C46.51004028 60.4362915 46.51004028 60.4362915 47.60424805 60.43505859 C52.79418883 60.49084441 52.79418883 60.49084441 55.0625 61.625 C55.76750529 66.0900335 54.71579422 68.51766149 52.375 72.1875 C39.830498 91.93841804 39.20938713 117.87439248 43.6875 140.3125 C43.82752441 141.0149585 43.96754883 141.71741699 44.11181641 142.44116211 C46.01978097 150.75117527 49.21763714 158.56455524 52.0625 166.625 C71.8625 166.625 91.6625 166.625 112.0625 166.625 C116.41877598 151.08431382 116.41877598 151.08431382 118.0625 135.625 C118.11277344 134.44292969 118.16304687 133.26085937 118.21484375 132.04296875 C119.0031347 100.41673586 107.86500452 71.25373777 86.40625 48.03125 C73.28970739 34.56493293 56.99692366 22.10555895 38.51171875 17.36328125 C36.0625 16.625 36.0625 16.625 32.69921875 15.1171875 C-5.96469049 -0.74705883 -55.83026619 18.19200268 -83.9375 45.625 Z M2.0625 83.625 C2.0625 84.285 2.0625 84.945 2.0625 85.625 C1.48628906 85.73070313 0.91007812 85.83640625 0.31640625 85.9453125 C-13.46880568 90.10237814 -25.45856325 107.99293335 -32.27734375 119.98046875 C-38.76512667 132.63776599 -43.7653663 146.07044148 -46.2890625 160.0546875 C-46.92696352 163.56698587 -47.67101323 167.02810492 -48.5 170.5 C-48.72816406 171.46679688 -48.95632812 172.43359375 -49.19140625 173.4296875 C-49.9375 175.625 -49.9375 175.625 -51.9375 176.625 C-53.69340877 176.74431048 -55.45364607 176.80219868 -57.21337891 176.83032227 C-58.3143692 176.85026749 -59.4153595 176.87021271 -60.54971313 176.89076233 C-62.33881607 176.91583107 -62.33881607 176.91583107 -64.1640625 176.94140625 C-65.38201508 176.96218735 -66.59996765 176.98296844 -67.85482788 177.00437927 C-71.7573262 177.06992584 -75.6598935 177.12878355 -79.5625 177.1875 C-82.20313222 177.23068035 -84.84375739 177.27429448 -87.484375 177.31835938 C-93.96867643 177.42561244 -100.45304694 177.52736929 -106.9375 177.625 C-105.85665943 179.84115824 -104.76990985 182.05408661 -103.6796875 184.265625 C-103.22758911 185.1949585 -103.22758911 185.1949585 -102.76635742 186.14306641 C-97.78169067 196.21831579 -90.59143348 204.47862595 -82.9375 212.625 C-82.1640625 213.51251953 -82.1640625 213.51251953 -81.375 214.41796875 C-63.82371345 233.66039489 -34.35154829 245.30861385 -8.86181641 246.74169922 C15.54086988 247.85317439 37.75073989 242.26592769 59.0625 230.625 C59.99964844 230.1196875 60.93679687 229.614375 61.90234375 229.09375 C74.85558789 221.72697608 85.77316032 211.28965875 94.6875 199.4375 C95.11869141 198.87466309 95.54988281 198.31182617 95.99414062 197.73193359 C100.53844056 191.50322685 103.72921878 184.54801533 107.0625 177.625 C106.32191849 177.63023682 105.58133698 177.63547363 104.8183136 177.64086914 C97.82939394 177.68320086 90.84138418 177.68716982 83.85247517 177.64834595 C80.2593711 177.62973118 76.66751635 177.62580683 73.07446289 177.65576172 C69.60484738 177.68414193 66.13731551 177.6735325 62.66780663 177.63619995 C60.7041485 177.62515949 58.74039735 177.65420705 56.77693176 177.68383789 C48.07740784 177.54317762 48.07740784 177.54317762 45.15589905 174.90011597 C43.82746325 172.83514041 42.89406561 170.93082755 42.0625 168.625 C41.63582031 167.47257812 41.20914063 166.32015625 40.76953125 165.1328125 C40.47433594 164.01648438 40.17914063 162.90015625 39.875 161.75 C39.39353516 159.93048828 39.39353516 159.93048828 38.90234375 158.07421875 C37.81411463 153.60488705 36.85485153 149.15524623 36.0625 144.625 C35.80799072 143.21033447 35.80799072 143.21033447 35.54833984 141.76708984 C34.22332818 133.89467172 33.74567218 126.288631 33.8125 118.3125 C33.81926758 117.13840576 33.82603516 115.96431152 33.83300781 114.75463867 C34.11686263 90.80026223 34.11686263 90.80026223 39.17578125 82.375 C40.75372036 79.26082942 40.81629866 76.07181876 41.0625 72.625 C27.17808971 72.06873356 13.90191454 76.74925518 2.0625 83.625 Z " fill="#F1F3F5" transform="translate(127.9375,-0.625)"/>
<path d="M0 0 C-0.375 2.4375 -0.375 2.4375 -1 5 C-1.99 5.495 -1.99 5.495 -3 6 C-2.67 4.68 -2.34 3.36 -2 2 C-3.98 2 -5.96 2 -8 2 C-4.77208445 -0.1519437 -3.71599191 -0.20086443 0 0 Z " fill="#B8D4F3" transform="translate(171,70)"/>
</svg>
